G75*
%MOIN*%
%OFA0B0*%
%FSLAX25Y25*%
%IPPOS*%
%LPD*%
%AMOC8*
5,1,8,0,0,1.08239X$1,22.5*
%
%ADD10C,0.00000*%
%ADD11C,0.00600*%
%ADD12C,0.00500*%
%ADD13C,0.00300*%
%ADD14C,0.00200*%
%ADD15C,0.00394*%
%ADD16C,0.02000*%
%ADD17C,0.01969*%
%ADD18C,0.00197*%
%ADD19C,0.00400*%
D10*
X0026549Y0013876D02*
X0026549Y0027424D01*
X0016202Y0027424D01*
X0016202Y0070731D01*
X0026549Y0070731D01*
X0026549Y0084743D01*
X0160407Y0084743D01*
X0160407Y0013876D01*
X0026549Y0013876D01*
X0110047Y0019400D02*
X0110049Y0019508D01*
X0110055Y0019617D01*
X0110065Y0019725D01*
X0110079Y0019832D01*
X0110097Y0019939D01*
X0110118Y0020046D01*
X0110144Y0020151D01*
X0110174Y0020256D01*
X0110207Y0020359D01*
X0110244Y0020461D01*
X0110285Y0020561D01*
X0110329Y0020660D01*
X0110378Y0020758D01*
X0110429Y0020853D01*
X0110484Y0020946D01*
X0110543Y0021038D01*
X0110605Y0021127D01*
X0110670Y0021214D01*
X0110738Y0021298D01*
X0110809Y0021380D01*
X0110883Y0021459D01*
X0110960Y0021535D01*
X0111040Y0021609D01*
X0111123Y0021679D01*
X0111208Y0021747D01*
X0111295Y0021811D01*
X0111385Y0021872D01*
X0111477Y0021930D01*
X0111571Y0021984D01*
X0111667Y0022035D01*
X0111764Y0022082D01*
X0111864Y0022126D01*
X0111965Y0022166D01*
X0112067Y0022202D01*
X0112170Y0022234D01*
X0112275Y0022263D01*
X0112381Y0022287D01*
X0112487Y0022308D01*
X0112594Y0022325D01*
X0112702Y0022338D01*
X0112810Y0022347D01*
X0112919Y0022352D01*
X0113027Y0022353D01*
X0113136Y0022350D01*
X0113244Y0022343D01*
X0113352Y0022332D01*
X0113459Y0022317D01*
X0113566Y0022298D01*
X0113672Y0022275D01*
X0113777Y0022249D01*
X0113882Y0022218D01*
X0113984Y0022184D01*
X0114086Y0022146D01*
X0114186Y0022104D01*
X0114285Y0022059D01*
X0114382Y0022010D01*
X0114476Y0021957D01*
X0114569Y0021901D01*
X0114660Y0021842D01*
X0114749Y0021779D01*
X0114835Y0021714D01*
X0114919Y0021645D01*
X0115000Y0021573D01*
X0115078Y0021498D01*
X0115154Y0021420D01*
X0115227Y0021339D01*
X0115297Y0021256D01*
X0115363Y0021171D01*
X0115427Y0021083D01*
X0115487Y0020992D01*
X0115544Y0020900D01*
X0115597Y0020805D01*
X0115647Y0020709D01*
X0115693Y0020611D01*
X0115736Y0020511D01*
X0115775Y0020410D01*
X0115810Y0020307D01*
X0115842Y0020204D01*
X0115869Y0020099D01*
X0115893Y0019993D01*
X0115913Y0019886D01*
X0115929Y0019779D01*
X0115941Y0019671D01*
X0115949Y0019563D01*
X0115953Y0019454D01*
X0115953Y0019346D01*
X0115949Y0019237D01*
X0115941Y0019129D01*
X0115929Y0019021D01*
X0115913Y0018914D01*
X0115893Y0018807D01*
X0115869Y0018701D01*
X0115842Y0018596D01*
X0115810Y0018493D01*
X0115775Y0018390D01*
X0115736Y0018289D01*
X0115693Y0018189D01*
X0115647Y0018091D01*
X0115597Y0017995D01*
X0115544Y0017900D01*
X0115487Y0017808D01*
X0115427Y0017717D01*
X0115363Y0017629D01*
X0115297Y0017544D01*
X0115227Y0017461D01*
X0115154Y0017380D01*
X0115078Y0017302D01*
X0115000Y0017227D01*
X0114919Y0017155D01*
X0114835Y0017086D01*
X0114749Y0017021D01*
X0114660Y0016958D01*
X0114569Y0016899D01*
X0114477Y0016843D01*
X0114382Y0016790D01*
X0114285Y0016741D01*
X0114186Y0016696D01*
X0114086Y0016654D01*
X0113984Y0016616D01*
X0113882Y0016582D01*
X0113777Y0016551D01*
X0113672Y0016525D01*
X0113566Y0016502D01*
X0113459Y0016483D01*
X0113352Y0016468D01*
X0113244Y0016457D01*
X0113136Y0016450D01*
X0113027Y0016447D01*
X0112919Y0016448D01*
X0112810Y0016453D01*
X0112702Y0016462D01*
X0112594Y0016475D01*
X0112487Y0016492D01*
X0112381Y0016513D01*
X0112275Y0016537D01*
X0112170Y0016566D01*
X0112067Y0016598D01*
X0111965Y0016634D01*
X0111864Y0016674D01*
X0111764Y0016718D01*
X0111667Y0016765D01*
X0111571Y0016816D01*
X0111477Y0016870D01*
X0111385Y0016928D01*
X0111295Y0016989D01*
X0111208Y0017053D01*
X0111123Y0017121D01*
X0111040Y0017191D01*
X0110960Y0017265D01*
X0110883Y0017341D01*
X0110809Y0017420D01*
X0110738Y0017502D01*
X0110670Y0017586D01*
X0110605Y0017673D01*
X0110543Y0017762D01*
X0110484Y0017854D01*
X0110429Y0017947D01*
X0110378Y0018042D01*
X0110329Y0018140D01*
X0110285Y0018239D01*
X0110244Y0018339D01*
X0110207Y0018441D01*
X0110174Y0018544D01*
X0110144Y0018649D01*
X0110118Y0018754D01*
X0110097Y0018861D01*
X0110079Y0018968D01*
X0110065Y0019075D01*
X0110055Y0019183D01*
X0110049Y0019292D01*
X0110047Y0019400D01*
X0135041Y0077195D02*
X0135043Y0077272D01*
X0135049Y0077348D01*
X0135059Y0077424D01*
X0135073Y0077499D01*
X0135090Y0077574D01*
X0135112Y0077647D01*
X0135137Y0077720D01*
X0135167Y0077791D01*
X0135199Y0077860D01*
X0135236Y0077927D01*
X0135275Y0077993D01*
X0135318Y0078056D01*
X0135365Y0078117D01*
X0135414Y0078176D01*
X0135467Y0078232D01*
X0135522Y0078285D01*
X0135580Y0078335D01*
X0135640Y0078382D01*
X0135703Y0078426D01*
X0135768Y0078467D01*
X0135835Y0078504D01*
X0135904Y0078538D01*
X0135974Y0078568D01*
X0136046Y0078594D01*
X0136120Y0078616D01*
X0136194Y0078635D01*
X0136269Y0078650D01*
X0136345Y0078661D01*
X0136421Y0078668D01*
X0136498Y0078671D01*
X0136574Y0078670D01*
X0136651Y0078665D01*
X0136727Y0078656D01*
X0136803Y0078643D01*
X0136877Y0078626D01*
X0136951Y0078606D01*
X0137024Y0078581D01*
X0137095Y0078553D01*
X0137165Y0078521D01*
X0137233Y0078486D01*
X0137299Y0078447D01*
X0137363Y0078405D01*
X0137424Y0078359D01*
X0137484Y0078310D01*
X0137540Y0078259D01*
X0137594Y0078204D01*
X0137645Y0078147D01*
X0137693Y0078087D01*
X0137738Y0078025D01*
X0137779Y0077960D01*
X0137817Y0077894D01*
X0137852Y0077826D01*
X0137882Y0077755D01*
X0137910Y0077684D01*
X0137933Y0077611D01*
X0137953Y0077537D01*
X0137969Y0077462D01*
X0137981Y0077386D01*
X0137989Y0077310D01*
X0137993Y0077233D01*
X0137993Y0077157D01*
X0137989Y0077080D01*
X0137981Y0077004D01*
X0137969Y0076928D01*
X0137953Y0076853D01*
X0137933Y0076779D01*
X0137910Y0076706D01*
X0137882Y0076635D01*
X0137852Y0076564D01*
X0137817Y0076496D01*
X0137779Y0076430D01*
X0137738Y0076365D01*
X0137693Y0076303D01*
X0137645Y0076243D01*
X0137594Y0076186D01*
X0137540Y0076131D01*
X0137484Y0076080D01*
X0137424Y0076031D01*
X0137363Y0075985D01*
X0137299Y0075943D01*
X0137233Y0075904D01*
X0137165Y0075869D01*
X0137095Y0075837D01*
X0137024Y0075809D01*
X0136951Y0075784D01*
X0136877Y0075764D01*
X0136803Y0075747D01*
X0136727Y0075734D01*
X0136651Y0075725D01*
X0136574Y0075720D01*
X0136498Y0075719D01*
X0136421Y0075722D01*
X0136345Y0075729D01*
X0136269Y0075740D01*
X0136194Y0075755D01*
X0136120Y0075774D01*
X0136046Y0075796D01*
X0135974Y0075822D01*
X0135904Y0075852D01*
X0135835Y0075886D01*
X0135768Y0075923D01*
X0135703Y0075964D01*
X0135640Y0076008D01*
X0135580Y0076055D01*
X0135522Y0076105D01*
X0135467Y0076158D01*
X0135414Y0076214D01*
X0135365Y0076273D01*
X0135318Y0076334D01*
X0135275Y0076397D01*
X0135236Y0076463D01*
X0135199Y0076530D01*
X0135167Y0076599D01*
X0135137Y0076670D01*
X0135112Y0076743D01*
X0135090Y0076816D01*
X0135073Y0076891D01*
X0135059Y0076966D01*
X0135049Y0077042D01*
X0135043Y0077118D01*
X0135041Y0077195D01*
X0152364Y0077195D02*
X0152366Y0077272D01*
X0152372Y0077348D01*
X0152382Y0077424D01*
X0152396Y0077499D01*
X0152413Y0077574D01*
X0152435Y0077647D01*
X0152460Y0077720D01*
X0152490Y0077791D01*
X0152522Y0077860D01*
X0152559Y0077927D01*
X0152598Y0077993D01*
X0152641Y0078056D01*
X0152688Y0078117D01*
X0152737Y0078176D01*
X0152790Y0078232D01*
X0152845Y0078285D01*
X0152903Y0078335D01*
X0152963Y0078382D01*
X0153026Y0078426D01*
X0153091Y0078467D01*
X0153158Y0078504D01*
X0153227Y0078538D01*
X0153297Y0078568D01*
X0153369Y0078594D01*
X0153443Y0078616D01*
X0153517Y0078635D01*
X0153592Y0078650D01*
X0153668Y0078661D01*
X0153744Y0078668D01*
X0153821Y0078671D01*
X0153897Y0078670D01*
X0153974Y0078665D01*
X0154050Y0078656D01*
X0154126Y0078643D01*
X0154200Y0078626D01*
X0154274Y0078606D01*
X0154347Y0078581D01*
X0154418Y0078553D01*
X0154488Y0078521D01*
X0154556Y0078486D01*
X0154622Y0078447D01*
X0154686Y0078405D01*
X0154747Y0078359D01*
X0154807Y0078310D01*
X0154863Y0078259D01*
X0154917Y0078204D01*
X0154968Y0078147D01*
X0155016Y0078087D01*
X0155061Y0078025D01*
X0155102Y0077960D01*
X0155140Y0077894D01*
X0155175Y0077826D01*
X0155205Y0077755D01*
X0155233Y0077684D01*
X0155256Y0077611D01*
X0155276Y0077537D01*
X0155292Y0077462D01*
X0155304Y0077386D01*
X0155312Y0077310D01*
X0155316Y0077233D01*
X0155316Y0077157D01*
X0155312Y0077080D01*
X0155304Y0077004D01*
X0155292Y0076928D01*
X0155276Y0076853D01*
X0155256Y0076779D01*
X0155233Y0076706D01*
X0155205Y0076635D01*
X0155175Y0076564D01*
X0155140Y0076496D01*
X0155102Y0076430D01*
X0155061Y0076365D01*
X0155016Y0076303D01*
X0154968Y0076243D01*
X0154917Y0076186D01*
X0154863Y0076131D01*
X0154807Y0076080D01*
X0154747Y0076031D01*
X0154686Y0075985D01*
X0154622Y0075943D01*
X0154556Y0075904D01*
X0154488Y0075869D01*
X0154418Y0075837D01*
X0154347Y0075809D01*
X0154274Y0075784D01*
X0154200Y0075764D01*
X0154126Y0075747D01*
X0154050Y0075734D01*
X0153974Y0075725D01*
X0153897Y0075720D01*
X0153821Y0075719D01*
X0153744Y0075722D01*
X0153668Y0075729D01*
X0153592Y0075740D01*
X0153517Y0075755D01*
X0153443Y0075774D01*
X0153369Y0075796D01*
X0153297Y0075822D01*
X0153227Y0075852D01*
X0153158Y0075886D01*
X0153091Y0075923D01*
X0153026Y0075964D01*
X0152963Y0076008D01*
X0152903Y0076055D01*
X0152845Y0076105D01*
X0152790Y0076158D01*
X0152737Y0076214D01*
X0152688Y0076273D01*
X0152641Y0076334D01*
X0152598Y0076397D01*
X0152559Y0076463D01*
X0152522Y0076530D01*
X0152490Y0076599D01*
X0152460Y0076670D01*
X0152435Y0076743D01*
X0152413Y0076816D01*
X0152396Y0076891D01*
X0152382Y0076966D01*
X0152372Y0077042D01*
X0152366Y0077118D01*
X0152364Y0077195D01*
X0029147Y0079200D02*
X0029149Y0079308D01*
X0029155Y0079417D01*
X0029165Y0079525D01*
X0029179Y0079632D01*
X0029197Y0079739D01*
X0029218Y0079846D01*
X0029244Y0079951D01*
X0029274Y0080056D01*
X0029307Y0080159D01*
X0029344Y0080261D01*
X0029385Y0080361D01*
X0029429Y0080460D01*
X0029478Y0080558D01*
X0029529Y0080653D01*
X0029584Y0080746D01*
X0029643Y0080838D01*
X0029705Y0080927D01*
X0029770Y0081014D01*
X0029838Y0081098D01*
X0029909Y0081180D01*
X0029983Y0081259D01*
X0030060Y0081335D01*
X0030140Y0081409D01*
X0030223Y0081479D01*
X0030308Y0081547D01*
X0030395Y0081611D01*
X0030485Y0081672D01*
X0030577Y0081730D01*
X0030671Y0081784D01*
X0030767Y0081835D01*
X0030864Y0081882D01*
X0030964Y0081926D01*
X0031065Y0081966D01*
X0031167Y0082002D01*
X0031270Y0082034D01*
X0031375Y0082063D01*
X0031481Y0082087D01*
X0031587Y0082108D01*
X0031694Y0082125D01*
X0031802Y0082138D01*
X0031910Y0082147D01*
X0032019Y0082152D01*
X0032127Y0082153D01*
X0032236Y0082150D01*
X0032344Y0082143D01*
X0032452Y0082132D01*
X0032559Y0082117D01*
X0032666Y0082098D01*
X0032772Y0082075D01*
X0032877Y0082049D01*
X0032982Y0082018D01*
X0033084Y0081984D01*
X0033186Y0081946D01*
X0033286Y0081904D01*
X0033385Y0081859D01*
X0033482Y0081810D01*
X0033576Y0081757D01*
X0033669Y0081701D01*
X0033760Y0081642D01*
X0033849Y0081579D01*
X0033935Y0081514D01*
X0034019Y0081445D01*
X0034100Y0081373D01*
X0034178Y0081298D01*
X0034254Y0081220D01*
X0034327Y0081139D01*
X0034397Y0081056D01*
X0034463Y0080971D01*
X0034527Y0080883D01*
X0034587Y0080792D01*
X0034644Y0080700D01*
X0034697Y0080605D01*
X0034747Y0080509D01*
X0034793Y0080411D01*
X0034836Y0080311D01*
X0034875Y0080210D01*
X0034910Y0080107D01*
X0034942Y0080004D01*
X0034969Y0079899D01*
X0034993Y0079793D01*
X0035013Y0079686D01*
X0035029Y0079579D01*
X0035041Y0079471D01*
X0035049Y0079363D01*
X0035053Y0079254D01*
X0035053Y0079146D01*
X0035049Y0079037D01*
X0035041Y0078929D01*
X0035029Y0078821D01*
X0035013Y0078714D01*
X0034993Y0078607D01*
X0034969Y0078501D01*
X0034942Y0078396D01*
X0034910Y0078293D01*
X0034875Y0078190D01*
X0034836Y0078089D01*
X0034793Y0077989D01*
X0034747Y0077891D01*
X0034697Y0077795D01*
X0034644Y0077700D01*
X0034587Y0077608D01*
X0034527Y0077517D01*
X0034463Y0077429D01*
X0034397Y0077344D01*
X0034327Y0077261D01*
X0034254Y0077180D01*
X0034178Y0077102D01*
X0034100Y0077027D01*
X0034019Y0076955D01*
X0033935Y0076886D01*
X0033849Y0076821D01*
X0033760Y0076758D01*
X0033669Y0076699D01*
X0033577Y0076643D01*
X0033482Y0076590D01*
X0033385Y0076541D01*
X0033286Y0076496D01*
X0033186Y0076454D01*
X0033084Y0076416D01*
X0032982Y0076382D01*
X0032877Y0076351D01*
X0032772Y0076325D01*
X0032666Y0076302D01*
X0032559Y0076283D01*
X0032452Y0076268D01*
X0032344Y0076257D01*
X0032236Y0076250D01*
X0032127Y0076247D01*
X0032019Y0076248D01*
X0031910Y0076253D01*
X0031802Y0076262D01*
X0031694Y0076275D01*
X0031587Y0076292D01*
X0031481Y0076313D01*
X0031375Y0076337D01*
X0031270Y0076366D01*
X0031167Y0076398D01*
X0031065Y0076434D01*
X0030964Y0076474D01*
X0030864Y0076518D01*
X0030767Y0076565D01*
X0030671Y0076616D01*
X0030577Y0076670D01*
X0030485Y0076728D01*
X0030395Y0076789D01*
X0030308Y0076853D01*
X0030223Y0076921D01*
X0030140Y0076991D01*
X0030060Y0077065D01*
X0029983Y0077141D01*
X0029909Y0077220D01*
X0029838Y0077302D01*
X0029770Y0077386D01*
X0029705Y0077473D01*
X0029643Y0077562D01*
X0029584Y0077654D01*
X0029529Y0077747D01*
X0029478Y0077842D01*
X0029429Y0077940D01*
X0029385Y0078039D01*
X0029344Y0078139D01*
X0029307Y0078241D01*
X0029274Y0078344D01*
X0029244Y0078449D01*
X0029218Y0078554D01*
X0029197Y0078661D01*
X0029179Y0078768D01*
X0029165Y0078875D01*
X0029155Y0078983D01*
X0029149Y0079092D01*
X0029147Y0079200D01*
D11*
X0047306Y0079628D02*
X0047306Y0079802D01*
X0053094Y0079802D01*
X0053094Y0079628D01*
X0053094Y0076455D02*
X0053094Y0076085D01*
X0053094Y0072715D02*
X0053094Y0072345D01*
X0053094Y0069172D02*
X0053094Y0068998D01*
X0047306Y0068998D01*
X0047306Y0069172D01*
X0047306Y0072345D02*
X0047306Y0076455D01*
X0100387Y0074269D02*
X0100387Y0081531D01*
X0104013Y0081531D01*
X0104013Y0074269D01*
X0100387Y0074269D01*
X0109600Y0074500D02*
X0113900Y0074500D01*
X0113900Y0070000D01*
D12*
X0114400Y0072300D02*
X0115200Y0072300D01*
X0115200Y0062400D01*
X0113800Y0062400D01*
X0123289Y0059214D02*
X0123289Y0057246D01*
X0125257Y0057246D01*
X0115517Y0046328D02*
X0106462Y0046328D01*
X0105675Y0045540D01*
X0105675Y0035304D01*
X0115517Y0035304D01*
X0115517Y0046328D01*
X0100116Y0040774D02*
X0098462Y0039120D01*
X0074210Y0039120D02*
X0072557Y0040774D01*
X0061612Y0045346D02*
X0061612Y0052826D01*
X0054919Y0052826D01*
X0054131Y0052039D01*
X0054131Y0045346D01*
X0061612Y0045346D01*
X0045400Y0046400D02*
X0045400Y0049600D01*
X0039000Y0049600D01*
X0039000Y0046400D01*
X0045400Y0046400D01*
X0045400Y0050300D02*
X0039000Y0050300D01*
X0039000Y0053500D01*
X0045400Y0053500D01*
X0045400Y0050300D01*
X0033646Y0062302D02*
X0033646Y0063876D01*
X0027543Y0063876D01*
X0017701Y0063876D02*
X0014157Y0063876D01*
X0013961Y0063876D02*
X0013961Y0034743D01*
X0011598Y0033365D01*
X0011598Y0065254D01*
X0013961Y0063876D01*
X0016425Y0063809D02*
X0016425Y0034809D01*
X0017701Y0034743D02*
X0014157Y0034743D01*
X0027150Y0034743D02*
X0033646Y0034743D01*
X0033646Y0036711D01*
X0047292Y0031383D02*
X0071308Y0031383D01*
X0071308Y0031187D02*
X0071308Y0027250D01*
X0071308Y0020950D02*
X0071308Y0017013D01*
X0071308Y0016817D02*
X0047292Y0016817D01*
X0047292Y0017013D02*
X0047292Y0020950D01*
X0047292Y0027250D02*
X0047292Y0031187D01*
X0072557Y0065026D02*
X0074210Y0066680D01*
X0098462Y0066680D02*
X0100116Y0065026D01*
X0123289Y0078899D02*
X0123289Y0080868D01*
X0125651Y0080868D01*
X0144549Y0080868D02*
X0145336Y0080868D01*
X0146911Y0079293D01*
X0146911Y0078506D01*
X0146911Y0059214D02*
X0146911Y0057246D01*
X0144943Y0057246D01*
X0147580Y0052265D02*
X0157423Y0052265D01*
X0157423Y0042028D01*
X0156635Y0041241D01*
X0147580Y0041241D01*
X0147580Y0052265D01*
X0138100Y0042900D02*
X0131700Y0042900D01*
X0131700Y0039700D01*
X0138100Y0039700D01*
X0138100Y0042900D01*
X0134900Y0039200D02*
X0131700Y0039200D01*
X0131700Y0032800D01*
X0134900Y0032800D01*
X0134900Y0039200D01*
X0131700Y0032300D02*
X0138100Y0032300D01*
X0138100Y0029100D01*
X0131700Y0029100D01*
X0131700Y0032300D01*
X0134601Y0022650D02*
X0147199Y0022650D01*
X0147199Y0016350D02*
X0134601Y0016350D01*
D13*
X0114850Y0027500D02*
X0114850Y0033500D01*
X0114848Y0033544D01*
X0114842Y0033587D01*
X0114833Y0033629D01*
X0114820Y0033671D01*
X0114803Y0033711D01*
X0114783Y0033750D01*
X0114760Y0033787D01*
X0114733Y0033821D01*
X0114704Y0033854D01*
X0114671Y0033883D01*
X0114637Y0033910D01*
X0114600Y0033933D01*
X0114561Y0033953D01*
X0114521Y0033970D01*
X0114479Y0033983D01*
X0114437Y0033992D01*
X0114394Y0033998D01*
X0114350Y0034000D01*
X0111850Y0034000D01*
X0111806Y0033998D01*
X0111763Y0033992D01*
X0111721Y0033983D01*
X0111679Y0033970D01*
X0111639Y0033953D01*
X0111600Y0033933D01*
X0111563Y0033910D01*
X0111529Y0033883D01*
X0111496Y0033854D01*
X0111467Y0033821D01*
X0111440Y0033787D01*
X0111417Y0033750D01*
X0111397Y0033711D01*
X0111380Y0033671D01*
X0111367Y0033629D01*
X0111358Y0033587D01*
X0111352Y0033544D01*
X0111350Y0033500D01*
X0111350Y0027500D01*
X0111352Y0027456D01*
X0111358Y0027413D01*
X0111367Y0027371D01*
X0111380Y0027329D01*
X0111397Y0027289D01*
X0111417Y0027250D01*
X0111440Y0027213D01*
X0111467Y0027179D01*
X0111496Y0027146D01*
X0111529Y0027117D01*
X0111563Y0027090D01*
X0111600Y0027067D01*
X0111639Y0027047D01*
X0111679Y0027030D01*
X0111721Y0027017D01*
X0111763Y0027008D01*
X0111806Y0027002D01*
X0111850Y0027000D01*
X0114350Y0027000D01*
X0114394Y0027002D01*
X0114437Y0027008D01*
X0114479Y0027017D01*
X0114521Y0027030D01*
X0114561Y0027047D01*
X0114600Y0027067D01*
X0114637Y0027090D01*
X0114671Y0027117D01*
X0114704Y0027146D01*
X0114733Y0027179D01*
X0114760Y0027213D01*
X0114783Y0027250D01*
X0114803Y0027289D01*
X0114820Y0027329D01*
X0114833Y0027371D01*
X0114842Y0027413D01*
X0114848Y0027456D01*
X0114850Y0027500D01*
X0107550Y0027700D02*
X0107550Y0033700D01*
X0107548Y0033744D01*
X0107542Y0033787D01*
X0107533Y0033829D01*
X0107520Y0033871D01*
X0107503Y0033911D01*
X0107483Y0033950D01*
X0107460Y0033987D01*
X0107433Y0034021D01*
X0107404Y0034054D01*
X0107371Y0034083D01*
X0107337Y0034110D01*
X0107300Y0034133D01*
X0107261Y0034153D01*
X0107221Y0034170D01*
X0107179Y0034183D01*
X0107137Y0034192D01*
X0107094Y0034198D01*
X0107050Y0034200D01*
X0104550Y0034200D01*
X0104506Y0034198D01*
X0104463Y0034192D01*
X0104421Y0034183D01*
X0104379Y0034170D01*
X0104339Y0034153D01*
X0104300Y0034133D01*
X0104263Y0034110D01*
X0104229Y0034083D01*
X0104196Y0034054D01*
X0104167Y0034021D01*
X0104140Y0033987D01*
X0104117Y0033950D01*
X0104097Y0033911D01*
X0104080Y0033871D01*
X0104067Y0033829D01*
X0104058Y0033787D01*
X0104052Y0033744D01*
X0104050Y0033700D01*
X0104050Y0027700D01*
X0104052Y0027656D01*
X0104058Y0027613D01*
X0104067Y0027571D01*
X0104080Y0027529D01*
X0104097Y0027489D01*
X0104117Y0027450D01*
X0104140Y0027413D01*
X0104167Y0027379D01*
X0104196Y0027346D01*
X0104229Y0027317D01*
X0104263Y0027290D01*
X0104300Y0027267D01*
X0104339Y0027247D01*
X0104379Y0027230D01*
X0104421Y0027217D01*
X0104463Y0027208D01*
X0104506Y0027202D01*
X0104550Y0027200D01*
X0107050Y0027200D01*
X0107094Y0027202D01*
X0107137Y0027208D01*
X0107179Y0027217D01*
X0107221Y0027230D01*
X0107261Y0027247D01*
X0107300Y0027267D01*
X0107337Y0027290D01*
X0107371Y0027317D01*
X0107404Y0027346D01*
X0107433Y0027379D01*
X0107460Y0027413D01*
X0107483Y0027450D01*
X0107503Y0027489D01*
X0107520Y0027529D01*
X0107533Y0027571D01*
X0107542Y0027613D01*
X0107548Y0027656D01*
X0107550Y0027700D01*
X0101950Y0027800D02*
X0101950Y0033800D01*
X0101948Y0033844D01*
X0101942Y0033887D01*
X0101933Y0033929D01*
X0101920Y0033971D01*
X0101903Y0034011D01*
X0101883Y0034050D01*
X0101860Y0034087D01*
X0101833Y0034121D01*
X0101804Y0034154D01*
X0101771Y0034183D01*
X0101737Y0034210D01*
X0101700Y0034233D01*
X0101661Y0034253D01*
X0101621Y0034270D01*
X0101579Y0034283D01*
X0101537Y0034292D01*
X0101494Y0034298D01*
X0101450Y0034300D01*
X0098950Y0034300D01*
X0098906Y0034298D01*
X0098863Y0034292D01*
X0098821Y0034283D01*
X0098779Y0034270D01*
X0098739Y0034253D01*
X0098700Y0034233D01*
X0098663Y0034210D01*
X0098629Y0034183D01*
X0098596Y0034154D01*
X0098567Y0034121D01*
X0098540Y0034087D01*
X0098517Y0034050D01*
X0098497Y0034011D01*
X0098480Y0033971D01*
X0098467Y0033929D01*
X0098458Y0033887D01*
X0098452Y0033844D01*
X0098450Y0033800D01*
X0098450Y0027800D01*
X0098452Y0027756D01*
X0098458Y0027713D01*
X0098467Y0027671D01*
X0098480Y0027629D01*
X0098497Y0027589D01*
X0098517Y0027550D01*
X0098540Y0027513D01*
X0098567Y0027479D01*
X0098596Y0027446D01*
X0098629Y0027417D01*
X0098663Y0027390D01*
X0098700Y0027367D01*
X0098739Y0027347D01*
X0098779Y0027330D01*
X0098821Y0027317D01*
X0098863Y0027308D01*
X0098906Y0027302D01*
X0098950Y0027300D01*
X0101450Y0027300D01*
X0101494Y0027302D01*
X0101537Y0027308D01*
X0101579Y0027317D01*
X0101621Y0027330D01*
X0101661Y0027347D01*
X0101700Y0027367D01*
X0101737Y0027390D01*
X0101771Y0027417D01*
X0101804Y0027446D01*
X0101833Y0027479D01*
X0101860Y0027513D01*
X0101883Y0027550D01*
X0101903Y0027589D01*
X0101920Y0027629D01*
X0101933Y0027671D01*
X0101942Y0027713D01*
X0101948Y0027756D01*
X0101950Y0027800D01*
X0094050Y0027700D02*
X0094050Y0033700D01*
X0094048Y0033744D01*
X0094042Y0033787D01*
X0094033Y0033829D01*
X0094020Y0033871D01*
X0094003Y0033911D01*
X0093983Y0033950D01*
X0093960Y0033987D01*
X0093933Y0034021D01*
X0093904Y0034054D01*
X0093871Y0034083D01*
X0093837Y0034110D01*
X0093800Y0034133D01*
X0093761Y0034153D01*
X0093721Y0034170D01*
X0093679Y0034183D01*
X0093637Y0034192D01*
X0093594Y0034198D01*
X0093550Y0034200D01*
X0091050Y0034200D01*
X0091006Y0034198D01*
X0090963Y0034192D01*
X0090921Y0034183D01*
X0090879Y0034170D01*
X0090839Y0034153D01*
X0090800Y0034133D01*
X0090763Y0034110D01*
X0090729Y0034083D01*
X0090696Y0034054D01*
X0090667Y0034021D01*
X0090640Y0033987D01*
X0090617Y0033950D01*
X0090597Y0033911D01*
X0090580Y0033871D01*
X0090567Y0033829D01*
X0090558Y0033787D01*
X0090552Y0033744D01*
X0090550Y0033700D01*
X0090550Y0027700D01*
X0090552Y0027656D01*
X0090558Y0027613D01*
X0090567Y0027571D01*
X0090580Y0027529D01*
X0090597Y0027489D01*
X0090617Y0027450D01*
X0090640Y0027413D01*
X0090667Y0027379D01*
X0090696Y0027346D01*
X0090729Y0027317D01*
X0090763Y0027290D01*
X0090800Y0027267D01*
X0090839Y0027247D01*
X0090879Y0027230D01*
X0090921Y0027217D01*
X0090963Y0027208D01*
X0091006Y0027202D01*
X0091050Y0027200D01*
X0093550Y0027200D01*
X0093594Y0027202D01*
X0093637Y0027208D01*
X0093679Y0027217D01*
X0093721Y0027230D01*
X0093761Y0027247D01*
X0093800Y0027267D01*
X0093837Y0027290D01*
X0093871Y0027317D01*
X0093904Y0027346D01*
X0093933Y0027379D01*
X0093960Y0027413D01*
X0093983Y0027450D01*
X0094003Y0027489D01*
X0094020Y0027529D01*
X0094033Y0027571D01*
X0094042Y0027613D01*
X0094048Y0027656D01*
X0094050Y0027700D01*
X0071100Y0036150D02*
X0071100Y0038650D01*
X0071098Y0038694D01*
X0071092Y0038737D01*
X0071083Y0038779D01*
X0071070Y0038821D01*
X0071053Y0038861D01*
X0071033Y0038900D01*
X0071010Y0038937D01*
X0070983Y0038971D01*
X0070954Y0039004D01*
X0070921Y0039033D01*
X0070887Y0039060D01*
X0070850Y0039083D01*
X0070811Y0039103D01*
X0070771Y0039120D01*
X0070729Y0039133D01*
X0070687Y0039142D01*
X0070644Y0039148D01*
X0070600Y0039150D01*
X0064600Y0039150D01*
X0064556Y0039148D01*
X0064513Y0039142D01*
X0064471Y0039133D01*
X0064429Y0039120D01*
X0064389Y0039103D01*
X0064350Y0039083D01*
X0064313Y0039060D01*
X0064279Y0039033D01*
X0064246Y0039004D01*
X0064217Y0038971D01*
X0064190Y0038937D01*
X0064167Y0038900D01*
X0064147Y0038861D01*
X0064130Y0038821D01*
X0064117Y0038779D01*
X0064108Y0038737D01*
X0064102Y0038694D01*
X0064100Y0038650D01*
X0064100Y0036150D01*
X0064102Y0036106D01*
X0064108Y0036063D01*
X0064117Y0036021D01*
X0064130Y0035979D01*
X0064147Y0035939D01*
X0064167Y0035900D01*
X0064190Y0035863D01*
X0064217Y0035829D01*
X0064246Y0035796D01*
X0064279Y0035767D01*
X0064313Y0035740D01*
X0064350Y0035717D01*
X0064389Y0035697D01*
X0064429Y0035680D01*
X0064471Y0035667D01*
X0064513Y0035658D01*
X0064556Y0035652D01*
X0064600Y0035650D01*
X0070600Y0035650D01*
X0070644Y0035652D01*
X0070687Y0035658D01*
X0070729Y0035667D01*
X0070771Y0035680D01*
X0070811Y0035697D01*
X0070850Y0035717D01*
X0070887Y0035740D01*
X0070921Y0035767D01*
X0070954Y0035796D01*
X0070983Y0035829D01*
X0071010Y0035863D01*
X0071033Y0035900D01*
X0071053Y0035939D01*
X0071070Y0035979D01*
X0071083Y0036021D01*
X0071092Y0036063D01*
X0071098Y0036106D01*
X0071100Y0036150D01*
X0046000Y0039650D02*
X0046000Y0042150D01*
X0045998Y0042194D01*
X0045992Y0042237D01*
X0045983Y0042279D01*
X0045970Y0042321D01*
X0045953Y0042361D01*
X0045933Y0042400D01*
X0045910Y0042437D01*
X0045883Y0042471D01*
X0045854Y0042504D01*
X0045821Y0042533D01*
X0045787Y0042560D01*
X0045750Y0042583D01*
X0045711Y0042603D01*
X0045671Y0042620D01*
X0045629Y0042633D01*
X0045587Y0042642D01*
X0045544Y0042648D01*
X0045500Y0042650D01*
X0039500Y0042650D01*
X0039456Y0042648D01*
X0039413Y0042642D01*
X0039371Y0042633D01*
X0039329Y0042620D01*
X0039289Y0042603D01*
X0039250Y0042583D01*
X0039213Y0042560D01*
X0039179Y0042533D01*
X0039146Y0042504D01*
X0039117Y0042471D01*
X0039090Y0042437D01*
X0039067Y0042400D01*
X0039047Y0042361D01*
X0039030Y0042321D01*
X0039017Y0042279D01*
X0039008Y0042237D01*
X0039002Y0042194D01*
X0039000Y0042150D01*
X0039000Y0039650D01*
X0039002Y0039606D01*
X0039008Y0039563D01*
X0039017Y0039521D01*
X0039030Y0039479D01*
X0039047Y0039439D01*
X0039067Y0039400D01*
X0039090Y0039363D01*
X0039117Y0039329D01*
X0039146Y0039296D01*
X0039179Y0039267D01*
X0039213Y0039240D01*
X0039250Y0039217D01*
X0039289Y0039197D01*
X0039329Y0039180D01*
X0039371Y0039167D01*
X0039413Y0039158D01*
X0039456Y0039152D01*
X0039500Y0039150D01*
X0045500Y0039150D01*
X0045544Y0039152D01*
X0045587Y0039158D01*
X0045629Y0039167D01*
X0045671Y0039180D01*
X0045711Y0039197D01*
X0045750Y0039217D01*
X0045787Y0039240D01*
X0045821Y0039267D01*
X0045854Y0039296D01*
X0045883Y0039329D01*
X0045910Y0039363D01*
X0045933Y0039400D01*
X0045953Y0039439D01*
X0045970Y0039479D01*
X0045983Y0039521D01*
X0045992Y0039563D01*
X0045998Y0039606D01*
X0046000Y0039650D01*
X0060400Y0057250D02*
X0066400Y0057250D01*
X0066444Y0057252D01*
X0066487Y0057258D01*
X0066529Y0057267D01*
X0066571Y0057280D01*
X0066611Y0057297D01*
X0066650Y0057317D01*
X0066687Y0057340D01*
X0066721Y0057367D01*
X0066754Y0057396D01*
X0066783Y0057429D01*
X0066810Y0057463D01*
X0066833Y0057500D01*
X0066853Y0057539D01*
X0066870Y0057579D01*
X0066883Y0057621D01*
X0066892Y0057663D01*
X0066898Y0057706D01*
X0066900Y0057750D01*
X0066900Y0060250D01*
X0066898Y0060294D01*
X0066892Y0060337D01*
X0066883Y0060379D01*
X0066870Y0060421D01*
X0066853Y0060461D01*
X0066833Y0060500D01*
X0066810Y0060537D01*
X0066783Y0060571D01*
X0066754Y0060604D01*
X0066721Y0060633D01*
X0066687Y0060660D01*
X0066650Y0060683D01*
X0066611Y0060703D01*
X0066571Y0060720D01*
X0066529Y0060733D01*
X0066487Y0060742D01*
X0066444Y0060748D01*
X0066400Y0060750D01*
X0060400Y0060750D01*
X0060356Y0060748D01*
X0060313Y0060742D01*
X0060271Y0060733D01*
X0060229Y0060720D01*
X0060189Y0060703D01*
X0060150Y0060683D01*
X0060113Y0060660D01*
X0060079Y0060633D01*
X0060046Y0060604D01*
X0060017Y0060571D01*
X0059990Y0060537D01*
X0059967Y0060500D01*
X0059947Y0060461D01*
X0059930Y0060421D01*
X0059917Y0060379D01*
X0059908Y0060337D01*
X0059902Y0060294D01*
X0059900Y0060250D01*
X0059900Y0057750D01*
X0059902Y0057706D01*
X0059908Y0057663D01*
X0059917Y0057621D01*
X0059930Y0057579D01*
X0059947Y0057539D01*
X0059967Y0057500D01*
X0059990Y0057463D01*
X0060017Y0057429D01*
X0060046Y0057396D01*
X0060079Y0057367D01*
X0060113Y0057340D01*
X0060150Y0057317D01*
X0060189Y0057297D01*
X0060229Y0057280D01*
X0060271Y0057267D01*
X0060313Y0057258D01*
X0060356Y0057252D01*
X0060400Y0057250D01*
X0060400Y0061550D02*
X0066400Y0061550D01*
X0066444Y0061552D01*
X0066487Y0061558D01*
X0066529Y0061567D01*
X0066571Y0061580D01*
X0066611Y0061597D01*
X0066650Y0061617D01*
X0066687Y0061640D01*
X0066721Y0061667D01*
X0066754Y0061696D01*
X0066783Y0061729D01*
X0066810Y0061763D01*
X0066833Y0061800D01*
X0066853Y0061839D01*
X0066870Y0061879D01*
X0066883Y0061921D01*
X0066892Y0061963D01*
X0066898Y0062006D01*
X0066900Y0062050D01*
X0066900Y0064550D01*
X0066898Y0064594D01*
X0066892Y0064637D01*
X0066883Y0064679D01*
X0066870Y0064721D01*
X0066853Y0064761D01*
X0066833Y0064800D01*
X0066810Y0064837D01*
X0066783Y0064871D01*
X0066754Y0064904D01*
X0066721Y0064933D01*
X0066687Y0064960D01*
X0066650Y0064983D01*
X0066611Y0065003D01*
X0066571Y0065020D01*
X0066529Y0065033D01*
X0066487Y0065042D01*
X0066444Y0065048D01*
X0066400Y0065050D01*
X0060400Y0065050D01*
X0060356Y0065048D01*
X0060313Y0065042D01*
X0060271Y0065033D01*
X0060229Y0065020D01*
X0060189Y0065003D01*
X0060150Y0064983D01*
X0060113Y0064960D01*
X0060079Y0064933D01*
X0060046Y0064904D01*
X0060017Y0064871D01*
X0059990Y0064837D01*
X0059967Y0064800D01*
X0059947Y0064761D01*
X0059930Y0064721D01*
X0059917Y0064679D01*
X0059908Y0064637D01*
X0059902Y0064594D01*
X0059900Y0064550D01*
X0059900Y0062050D01*
X0059902Y0062006D01*
X0059908Y0061963D01*
X0059917Y0061921D01*
X0059930Y0061879D01*
X0059947Y0061839D01*
X0059967Y0061800D01*
X0059990Y0061763D01*
X0060017Y0061729D01*
X0060046Y0061696D01*
X0060079Y0061667D01*
X0060113Y0061640D01*
X0060150Y0061617D01*
X0060189Y0061597D01*
X0060229Y0061580D01*
X0060271Y0061567D01*
X0060313Y0061558D01*
X0060356Y0061552D01*
X0060400Y0061550D01*
X0057150Y0061400D02*
X0057150Y0067400D01*
X0057148Y0067444D01*
X0057142Y0067487D01*
X0057133Y0067529D01*
X0057120Y0067571D01*
X0057103Y0067611D01*
X0057083Y0067650D01*
X0057060Y0067687D01*
X0057033Y0067721D01*
X0057004Y0067754D01*
X0056971Y0067783D01*
X0056937Y0067810D01*
X0056900Y0067833D01*
X0056861Y0067853D01*
X0056821Y0067870D01*
X0056779Y0067883D01*
X0056737Y0067892D01*
X0056694Y0067898D01*
X0056650Y0067900D01*
X0054150Y0067900D01*
X0054106Y0067898D01*
X0054063Y0067892D01*
X0054021Y0067883D01*
X0053979Y0067870D01*
X0053939Y0067853D01*
X0053900Y0067833D01*
X0053863Y0067810D01*
X0053829Y0067783D01*
X0053796Y0067754D01*
X0053767Y0067721D01*
X0053740Y0067687D01*
X0053717Y0067650D01*
X0053697Y0067611D01*
X0053680Y0067571D01*
X0053667Y0067529D01*
X0053658Y0067487D01*
X0053652Y0067444D01*
X0053650Y0067400D01*
X0053650Y0061400D01*
X0053652Y0061356D01*
X0053658Y0061313D01*
X0053667Y0061271D01*
X0053680Y0061229D01*
X0053697Y0061189D01*
X0053717Y0061150D01*
X0053740Y0061113D01*
X0053767Y0061079D01*
X0053796Y0061046D01*
X0053829Y0061017D01*
X0053863Y0060990D01*
X0053900Y0060967D01*
X0053939Y0060947D01*
X0053979Y0060930D01*
X0054021Y0060917D01*
X0054063Y0060908D01*
X0054106Y0060902D01*
X0054150Y0060900D01*
X0056650Y0060900D01*
X0056694Y0060902D01*
X0056737Y0060908D01*
X0056779Y0060917D01*
X0056821Y0060930D01*
X0056861Y0060947D01*
X0056900Y0060967D01*
X0056937Y0060990D01*
X0056971Y0061017D01*
X0057004Y0061046D01*
X0057033Y0061079D01*
X0057060Y0061113D01*
X0057083Y0061150D01*
X0057103Y0061189D01*
X0057120Y0061229D01*
X0057133Y0061271D01*
X0057142Y0061313D01*
X0057148Y0061356D01*
X0057150Y0061400D01*
X0050500Y0061518D02*
X0049832Y0060850D01*
X0044000Y0060850D01*
X0043956Y0060852D01*
X0043913Y0060858D01*
X0043871Y0060867D01*
X0043829Y0060880D01*
X0043789Y0060897D01*
X0043750Y0060917D01*
X0043713Y0060940D01*
X0043679Y0060967D01*
X0043646Y0060996D01*
X0043617Y0061029D01*
X0043590Y0061063D01*
X0043567Y0061100D01*
X0043547Y0061139D01*
X0043530Y0061179D01*
X0043517Y0061221D01*
X0043508Y0061263D01*
X0043502Y0061306D01*
X0043500Y0061350D01*
X0043500Y0063850D01*
X0043502Y0063894D01*
X0043508Y0063937D01*
X0043517Y0063979D01*
X0043530Y0064021D01*
X0043547Y0064061D01*
X0043567Y0064100D01*
X0043590Y0064137D01*
X0043617Y0064171D01*
X0043646Y0064204D01*
X0043679Y0064233D01*
X0043713Y0064260D01*
X0043750Y0064283D01*
X0043789Y0064303D01*
X0043829Y0064320D01*
X0043871Y0064333D01*
X0043913Y0064342D01*
X0043956Y0064348D01*
X0044000Y0064350D01*
X0049832Y0064350D01*
X0050500Y0063682D01*
X0050500Y0061518D01*
X0050000Y0064750D02*
X0044000Y0064750D01*
X0043956Y0064752D01*
X0043913Y0064758D01*
X0043871Y0064767D01*
X0043829Y0064780D01*
X0043789Y0064797D01*
X0043750Y0064817D01*
X0043713Y0064840D01*
X0043679Y0064867D01*
X0043646Y0064896D01*
X0043617Y0064929D01*
X0043590Y0064963D01*
X0043567Y0065000D01*
X0043547Y0065039D01*
X0043530Y0065079D01*
X0043517Y0065121D01*
X0043508Y0065163D01*
X0043502Y0065206D01*
X0043500Y0065250D01*
X0043500Y0067750D01*
X0043502Y0067794D01*
X0043508Y0067837D01*
X0043517Y0067879D01*
X0043530Y0067921D01*
X0043547Y0067961D01*
X0043567Y0068000D01*
X0043590Y0068037D01*
X0043617Y0068071D01*
X0043646Y0068104D01*
X0043679Y0068133D01*
X0043713Y0068160D01*
X0043750Y0068183D01*
X0043789Y0068203D01*
X0043829Y0068220D01*
X0043871Y0068233D01*
X0043913Y0068242D01*
X0043956Y0068248D01*
X0044000Y0068250D01*
X0050000Y0068250D01*
X0050044Y0068248D01*
X0050087Y0068242D01*
X0050129Y0068233D01*
X0050171Y0068220D01*
X0050211Y0068203D01*
X0050250Y0068183D01*
X0050287Y0068160D01*
X0050321Y0068133D01*
X0050354Y0068104D01*
X0050383Y0068071D01*
X0050410Y0068037D01*
X0050433Y0068000D01*
X0050453Y0067961D01*
X0050470Y0067921D01*
X0050483Y0067879D01*
X0050492Y0067837D01*
X0050498Y0067794D01*
X0050500Y0067750D01*
X0050500Y0065250D01*
X0050498Y0065206D01*
X0050492Y0065163D01*
X0050483Y0065121D01*
X0050470Y0065079D01*
X0050453Y0065039D01*
X0050433Y0065000D01*
X0050410Y0064963D01*
X0050383Y0064929D01*
X0050354Y0064896D01*
X0050321Y0064867D01*
X0050287Y0064840D01*
X0050250Y0064817D01*
X0050211Y0064797D01*
X0050171Y0064780D01*
X0050129Y0064767D01*
X0050087Y0064758D01*
X0050044Y0064752D01*
X0050000Y0064750D01*
X0041050Y0071200D02*
X0041050Y0077200D01*
X0041048Y0077244D01*
X0041042Y0077287D01*
X0041033Y0077329D01*
X0041020Y0077371D01*
X0041003Y0077411D01*
X0040983Y0077450D01*
X0040960Y0077487D01*
X0040933Y0077521D01*
X0040904Y0077554D01*
X0040871Y0077583D01*
X0040837Y0077610D01*
X0040800Y0077633D01*
X0040761Y0077653D01*
X0040721Y0077670D01*
X0040679Y0077683D01*
X0040637Y0077692D01*
X0040594Y0077698D01*
X0040550Y0077700D01*
X0038050Y0077700D01*
X0038006Y0077698D01*
X0037963Y0077692D01*
X0037921Y0077683D01*
X0037879Y0077670D01*
X0037839Y0077653D01*
X0037800Y0077633D01*
X0037763Y0077610D01*
X0037729Y0077583D01*
X0037696Y0077554D01*
X0037667Y0077521D01*
X0037640Y0077487D01*
X0037617Y0077450D01*
X0037597Y0077411D01*
X0037580Y0077371D01*
X0037567Y0077329D01*
X0037558Y0077287D01*
X0037552Y0077244D01*
X0037550Y0077200D01*
X0037550Y0071200D01*
X0037552Y0071156D01*
X0037558Y0071113D01*
X0037567Y0071071D01*
X0037580Y0071029D01*
X0037597Y0070989D01*
X0037617Y0070950D01*
X0037640Y0070913D01*
X0037667Y0070879D01*
X0037696Y0070846D01*
X0037729Y0070817D01*
X0037763Y0070790D01*
X0037800Y0070767D01*
X0037839Y0070747D01*
X0037879Y0070730D01*
X0037921Y0070717D01*
X0037963Y0070708D01*
X0038006Y0070702D01*
X0038050Y0070700D01*
X0040550Y0070700D01*
X0040594Y0070702D01*
X0040637Y0070708D01*
X0040679Y0070717D01*
X0040721Y0070730D01*
X0040761Y0070747D01*
X0040800Y0070767D01*
X0040837Y0070790D01*
X0040871Y0070817D01*
X0040904Y0070846D01*
X0040933Y0070879D01*
X0040960Y0070913D01*
X0040983Y0070950D01*
X0041003Y0070989D01*
X0041020Y0071029D01*
X0041033Y0071071D01*
X0041042Y0071113D01*
X0041048Y0071156D01*
X0041050Y0071200D01*
X0058750Y0073200D02*
X0058750Y0079200D01*
X0058752Y0079244D01*
X0058758Y0079287D01*
X0058767Y0079329D01*
X0058780Y0079371D01*
X0058797Y0079411D01*
X0058817Y0079450D01*
X0058840Y0079487D01*
X0058867Y0079521D01*
X0058896Y0079554D01*
X0058929Y0079583D01*
X0058963Y0079610D01*
X0059000Y0079633D01*
X0059039Y0079653D01*
X0059079Y0079670D01*
X0059121Y0079683D01*
X0059163Y0079692D01*
X0059206Y0079698D01*
X0059250Y0079700D01*
X0061750Y0079700D01*
X0061794Y0079698D01*
X0061837Y0079692D01*
X0061879Y0079683D01*
X0061921Y0079670D01*
X0061961Y0079653D01*
X0062000Y0079633D01*
X0062037Y0079610D01*
X0062071Y0079583D01*
X0062104Y0079554D01*
X0062133Y0079521D01*
X0062160Y0079487D01*
X0062183Y0079450D01*
X0062203Y0079411D01*
X0062220Y0079371D01*
X0062233Y0079329D01*
X0062242Y0079287D01*
X0062248Y0079244D01*
X0062250Y0079200D01*
X0062250Y0073200D01*
X0062248Y0073156D01*
X0062242Y0073113D01*
X0062233Y0073071D01*
X0062220Y0073029D01*
X0062203Y0072989D01*
X0062183Y0072950D01*
X0062160Y0072913D01*
X0062133Y0072879D01*
X0062104Y0072846D01*
X0062071Y0072817D01*
X0062037Y0072790D01*
X0062000Y0072767D01*
X0061961Y0072747D01*
X0061921Y0072730D01*
X0061879Y0072717D01*
X0061837Y0072708D01*
X0061794Y0072702D01*
X0061750Y0072700D01*
X0059250Y0072700D01*
X0059206Y0072702D01*
X0059163Y0072708D01*
X0059121Y0072717D01*
X0059079Y0072730D01*
X0059039Y0072747D01*
X0059000Y0072767D01*
X0058963Y0072790D01*
X0058929Y0072817D01*
X0058896Y0072846D01*
X0058867Y0072879D01*
X0058840Y0072913D01*
X0058817Y0072950D01*
X0058797Y0072989D01*
X0058780Y0073029D01*
X0058767Y0073071D01*
X0058758Y0073113D01*
X0058752Y0073156D01*
X0058750Y0073200D01*
X0063100Y0073350D02*
X0063100Y0070850D01*
X0063102Y0070806D01*
X0063108Y0070763D01*
X0063117Y0070721D01*
X0063130Y0070679D01*
X0063147Y0070639D01*
X0063167Y0070600D01*
X0063190Y0070563D01*
X0063217Y0070529D01*
X0063246Y0070496D01*
X0063279Y0070467D01*
X0063313Y0070440D01*
X0063350Y0070417D01*
X0063389Y0070397D01*
X0063429Y0070380D01*
X0063471Y0070367D01*
X0063513Y0070358D01*
X0063556Y0070352D01*
X0063600Y0070350D01*
X0069600Y0070350D01*
X0069644Y0070352D01*
X0069687Y0070358D01*
X0069729Y0070367D01*
X0069771Y0070380D01*
X0069811Y0070397D01*
X0069850Y0070417D01*
X0069887Y0070440D01*
X0069921Y0070467D01*
X0069954Y0070496D01*
X0069983Y0070529D01*
X0070010Y0070563D01*
X0070033Y0070600D01*
X0070053Y0070639D01*
X0070070Y0070679D01*
X0070083Y0070721D01*
X0070092Y0070763D01*
X0070098Y0070806D01*
X0070100Y0070850D01*
X0070100Y0073350D01*
X0070098Y0073394D01*
X0070092Y0073437D01*
X0070083Y0073479D01*
X0070070Y0073521D01*
X0070053Y0073561D01*
X0070033Y0073600D01*
X0070010Y0073637D01*
X0069983Y0073671D01*
X0069954Y0073704D01*
X0069921Y0073733D01*
X0069887Y0073760D01*
X0069850Y0073783D01*
X0069811Y0073803D01*
X0069771Y0073820D01*
X0069729Y0073833D01*
X0069687Y0073842D01*
X0069644Y0073848D01*
X0069600Y0073850D01*
X0063600Y0073850D01*
X0063556Y0073848D01*
X0063513Y0073842D01*
X0063471Y0073833D01*
X0063429Y0073820D01*
X0063389Y0073803D01*
X0063350Y0073783D01*
X0063313Y0073760D01*
X0063279Y0073733D01*
X0063246Y0073704D01*
X0063217Y0073671D01*
X0063190Y0073637D01*
X0063167Y0073600D01*
X0063147Y0073561D01*
X0063130Y0073521D01*
X0063117Y0073479D01*
X0063108Y0073437D01*
X0063102Y0073394D01*
X0063100Y0073350D01*
X0066750Y0075500D02*
X0066750Y0081500D01*
X0066752Y0081544D01*
X0066758Y0081587D01*
X0066767Y0081629D01*
X0066780Y0081671D01*
X0066797Y0081711D01*
X0066817Y0081750D01*
X0066840Y0081787D01*
X0066867Y0081821D01*
X0066896Y0081854D01*
X0066929Y0081883D01*
X0066963Y0081910D01*
X0067000Y0081933D01*
X0067039Y0081953D01*
X0067079Y0081970D01*
X0067121Y0081983D01*
X0067163Y0081992D01*
X0067206Y0081998D01*
X0067250Y0082000D01*
X0069750Y0082000D01*
X0069794Y0081998D01*
X0069837Y0081992D01*
X0069879Y0081983D01*
X0069921Y0081970D01*
X0069961Y0081953D01*
X0070000Y0081933D01*
X0070037Y0081910D01*
X0070071Y0081883D01*
X0070104Y0081854D01*
X0070133Y0081821D01*
X0070160Y0081787D01*
X0070183Y0081750D01*
X0070203Y0081711D01*
X0070220Y0081671D01*
X0070233Y0081629D01*
X0070242Y0081587D01*
X0070248Y0081544D01*
X0070250Y0081500D01*
X0070250Y0075500D01*
X0070248Y0075456D01*
X0070242Y0075413D01*
X0070233Y0075371D01*
X0070220Y0075329D01*
X0070203Y0075289D01*
X0070183Y0075250D01*
X0070160Y0075213D01*
X0070133Y0075179D01*
X0070104Y0075146D01*
X0070071Y0075117D01*
X0070037Y0075090D01*
X0070000Y0075067D01*
X0069961Y0075047D01*
X0069921Y0075030D01*
X0069879Y0075017D01*
X0069837Y0075008D01*
X0069794Y0075002D01*
X0069750Y0075000D01*
X0067250Y0075000D01*
X0067206Y0075002D01*
X0067163Y0075008D01*
X0067121Y0075017D01*
X0067079Y0075030D01*
X0067039Y0075047D01*
X0067000Y0075067D01*
X0066963Y0075090D01*
X0066929Y0075117D01*
X0066896Y0075146D01*
X0066867Y0075179D01*
X0066840Y0075213D01*
X0066817Y0075250D01*
X0066797Y0075289D01*
X0066780Y0075329D01*
X0066767Y0075371D01*
X0066758Y0075413D01*
X0066752Y0075456D01*
X0066750Y0075500D01*
X0078950Y0076000D02*
X0078950Y0082000D01*
X0078952Y0082044D01*
X0078958Y0082087D01*
X0078967Y0082129D01*
X0078980Y0082171D01*
X0078997Y0082211D01*
X0079017Y0082250D01*
X0079040Y0082287D01*
X0079067Y0082321D01*
X0079096Y0082354D01*
X0079129Y0082383D01*
X0079163Y0082410D01*
X0079200Y0082433D01*
X0079239Y0082453D01*
X0079279Y0082470D01*
X0079321Y0082483D01*
X0079363Y0082492D01*
X0079406Y0082498D01*
X0079450Y0082500D01*
X0081950Y0082500D01*
X0081994Y0082498D01*
X0082037Y0082492D01*
X0082079Y0082483D01*
X0082121Y0082470D01*
X0082161Y0082453D01*
X0082200Y0082433D01*
X0082237Y0082410D01*
X0082271Y0082383D01*
X0082304Y0082354D01*
X0082333Y0082321D01*
X0082360Y0082287D01*
X0082383Y0082250D01*
X0082403Y0082211D01*
X0082420Y0082171D01*
X0082433Y0082129D01*
X0082442Y0082087D01*
X0082448Y0082044D01*
X0082450Y0082000D01*
X0082450Y0076000D01*
X0082448Y0075956D01*
X0082442Y0075913D01*
X0082433Y0075871D01*
X0082420Y0075829D01*
X0082403Y0075789D01*
X0082383Y0075750D01*
X0082360Y0075713D01*
X0082333Y0075679D01*
X0082304Y0075646D01*
X0082271Y0075617D01*
X0082237Y0075590D01*
X0082200Y0075567D01*
X0082161Y0075547D01*
X0082121Y0075530D01*
X0082079Y0075517D01*
X0082037Y0075508D01*
X0081994Y0075502D01*
X0081950Y0075500D01*
X0079450Y0075500D01*
X0079406Y0075502D01*
X0079363Y0075508D01*
X0079321Y0075517D01*
X0079279Y0075530D01*
X0079239Y0075547D01*
X0079200Y0075567D01*
X0079163Y0075590D01*
X0079129Y0075617D01*
X0079096Y0075646D01*
X0079067Y0075679D01*
X0079040Y0075713D01*
X0079017Y0075750D01*
X0078997Y0075789D01*
X0078980Y0075829D01*
X0078967Y0075871D01*
X0078958Y0075913D01*
X0078952Y0075956D01*
X0078950Y0076000D01*
X0083850Y0076000D02*
X0083850Y0082000D01*
X0083852Y0082044D01*
X0083858Y0082087D01*
X0083867Y0082129D01*
X0083880Y0082171D01*
X0083897Y0082211D01*
X0083917Y0082250D01*
X0083940Y0082287D01*
X0083967Y0082321D01*
X0083996Y0082354D01*
X0084029Y0082383D01*
X0084063Y0082410D01*
X0084100Y0082433D01*
X0084139Y0082453D01*
X0084179Y0082470D01*
X0084221Y0082483D01*
X0084263Y0082492D01*
X0084306Y0082498D01*
X0084350Y0082500D01*
X0086850Y0082500D01*
X0086894Y0082498D01*
X0086937Y0082492D01*
X0086979Y0082483D01*
X0087021Y0082470D01*
X0087061Y0082453D01*
X0087100Y0082433D01*
X0087137Y0082410D01*
X0087171Y0082383D01*
X0087204Y0082354D01*
X0087233Y0082321D01*
X0087260Y0082287D01*
X0087283Y0082250D01*
X0087303Y0082211D01*
X0087320Y0082171D01*
X0087333Y0082129D01*
X0087342Y0082087D01*
X0087348Y0082044D01*
X0087350Y0082000D01*
X0087350Y0076000D01*
X0087348Y0075956D01*
X0087342Y0075913D01*
X0087333Y0075871D01*
X0087320Y0075829D01*
X0087303Y0075789D01*
X0087283Y0075750D01*
X0087260Y0075713D01*
X0087233Y0075679D01*
X0087204Y0075646D01*
X0087171Y0075617D01*
X0087137Y0075590D01*
X0087100Y0075567D01*
X0087061Y0075547D01*
X0087021Y0075530D01*
X0086979Y0075517D01*
X0086937Y0075508D01*
X0086894Y0075502D01*
X0086850Y0075500D01*
X0084350Y0075500D01*
X0084306Y0075502D01*
X0084263Y0075508D01*
X0084221Y0075517D01*
X0084179Y0075530D01*
X0084139Y0075547D01*
X0084100Y0075567D01*
X0084063Y0075590D01*
X0084029Y0075617D01*
X0083996Y0075646D01*
X0083967Y0075679D01*
X0083940Y0075713D01*
X0083917Y0075750D01*
X0083897Y0075789D01*
X0083880Y0075829D01*
X0083867Y0075871D01*
X0083858Y0075913D01*
X0083852Y0075956D01*
X0083850Y0076000D01*
X0088950Y0075900D02*
X0088950Y0081900D01*
X0088952Y0081944D01*
X0088958Y0081987D01*
X0088967Y0082029D01*
X0088980Y0082071D01*
X0088997Y0082111D01*
X0089017Y0082150D01*
X0089040Y0082187D01*
X0089067Y0082221D01*
X0089096Y0082254D01*
X0089129Y0082283D01*
X0089163Y0082310D01*
X0089200Y0082333D01*
X0089239Y0082353D01*
X0089279Y0082370D01*
X0089321Y0082383D01*
X0089363Y0082392D01*
X0089406Y0082398D01*
X0089450Y0082400D01*
X0091950Y0082400D01*
X0091994Y0082398D01*
X0092037Y0082392D01*
X0092079Y0082383D01*
X0092121Y0082370D01*
X0092161Y0082353D01*
X0092200Y0082333D01*
X0092237Y0082310D01*
X0092271Y0082283D01*
X0092304Y0082254D01*
X0092333Y0082221D01*
X0092360Y0082187D01*
X0092383Y0082150D01*
X0092403Y0082111D01*
X0092420Y0082071D01*
X0092433Y0082029D01*
X0092442Y0081987D01*
X0092448Y0081944D01*
X0092450Y0081900D01*
X0092450Y0075900D01*
X0092448Y0075856D01*
X0092442Y0075813D01*
X0092433Y0075771D01*
X0092420Y0075729D01*
X0092403Y0075689D01*
X0092383Y0075650D01*
X0092360Y0075613D01*
X0092333Y0075579D01*
X0092304Y0075546D01*
X0092271Y0075517D01*
X0092237Y0075490D01*
X0092200Y0075467D01*
X0092161Y0075447D01*
X0092121Y0075430D01*
X0092079Y0075417D01*
X0092037Y0075408D01*
X0091994Y0075402D01*
X0091950Y0075400D01*
X0089450Y0075400D01*
X0089406Y0075402D01*
X0089363Y0075408D01*
X0089321Y0075417D01*
X0089279Y0075430D01*
X0089239Y0075447D01*
X0089200Y0075467D01*
X0089163Y0075490D01*
X0089129Y0075517D01*
X0089096Y0075546D01*
X0089067Y0075579D01*
X0089040Y0075613D01*
X0089017Y0075650D01*
X0088997Y0075689D01*
X0088980Y0075729D01*
X0088967Y0075771D01*
X0088958Y0075813D01*
X0088952Y0075856D01*
X0088950Y0075900D01*
X0106700Y0066250D02*
X0106700Y0063750D01*
X0106702Y0063706D01*
X0106708Y0063663D01*
X0106717Y0063621D01*
X0106730Y0063579D01*
X0106747Y0063539D01*
X0106767Y0063500D01*
X0106790Y0063463D01*
X0106817Y0063429D01*
X0106846Y0063396D01*
X0106879Y0063367D01*
X0106913Y0063340D01*
X0106950Y0063317D01*
X0106989Y0063297D01*
X0107029Y0063280D01*
X0107071Y0063267D01*
X0107113Y0063258D01*
X0107156Y0063252D01*
X0107200Y0063250D01*
X0113200Y0063250D01*
X0113244Y0063252D01*
X0113287Y0063258D01*
X0113329Y0063267D01*
X0113371Y0063280D01*
X0113411Y0063297D01*
X0113450Y0063317D01*
X0113487Y0063340D01*
X0113521Y0063367D01*
X0113554Y0063396D01*
X0113583Y0063429D01*
X0113610Y0063463D01*
X0113633Y0063500D01*
X0113653Y0063539D01*
X0113670Y0063579D01*
X0113683Y0063621D01*
X0113692Y0063663D01*
X0113698Y0063706D01*
X0113700Y0063750D01*
X0113700Y0066250D01*
X0113698Y0066294D01*
X0113692Y0066337D01*
X0113683Y0066379D01*
X0113670Y0066421D01*
X0113653Y0066461D01*
X0113633Y0066500D01*
X0113610Y0066537D01*
X0113583Y0066571D01*
X0113554Y0066604D01*
X0113521Y0066633D01*
X0113487Y0066660D01*
X0113450Y0066683D01*
X0113411Y0066703D01*
X0113371Y0066720D01*
X0113329Y0066733D01*
X0113287Y0066742D01*
X0113244Y0066748D01*
X0113200Y0066750D01*
X0107200Y0066750D01*
X0107156Y0066748D01*
X0107113Y0066742D01*
X0107071Y0066733D01*
X0107029Y0066720D01*
X0106989Y0066703D01*
X0106950Y0066683D01*
X0106913Y0066660D01*
X0106879Y0066633D01*
X0106846Y0066604D01*
X0106817Y0066571D01*
X0106790Y0066537D01*
X0106767Y0066500D01*
X0106747Y0066461D01*
X0106730Y0066421D01*
X0106717Y0066379D01*
X0106708Y0066337D01*
X0106702Y0066294D01*
X0106700Y0066250D01*
X0106850Y0062500D02*
X0109350Y0062500D01*
X0109394Y0062498D01*
X0109437Y0062492D01*
X0109479Y0062483D01*
X0109521Y0062470D01*
X0109561Y0062453D01*
X0109600Y0062433D01*
X0109637Y0062410D01*
X0109671Y0062383D01*
X0109704Y0062354D01*
X0109733Y0062321D01*
X0109760Y0062287D01*
X0109783Y0062250D01*
X0109803Y0062211D01*
X0109820Y0062171D01*
X0109833Y0062129D01*
X0109842Y0062087D01*
X0109848Y0062044D01*
X0109850Y0062000D01*
X0109850Y0056000D01*
X0110250Y0056000D02*
X0110250Y0062000D01*
X0110252Y0062044D01*
X0110258Y0062087D01*
X0110267Y0062129D01*
X0110280Y0062171D01*
X0110297Y0062211D01*
X0110317Y0062250D01*
X0110340Y0062287D01*
X0110367Y0062321D01*
X0110396Y0062354D01*
X0110429Y0062383D01*
X0110463Y0062410D01*
X0110500Y0062433D01*
X0110539Y0062453D01*
X0110579Y0062470D01*
X0110621Y0062483D01*
X0110663Y0062492D01*
X0110706Y0062498D01*
X0110750Y0062500D01*
X0113250Y0062500D01*
X0113294Y0062498D01*
X0113337Y0062492D01*
X0113379Y0062483D01*
X0113421Y0062470D01*
X0113461Y0062453D01*
X0113500Y0062433D01*
X0113537Y0062410D01*
X0113571Y0062383D01*
X0113604Y0062354D01*
X0113633Y0062321D01*
X0113660Y0062287D01*
X0113683Y0062250D01*
X0113703Y0062211D01*
X0113720Y0062171D01*
X0113733Y0062129D01*
X0113742Y0062087D01*
X0113748Y0062044D01*
X0113750Y0062000D01*
X0113750Y0056000D01*
X0113748Y0055956D01*
X0113742Y0055913D01*
X0113733Y0055871D01*
X0113720Y0055829D01*
X0113703Y0055789D01*
X0113683Y0055750D01*
X0113660Y0055713D01*
X0113633Y0055679D01*
X0113604Y0055646D01*
X0113571Y0055617D01*
X0113537Y0055590D01*
X0113500Y0055567D01*
X0113461Y0055547D01*
X0113421Y0055530D01*
X0113379Y0055517D01*
X0113337Y0055508D01*
X0113294Y0055502D01*
X0113250Y0055500D01*
X0110750Y0055500D01*
X0110706Y0055502D01*
X0110663Y0055508D01*
X0110621Y0055517D01*
X0110579Y0055530D01*
X0110539Y0055547D01*
X0110500Y0055567D01*
X0110463Y0055590D01*
X0110429Y0055617D01*
X0110396Y0055646D01*
X0110367Y0055679D01*
X0110340Y0055713D01*
X0110317Y0055750D01*
X0110297Y0055789D01*
X0110280Y0055829D01*
X0110267Y0055871D01*
X0110258Y0055913D01*
X0110252Y0055956D01*
X0110250Y0056000D01*
X0109850Y0056000D02*
X0109848Y0055956D01*
X0109842Y0055913D01*
X0109833Y0055871D01*
X0109820Y0055829D01*
X0109803Y0055789D01*
X0109783Y0055750D01*
X0109760Y0055713D01*
X0109733Y0055679D01*
X0109704Y0055646D01*
X0109671Y0055617D01*
X0109637Y0055590D01*
X0109600Y0055567D01*
X0109561Y0055547D01*
X0109521Y0055530D01*
X0109479Y0055517D01*
X0109437Y0055508D01*
X0109394Y0055502D01*
X0109350Y0055500D01*
X0106850Y0055500D01*
X0106806Y0055502D01*
X0106763Y0055508D01*
X0106721Y0055517D01*
X0106679Y0055530D01*
X0106639Y0055547D01*
X0106600Y0055567D01*
X0106563Y0055590D01*
X0106529Y0055617D01*
X0106496Y0055646D01*
X0106467Y0055679D01*
X0106440Y0055713D01*
X0106417Y0055750D01*
X0106397Y0055789D01*
X0106380Y0055829D01*
X0106367Y0055871D01*
X0106358Y0055913D01*
X0106352Y0055956D01*
X0106350Y0056000D01*
X0106350Y0062000D01*
X0106352Y0062044D01*
X0106358Y0062087D01*
X0106367Y0062129D01*
X0106380Y0062171D01*
X0106397Y0062211D01*
X0106417Y0062250D01*
X0106440Y0062287D01*
X0106467Y0062321D01*
X0106496Y0062354D01*
X0106529Y0062383D01*
X0106563Y0062410D01*
X0106600Y0062433D01*
X0106639Y0062453D01*
X0106679Y0062470D01*
X0106721Y0062483D01*
X0106763Y0062492D01*
X0106806Y0062498D01*
X0106850Y0062500D01*
X0115950Y0061800D02*
X0115950Y0055800D01*
X0115952Y0055756D01*
X0115958Y0055713D01*
X0115967Y0055671D01*
X0115980Y0055629D01*
X0115997Y0055589D01*
X0116017Y0055550D01*
X0116040Y0055513D01*
X0116067Y0055479D01*
X0116096Y0055446D01*
X0116129Y0055417D01*
X0116163Y0055390D01*
X0116200Y0055367D01*
X0116239Y0055347D01*
X0116279Y0055330D01*
X0116321Y0055317D01*
X0116363Y0055308D01*
X0116406Y0055302D01*
X0116450Y0055300D01*
X0118950Y0055300D01*
X0118994Y0055302D01*
X0119037Y0055308D01*
X0119079Y0055317D01*
X0119121Y0055330D01*
X0119161Y0055347D01*
X0119200Y0055367D01*
X0119237Y0055390D01*
X0119271Y0055417D01*
X0119304Y0055446D01*
X0119333Y0055479D01*
X0119360Y0055513D01*
X0119383Y0055550D01*
X0119403Y0055589D01*
X0119420Y0055629D01*
X0119433Y0055671D01*
X0119442Y0055713D01*
X0119448Y0055756D01*
X0119450Y0055800D01*
X0119450Y0061800D01*
X0119448Y0061844D01*
X0119442Y0061887D01*
X0119433Y0061929D01*
X0119420Y0061971D01*
X0119403Y0062011D01*
X0119383Y0062050D01*
X0119360Y0062087D01*
X0119333Y0062121D01*
X0119304Y0062154D01*
X0119271Y0062183D01*
X0119237Y0062210D01*
X0119200Y0062233D01*
X0119161Y0062253D01*
X0119121Y0062270D01*
X0119079Y0062283D01*
X0119037Y0062292D01*
X0118994Y0062298D01*
X0118950Y0062300D01*
X0116450Y0062300D01*
X0116406Y0062298D01*
X0116363Y0062292D01*
X0116321Y0062283D01*
X0116279Y0062270D01*
X0116239Y0062253D01*
X0116200Y0062233D01*
X0116163Y0062210D01*
X0116129Y0062183D01*
X0116096Y0062154D01*
X0116067Y0062121D01*
X0116040Y0062087D01*
X0116017Y0062050D01*
X0115997Y0062011D01*
X0115980Y0061971D01*
X0115967Y0061929D01*
X0115958Y0061887D01*
X0115952Y0061844D01*
X0115950Y0061800D01*
X0113200Y0055050D02*
X0107200Y0055050D01*
X0107156Y0055048D01*
X0107113Y0055042D01*
X0107071Y0055033D01*
X0107029Y0055020D01*
X0106989Y0055003D01*
X0106950Y0054983D01*
X0106913Y0054960D01*
X0106879Y0054933D01*
X0106846Y0054904D01*
X0106817Y0054871D01*
X0106790Y0054837D01*
X0106767Y0054800D01*
X0106747Y0054761D01*
X0106730Y0054721D01*
X0106717Y0054679D01*
X0106708Y0054637D01*
X0106702Y0054594D01*
X0106700Y0054550D01*
X0106700Y0052050D01*
X0106702Y0052006D01*
X0106708Y0051963D01*
X0106717Y0051921D01*
X0106730Y0051879D01*
X0106747Y0051839D01*
X0106767Y0051800D01*
X0106790Y0051763D01*
X0106817Y0051729D01*
X0106846Y0051696D01*
X0106879Y0051667D01*
X0106913Y0051640D01*
X0106950Y0051617D01*
X0106989Y0051597D01*
X0107029Y0051580D01*
X0107071Y0051567D01*
X0107113Y0051558D01*
X0107156Y0051552D01*
X0107200Y0051550D01*
X0113200Y0051550D01*
X0113244Y0051552D01*
X0113287Y0051558D01*
X0113329Y0051567D01*
X0113371Y0051580D01*
X0113411Y0051597D01*
X0113450Y0051617D01*
X0113487Y0051640D01*
X0113521Y0051667D01*
X0113554Y0051696D01*
X0113583Y0051729D01*
X0113610Y0051763D01*
X0113633Y0051800D01*
X0113653Y0051839D01*
X0113670Y0051879D01*
X0113683Y0051921D01*
X0113692Y0051963D01*
X0113698Y0052006D01*
X0113700Y0052050D01*
X0113700Y0054550D01*
X0113698Y0054594D01*
X0113692Y0054637D01*
X0113683Y0054679D01*
X0113670Y0054721D01*
X0113653Y0054761D01*
X0113633Y0054800D01*
X0113610Y0054837D01*
X0113583Y0054871D01*
X0113554Y0054904D01*
X0113521Y0054933D01*
X0113487Y0054960D01*
X0113450Y0054983D01*
X0113411Y0055003D01*
X0113371Y0055020D01*
X0113329Y0055033D01*
X0113287Y0055042D01*
X0113244Y0055048D01*
X0113200Y0055050D01*
X0113200Y0050950D02*
X0107200Y0050950D01*
X0107156Y0050948D01*
X0107113Y0050942D01*
X0107071Y0050933D01*
X0107029Y0050920D01*
X0106989Y0050903D01*
X0106950Y0050883D01*
X0106913Y0050860D01*
X0106879Y0050833D01*
X0106846Y0050804D01*
X0106817Y0050771D01*
X0106790Y0050737D01*
X0106767Y0050700D01*
X0106747Y0050661D01*
X0106730Y0050621D01*
X0106717Y0050579D01*
X0106708Y0050537D01*
X0106702Y0050494D01*
X0106700Y0050450D01*
X0106700Y0047950D01*
X0106702Y0047906D01*
X0106708Y0047863D01*
X0106717Y0047821D01*
X0106730Y0047779D01*
X0106747Y0047739D01*
X0106767Y0047700D01*
X0106790Y0047663D01*
X0106817Y0047629D01*
X0106846Y0047596D01*
X0106879Y0047567D01*
X0106913Y0047540D01*
X0106950Y0047517D01*
X0106989Y0047497D01*
X0107029Y0047480D01*
X0107071Y0047467D01*
X0107113Y0047458D01*
X0107156Y0047452D01*
X0107200Y0047450D01*
X0113200Y0047450D01*
X0113244Y0047452D01*
X0113287Y0047458D01*
X0113329Y0047467D01*
X0113371Y0047480D01*
X0113411Y0047497D01*
X0113450Y0047517D01*
X0113487Y0047540D01*
X0113521Y0047567D01*
X0113554Y0047596D01*
X0113583Y0047629D01*
X0113610Y0047663D01*
X0113633Y0047700D01*
X0113653Y0047739D01*
X0113670Y0047779D01*
X0113683Y0047821D01*
X0113692Y0047863D01*
X0113698Y0047906D01*
X0113700Y0047950D01*
X0113700Y0050450D01*
X0113698Y0050494D01*
X0113692Y0050537D01*
X0113683Y0050579D01*
X0113670Y0050621D01*
X0113653Y0050661D01*
X0113633Y0050700D01*
X0113610Y0050737D01*
X0113583Y0050771D01*
X0113554Y0050804D01*
X0113521Y0050833D01*
X0113487Y0050860D01*
X0113450Y0050883D01*
X0113411Y0050903D01*
X0113371Y0050920D01*
X0113329Y0050933D01*
X0113287Y0050942D01*
X0113244Y0050948D01*
X0113200Y0050950D01*
X0121850Y0052309D02*
X0121850Y0046478D01*
X0122518Y0045809D01*
X0124682Y0045809D01*
X0125350Y0046478D01*
X0125350Y0052309D01*
X0125348Y0052353D01*
X0125342Y0052396D01*
X0125333Y0052438D01*
X0125320Y0052480D01*
X0125303Y0052520D01*
X0125283Y0052559D01*
X0125260Y0052596D01*
X0125233Y0052630D01*
X0125204Y0052663D01*
X0125171Y0052692D01*
X0125137Y0052719D01*
X0125100Y0052742D01*
X0125061Y0052762D01*
X0125021Y0052779D01*
X0124979Y0052792D01*
X0124937Y0052801D01*
X0124894Y0052807D01*
X0124850Y0052809D01*
X0122350Y0052809D01*
X0122306Y0052807D01*
X0122263Y0052801D01*
X0122221Y0052792D01*
X0122179Y0052779D01*
X0122139Y0052762D01*
X0122100Y0052742D01*
X0122063Y0052719D01*
X0122029Y0052692D01*
X0121996Y0052663D01*
X0121967Y0052630D01*
X0121940Y0052596D01*
X0121917Y0052559D01*
X0121897Y0052520D01*
X0121880Y0052480D01*
X0121867Y0052438D01*
X0121858Y0052396D01*
X0121852Y0052353D01*
X0121850Y0052309D01*
X0131600Y0051150D02*
X0131600Y0053650D01*
X0131602Y0053694D01*
X0131608Y0053737D01*
X0131617Y0053779D01*
X0131630Y0053821D01*
X0131647Y0053861D01*
X0131667Y0053900D01*
X0131690Y0053937D01*
X0131717Y0053971D01*
X0131746Y0054004D01*
X0131779Y0054033D01*
X0131813Y0054060D01*
X0131850Y0054083D01*
X0131889Y0054103D01*
X0131929Y0054120D01*
X0131971Y0054133D01*
X0132013Y0054142D01*
X0132056Y0054148D01*
X0132100Y0054150D01*
X0138100Y0054150D01*
X0138144Y0054148D01*
X0138187Y0054142D01*
X0138229Y0054133D01*
X0138271Y0054120D01*
X0138311Y0054103D01*
X0138350Y0054083D01*
X0138387Y0054060D01*
X0138421Y0054033D01*
X0138454Y0054004D01*
X0138483Y0053971D01*
X0138510Y0053937D01*
X0138533Y0053900D01*
X0138553Y0053861D01*
X0138570Y0053821D01*
X0138583Y0053779D01*
X0138592Y0053737D01*
X0138598Y0053694D01*
X0138600Y0053650D01*
X0138600Y0051150D01*
X0138598Y0051106D01*
X0138592Y0051063D01*
X0138583Y0051021D01*
X0138570Y0050979D01*
X0138553Y0050939D01*
X0138533Y0050900D01*
X0138510Y0050863D01*
X0138483Y0050829D01*
X0138454Y0050796D01*
X0138421Y0050767D01*
X0138387Y0050740D01*
X0138350Y0050717D01*
X0138311Y0050697D01*
X0138271Y0050680D01*
X0138229Y0050667D01*
X0138187Y0050658D01*
X0138144Y0050652D01*
X0138100Y0050650D01*
X0132100Y0050650D01*
X0132050Y0050300D02*
X0134550Y0050300D01*
X0134594Y0050298D01*
X0134637Y0050292D01*
X0134679Y0050283D01*
X0134721Y0050270D01*
X0134761Y0050253D01*
X0134800Y0050233D01*
X0134837Y0050210D01*
X0134871Y0050183D01*
X0134904Y0050154D01*
X0134933Y0050121D01*
X0134960Y0050087D01*
X0134983Y0050050D01*
X0135003Y0050011D01*
X0135020Y0049971D01*
X0135033Y0049929D01*
X0135042Y0049887D01*
X0135048Y0049844D01*
X0135050Y0049800D01*
X0135050Y0043800D01*
X0135048Y0043756D01*
X0135042Y0043713D01*
X0135033Y0043671D01*
X0135020Y0043629D01*
X0135003Y0043589D01*
X0134983Y0043550D01*
X0134960Y0043513D01*
X0134933Y0043479D01*
X0134904Y0043446D01*
X0134871Y0043417D01*
X0134837Y0043390D01*
X0134800Y0043367D01*
X0134761Y0043347D01*
X0134721Y0043330D01*
X0134679Y0043317D01*
X0134637Y0043308D01*
X0134594Y0043302D01*
X0134550Y0043300D01*
X0132050Y0043300D01*
X0132006Y0043302D01*
X0131963Y0043308D01*
X0131921Y0043317D01*
X0131879Y0043330D01*
X0131839Y0043347D01*
X0131800Y0043367D01*
X0131763Y0043390D01*
X0131729Y0043417D01*
X0131696Y0043446D01*
X0131667Y0043479D01*
X0131640Y0043513D01*
X0131617Y0043550D01*
X0131597Y0043589D01*
X0131580Y0043629D01*
X0131567Y0043671D01*
X0131558Y0043713D01*
X0131552Y0043756D01*
X0131550Y0043800D01*
X0131550Y0049800D01*
X0131552Y0049844D01*
X0131558Y0049887D01*
X0131567Y0049929D01*
X0131580Y0049971D01*
X0131597Y0050011D01*
X0131617Y0050050D01*
X0131640Y0050087D01*
X0131667Y0050121D01*
X0131696Y0050154D01*
X0131729Y0050183D01*
X0131763Y0050210D01*
X0131800Y0050233D01*
X0131839Y0050253D01*
X0131879Y0050270D01*
X0131921Y0050283D01*
X0131963Y0050292D01*
X0132006Y0050298D01*
X0132050Y0050300D01*
X0132100Y0050650D02*
X0132056Y0050652D01*
X0132013Y0050658D01*
X0131971Y0050667D01*
X0131929Y0050680D01*
X0131889Y0050697D01*
X0131850Y0050717D01*
X0131813Y0050740D01*
X0131779Y0050767D01*
X0131746Y0050796D01*
X0131717Y0050829D01*
X0131690Y0050863D01*
X0131667Y0050900D01*
X0131647Y0050939D01*
X0131630Y0050979D01*
X0131617Y0051021D01*
X0131608Y0051063D01*
X0131602Y0051106D01*
X0131600Y0051150D01*
X0140850Y0050200D02*
X0140850Y0044200D01*
X0140852Y0044156D01*
X0140858Y0044113D01*
X0140867Y0044071D01*
X0140880Y0044029D01*
X0140897Y0043989D01*
X0140917Y0043950D01*
X0140940Y0043913D01*
X0140967Y0043879D01*
X0140996Y0043846D01*
X0141029Y0043817D01*
X0141063Y0043790D01*
X0141100Y0043767D01*
X0141139Y0043747D01*
X0141179Y0043730D01*
X0141221Y0043717D01*
X0141263Y0043708D01*
X0141306Y0043702D01*
X0141350Y0043700D01*
X0143850Y0043700D01*
X0143894Y0043702D01*
X0143937Y0043708D01*
X0143979Y0043717D01*
X0144021Y0043730D01*
X0144061Y0043747D01*
X0144100Y0043767D01*
X0144137Y0043790D01*
X0144171Y0043817D01*
X0144204Y0043846D01*
X0144233Y0043879D01*
X0144260Y0043913D01*
X0144283Y0043950D01*
X0144303Y0043989D01*
X0144320Y0044029D01*
X0144333Y0044071D01*
X0144342Y0044113D01*
X0144348Y0044156D01*
X0144350Y0044200D01*
X0144350Y0050200D01*
X0144348Y0050244D01*
X0144342Y0050287D01*
X0144333Y0050329D01*
X0144320Y0050371D01*
X0144303Y0050411D01*
X0144283Y0050450D01*
X0144260Y0050487D01*
X0144233Y0050521D01*
X0144204Y0050554D01*
X0144171Y0050583D01*
X0144137Y0050610D01*
X0144100Y0050633D01*
X0144061Y0050653D01*
X0144021Y0050670D01*
X0143979Y0050683D01*
X0143937Y0050692D01*
X0143894Y0050698D01*
X0143850Y0050700D01*
X0141350Y0050700D01*
X0141306Y0050698D01*
X0141263Y0050692D01*
X0141221Y0050683D01*
X0141179Y0050670D01*
X0141139Y0050653D01*
X0141100Y0050633D01*
X0141063Y0050610D01*
X0141029Y0050583D01*
X0140996Y0050554D01*
X0140967Y0050521D01*
X0140940Y0050487D01*
X0140917Y0050450D01*
X0140897Y0050411D01*
X0140880Y0050371D01*
X0140867Y0050329D01*
X0140858Y0050287D01*
X0140852Y0050244D01*
X0140850Y0050200D01*
X0150600Y0053550D02*
X0150600Y0056050D01*
X0150602Y0056094D01*
X0150608Y0056137D01*
X0150617Y0056179D01*
X0150630Y0056221D01*
X0150647Y0056261D01*
X0150667Y0056300D01*
X0150690Y0056337D01*
X0150717Y0056371D01*
X0150746Y0056404D01*
X0150779Y0056433D01*
X0150813Y0056460D01*
X0150850Y0056483D01*
X0150889Y0056503D01*
X0150929Y0056520D01*
X0150971Y0056533D01*
X0151013Y0056542D01*
X0151056Y0056548D01*
X0151100Y0056550D01*
X0157100Y0056550D01*
X0157144Y0056548D01*
X0157187Y0056542D01*
X0157229Y0056533D01*
X0157271Y0056520D01*
X0157311Y0056503D01*
X0157350Y0056483D01*
X0157387Y0056460D01*
X0157421Y0056433D01*
X0157454Y0056404D01*
X0157483Y0056371D01*
X0157510Y0056337D01*
X0157533Y0056300D01*
X0157553Y0056261D01*
X0157570Y0056221D01*
X0157583Y0056179D01*
X0157592Y0056137D01*
X0157598Y0056094D01*
X0157600Y0056050D01*
X0157600Y0053550D01*
X0157598Y0053506D01*
X0157592Y0053463D01*
X0157583Y0053421D01*
X0157570Y0053379D01*
X0157553Y0053339D01*
X0157533Y0053300D01*
X0157510Y0053263D01*
X0157483Y0053229D01*
X0157454Y0053196D01*
X0157421Y0053167D01*
X0157387Y0053140D01*
X0157350Y0053117D01*
X0157311Y0053097D01*
X0157271Y0053080D01*
X0157229Y0053067D01*
X0157187Y0053058D01*
X0157144Y0053052D01*
X0157100Y0053050D01*
X0151100Y0053050D01*
X0151056Y0053052D01*
X0151013Y0053058D01*
X0150971Y0053067D01*
X0150929Y0053080D01*
X0150889Y0053097D01*
X0150850Y0053117D01*
X0150813Y0053140D01*
X0150779Y0053167D01*
X0150746Y0053196D01*
X0150717Y0053229D01*
X0150690Y0053263D01*
X0150667Y0053300D01*
X0150647Y0053339D01*
X0150630Y0053379D01*
X0150617Y0053421D01*
X0150608Y0053463D01*
X0150602Y0053506D01*
X0150600Y0053550D01*
X0151100Y0057250D02*
X0157100Y0057250D01*
X0157144Y0057252D01*
X0157187Y0057258D01*
X0157229Y0057267D01*
X0157271Y0057280D01*
X0157311Y0057297D01*
X0157350Y0057317D01*
X0157387Y0057340D01*
X0157421Y0057367D01*
X0157454Y0057396D01*
X0157483Y0057429D01*
X0157510Y0057463D01*
X0157533Y0057500D01*
X0157553Y0057539D01*
X0157570Y0057579D01*
X0157583Y0057621D01*
X0157592Y0057663D01*
X0157598Y0057706D01*
X0157600Y0057750D01*
X0157600Y0060250D01*
X0157598Y0060294D01*
X0157592Y0060337D01*
X0157583Y0060379D01*
X0157570Y0060421D01*
X0157553Y0060461D01*
X0157533Y0060500D01*
X0157510Y0060537D01*
X0157483Y0060571D01*
X0157454Y0060604D01*
X0157421Y0060633D01*
X0157387Y0060660D01*
X0157350Y0060683D01*
X0157311Y0060703D01*
X0157271Y0060720D01*
X0157229Y0060733D01*
X0157187Y0060742D01*
X0157144Y0060748D01*
X0157100Y0060750D01*
X0151100Y0060750D01*
X0151056Y0060748D01*
X0151013Y0060742D01*
X0150971Y0060733D01*
X0150929Y0060720D01*
X0150889Y0060703D01*
X0150850Y0060683D01*
X0150813Y0060660D01*
X0150779Y0060633D01*
X0150746Y0060604D01*
X0150717Y0060571D01*
X0150690Y0060537D01*
X0150667Y0060500D01*
X0150647Y0060461D01*
X0150630Y0060421D01*
X0150617Y0060379D01*
X0150608Y0060337D01*
X0150602Y0060294D01*
X0150600Y0060250D01*
X0150600Y0057750D01*
X0150602Y0057706D01*
X0150608Y0057663D01*
X0150617Y0057621D01*
X0150630Y0057579D01*
X0150647Y0057539D01*
X0150667Y0057500D01*
X0150690Y0057463D01*
X0150717Y0057429D01*
X0150746Y0057396D01*
X0150779Y0057367D01*
X0150813Y0057340D01*
X0150850Y0057317D01*
X0150889Y0057297D01*
X0150929Y0057280D01*
X0150971Y0057267D01*
X0151013Y0057258D01*
X0151056Y0057252D01*
X0151100Y0057250D01*
X0151100Y0065250D02*
X0157100Y0065250D01*
X0157144Y0065252D01*
X0157187Y0065258D01*
X0157229Y0065267D01*
X0157271Y0065280D01*
X0157311Y0065297D01*
X0157350Y0065317D01*
X0157387Y0065340D01*
X0157421Y0065367D01*
X0157454Y0065396D01*
X0157483Y0065429D01*
X0157510Y0065463D01*
X0157533Y0065500D01*
X0157553Y0065539D01*
X0157570Y0065579D01*
X0157583Y0065621D01*
X0157592Y0065663D01*
X0157598Y0065706D01*
X0157600Y0065750D01*
X0157600Y0068250D01*
X0157598Y0068294D01*
X0157592Y0068337D01*
X0157583Y0068379D01*
X0157570Y0068421D01*
X0157553Y0068461D01*
X0157533Y0068500D01*
X0157510Y0068537D01*
X0157483Y0068571D01*
X0157454Y0068604D01*
X0157421Y0068633D01*
X0157387Y0068660D01*
X0157350Y0068683D01*
X0157311Y0068703D01*
X0157271Y0068720D01*
X0157229Y0068733D01*
X0157187Y0068742D01*
X0157144Y0068748D01*
X0157100Y0068750D01*
X0151100Y0068750D01*
X0151056Y0068748D01*
X0151013Y0068742D01*
X0150971Y0068733D01*
X0150929Y0068720D01*
X0150889Y0068703D01*
X0150850Y0068683D01*
X0150813Y0068660D01*
X0150779Y0068633D01*
X0150746Y0068604D01*
X0150717Y0068571D01*
X0150690Y0068537D01*
X0150667Y0068500D01*
X0150647Y0068461D01*
X0150630Y0068421D01*
X0150617Y0068379D01*
X0150608Y0068337D01*
X0150602Y0068294D01*
X0150600Y0068250D01*
X0150600Y0065750D01*
X0150602Y0065706D01*
X0150608Y0065663D01*
X0150617Y0065621D01*
X0150630Y0065579D01*
X0150647Y0065539D01*
X0150667Y0065500D01*
X0150690Y0065463D01*
X0150717Y0065429D01*
X0150746Y0065396D01*
X0150779Y0065367D01*
X0150813Y0065340D01*
X0150850Y0065317D01*
X0150889Y0065297D01*
X0150929Y0065280D01*
X0150971Y0065267D01*
X0151013Y0065258D01*
X0151056Y0065252D01*
X0151100Y0065250D01*
X0151100Y0069650D02*
X0157100Y0069650D01*
X0157144Y0069652D01*
X0157187Y0069658D01*
X0157229Y0069667D01*
X0157271Y0069680D01*
X0157311Y0069697D01*
X0157350Y0069717D01*
X0157387Y0069740D01*
X0157421Y0069767D01*
X0157454Y0069796D01*
X0157483Y0069829D01*
X0157510Y0069863D01*
X0157533Y0069900D01*
X0157553Y0069939D01*
X0157570Y0069979D01*
X0157583Y0070021D01*
X0157592Y0070063D01*
X0157598Y0070106D01*
X0157600Y0070150D01*
X0157600Y0072650D01*
X0157598Y0072694D01*
X0157592Y0072737D01*
X0157583Y0072779D01*
X0157570Y0072821D01*
X0157553Y0072861D01*
X0157533Y0072900D01*
X0157510Y0072937D01*
X0157483Y0072971D01*
X0157454Y0073004D01*
X0157421Y0073033D01*
X0157387Y0073060D01*
X0157350Y0073083D01*
X0157311Y0073103D01*
X0157271Y0073120D01*
X0157229Y0073133D01*
X0157187Y0073142D01*
X0157144Y0073148D01*
X0157100Y0073150D01*
X0151100Y0073150D01*
X0151056Y0073148D01*
X0151013Y0073142D01*
X0150971Y0073133D01*
X0150929Y0073120D01*
X0150889Y0073103D01*
X0150850Y0073083D01*
X0150813Y0073060D01*
X0150779Y0073033D01*
X0150746Y0073004D01*
X0150717Y0072971D01*
X0150690Y0072937D01*
X0150667Y0072900D01*
X0150647Y0072861D01*
X0150630Y0072821D01*
X0150617Y0072779D01*
X0150608Y0072737D01*
X0150602Y0072694D01*
X0150600Y0072650D01*
X0150600Y0070150D01*
X0150602Y0070106D01*
X0150608Y0070063D01*
X0150617Y0070021D01*
X0150630Y0069979D01*
X0150647Y0069939D01*
X0150667Y0069900D01*
X0150690Y0069863D01*
X0150717Y0069829D01*
X0150746Y0069796D01*
X0150779Y0069767D01*
X0150813Y0069740D01*
X0150850Y0069717D01*
X0150889Y0069697D01*
X0150929Y0069680D01*
X0150971Y0069667D01*
X0151013Y0069658D01*
X0151056Y0069652D01*
X0151100Y0069650D01*
X0119700Y0079350D02*
X0119700Y0081850D01*
X0119698Y0081894D01*
X0119692Y0081937D01*
X0119683Y0081979D01*
X0119670Y0082021D01*
X0119653Y0082061D01*
X0119633Y0082100D01*
X0119610Y0082137D01*
X0119583Y0082171D01*
X0119554Y0082204D01*
X0119521Y0082233D01*
X0119487Y0082260D01*
X0119450Y0082283D01*
X0119411Y0082303D01*
X0119371Y0082320D01*
X0119329Y0082333D01*
X0119287Y0082342D01*
X0119244Y0082348D01*
X0119200Y0082350D01*
X0113200Y0082350D01*
X0113156Y0082348D01*
X0113113Y0082342D01*
X0113071Y0082333D01*
X0113029Y0082320D01*
X0112989Y0082303D01*
X0112950Y0082283D01*
X0112913Y0082260D01*
X0112879Y0082233D01*
X0112846Y0082204D01*
X0112817Y0082171D01*
X0112790Y0082137D01*
X0112767Y0082100D01*
X0112747Y0082061D01*
X0112730Y0082021D01*
X0112717Y0081979D01*
X0112708Y0081937D01*
X0112702Y0081894D01*
X0112700Y0081850D01*
X0112700Y0079350D01*
X0112702Y0079306D01*
X0112708Y0079263D01*
X0112717Y0079221D01*
X0112730Y0079179D01*
X0112747Y0079139D01*
X0112767Y0079100D01*
X0112790Y0079063D01*
X0112817Y0079029D01*
X0112846Y0078996D01*
X0112879Y0078967D01*
X0112913Y0078940D01*
X0112950Y0078917D01*
X0112989Y0078897D01*
X0113029Y0078880D01*
X0113071Y0078867D01*
X0113113Y0078858D01*
X0113156Y0078852D01*
X0113200Y0078850D01*
X0119200Y0078850D01*
X0119244Y0078852D01*
X0119287Y0078858D01*
X0119329Y0078867D01*
X0119371Y0078880D01*
X0119411Y0078897D01*
X0119450Y0078917D01*
X0119487Y0078940D01*
X0119521Y0078967D01*
X0119554Y0078996D01*
X0119583Y0079029D01*
X0119610Y0079063D01*
X0119633Y0079100D01*
X0119653Y0079139D01*
X0119670Y0079179D01*
X0119683Y0079221D01*
X0119692Y0079263D01*
X0119698Y0079306D01*
X0119700Y0079350D01*
X0122350Y0043100D02*
X0124850Y0043100D01*
X0124894Y0043098D01*
X0124937Y0043092D01*
X0124979Y0043083D01*
X0125021Y0043070D01*
X0125061Y0043053D01*
X0125100Y0043033D01*
X0125137Y0043010D01*
X0125171Y0042983D01*
X0125204Y0042954D01*
X0125233Y0042921D01*
X0125260Y0042887D01*
X0125283Y0042850D01*
X0125303Y0042811D01*
X0125320Y0042771D01*
X0125333Y0042729D01*
X0125342Y0042687D01*
X0125348Y0042644D01*
X0125350Y0042600D01*
X0125350Y0036600D01*
X0125348Y0036556D01*
X0125342Y0036513D01*
X0125333Y0036471D01*
X0125320Y0036429D01*
X0125303Y0036389D01*
X0125283Y0036350D01*
X0125260Y0036313D01*
X0125233Y0036279D01*
X0125204Y0036246D01*
X0125171Y0036217D01*
X0125137Y0036190D01*
X0125100Y0036167D01*
X0125061Y0036147D01*
X0125021Y0036130D01*
X0124979Y0036117D01*
X0124937Y0036108D01*
X0124894Y0036102D01*
X0124850Y0036100D01*
X0122350Y0036100D01*
X0122306Y0036102D01*
X0122263Y0036108D01*
X0122221Y0036117D01*
X0122179Y0036130D01*
X0122139Y0036147D01*
X0122100Y0036167D01*
X0122063Y0036190D01*
X0122029Y0036217D01*
X0121996Y0036246D01*
X0121967Y0036279D01*
X0121940Y0036313D01*
X0121917Y0036350D01*
X0121897Y0036389D01*
X0121880Y0036429D01*
X0121867Y0036471D01*
X0121858Y0036513D01*
X0121852Y0036556D01*
X0121850Y0036600D01*
X0121850Y0042600D01*
X0121852Y0042644D01*
X0121858Y0042687D01*
X0121867Y0042729D01*
X0121880Y0042771D01*
X0121897Y0042811D01*
X0121917Y0042850D01*
X0121940Y0042887D01*
X0121967Y0042921D01*
X0121996Y0042954D01*
X0122029Y0042983D01*
X0122063Y0043010D01*
X0122100Y0043033D01*
X0122139Y0043053D01*
X0122179Y0043070D01*
X0122221Y0043083D01*
X0122263Y0043092D01*
X0122306Y0043098D01*
X0122350Y0043100D01*
X0150300Y0040050D02*
X0150300Y0037550D01*
X0150302Y0037506D01*
X0150308Y0037463D01*
X0150317Y0037421D01*
X0150330Y0037379D01*
X0150347Y0037339D01*
X0150367Y0037300D01*
X0150390Y0037263D01*
X0150417Y0037229D01*
X0150446Y0037196D01*
X0150479Y0037167D01*
X0150513Y0037140D01*
X0150550Y0037117D01*
X0150589Y0037097D01*
X0150629Y0037080D01*
X0150671Y0037067D01*
X0150713Y0037058D01*
X0150756Y0037052D01*
X0150800Y0037050D01*
X0156800Y0037050D01*
X0156844Y0037052D01*
X0156887Y0037058D01*
X0156929Y0037067D01*
X0156971Y0037080D01*
X0157011Y0037097D01*
X0157050Y0037117D01*
X0157087Y0037140D01*
X0157121Y0037167D01*
X0157154Y0037196D01*
X0157183Y0037229D01*
X0157210Y0037263D01*
X0157233Y0037300D01*
X0157253Y0037339D01*
X0157270Y0037379D01*
X0157283Y0037421D01*
X0157292Y0037463D01*
X0157298Y0037506D01*
X0157300Y0037550D01*
X0157300Y0040050D01*
X0157298Y0040094D01*
X0157292Y0040137D01*
X0157283Y0040179D01*
X0157270Y0040221D01*
X0157253Y0040261D01*
X0157233Y0040300D01*
X0157210Y0040337D01*
X0157183Y0040371D01*
X0157154Y0040404D01*
X0157121Y0040433D01*
X0157087Y0040460D01*
X0157050Y0040483D01*
X0157011Y0040503D01*
X0156971Y0040520D01*
X0156929Y0040533D01*
X0156887Y0040542D01*
X0156844Y0040548D01*
X0156800Y0040550D01*
X0150800Y0040550D01*
X0150756Y0040548D01*
X0150713Y0040542D01*
X0150671Y0040533D01*
X0150629Y0040520D01*
X0150589Y0040503D01*
X0150550Y0040483D01*
X0150513Y0040460D01*
X0150479Y0040433D01*
X0150446Y0040404D01*
X0150417Y0040371D01*
X0150390Y0040337D01*
X0150367Y0040300D01*
X0150347Y0040261D01*
X0150330Y0040221D01*
X0150317Y0040179D01*
X0150308Y0040137D01*
X0150302Y0040094D01*
X0150300Y0040050D01*
D14*
X0151814Y0036601D02*
X0151580Y0036368D01*
X0151580Y0035434D01*
X0151814Y0035200D01*
X0152281Y0035200D01*
X0152514Y0035434D01*
X0153053Y0035200D02*
X0153988Y0036134D01*
X0153988Y0036368D01*
X0153754Y0036601D01*
X0153287Y0036601D01*
X0153053Y0036368D01*
X0152514Y0036368D02*
X0152281Y0036601D01*
X0151814Y0036601D01*
X0153053Y0035200D02*
X0153988Y0035200D01*
X0154527Y0035901D02*
X0155227Y0036601D01*
X0155227Y0035200D01*
X0155461Y0035901D02*
X0154527Y0035901D01*
X0143361Y0040300D02*
X0142427Y0040300D01*
X0142894Y0040300D02*
X0142894Y0041701D01*
X0142427Y0041234D01*
X0141888Y0040300D02*
X0140953Y0040300D01*
X0141421Y0040300D02*
X0141421Y0041701D01*
X0140953Y0041234D01*
X0140414Y0041001D02*
X0140181Y0040767D01*
X0139480Y0040767D01*
X0139480Y0040300D02*
X0139480Y0041701D01*
X0140181Y0041701D01*
X0140414Y0041468D01*
X0140414Y0041001D01*
X0139947Y0040767D02*
X0140414Y0040300D01*
X0141014Y0036601D02*
X0141014Y0035200D01*
X0140547Y0035200D02*
X0141481Y0035200D01*
X0140547Y0036134D02*
X0141014Y0036601D01*
X0140007Y0036368D02*
X0140007Y0036134D01*
X0139073Y0035200D01*
X0140007Y0035200D01*
X0140007Y0036368D02*
X0139774Y0036601D01*
X0139307Y0036601D01*
X0139073Y0036368D01*
X0138534Y0036368D02*
X0138534Y0035901D01*
X0138301Y0035667D01*
X0137600Y0035667D01*
X0137600Y0035200D02*
X0137600Y0036601D01*
X0138301Y0036601D01*
X0138534Y0036368D01*
X0138067Y0035667D02*
X0138534Y0035200D01*
X0130161Y0031968D02*
X0130161Y0031034D01*
X0129927Y0030800D01*
X0129460Y0030800D01*
X0129227Y0031034D01*
X0129460Y0031501D02*
X0130161Y0031501D01*
X0130161Y0031968D02*
X0129927Y0032201D01*
X0129460Y0032201D01*
X0129227Y0031968D01*
X0129227Y0031734D01*
X0129460Y0031501D01*
X0128688Y0030800D02*
X0127753Y0030800D01*
X0128221Y0030800D02*
X0128221Y0032201D01*
X0127753Y0031734D01*
X0127214Y0031501D02*
X0126981Y0031267D01*
X0126280Y0031267D01*
X0126280Y0030800D02*
X0126280Y0032201D01*
X0126981Y0032201D01*
X0127214Y0031968D01*
X0127214Y0031501D01*
X0126747Y0031267D02*
X0127214Y0030800D01*
X0117964Y0030727D02*
X0117730Y0030961D01*
X0117263Y0030961D01*
X0117030Y0030727D01*
X0116491Y0030727D02*
X0116257Y0030961D01*
X0115790Y0030961D01*
X0115556Y0030727D01*
X0115556Y0029793D01*
X0115790Y0029559D01*
X0116257Y0029559D01*
X0116491Y0029793D01*
X0117030Y0029559D02*
X0117964Y0030494D01*
X0117964Y0030727D01*
X0117964Y0029559D02*
X0117030Y0029559D01*
X0108094Y0026701D02*
X0108094Y0025300D01*
X0107627Y0025300D02*
X0108561Y0025300D01*
X0107627Y0026234D02*
X0108094Y0026701D01*
X0107088Y0026468D02*
X0106854Y0026701D01*
X0106387Y0026701D01*
X0106153Y0026468D01*
X0106153Y0025534D01*
X0106387Y0025300D01*
X0106854Y0025300D01*
X0107088Y0025534D01*
X0097907Y0030734D02*
X0097907Y0030967D01*
X0097674Y0031201D01*
X0096973Y0031201D01*
X0096973Y0030734D01*
X0097207Y0030500D01*
X0097674Y0030500D01*
X0097907Y0030734D01*
X0097440Y0031668D02*
X0096973Y0031201D01*
X0097440Y0031668D02*
X0097907Y0031901D01*
X0096434Y0031668D02*
X0096201Y0031901D01*
X0095734Y0031901D01*
X0095500Y0031668D01*
X0095500Y0030734D01*
X0095734Y0030500D01*
X0096201Y0030500D01*
X0096434Y0030734D01*
X0089661Y0030300D02*
X0088727Y0030300D01*
X0089194Y0030300D02*
X0089194Y0031701D01*
X0088727Y0031234D01*
X0088188Y0031001D02*
X0087954Y0030767D01*
X0087253Y0030767D01*
X0087253Y0030300D02*
X0087253Y0031701D01*
X0087954Y0031701D01*
X0088188Y0031468D01*
X0088188Y0031001D01*
X0087721Y0030767D02*
X0088188Y0030300D01*
X0068461Y0040034D02*
X0068227Y0039800D01*
X0067760Y0039800D01*
X0067527Y0040034D01*
X0067527Y0040501D02*
X0067994Y0040734D01*
X0068227Y0040734D01*
X0068461Y0040501D01*
X0068461Y0040034D01*
X0067527Y0040501D02*
X0067527Y0041201D01*
X0068461Y0041201D01*
X0066988Y0040968D02*
X0066754Y0041201D01*
X0066287Y0041201D01*
X0066053Y0040968D01*
X0066053Y0040034D01*
X0066287Y0039800D01*
X0066754Y0039800D01*
X0066988Y0040034D01*
X0050481Y0040434D02*
X0050247Y0040200D01*
X0049780Y0040200D01*
X0049547Y0040434D01*
X0049547Y0040901D01*
X0050247Y0040901D01*
X0050481Y0040667D01*
X0050481Y0040434D01*
X0050014Y0041368D02*
X0049547Y0040901D01*
X0050014Y0041368D02*
X0050481Y0041601D01*
X0048540Y0041601D02*
X0048073Y0041134D01*
X0047534Y0040901D02*
X0047301Y0040667D01*
X0046600Y0040667D01*
X0046600Y0040200D02*
X0046600Y0041601D01*
X0047301Y0041601D01*
X0047534Y0041368D01*
X0047534Y0040901D01*
X0047067Y0040667D02*
X0047534Y0040200D01*
X0048073Y0040200D02*
X0049007Y0040200D01*
X0048540Y0040200D02*
X0048540Y0041601D01*
X0048627Y0047200D02*
X0048627Y0047434D01*
X0049561Y0048368D01*
X0049561Y0048601D01*
X0048627Y0048601D01*
X0048088Y0048368D02*
X0048088Y0047901D01*
X0047854Y0047667D01*
X0047153Y0047667D01*
X0047153Y0047200D02*
X0047153Y0048601D01*
X0047854Y0048601D01*
X0048088Y0048368D01*
X0047621Y0047667D02*
X0048088Y0047200D01*
X0047888Y0051200D02*
X0047421Y0051667D01*
X0047654Y0051667D02*
X0046953Y0051667D01*
X0046953Y0051200D02*
X0046953Y0052601D01*
X0047654Y0052601D01*
X0047888Y0052368D01*
X0047888Y0051901D01*
X0047654Y0051667D01*
X0048427Y0051667D02*
X0048660Y0051901D01*
X0049127Y0051901D01*
X0049361Y0051667D01*
X0049361Y0051434D01*
X0049127Y0051200D01*
X0048660Y0051200D01*
X0048427Y0051434D01*
X0048427Y0051667D01*
X0048660Y0051901D02*
X0048427Y0052134D01*
X0048427Y0052368D01*
X0048660Y0052601D01*
X0049127Y0052601D01*
X0049361Y0052368D01*
X0049361Y0052134D01*
X0049127Y0051901D01*
X0054250Y0054001D02*
X0054250Y0055402D01*
X0054951Y0055402D01*
X0055185Y0055168D01*
X0055185Y0054701D01*
X0054951Y0054468D01*
X0054250Y0054468D01*
X0054717Y0054468D02*
X0055185Y0054001D01*
X0055724Y0054234D02*
X0055957Y0054001D01*
X0056424Y0054001D01*
X0056658Y0054234D01*
X0056658Y0054701D01*
X0056191Y0054701D01*
X0055724Y0055168D02*
X0055724Y0054234D01*
X0055724Y0055168D02*
X0055957Y0055402D01*
X0056424Y0055402D01*
X0056658Y0055168D01*
X0057197Y0055402D02*
X0057197Y0054001D01*
X0057897Y0054001D01*
X0058131Y0054234D01*
X0058131Y0054468D01*
X0057897Y0054701D01*
X0057197Y0054701D01*
X0057897Y0054701D02*
X0058131Y0054935D01*
X0058131Y0055168D01*
X0057897Y0055402D01*
X0057197Y0055402D01*
X0058670Y0054701D02*
X0059604Y0054701D01*
X0060143Y0054935D02*
X0060610Y0055402D01*
X0060610Y0054001D01*
X0060143Y0054001D02*
X0061078Y0054001D01*
X0067499Y0056180D02*
X0067499Y0056881D01*
X0067732Y0057114D01*
X0068199Y0057114D01*
X0068433Y0056881D01*
X0068433Y0056180D01*
X0068900Y0056180D02*
X0067499Y0056180D01*
X0068433Y0056647D02*
X0068900Y0057114D01*
X0068900Y0057653D02*
X0068900Y0058588D01*
X0068900Y0058121D02*
X0067499Y0058121D01*
X0067966Y0057653D01*
X0067499Y0059127D02*
X0067499Y0060061D01*
X0067732Y0060061D01*
X0068666Y0059127D01*
X0068900Y0059127D01*
X0069133Y0061380D02*
X0069133Y0062081D01*
X0068899Y0062314D01*
X0068432Y0062314D01*
X0068199Y0062081D01*
X0068199Y0061380D01*
X0069600Y0061380D01*
X0069133Y0061847D02*
X0069600Y0062314D01*
X0069600Y0062853D02*
X0069600Y0063788D01*
X0069600Y0063321D02*
X0068199Y0063321D01*
X0068666Y0062853D01*
X0068666Y0064327D02*
X0068432Y0064327D01*
X0068199Y0064560D01*
X0068199Y0065027D01*
X0068432Y0065261D01*
X0068666Y0065261D01*
X0068899Y0065027D01*
X0068899Y0064560D01*
X0068666Y0064327D01*
X0068899Y0064560D02*
X0069133Y0064327D01*
X0069366Y0064327D01*
X0069600Y0064560D01*
X0069600Y0065027D01*
X0069366Y0065261D01*
X0069133Y0065261D01*
X0068899Y0065027D01*
X0066747Y0067500D02*
X0066280Y0067500D01*
X0066047Y0067734D01*
X0066981Y0068668D01*
X0066981Y0067734D01*
X0066747Y0067500D01*
X0066047Y0067734D02*
X0066047Y0068668D01*
X0066280Y0068901D01*
X0066747Y0068901D01*
X0066981Y0068668D01*
X0065507Y0068668D02*
X0065507Y0068434D01*
X0065274Y0068201D01*
X0065507Y0067967D01*
X0065507Y0067734D01*
X0065274Y0067500D01*
X0064807Y0067500D01*
X0064573Y0067734D01*
X0064034Y0067734D02*
X0063801Y0067500D01*
X0063334Y0067500D01*
X0063100Y0067734D01*
X0063100Y0068668D01*
X0063334Y0068901D01*
X0063801Y0068901D01*
X0064034Y0068668D01*
X0064573Y0068668D02*
X0064807Y0068901D01*
X0065274Y0068901D01*
X0065507Y0068668D01*
X0065274Y0068201D02*
X0065040Y0068201D01*
X0060700Y0069634D02*
X0060700Y0070101D01*
X0060466Y0070334D01*
X0060466Y0070873D02*
X0060700Y0071107D01*
X0060700Y0071574D01*
X0060466Y0071807D01*
X0059532Y0071807D01*
X0059299Y0071574D01*
X0059299Y0071107D01*
X0059532Y0070873D01*
X0059766Y0070873D01*
X0059999Y0071107D01*
X0059999Y0071807D01*
X0059532Y0070334D02*
X0059299Y0070101D01*
X0059299Y0069634D01*
X0059532Y0069400D01*
X0060466Y0069400D01*
X0060700Y0069634D01*
X0056674Y0060401D02*
X0055973Y0059701D01*
X0056907Y0059701D01*
X0056674Y0060401D02*
X0056674Y0059000D01*
X0055434Y0059000D02*
X0054967Y0059467D01*
X0055201Y0059467D02*
X0054500Y0059467D01*
X0054500Y0059000D02*
X0054500Y0060401D01*
X0055201Y0060401D01*
X0055434Y0060168D01*
X0055434Y0059701D01*
X0055201Y0059467D01*
X0042807Y0062300D02*
X0041873Y0062300D01*
X0042340Y0062300D02*
X0042340Y0063701D01*
X0041873Y0063234D01*
X0041334Y0063468D02*
X0041101Y0063701D01*
X0040400Y0063701D01*
X0040400Y0062300D01*
X0041101Y0062300D01*
X0041334Y0062534D01*
X0041334Y0063468D01*
X0041288Y0065800D02*
X0040353Y0065800D01*
X0040821Y0065800D02*
X0040821Y0067201D01*
X0040353Y0066734D01*
X0039814Y0066501D02*
X0039581Y0066267D01*
X0038880Y0066267D01*
X0038880Y0065800D02*
X0038880Y0067201D01*
X0039581Y0067201D01*
X0039814Y0066968D01*
X0039814Y0066501D01*
X0039347Y0066267D02*
X0039814Y0065800D01*
X0041827Y0066034D02*
X0042060Y0065800D01*
X0042527Y0065800D01*
X0042761Y0066034D01*
X0042761Y0066267D01*
X0042527Y0066501D01*
X0042294Y0066501D01*
X0042527Y0066501D02*
X0042761Y0066734D01*
X0042761Y0066968D01*
X0042527Y0067201D01*
X0042060Y0067201D01*
X0041827Y0066968D01*
X0039327Y0078600D02*
X0038860Y0078600D01*
X0038627Y0078834D01*
X0038627Y0079067D01*
X0038860Y0079301D01*
X0039327Y0079301D01*
X0039561Y0079067D01*
X0039561Y0078834D01*
X0039327Y0078600D01*
X0039327Y0079301D02*
X0039561Y0079534D01*
X0039561Y0079768D01*
X0039327Y0080001D01*
X0038860Y0080001D01*
X0038627Y0079768D01*
X0038627Y0079534D01*
X0038860Y0079301D01*
X0038088Y0079768D02*
X0037854Y0080001D01*
X0037387Y0080001D01*
X0037153Y0079768D01*
X0037153Y0078834D01*
X0037387Y0078600D01*
X0037854Y0078600D01*
X0038088Y0078834D01*
X0067080Y0082734D02*
X0067314Y0082500D01*
X0067781Y0082500D01*
X0068014Y0082734D01*
X0068553Y0082734D02*
X0068787Y0082500D01*
X0069254Y0082500D01*
X0069488Y0082734D01*
X0069488Y0082967D01*
X0069254Y0083201D01*
X0069021Y0083201D01*
X0069254Y0083201D02*
X0069488Y0083434D01*
X0069488Y0083668D01*
X0069254Y0083901D01*
X0068787Y0083901D01*
X0068553Y0083668D01*
X0068014Y0083668D02*
X0067781Y0083901D01*
X0067314Y0083901D01*
X0067080Y0083668D01*
X0067080Y0082734D01*
X0070027Y0082500D02*
X0070961Y0083434D01*
X0070961Y0083668D01*
X0070727Y0083901D01*
X0070260Y0083901D01*
X0070027Y0083668D01*
X0070027Y0082500D02*
X0070961Y0082500D01*
X0078700Y0083234D02*
X0078934Y0083000D01*
X0079401Y0083000D01*
X0079634Y0083234D01*
X0080173Y0083234D02*
X0080407Y0083000D01*
X0080874Y0083000D01*
X0081107Y0083234D01*
X0081107Y0083467D01*
X0080874Y0083701D01*
X0080640Y0083701D01*
X0080874Y0083701D02*
X0081107Y0083934D01*
X0081107Y0084168D01*
X0080874Y0084401D01*
X0080407Y0084401D01*
X0080173Y0084168D01*
X0079634Y0084168D02*
X0079401Y0084401D01*
X0078934Y0084401D01*
X0078700Y0084168D01*
X0078700Y0083234D01*
X0081647Y0083000D02*
X0082581Y0083000D01*
X0082114Y0083000D02*
X0082114Y0084401D01*
X0081647Y0083934D01*
X0084834Y0075001D02*
X0084600Y0074768D01*
X0084600Y0073834D01*
X0084834Y0073600D01*
X0085301Y0073600D01*
X0085534Y0073834D01*
X0086073Y0074301D02*
X0086774Y0075001D01*
X0086774Y0073600D01*
X0087007Y0074301D02*
X0086073Y0074301D01*
X0085534Y0074768D02*
X0085301Y0075001D01*
X0084834Y0075001D01*
X0088800Y0074701D02*
X0088800Y0073300D01*
X0088800Y0073767D02*
X0089501Y0073767D01*
X0089734Y0074001D01*
X0089734Y0074468D01*
X0089501Y0074701D01*
X0088800Y0074701D01*
X0089267Y0073767D02*
X0089734Y0073300D01*
X0090273Y0073300D02*
X0091207Y0074234D01*
X0091207Y0074468D01*
X0090974Y0074701D01*
X0090507Y0074701D01*
X0090273Y0074468D01*
X0090273Y0073300D02*
X0091207Y0073300D01*
X0091747Y0073534D02*
X0091980Y0073300D01*
X0092447Y0073300D01*
X0092681Y0073534D01*
X0092681Y0074468D01*
X0091747Y0073534D01*
X0091747Y0074468D01*
X0091980Y0074701D01*
X0092447Y0074701D01*
X0092681Y0074468D01*
X0100963Y0073219D02*
X0101897Y0073219D01*
X0101430Y0073219D02*
X0101430Y0071818D01*
X0102436Y0071818D02*
X0103370Y0071818D01*
X0102903Y0071818D02*
X0102903Y0073219D01*
X0102436Y0072752D01*
X0109599Y0073180D02*
X0109832Y0072947D01*
X0110066Y0072947D01*
X0110299Y0073180D01*
X0110299Y0073881D01*
X0109832Y0073881D02*
X0109599Y0073647D01*
X0109599Y0073180D01*
X0109832Y0073881D02*
X0110766Y0073881D01*
X0111000Y0073647D01*
X0111000Y0073180D01*
X0110766Y0072947D01*
X0111000Y0072407D02*
X0111000Y0071473D01*
X0110066Y0072407D01*
X0109832Y0072407D01*
X0109599Y0072174D01*
X0109599Y0071707D01*
X0109832Y0071473D01*
X0109832Y0070934D02*
X0109599Y0070701D01*
X0109599Y0070234D01*
X0109832Y0070000D01*
X0110766Y0070000D01*
X0111000Y0070234D01*
X0111000Y0070701D01*
X0110766Y0070934D01*
X0111899Y0070801D02*
X0111899Y0070334D01*
X0112132Y0070100D01*
X0113066Y0070100D01*
X0113300Y0070334D01*
X0113300Y0070801D01*
X0113066Y0071034D01*
X0113300Y0071573D02*
X0112366Y0072507D01*
X0112132Y0072507D01*
X0111899Y0072274D01*
X0111899Y0071807D01*
X0112132Y0071573D01*
X0112132Y0071034D02*
X0111899Y0070801D01*
X0113300Y0071573D02*
X0113300Y0072507D01*
X0113066Y0073047D02*
X0112132Y0073981D01*
X0113066Y0073981D01*
X0113300Y0073747D01*
X0113300Y0073280D01*
X0113066Y0073047D01*
X0112132Y0073047D01*
X0111899Y0073280D01*
X0111899Y0073747D01*
X0112132Y0073981D01*
X0112834Y0076900D02*
X0113301Y0076900D01*
X0113534Y0077134D01*
X0114073Y0076900D02*
X0115007Y0076900D01*
X0114540Y0076900D02*
X0114540Y0078301D01*
X0114073Y0077834D01*
X0113534Y0078068D02*
X0113301Y0078301D01*
X0112834Y0078301D01*
X0112600Y0078068D01*
X0112600Y0077134D01*
X0112834Y0076900D01*
X0115547Y0077134D02*
X0115547Y0077367D01*
X0115780Y0077601D01*
X0116247Y0077601D01*
X0116481Y0077367D01*
X0116481Y0077134D01*
X0116247Y0076900D01*
X0115780Y0076900D01*
X0115547Y0077134D01*
X0115780Y0077601D02*
X0115547Y0077834D01*
X0115547Y0078068D01*
X0115780Y0078301D01*
X0116247Y0078301D01*
X0116481Y0078068D01*
X0116481Y0077834D01*
X0116247Y0077601D01*
X0106107Y0066101D02*
X0105173Y0066101D01*
X0105173Y0065401D01*
X0105640Y0065634D01*
X0105874Y0065634D01*
X0106107Y0065401D01*
X0106107Y0064934D01*
X0105874Y0064700D01*
X0105407Y0064700D01*
X0105173Y0064934D01*
X0104634Y0064700D02*
X0104167Y0065167D01*
X0104401Y0065167D02*
X0103700Y0065167D01*
X0103700Y0064700D02*
X0103700Y0066101D01*
X0104401Y0066101D01*
X0104634Y0065868D01*
X0104634Y0065401D01*
X0104401Y0065167D01*
X0116700Y0064601D02*
X0116700Y0063200D01*
X0116700Y0063667D02*
X0117401Y0063667D01*
X0117634Y0063901D01*
X0117634Y0064368D01*
X0117401Y0064601D01*
X0116700Y0064601D01*
X0117167Y0063667D02*
X0117634Y0063200D01*
X0118173Y0063200D02*
X0119107Y0063200D01*
X0118640Y0063200D02*
X0118640Y0064601D01*
X0118173Y0064134D01*
X0119647Y0064368D02*
X0119647Y0063434D01*
X0120581Y0064368D01*
X0120581Y0063434D01*
X0120347Y0063200D01*
X0119880Y0063200D01*
X0119647Y0063434D01*
X0119647Y0064368D02*
X0119880Y0064601D01*
X0120347Y0064601D01*
X0120581Y0064368D01*
X0106181Y0053668D02*
X0105947Y0053901D01*
X0105480Y0053901D01*
X0105247Y0053668D01*
X0105247Y0053434D01*
X0105480Y0053201D01*
X0106181Y0053201D01*
X0106181Y0052734D02*
X0106181Y0053668D01*
X0106181Y0052734D02*
X0105947Y0052500D01*
X0105480Y0052500D01*
X0105247Y0052734D01*
X0104707Y0052500D02*
X0103773Y0052500D01*
X0104240Y0052500D02*
X0104240Y0053901D01*
X0103773Y0053434D01*
X0103234Y0053668D02*
X0103001Y0053901D01*
X0102534Y0053901D01*
X0102300Y0053668D01*
X0102300Y0052734D01*
X0102534Y0052500D01*
X0103001Y0052500D01*
X0103234Y0052734D01*
X0103589Y0049742D02*
X0103356Y0049508D01*
X0103356Y0048574D01*
X0103589Y0048341D01*
X0104056Y0048341D01*
X0104290Y0048574D01*
X0104829Y0048574D02*
X0105062Y0048341D01*
X0105529Y0048341D01*
X0105763Y0048574D01*
X0105763Y0048808D01*
X0105529Y0049041D01*
X0105296Y0049041D01*
X0105529Y0049041D02*
X0105763Y0049275D01*
X0105763Y0049508D01*
X0105529Y0049742D01*
X0105062Y0049742D01*
X0104829Y0049508D01*
X0104290Y0049508D02*
X0104056Y0049742D01*
X0103589Y0049742D01*
X0117069Y0042483D02*
X0118470Y0042483D01*
X0118470Y0042016D02*
X0118470Y0042950D01*
X0117536Y0042016D02*
X0117069Y0042483D01*
X0117769Y0041477D02*
X0117769Y0040542D01*
X0117069Y0040003D02*
X0118470Y0039069D01*
X0118470Y0040003D02*
X0117069Y0039069D01*
X0126100Y0038967D02*
X0126801Y0038967D01*
X0127034Y0039201D01*
X0127034Y0039668D01*
X0126801Y0039901D01*
X0126100Y0039901D01*
X0126100Y0038500D01*
X0126567Y0038967D02*
X0127034Y0038500D01*
X0127573Y0038500D02*
X0128507Y0039434D01*
X0128507Y0039668D01*
X0128274Y0039901D01*
X0127807Y0039901D01*
X0127573Y0039668D01*
X0127573Y0038500D02*
X0128507Y0038500D01*
X0139099Y0045114D02*
X0139332Y0044880D01*
X0140266Y0044880D01*
X0140500Y0045114D01*
X0140500Y0045581D01*
X0140266Y0045814D01*
X0140500Y0046353D02*
X0139566Y0047288D01*
X0139332Y0047288D01*
X0139099Y0047054D01*
X0139099Y0046587D01*
X0139332Y0046353D01*
X0139332Y0045814D02*
X0139099Y0045581D01*
X0139099Y0045114D01*
X0140500Y0046353D02*
X0140500Y0047288D01*
X0140266Y0047827D02*
X0140500Y0048060D01*
X0140500Y0048527D01*
X0140266Y0048761D01*
X0140033Y0048761D01*
X0139799Y0048527D01*
X0139799Y0048294D01*
X0139799Y0048527D02*
X0139566Y0048761D01*
X0139332Y0048761D01*
X0139099Y0048527D01*
X0139099Y0048060D01*
X0139332Y0047827D01*
X0134500Y0050253D02*
X0134500Y0051188D01*
X0134500Y0051727D02*
X0134500Y0052661D01*
X0134500Y0052194D02*
X0133099Y0052194D01*
X0133566Y0051727D01*
X0133099Y0050253D02*
X0134500Y0050253D01*
X0139200Y0052234D02*
X0139434Y0052000D01*
X0139901Y0052000D01*
X0140134Y0052234D01*
X0140673Y0052000D02*
X0141607Y0052934D01*
X0141607Y0053168D01*
X0141374Y0053401D01*
X0140907Y0053401D01*
X0140673Y0053168D01*
X0140134Y0053168D02*
X0139901Y0053401D01*
X0139434Y0053401D01*
X0139200Y0053168D01*
X0139200Y0052234D01*
X0140673Y0052000D02*
X0141607Y0052000D01*
X0142147Y0052000D02*
X0143081Y0052934D01*
X0143081Y0053168D01*
X0142847Y0053401D01*
X0142380Y0053401D01*
X0142147Y0053168D01*
X0142147Y0052000D02*
X0143081Y0052000D01*
X0146300Y0054534D02*
X0146534Y0054300D01*
X0147001Y0054300D01*
X0147234Y0054534D01*
X0147773Y0054300D02*
X0148707Y0055234D01*
X0148707Y0055468D01*
X0148474Y0055701D01*
X0148007Y0055701D01*
X0147773Y0055468D01*
X0147234Y0055468D02*
X0147001Y0055701D01*
X0146534Y0055701D01*
X0146300Y0055468D01*
X0146300Y0054534D01*
X0147773Y0054300D02*
X0148707Y0054300D01*
X0149247Y0054534D02*
X0149480Y0054300D01*
X0149947Y0054300D01*
X0150181Y0054534D01*
X0150181Y0055001D01*
X0149947Y0055234D01*
X0149714Y0055234D01*
X0149247Y0055001D01*
X0149247Y0055701D01*
X0150181Y0055701D01*
X0155800Y0061534D02*
X0156034Y0061300D01*
X0156501Y0061300D01*
X0156734Y0061534D01*
X0157273Y0061300D02*
X0158207Y0062234D01*
X0158207Y0062468D01*
X0157974Y0062701D01*
X0157507Y0062701D01*
X0157273Y0062468D01*
X0156734Y0062468D02*
X0156501Y0062701D01*
X0156034Y0062701D01*
X0155800Y0062468D01*
X0155800Y0061534D01*
X0157273Y0061300D02*
X0158207Y0061300D01*
X0158747Y0061534D02*
X0158980Y0061300D01*
X0159447Y0061300D01*
X0159681Y0061534D01*
X0159681Y0061767D01*
X0159447Y0062001D01*
X0158747Y0062001D01*
X0158747Y0061534D01*
X0158747Y0062001D02*
X0159214Y0062468D01*
X0159681Y0062701D01*
X0154161Y0063634D02*
X0153927Y0063400D01*
X0153460Y0063400D01*
X0153227Y0063634D01*
X0153227Y0063867D01*
X0153460Y0064101D01*
X0153927Y0064101D01*
X0154161Y0063867D01*
X0154161Y0063634D01*
X0153927Y0064101D02*
X0154161Y0064334D01*
X0154161Y0064568D01*
X0153927Y0064801D01*
X0153460Y0064801D01*
X0153227Y0064568D01*
X0153227Y0064334D01*
X0153460Y0064101D01*
X0152688Y0064334D02*
X0152688Y0064568D01*
X0152454Y0064801D01*
X0151987Y0064801D01*
X0151753Y0064568D01*
X0151214Y0064568D02*
X0150981Y0064801D01*
X0150514Y0064801D01*
X0150280Y0064568D01*
X0150280Y0063634D01*
X0150514Y0063400D01*
X0150981Y0063400D01*
X0151214Y0063634D01*
X0151753Y0063400D02*
X0152688Y0064334D01*
X0152688Y0063400D02*
X0151753Y0063400D01*
X0155434Y0073800D02*
X0155901Y0073800D01*
X0156134Y0074034D01*
X0156673Y0073800D02*
X0157607Y0074734D01*
X0157607Y0074968D01*
X0157374Y0075201D01*
X0156907Y0075201D01*
X0156673Y0074968D01*
X0156134Y0074968D02*
X0155901Y0075201D01*
X0155434Y0075201D01*
X0155200Y0074968D01*
X0155200Y0074034D01*
X0155434Y0073800D01*
X0156673Y0073800D02*
X0157607Y0073800D01*
X0158147Y0073800D02*
X0158147Y0074034D01*
X0159081Y0074968D01*
X0159081Y0075201D01*
X0158147Y0075201D01*
X0151251Y0080100D02*
X0150317Y0080100D01*
X0151251Y0081034D01*
X0151251Y0081268D01*
X0151017Y0081501D01*
X0150550Y0081501D01*
X0150317Y0081268D01*
X0149777Y0081501D02*
X0149777Y0080334D01*
X0149544Y0080100D01*
X0149077Y0080100D01*
X0148843Y0080334D01*
X0148843Y0081501D01*
X0128164Y0051101D02*
X0127697Y0051101D01*
X0127464Y0050868D01*
X0126925Y0050868D02*
X0126691Y0051101D01*
X0125991Y0051101D01*
X0125991Y0049700D01*
X0126691Y0049700D01*
X0126925Y0049934D01*
X0126925Y0050868D01*
X0128164Y0051101D02*
X0128398Y0050868D01*
X0128398Y0050634D01*
X0127464Y0049700D01*
X0128398Y0049700D01*
X0158168Y0048236D02*
X0158168Y0047769D01*
X0158402Y0047535D01*
X0158869Y0048002D02*
X0158869Y0048236D01*
X0159102Y0048470D01*
X0159336Y0048470D01*
X0159569Y0048236D01*
X0159569Y0047769D01*
X0159336Y0047535D01*
X0158869Y0046996D02*
X0158869Y0046062D01*
X0159569Y0045523D02*
X0158168Y0044589D01*
X0158168Y0045523D02*
X0159569Y0044589D01*
X0158869Y0048236D02*
X0158635Y0048470D01*
X0158402Y0048470D01*
X0158168Y0048236D01*
X0157371Y0020017D02*
X0157371Y0018616D01*
X0156904Y0018616D02*
X0157838Y0018616D01*
X0156904Y0019550D02*
X0157371Y0020017D01*
X0156365Y0020017D02*
X0155431Y0020017D01*
X0155898Y0020017D02*
X0155898Y0018616D01*
X0154892Y0018616D02*
X0154892Y0020017D01*
X0153958Y0020017D02*
X0153958Y0018616D01*
X0153418Y0018616D02*
X0153418Y0019550D01*
X0152951Y0020017D01*
X0152484Y0019550D01*
X0152484Y0018616D01*
X0152484Y0019316D02*
X0153418Y0019316D01*
X0153958Y0020017D02*
X0154892Y0018616D01*
D15*
X0145533Y0082246D02*
X0145535Y0082302D01*
X0145541Y0082357D01*
X0145551Y0082411D01*
X0145564Y0082465D01*
X0145582Y0082518D01*
X0145603Y0082569D01*
X0145627Y0082619D01*
X0145655Y0082667D01*
X0145687Y0082713D01*
X0145721Y0082757D01*
X0145759Y0082798D01*
X0145799Y0082836D01*
X0145842Y0082871D01*
X0145887Y0082903D01*
X0145935Y0082932D01*
X0145984Y0082958D01*
X0146035Y0082980D01*
X0146087Y0082998D01*
X0146141Y0083012D01*
X0146196Y0083023D01*
X0146251Y0083030D01*
X0146306Y0083033D01*
X0146362Y0083032D01*
X0146417Y0083027D01*
X0146472Y0083018D01*
X0146526Y0083006D01*
X0146579Y0082989D01*
X0146631Y0082969D01*
X0146681Y0082945D01*
X0146729Y0082918D01*
X0146776Y0082888D01*
X0146820Y0082854D01*
X0146862Y0082817D01*
X0146900Y0082777D01*
X0146937Y0082735D01*
X0146970Y0082690D01*
X0146999Y0082644D01*
X0147026Y0082595D01*
X0147048Y0082544D01*
X0147068Y0082492D01*
X0147083Y0082438D01*
X0147095Y0082384D01*
X0147103Y0082329D01*
X0147107Y0082274D01*
X0147107Y0082218D01*
X0147103Y0082163D01*
X0147095Y0082108D01*
X0147083Y0082054D01*
X0147068Y0082000D01*
X0147048Y0081948D01*
X0147026Y0081897D01*
X0146999Y0081848D01*
X0146970Y0081802D01*
X0146937Y0081757D01*
X0146900Y0081715D01*
X0146862Y0081675D01*
X0146820Y0081638D01*
X0146776Y0081604D01*
X0146729Y0081574D01*
X0146681Y0081547D01*
X0146631Y0081523D01*
X0146579Y0081503D01*
X0146526Y0081486D01*
X0146472Y0081474D01*
X0146417Y0081465D01*
X0146362Y0081460D01*
X0146306Y0081459D01*
X0146251Y0081462D01*
X0146196Y0081469D01*
X0146141Y0081480D01*
X0146087Y0081494D01*
X0146035Y0081512D01*
X0145984Y0081534D01*
X0145935Y0081560D01*
X0145887Y0081589D01*
X0145842Y0081621D01*
X0145799Y0081656D01*
X0145759Y0081694D01*
X0145721Y0081735D01*
X0145687Y0081779D01*
X0145655Y0081825D01*
X0145627Y0081873D01*
X0145603Y0081923D01*
X0145582Y0081974D01*
X0145564Y0082027D01*
X0145551Y0082081D01*
X0145541Y0082135D01*
X0145535Y0082190D01*
X0145533Y0082246D01*
D16*
X0101336Y0039869D03*
D17*
X0130664Y0019500D03*
D18*
X0077674Y0075323D02*
X0077674Y0080717D01*
X0072005Y0080677D02*
X0072005Y0075323D01*
X0071060Y0074732D02*
X0071062Y0074771D01*
X0071068Y0074810D01*
X0071078Y0074848D01*
X0071091Y0074885D01*
X0071108Y0074920D01*
X0071128Y0074954D01*
X0071152Y0074985D01*
X0071179Y0075014D01*
X0071208Y0075040D01*
X0071240Y0075063D01*
X0071274Y0075083D01*
X0071310Y0075099D01*
X0071347Y0075111D01*
X0071386Y0075120D01*
X0071425Y0075125D01*
X0071464Y0075126D01*
X0071503Y0075123D01*
X0071542Y0075116D01*
X0071579Y0075105D01*
X0071616Y0075091D01*
X0071651Y0075073D01*
X0071684Y0075052D01*
X0071715Y0075027D01*
X0071743Y0075000D01*
X0071768Y0074970D01*
X0071790Y0074937D01*
X0071809Y0074903D01*
X0071824Y0074867D01*
X0071836Y0074829D01*
X0071844Y0074791D01*
X0071848Y0074752D01*
X0071848Y0074712D01*
X0071844Y0074673D01*
X0071836Y0074635D01*
X0071824Y0074597D01*
X0071809Y0074561D01*
X0071790Y0074527D01*
X0071768Y0074494D01*
X0071743Y0074464D01*
X0071715Y0074437D01*
X0071684Y0074412D01*
X0071651Y0074391D01*
X0071616Y0074373D01*
X0071579Y0074359D01*
X0071542Y0074348D01*
X0071503Y0074341D01*
X0071464Y0074338D01*
X0071425Y0074339D01*
X0071386Y0074344D01*
X0071347Y0074353D01*
X0071310Y0074365D01*
X0071274Y0074381D01*
X0071240Y0074401D01*
X0071208Y0074424D01*
X0071179Y0074450D01*
X0071152Y0074479D01*
X0071128Y0074510D01*
X0071108Y0074544D01*
X0071091Y0074579D01*
X0071078Y0074616D01*
X0071068Y0074654D01*
X0071062Y0074693D01*
X0071060Y0074732D01*
D19*
X0059480Y0035403D02*
X0059480Y0032300D01*
X0060514Y0032300D02*
X0058445Y0032300D01*
X0057291Y0032300D02*
X0056257Y0033334D01*
X0055223Y0032300D01*
X0055223Y0035403D01*
X0054068Y0034886D02*
X0053551Y0035403D01*
X0052517Y0035403D01*
X0052000Y0034886D01*
X0052000Y0034368D01*
X0052517Y0033851D01*
X0053551Y0033851D01*
X0054068Y0033334D01*
X0054068Y0032817D01*
X0053551Y0032300D01*
X0052517Y0032300D01*
X0052000Y0032817D01*
X0057291Y0032300D02*
X0057291Y0035403D01*
X0058445Y0034368D02*
X0059480Y0035403D01*
M02*
