G75*
%MOIN*%
%OFA0B0*%
%FSLAX25Y25*%
%IPPOS*%
%LPD*%
%AMOC8*
5,1,8,0,0,1.08239X$1,22.5*
%
%ADD10C,0.01150*%
%ADD11R,0.00784X0.08658*%
%ADD12R,0.00787X0.02461*%
%ADD13R,0.02461X0.00787*%
%ADD14C,0.00800*%
D10*
X0102825Y0036275D02*
X0102825Y0037425D01*
X0103975Y0037425D01*
X0103975Y0036275D01*
X0102825Y0036275D01*
X0102825Y0037424D02*
X0103975Y0037424D01*
X0102825Y0039775D02*
X0102825Y0040925D01*
X0103975Y0040925D01*
X0103975Y0039775D01*
X0102825Y0039775D01*
X0102825Y0040924D02*
X0103975Y0040924D01*
X0103916Y0043792D02*
X0103916Y0044942D01*
X0103916Y0043792D02*
X0102766Y0043792D01*
X0102766Y0044942D01*
X0103916Y0044942D01*
X0103916Y0044941D02*
X0102766Y0044941D01*
X0103916Y0047292D02*
X0103916Y0048442D01*
X0103916Y0047292D02*
X0102766Y0047292D01*
X0102766Y0048442D01*
X0103916Y0048442D01*
X0103916Y0048441D02*
X0102766Y0048441D01*
X0128278Y0043074D02*
X0128278Y0041924D01*
X0127128Y0041924D01*
X0127128Y0043074D01*
X0128278Y0043074D01*
X0128278Y0043073D02*
X0127128Y0043073D01*
X0128278Y0039574D02*
X0128278Y0038424D01*
X0127128Y0038424D01*
X0127128Y0039574D01*
X0128278Y0039574D01*
X0128278Y0039573D02*
X0127128Y0039573D01*
X0128275Y0034425D02*
X0128275Y0033275D01*
X0127125Y0033275D01*
X0127125Y0034425D01*
X0128275Y0034425D01*
X0128275Y0034424D02*
X0127125Y0034424D01*
X0128275Y0030925D02*
X0128275Y0029775D01*
X0127125Y0029775D01*
X0127125Y0030925D01*
X0128275Y0030925D01*
X0128275Y0030924D02*
X0127125Y0030924D01*
X0121625Y0026025D02*
X0120475Y0026025D01*
X0120475Y0027175D01*
X0121625Y0027175D01*
X0121625Y0026025D01*
X0121625Y0027174D02*
X0120475Y0027174D01*
X0118125Y0026025D02*
X0116975Y0026025D01*
X0116975Y0027175D01*
X0118125Y0027175D01*
X0118125Y0026025D01*
X0118125Y0027174D02*
X0116975Y0027174D01*
X0105675Y0027375D02*
X0105675Y0028525D01*
X0105675Y0027375D02*
X0104525Y0027375D01*
X0104525Y0028525D01*
X0105675Y0028525D01*
X0105675Y0028524D02*
X0104525Y0028524D01*
X0105675Y0030875D02*
X0105675Y0032025D01*
X0105675Y0030875D02*
X0104525Y0030875D01*
X0104525Y0032025D01*
X0105675Y0032025D01*
X0105675Y0032024D02*
X0104525Y0032024D01*
X0078625Y0070275D02*
X0077475Y0070275D01*
X0078625Y0070275D02*
X0078625Y0069125D01*
X0077475Y0069125D01*
X0077475Y0070275D01*
X0077475Y0070274D02*
X0078625Y0070274D01*
X0075125Y0070275D02*
X0073975Y0070275D01*
X0075125Y0070275D02*
X0075125Y0069125D01*
X0073975Y0069125D01*
X0073975Y0070275D01*
X0073975Y0070274D02*
X0075125Y0070274D01*
X0077275Y0078175D02*
X0078425Y0078175D01*
X0078425Y0077025D01*
X0077275Y0077025D01*
X0077275Y0078175D01*
X0077275Y0078174D02*
X0078425Y0078174D01*
X0080775Y0078175D02*
X0081925Y0078175D01*
X0081925Y0077025D01*
X0080775Y0077025D01*
X0080775Y0078175D01*
X0080775Y0078174D02*
X0081925Y0078174D01*
X0081925Y0080925D02*
X0080775Y0080925D01*
X0080775Y0082075D01*
X0081925Y0082075D01*
X0081925Y0080925D01*
X0081925Y0082074D02*
X0080775Y0082074D01*
X0078425Y0080925D02*
X0077275Y0080925D01*
X0077275Y0082075D01*
X0078425Y0082075D01*
X0078425Y0080925D01*
X0078425Y0082074D02*
X0077275Y0082074D01*
X0055075Y0078725D02*
X0055075Y0077575D01*
X0053925Y0077575D01*
X0053925Y0078725D01*
X0055075Y0078725D01*
X0055075Y0078724D02*
X0053925Y0078724D01*
X0049225Y0078725D02*
X0049225Y0077575D01*
X0049225Y0078725D02*
X0050375Y0078725D01*
X0050375Y0077575D01*
X0049225Y0077575D01*
X0049225Y0078724D02*
X0050375Y0078724D01*
X0049225Y0075225D02*
X0049225Y0074075D01*
X0049225Y0075225D02*
X0050375Y0075225D01*
X0050375Y0074075D01*
X0049225Y0074075D01*
X0049225Y0075224D02*
X0050375Y0075224D01*
X0055075Y0075225D02*
X0055075Y0074075D01*
X0053925Y0074075D01*
X0053925Y0075225D01*
X0055075Y0075225D01*
X0055075Y0075224D02*
X0053925Y0075224D01*
X0122775Y0077125D02*
X0123925Y0077125D01*
X0122775Y0077125D02*
X0122775Y0078275D01*
X0123925Y0078275D01*
X0123925Y0077125D01*
X0123925Y0078274D02*
X0122775Y0078274D01*
X0126275Y0077125D02*
X0127425Y0077125D01*
X0126275Y0077125D02*
X0126275Y0078275D01*
X0127425Y0078275D01*
X0127425Y0077125D01*
X0127425Y0078274D02*
X0126275Y0078274D01*
D11*
X0140257Y0079400D03*
X0142226Y0079400D03*
X0144194Y0079400D03*
X0146163Y0079400D03*
X0148131Y0079400D03*
X0150100Y0079400D03*
X0150100Y0064439D03*
X0148131Y0064439D03*
X0146163Y0064439D03*
X0144194Y0064439D03*
X0142226Y0064439D03*
X0140257Y0064439D03*
D12*
X0121040Y0046588D03*
X0119072Y0046588D03*
X0117103Y0046588D03*
X0115135Y0046588D03*
X0113166Y0046588D03*
X0111198Y0046588D03*
X0111198Y0031726D03*
X0113166Y0031726D03*
X0115135Y0031726D03*
X0117103Y0031726D03*
X0119072Y0031726D03*
X0121040Y0031726D03*
D13*
X0123550Y0034235D03*
X0123550Y0036204D03*
X0123550Y0038172D03*
X0123550Y0040141D03*
X0123550Y0042109D03*
X0123550Y0044078D03*
X0108688Y0044078D03*
X0108688Y0042109D03*
X0108688Y0040141D03*
X0108688Y0038172D03*
X0108688Y0036204D03*
X0108688Y0034235D03*
D14*
X0112182Y0035220D02*
X0120056Y0035220D01*
X0120056Y0043094D01*
X0112182Y0043094D01*
X0112182Y0035220D01*
X0112182Y0035402D02*
X0120056Y0035402D01*
X0120056Y0036201D02*
X0112182Y0036201D01*
X0112182Y0036999D02*
X0120056Y0036999D01*
X0120056Y0037798D02*
X0112182Y0037798D01*
X0112182Y0038596D02*
X0120056Y0038596D01*
X0120056Y0039395D02*
X0112182Y0039395D01*
X0112182Y0040193D02*
X0120056Y0040193D01*
X0120056Y0040992D02*
X0112182Y0040992D01*
X0112182Y0041790D02*
X0120056Y0041790D01*
X0120056Y0042589D02*
X0112182Y0042589D01*
M02*
