G75*
%MOIN*%
%OFA0B0*%
%FSLAX25Y25*%
%IPPOS*%
%LPD*%
%AMOC8*
5,1,8,0,0,1.08239X$1,22.5*
%
%ADD10C,0.02000*%
%ADD11C,0.00200*%
%ADD12C,0.00500*%
D10*
X0020882Y0035038D02*
X0023882Y0035038D01*
X0023882Y0063581D02*
X0020882Y0063581D01*
D11*
X0011991Y0033687D02*
X0012225Y0033453D01*
X0012458Y0033687D01*
X0012458Y0034154D01*
X0012692Y0034387D01*
X0012925Y0034154D01*
X0012925Y0033453D01*
X0011991Y0033687D02*
X0011991Y0034387D01*
X0011524Y0034926D02*
X0011524Y0035160D01*
X0012925Y0035160D01*
X0012925Y0034926D02*
X0012925Y0035394D01*
X0012692Y0035909D02*
X0012925Y0036142D01*
X0012925Y0036609D01*
X0012692Y0036843D01*
X0012225Y0036843D01*
X0011991Y0036609D01*
X0011991Y0036142D01*
X0012225Y0035909D01*
X0012692Y0035909D01*
X0011991Y0037382D02*
X0011991Y0037849D01*
X0011758Y0037615D02*
X0012692Y0037615D01*
X0012925Y0037849D01*
X0012692Y0039837D02*
X0012225Y0039837D01*
X0011991Y0040071D01*
X0011991Y0040771D01*
X0011524Y0040771D02*
X0012925Y0040771D01*
X0012925Y0040071D01*
X0012692Y0039837D01*
X0012925Y0041311D02*
X0011991Y0041311D01*
X0011991Y0041778D02*
X0011991Y0042011D01*
X0011991Y0041778D02*
X0012458Y0041311D01*
X0011991Y0042538D02*
X0011991Y0042772D01*
X0012925Y0042772D01*
X0012925Y0043005D02*
X0012925Y0042538D01*
X0012925Y0043520D02*
X0012925Y0043987D01*
X0012925Y0043754D02*
X0011524Y0043754D01*
X0011524Y0043520D01*
X0011524Y0042772D02*
X0011290Y0042772D01*
X0011524Y0044503D02*
X0011524Y0044736D01*
X0012925Y0044736D01*
X0012925Y0044503D02*
X0012925Y0044970D01*
X0012925Y0045485D02*
X0012925Y0046185D01*
X0012692Y0046419D01*
X0012458Y0046185D01*
X0012458Y0045718D01*
X0012225Y0045485D01*
X0011991Y0045718D01*
X0011991Y0046419D01*
X0011991Y0048431D02*
X0012692Y0048431D01*
X0012925Y0048665D01*
X0012692Y0048898D01*
X0012925Y0049132D01*
X0012692Y0049365D01*
X0011991Y0049365D01*
X0011991Y0049905D02*
X0011991Y0050138D01*
X0012925Y0050138D01*
X0012925Y0049905D02*
X0012925Y0050372D01*
X0012692Y0051120D02*
X0011758Y0051120D01*
X0011991Y0050887D02*
X0011991Y0051354D01*
X0012225Y0051869D02*
X0011991Y0052102D01*
X0011991Y0052569D01*
X0012225Y0052803D01*
X0012925Y0052803D01*
X0012925Y0051869D02*
X0011524Y0051869D01*
X0012692Y0051120D02*
X0012925Y0051354D01*
X0011524Y0050138D02*
X0011290Y0050138D01*
X0012225Y0054815D02*
X0012692Y0054815D01*
X0012925Y0055049D01*
X0012925Y0055750D01*
X0012692Y0056289D02*
X0012925Y0056522D01*
X0012925Y0056989D01*
X0012692Y0057223D01*
X0012225Y0057223D01*
X0011991Y0056989D01*
X0011991Y0056522D01*
X0012225Y0056289D01*
X0012692Y0056289D01*
X0011991Y0055750D02*
X0011991Y0055049D01*
X0012225Y0054815D01*
X0011991Y0057762D02*
X0011991Y0058462D01*
X0012225Y0058696D01*
X0012692Y0058696D01*
X0012925Y0058462D01*
X0012925Y0057762D01*
X0013392Y0057762D02*
X0011991Y0057762D01*
X0011991Y0059235D02*
X0011991Y0059936D01*
X0012225Y0060169D01*
X0012692Y0060169D01*
X0012925Y0059936D01*
X0012925Y0059235D01*
X0013392Y0059235D02*
X0011991Y0059235D01*
X0012225Y0060708D02*
X0011991Y0060942D01*
X0011991Y0061409D01*
X0012225Y0061643D01*
X0012458Y0061643D01*
X0012458Y0060708D01*
X0012225Y0060708D02*
X0012692Y0060708D01*
X0012925Y0060942D01*
X0012925Y0061409D01*
X0012925Y0062182D02*
X0011991Y0062182D01*
X0011991Y0062649D02*
X0011991Y0062882D01*
X0011991Y0062649D02*
X0012458Y0062182D01*
D12*
X0013925Y0063309D02*
X0013925Y0034809D01*
X0015925Y0034809D01*
X0015425Y0034309D01*
X0015925Y0034809D02*
X0015425Y0035309D01*
X0015425Y0062809D02*
X0015925Y0063309D01*
X0015425Y0063809D01*
X0015925Y0063309D02*
X0013925Y0063309D01*
M02*
