G75*
%MOIN*%
%OFA0B0*%
%FSLAX25Y25*%
%IPPOS*%
%LPD*%
%AMOC8*
5,1,8,0,0,1.08239X$1,22.5*
%
%ADD10C,0.06306*%
%ADD11C,0.01450*%
%ADD12R,0.01384X0.09258*%
%ADD13C,0.03353*%
%ADD14R,0.01181X0.02953*%
%ADD15R,0.02953X0.01181*%
%ADD16C,0.00800*%
%ADD17C,0.04400*%
%ADD18C,0.05124*%
D10*
X0113000Y0019400D03*
X0032100Y0079200D03*
D11*
X0049075Y0078875D02*
X0049075Y0077425D01*
X0049075Y0078875D02*
X0050525Y0078875D01*
X0050525Y0077425D01*
X0049075Y0077425D01*
X0049075Y0078874D02*
X0050525Y0078874D01*
X0055225Y0078875D02*
X0055225Y0077425D01*
X0053775Y0077425D01*
X0053775Y0078875D01*
X0055225Y0078875D01*
X0055225Y0078874D02*
X0053775Y0078874D01*
X0055225Y0075375D02*
X0055225Y0073925D01*
X0053775Y0073925D01*
X0053775Y0075375D01*
X0055225Y0075375D01*
X0055225Y0075374D02*
X0053775Y0075374D01*
X0049075Y0075375D02*
X0049075Y0073925D01*
X0049075Y0075375D02*
X0050525Y0075375D01*
X0050525Y0073925D01*
X0049075Y0073925D01*
X0049075Y0075374D02*
X0050525Y0075374D01*
X0073825Y0070425D02*
X0075275Y0070425D01*
X0075275Y0068975D01*
X0073825Y0068975D01*
X0073825Y0070425D01*
X0073825Y0070424D02*
X0075275Y0070424D01*
X0077325Y0070425D02*
X0078775Y0070425D01*
X0078775Y0068975D01*
X0077325Y0068975D01*
X0077325Y0070425D01*
X0077325Y0070424D02*
X0078775Y0070424D01*
X0078575Y0078325D02*
X0077125Y0078325D01*
X0078575Y0078325D02*
X0078575Y0076875D01*
X0077125Y0076875D01*
X0077125Y0078325D01*
X0077125Y0078324D02*
X0078575Y0078324D01*
X0080625Y0078325D02*
X0082075Y0078325D01*
X0082075Y0076875D01*
X0080625Y0076875D01*
X0080625Y0078325D01*
X0080625Y0078324D02*
X0082075Y0078324D01*
X0082075Y0080775D02*
X0080625Y0080775D01*
X0080625Y0082225D01*
X0082075Y0082225D01*
X0082075Y0080775D01*
X0082075Y0082224D02*
X0080625Y0082224D01*
X0078575Y0080775D02*
X0077125Y0080775D01*
X0077125Y0082225D01*
X0078575Y0082225D01*
X0078575Y0080775D01*
X0078575Y0082224D02*
X0077125Y0082224D01*
X0122625Y0076975D02*
X0124075Y0076975D01*
X0122625Y0076975D02*
X0122625Y0078425D01*
X0124075Y0078425D01*
X0124075Y0076975D01*
X0124075Y0078424D02*
X0122625Y0078424D01*
X0126125Y0076975D02*
X0127575Y0076975D01*
X0126125Y0076975D02*
X0126125Y0078425D01*
X0127575Y0078425D01*
X0127575Y0076975D01*
X0127575Y0078424D02*
X0126125Y0078424D01*
X0104066Y0048592D02*
X0104066Y0047142D01*
X0102616Y0047142D01*
X0102616Y0048592D01*
X0104066Y0048592D01*
X0104066Y0048591D02*
X0102616Y0048591D01*
X0104066Y0045092D02*
X0104066Y0043642D01*
X0102616Y0043642D01*
X0102616Y0045092D01*
X0104066Y0045092D01*
X0104066Y0045091D02*
X0102616Y0045091D01*
X0102675Y0041075D02*
X0102675Y0039625D01*
X0102675Y0041075D02*
X0104125Y0041075D01*
X0104125Y0039625D01*
X0102675Y0039625D01*
X0102675Y0041074D02*
X0104125Y0041074D01*
X0102675Y0037575D02*
X0102675Y0036125D01*
X0102675Y0037575D02*
X0104125Y0037575D01*
X0104125Y0036125D01*
X0102675Y0036125D01*
X0102675Y0037574D02*
X0104125Y0037574D01*
X0105825Y0032175D02*
X0105825Y0030725D01*
X0104375Y0030725D01*
X0104375Y0032175D01*
X0105825Y0032175D01*
X0105825Y0032174D02*
X0104375Y0032174D01*
X0105825Y0028675D02*
X0105825Y0027225D01*
X0104375Y0027225D01*
X0104375Y0028675D01*
X0105825Y0028675D01*
X0105825Y0028674D02*
X0104375Y0028674D01*
X0116825Y0025875D02*
X0118275Y0025875D01*
X0116825Y0025875D02*
X0116825Y0027325D01*
X0118275Y0027325D01*
X0118275Y0025875D01*
X0118275Y0027324D02*
X0116825Y0027324D01*
X0120325Y0025875D02*
X0121775Y0025875D01*
X0120325Y0025875D02*
X0120325Y0027325D01*
X0121775Y0027325D01*
X0121775Y0025875D01*
X0121775Y0027324D02*
X0120325Y0027324D01*
X0128425Y0029625D02*
X0128425Y0031075D01*
X0128425Y0029625D02*
X0126975Y0029625D01*
X0126975Y0031075D01*
X0128425Y0031075D01*
X0128425Y0031074D02*
X0126975Y0031074D01*
X0128425Y0033125D02*
X0128425Y0034575D01*
X0128425Y0033125D02*
X0126975Y0033125D01*
X0126975Y0034575D01*
X0128425Y0034575D01*
X0128425Y0034574D02*
X0126975Y0034574D01*
X0128428Y0038274D02*
X0128428Y0039724D01*
X0128428Y0038274D02*
X0126978Y0038274D01*
X0126978Y0039724D01*
X0128428Y0039724D01*
X0128428Y0039723D02*
X0126978Y0039723D01*
X0128428Y0041774D02*
X0128428Y0043224D01*
X0128428Y0041774D02*
X0126978Y0041774D01*
X0126978Y0043224D01*
X0128428Y0043224D01*
X0128428Y0043223D02*
X0126978Y0043223D01*
D12*
X0140257Y0064439D03*
X0142226Y0064439D03*
X0144194Y0064439D03*
X0146163Y0064439D03*
X0148131Y0064439D03*
X0150100Y0064439D03*
X0150100Y0079400D03*
X0148131Y0079400D03*
X0146163Y0079400D03*
X0144194Y0079400D03*
X0142226Y0079400D03*
X0140257Y0079400D03*
D13*
X0136517Y0077195D03*
X0153840Y0077195D03*
D14*
X0121040Y0046637D03*
X0119072Y0046637D03*
X0117103Y0046637D03*
X0115135Y0046637D03*
X0113166Y0046637D03*
X0111198Y0046637D03*
X0111198Y0031676D03*
X0113166Y0031676D03*
X0115135Y0031676D03*
X0117103Y0031676D03*
X0119072Y0031676D03*
X0121040Y0031676D03*
D15*
X0123599Y0034235D03*
X0123599Y0036204D03*
X0123599Y0038172D03*
X0123599Y0040141D03*
X0123599Y0042109D03*
X0123599Y0044078D03*
X0108639Y0044078D03*
X0108639Y0042109D03*
X0108639Y0040141D03*
X0108639Y0038172D03*
X0108639Y0036204D03*
X0108639Y0034235D03*
D16*
X0111493Y0035318D02*
X0111711Y0035302D01*
X0111918Y0035231D01*
X0112099Y0035108D01*
X0112242Y0034943D01*
X0112338Y0034746D01*
X0112379Y0034531D01*
X0120745Y0034531D01*
X0120745Y0043783D01*
X0111493Y0043783D01*
X0111493Y0035318D01*
X0111493Y0035402D02*
X0120745Y0035402D01*
X0120745Y0034604D02*
X0112365Y0034604D01*
X0111493Y0036201D02*
X0120745Y0036201D01*
X0120745Y0036999D02*
X0111493Y0036999D01*
X0111493Y0037798D02*
X0120745Y0037798D01*
X0120745Y0038596D02*
X0111493Y0038596D01*
X0111493Y0039395D02*
X0120745Y0039395D01*
X0120745Y0040193D02*
X0111493Y0040193D01*
X0111493Y0040992D02*
X0120745Y0040992D01*
X0120745Y0041790D02*
X0111493Y0041790D01*
X0111493Y0042589D02*
X0120745Y0042589D01*
X0120745Y0043387D02*
X0111493Y0043387D01*
D17*
X0024425Y0035038D02*
X0020425Y0035038D01*
X0020425Y0063581D02*
X0024425Y0063581D01*
D18*
X0033173Y0058857D03*
X0033173Y0039762D03*
M02*
