%
M48
M72
T01C0.01200
T02C0.02000
T03C0.02953
T04C0.03150
T05C0.05906
%
T01
X31100Y17700
X31300Y26800
X45800Y28500
X63700Y37400
X71400Y37400
X73900Y39300
X77300Y37100
X79600Y37100
X91200Y36100
X93200Y37100
X102300Y34900
X102300Y32500
X102300Y29100
X107900Y29000
X107800Y31300
X109800Y32300
X110900Y27600
X115400Y26600
X123600Y26600
X125300Y24400
X125300Y21500
X125300Y18700
X125300Y15600
X105100Y25200
X94600Y28900
X116400Y37800
X116400Y41200
X127700Y44800
X130500Y44900
X130400Y47700
X126500Y47600
X130300Y50500
X130400Y53300
X136300Y49600
X136300Y47200
X136300Y44700
X138700Y44200
X142600Y43100
X138300Y41300
X138900Y38400
X136600Y38200
X136600Y35800
X136500Y33400
X139000Y33200
X138400Y30700
X141600Y30700
X144900Y30700
X147900Y30700
X151000Y30600
X154300Y30700
X157700Y30700
X149700Y38800
X139100Y49700
X130600Y41700
X130500Y38500
X127700Y36900
X130500Y35600
X130600Y32900
X130600Y30200
X125500Y30300
X123600Y32600
X115800Y49600
X114100Y50700
X118500Y52800
X114600Y53300
X114400Y57300
X114400Y60700
X103400Y61800
X102200Y63700
X102600Y59600
X99100Y66500
X93200Y68700
X91300Y69900
X89300Y68700
X87300Y70100
X85400Y68700
X79600Y71900
X82200Y74900
X71000Y77300
X72400Y82800
X60600Y80800
X57700Y74400
X62400Y71800
X64800Y69900
X68300Y69500
X68300Y67400
X71900Y69000
X73100Y67400
X67200Y63300
X70500Y59900
X70500Y57600
X65100Y56600
X70500Y54000
X70500Y51800
X70500Y46000
X82300Y46200
X91100Y46000
X105600Y51300
X91200Y57700
X81800Y57800
X108400Y68300
X112000Y68500
X116000Y68400
X118700Y68300
X120000Y75800
X118000Y77800
X112400Y80600
X124000Y80900
X139500Y77300
X150200Y83100
X152900Y80900
X153100Y73600
X158300Y71400
X158100Y67000
X155100Y63100
X152400Y61600
X158500Y59000
X158100Y54800
X138200Y61700
X133200Y66100
X138300Y68600
X99100Y77200
X96600Y77200
X85600Y83000
X41600Y81200
X29600Y73300
X27400Y54000
X27300Y46300
X29900Y44200
X46200Y48000
X46000Y51900
X52900Y50900
X72400Y28500
T02
X22425Y35038
X22425Y63581
T03
X136517Y77195
X153840Y77195
T04
X33173Y58857
X33173Y39762
T05
X32100Y79200
X113000Y19400
M30
