%
M48
M72
T01C0.01200
%
T01
X14600Y28100
X17000Y29300
X10400Y38900
X18710Y48540
X14870Y57310
X20100Y65700
X29100Y55600
X36200Y56300
X39800Y61700
X38000Y63500
X35400Y66500
X46100Y63300
X52800Y65900
X62100Y61400
X65200Y61200
X62900Y57700
X59100Y56200
X51200Y56300
X42200Y50300
X42100Y52700
X36200Y49100
X33700Y41600
X31400Y38900
X27600Y38000
X29000Y29300
X37300Y37100
X43200Y30300
X46800Y29000
X55900Y32800
X62400Y36800
X58800Y40500
X58400Y44500
X58400Y47200
X65400Y47600
X66200Y44900
X66200Y39500
X65300Y28700
X51200Y40400
X47400Y39500
X44800Y39500
M30
