G75*
%MOIN*%
%OFA0B0*%
%FSLAX25Y25*%
%IPPOS*%
%LPD*%
%AMOC8*
5,1,8,0,0,1.08239X$1,22.5*
%
%ADD10C,0.00000*%
%ADD11R,0.07874X0.05512*%
%ADD12C,0.01250*%
%ADD13R,0.03543X0.01000*%
%ADD14R,0.01000X0.03543*%
%ADD15R,0.07800X0.07800*%
%ADD16C,0.00875*%
%ADD17C,0.01181*%
%ADD18C,0.00492*%
%ADD19C,0.01600*%
%ADD20C,0.00600*%
%ADD21C,0.03000*%
D10*
X0005102Y0026454D02*
X0064158Y0026454D01*
X0064158Y0024879D01*
X0079905Y0024879D01*
X0079905Y0072123D01*
X0064158Y0072123D01*
X0064158Y0070548D01*
X0005102Y0070548D01*
X0005102Y0026454D01*
D11*
X0074100Y0029999D03*
X0074100Y0067401D03*
D12*
X0062925Y0067325D02*
X0062925Y0068575D01*
X0062925Y0067325D02*
X0061675Y0067325D01*
X0061675Y0068575D01*
X0062925Y0068575D01*
X0062925Y0068574D02*
X0061675Y0068574D01*
X0056975Y0068575D02*
X0056975Y0067325D01*
X0056975Y0068575D02*
X0058225Y0068575D01*
X0058225Y0067325D01*
X0056975Y0067325D01*
X0056975Y0068574D02*
X0058225Y0068574D01*
X0056975Y0065075D02*
X0056975Y0063825D01*
X0056975Y0065075D02*
X0058225Y0065075D01*
X0058225Y0063825D01*
X0056975Y0063825D01*
X0056975Y0065074D02*
X0058225Y0065074D01*
X0062925Y0065075D02*
X0062925Y0063825D01*
X0061675Y0063825D01*
X0061675Y0065075D01*
X0062925Y0065075D01*
X0062925Y0065074D02*
X0061675Y0065074D01*
X0045175Y0064275D02*
X0043925Y0064275D01*
X0043925Y0065525D01*
X0045175Y0065525D01*
X0045175Y0064275D01*
X0045175Y0065524D02*
X0043925Y0065524D01*
X0041675Y0064275D02*
X0040425Y0064275D01*
X0040425Y0065525D01*
X0041675Y0065525D01*
X0041675Y0064275D01*
X0041675Y0065524D02*
X0040425Y0065524D01*
X0034175Y0036175D02*
X0034175Y0034925D01*
X0034175Y0036175D02*
X0035425Y0036175D01*
X0035425Y0034925D01*
X0034175Y0034925D01*
X0034175Y0036174D02*
X0035425Y0036174D01*
X0038925Y0034975D02*
X0038925Y0033725D01*
X0037675Y0033725D01*
X0037675Y0034975D01*
X0038925Y0034975D01*
X0038925Y0034974D02*
X0037675Y0034974D01*
X0034175Y0032675D02*
X0034175Y0031425D01*
X0034175Y0032675D02*
X0035425Y0032675D01*
X0035425Y0031425D01*
X0034175Y0031425D01*
X0034175Y0032674D02*
X0035425Y0032674D01*
X0038925Y0031475D02*
X0038925Y0030225D01*
X0037675Y0030225D01*
X0037675Y0031475D01*
X0038925Y0031475D01*
X0038925Y0031474D02*
X0037675Y0031474D01*
X0042625Y0030825D02*
X0043875Y0030825D01*
X0043875Y0029575D01*
X0042625Y0029575D01*
X0042625Y0030825D01*
X0042625Y0030824D02*
X0043875Y0030824D01*
X0046125Y0030825D02*
X0047375Y0030825D01*
X0047375Y0029575D01*
X0046125Y0029575D01*
X0046125Y0030825D01*
X0046125Y0030824D02*
X0047375Y0030824D01*
X0050425Y0028575D02*
X0051675Y0028575D01*
X0050425Y0028575D02*
X0050425Y0029825D01*
X0051675Y0029825D01*
X0051675Y0028575D01*
X0051675Y0029824D02*
X0050425Y0029824D01*
X0053925Y0028575D02*
X0055175Y0028575D01*
X0053925Y0028575D02*
X0053925Y0029825D01*
X0055175Y0029825D01*
X0055175Y0028575D01*
X0055175Y0029824D02*
X0053925Y0029824D01*
X0058225Y0028575D02*
X0059475Y0028575D01*
X0058225Y0028575D02*
X0058225Y0029825D01*
X0059475Y0029825D01*
X0059475Y0028575D01*
X0059475Y0029824D02*
X0058225Y0029824D01*
X0061725Y0028575D02*
X0062975Y0028575D01*
X0061725Y0028575D02*
X0061725Y0029825D01*
X0062975Y0029825D01*
X0062975Y0028575D01*
X0062975Y0029824D02*
X0061725Y0029824D01*
X0031425Y0031425D02*
X0031425Y0032675D01*
X0031425Y0031425D02*
X0030175Y0031425D01*
X0030175Y0032675D01*
X0031425Y0032675D01*
X0031425Y0032674D02*
X0030175Y0032674D01*
X0031425Y0034925D02*
X0031425Y0036175D01*
X0031425Y0034925D02*
X0030175Y0034925D01*
X0030175Y0036175D01*
X0031425Y0036175D01*
X0031425Y0036174D02*
X0030175Y0036174D01*
X0026875Y0032375D02*
X0025625Y0032375D01*
X0025625Y0033625D01*
X0026875Y0033625D01*
X0026875Y0032375D01*
X0026875Y0033624D02*
X0025625Y0033624D01*
X0023375Y0032375D02*
X0022125Y0032375D01*
X0022125Y0033625D01*
X0023375Y0033625D01*
X0023375Y0032375D01*
X0023375Y0033624D02*
X0022125Y0033624D01*
X0022125Y0028475D02*
X0023375Y0028475D01*
X0022125Y0028475D02*
X0022125Y0029725D01*
X0023375Y0029725D01*
X0023375Y0028475D01*
X0023375Y0029724D02*
X0022125Y0029724D01*
X0025625Y0028475D02*
X0026875Y0028475D01*
X0025625Y0028475D02*
X0025625Y0029725D01*
X0026875Y0029725D01*
X0026875Y0028475D01*
X0026875Y0029724D02*
X0025625Y0029724D01*
D13*
X0028998Y0041295D03*
X0028998Y0043263D03*
X0028998Y0045232D03*
X0028998Y0047200D03*
X0028998Y0049169D03*
X0028998Y0051137D03*
X0028998Y0053106D03*
X0008604Y0053106D03*
X0008604Y0051137D03*
X0008604Y0049169D03*
X0008604Y0047200D03*
X0008604Y0045232D03*
X0008604Y0043263D03*
X0008604Y0041295D03*
D14*
X0012895Y0037003D03*
X0014864Y0037003D03*
X0016832Y0037003D03*
X0018801Y0037003D03*
X0020769Y0037003D03*
X0022738Y0037003D03*
X0024706Y0037003D03*
X0024706Y0057397D03*
X0022738Y0057397D03*
X0020769Y0057397D03*
X0018801Y0057397D03*
X0016832Y0057397D03*
X0014864Y0057397D03*
X0012895Y0057397D03*
D15*
X0018801Y0047200D03*
D16*
X0027737Y0067513D02*
X0030363Y0067513D01*
X0030363Y0064887D01*
X0027737Y0064887D01*
X0027737Y0067513D01*
X0027737Y0065761D02*
X0030363Y0065761D01*
X0030363Y0066635D02*
X0027737Y0066635D01*
X0027737Y0067509D02*
X0030363Y0067509D01*
X0033737Y0067513D02*
X0036363Y0067513D01*
X0036363Y0064887D01*
X0033737Y0064887D01*
X0033737Y0067513D01*
X0033737Y0065761D02*
X0036363Y0065761D01*
X0036363Y0066635D02*
X0033737Y0066635D01*
X0033737Y0067509D02*
X0036363Y0067509D01*
D17*
X0056315Y0053715D02*
X0056315Y0043085D01*
X0045685Y0043085D01*
X0045685Y0053715D01*
X0056315Y0053715D01*
X0056315Y0044265D02*
X0045685Y0044265D01*
X0045685Y0045445D02*
X0056315Y0045445D01*
X0056315Y0046625D02*
X0045685Y0046625D01*
X0045685Y0047805D02*
X0056315Y0047805D01*
X0056315Y0048985D02*
X0045685Y0048985D01*
X0045685Y0050165D02*
X0056315Y0050165D01*
X0056315Y0051345D02*
X0045685Y0051345D01*
X0045685Y0052525D02*
X0056315Y0052525D01*
X0056315Y0053705D02*
X0045685Y0053705D01*
D18*
X0040518Y0053666D02*
X0037860Y0053666D01*
X0037860Y0054158D01*
X0040518Y0054158D01*
X0040518Y0053666D01*
X0040518Y0054157D02*
X0037860Y0054157D01*
X0037860Y0055241D02*
X0040518Y0055241D01*
X0037860Y0055241D02*
X0037860Y0055733D01*
X0040518Y0055733D01*
X0040518Y0055241D01*
X0040518Y0055732D02*
X0037860Y0055732D01*
X0037860Y0056816D02*
X0040518Y0056816D01*
X0037860Y0056816D02*
X0037860Y0057308D01*
X0040518Y0057308D01*
X0040518Y0056816D01*
X0040518Y0057307D02*
X0037860Y0057307D01*
X0037860Y0052091D02*
X0040518Y0052091D01*
X0037860Y0052091D02*
X0037860Y0052583D01*
X0040518Y0052583D01*
X0040518Y0052091D01*
X0040518Y0052582D02*
X0037860Y0052582D01*
X0037860Y0050516D02*
X0040518Y0050516D01*
X0037860Y0050516D02*
X0037860Y0051008D01*
X0040518Y0051008D01*
X0040518Y0050516D01*
X0040518Y0051007D02*
X0037860Y0051007D01*
X0037860Y0048941D02*
X0040518Y0048941D01*
X0037860Y0048941D02*
X0037860Y0049433D01*
X0040518Y0049433D01*
X0040518Y0048941D01*
X0040518Y0049432D02*
X0037860Y0049432D01*
X0037860Y0047367D02*
X0040518Y0047367D01*
X0037860Y0047367D02*
X0037860Y0047859D01*
X0040518Y0047859D01*
X0040518Y0047367D01*
X0040518Y0047858D02*
X0037860Y0047858D01*
X0037860Y0045792D02*
X0040518Y0045792D01*
X0037860Y0045792D02*
X0037860Y0046284D01*
X0040518Y0046284D01*
X0040518Y0045792D01*
X0040518Y0046283D02*
X0037860Y0046283D01*
X0037860Y0044217D02*
X0040518Y0044217D01*
X0037860Y0044217D02*
X0037860Y0044709D01*
X0040518Y0044709D01*
X0040518Y0044217D01*
X0040518Y0044708D02*
X0037860Y0044708D01*
X0037860Y0042642D02*
X0040518Y0042642D01*
X0037860Y0042642D02*
X0037860Y0043134D01*
X0040518Y0043134D01*
X0040518Y0042642D01*
X0040518Y0043133D02*
X0037860Y0043133D01*
X0037860Y0041067D02*
X0040518Y0041067D01*
X0037860Y0041067D02*
X0037860Y0041559D01*
X0040518Y0041559D01*
X0040518Y0041067D01*
X0040518Y0041558D02*
X0037860Y0041558D01*
X0037860Y0039493D02*
X0040518Y0039493D01*
X0037860Y0039493D02*
X0037860Y0039985D01*
X0040518Y0039985D01*
X0040518Y0039493D01*
X0040518Y0039984D02*
X0037860Y0039984D01*
X0042585Y0037918D02*
X0042585Y0035260D01*
X0042093Y0035260D01*
X0042093Y0037918D01*
X0042585Y0037918D01*
X0042585Y0035751D02*
X0042093Y0035751D01*
X0042093Y0036242D02*
X0042585Y0036242D01*
X0042585Y0036733D02*
X0042093Y0036733D01*
X0042093Y0037224D02*
X0042585Y0037224D01*
X0042585Y0037715D02*
X0042093Y0037715D01*
X0044159Y0037918D02*
X0044159Y0035260D01*
X0043667Y0035260D01*
X0043667Y0037918D01*
X0044159Y0037918D01*
X0044159Y0035751D02*
X0043667Y0035751D01*
X0043667Y0036242D02*
X0044159Y0036242D01*
X0044159Y0036733D02*
X0043667Y0036733D01*
X0043667Y0037224D02*
X0044159Y0037224D01*
X0044159Y0037715D02*
X0043667Y0037715D01*
X0045734Y0037918D02*
X0045734Y0035260D01*
X0045242Y0035260D01*
X0045242Y0037918D01*
X0045734Y0037918D01*
X0045734Y0035751D02*
X0045242Y0035751D01*
X0045242Y0036242D02*
X0045734Y0036242D01*
X0045734Y0036733D02*
X0045242Y0036733D01*
X0045242Y0037224D02*
X0045734Y0037224D01*
X0045734Y0037715D02*
X0045242Y0037715D01*
X0047309Y0037918D02*
X0047309Y0035260D01*
X0046817Y0035260D01*
X0046817Y0037918D01*
X0047309Y0037918D01*
X0047309Y0035751D02*
X0046817Y0035751D01*
X0046817Y0036242D02*
X0047309Y0036242D01*
X0047309Y0036733D02*
X0046817Y0036733D01*
X0046817Y0037224D02*
X0047309Y0037224D01*
X0047309Y0037715D02*
X0046817Y0037715D01*
X0048884Y0037918D02*
X0048884Y0035260D01*
X0048392Y0035260D01*
X0048392Y0037918D01*
X0048884Y0037918D01*
X0048884Y0035751D02*
X0048392Y0035751D01*
X0048392Y0036242D02*
X0048884Y0036242D01*
X0048884Y0036733D02*
X0048392Y0036733D01*
X0048392Y0037224D02*
X0048884Y0037224D01*
X0048884Y0037715D02*
X0048392Y0037715D01*
X0050459Y0037918D02*
X0050459Y0035260D01*
X0049967Y0035260D01*
X0049967Y0037918D01*
X0050459Y0037918D01*
X0050459Y0035751D02*
X0049967Y0035751D01*
X0049967Y0036242D02*
X0050459Y0036242D01*
X0050459Y0036733D02*
X0049967Y0036733D01*
X0049967Y0037224D02*
X0050459Y0037224D01*
X0050459Y0037715D02*
X0049967Y0037715D01*
X0052033Y0037918D02*
X0052033Y0035260D01*
X0051541Y0035260D01*
X0051541Y0037918D01*
X0052033Y0037918D01*
X0052033Y0035751D02*
X0051541Y0035751D01*
X0051541Y0036242D02*
X0052033Y0036242D01*
X0052033Y0036733D02*
X0051541Y0036733D01*
X0051541Y0037224D02*
X0052033Y0037224D01*
X0052033Y0037715D02*
X0051541Y0037715D01*
X0053608Y0037918D02*
X0053608Y0035260D01*
X0053116Y0035260D01*
X0053116Y0037918D01*
X0053608Y0037918D01*
X0053608Y0035751D02*
X0053116Y0035751D01*
X0053116Y0036242D02*
X0053608Y0036242D01*
X0053608Y0036733D02*
X0053116Y0036733D01*
X0053116Y0037224D02*
X0053608Y0037224D01*
X0053608Y0037715D02*
X0053116Y0037715D01*
X0055183Y0037918D02*
X0055183Y0035260D01*
X0054691Y0035260D01*
X0054691Y0037918D01*
X0055183Y0037918D01*
X0055183Y0035751D02*
X0054691Y0035751D01*
X0054691Y0036242D02*
X0055183Y0036242D01*
X0055183Y0036733D02*
X0054691Y0036733D01*
X0054691Y0037224D02*
X0055183Y0037224D01*
X0055183Y0037715D02*
X0054691Y0037715D01*
X0056758Y0037918D02*
X0056758Y0035260D01*
X0056266Y0035260D01*
X0056266Y0037918D01*
X0056758Y0037918D01*
X0056758Y0035751D02*
X0056266Y0035751D01*
X0056266Y0036242D02*
X0056758Y0036242D01*
X0056758Y0036733D02*
X0056266Y0036733D01*
X0056266Y0037224D02*
X0056758Y0037224D01*
X0056758Y0037715D02*
X0056266Y0037715D01*
X0058333Y0037918D02*
X0058333Y0035260D01*
X0057841Y0035260D01*
X0057841Y0037918D01*
X0058333Y0037918D01*
X0058333Y0035751D02*
X0057841Y0035751D01*
X0057841Y0036242D02*
X0058333Y0036242D01*
X0058333Y0036733D02*
X0057841Y0036733D01*
X0057841Y0037224D02*
X0058333Y0037224D01*
X0058333Y0037715D02*
X0057841Y0037715D01*
X0059907Y0037918D02*
X0059907Y0035260D01*
X0059415Y0035260D01*
X0059415Y0037918D01*
X0059907Y0037918D01*
X0059907Y0035751D02*
X0059415Y0035751D01*
X0059415Y0036242D02*
X0059907Y0036242D01*
X0059907Y0036733D02*
X0059415Y0036733D01*
X0059415Y0037224D02*
X0059907Y0037224D01*
X0059907Y0037715D02*
X0059415Y0037715D01*
X0061482Y0039985D02*
X0064140Y0039985D01*
X0064140Y0039493D01*
X0061482Y0039493D01*
X0061482Y0039985D01*
X0061482Y0039984D02*
X0064140Y0039984D01*
X0064140Y0041559D02*
X0061482Y0041559D01*
X0064140Y0041559D02*
X0064140Y0041067D01*
X0061482Y0041067D01*
X0061482Y0041559D01*
X0061482Y0041558D02*
X0064140Y0041558D01*
X0064140Y0043134D02*
X0061482Y0043134D01*
X0064140Y0043134D02*
X0064140Y0042642D01*
X0061482Y0042642D01*
X0061482Y0043134D01*
X0061482Y0043133D02*
X0064140Y0043133D01*
X0064140Y0044709D02*
X0061482Y0044709D01*
X0064140Y0044709D02*
X0064140Y0044217D01*
X0061482Y0044217D01*
X0061482Y0044709D01*
X0061482Y0044708D02*
X0064140Y0044708D01*
X0064140Y0046284D02*
X0061482Y0046284D01*
X0064140Y0046284D02*
X0064140Y0045792D01*
X0061482Y0045792D01*
X0061482Y0046284D01*
X0061482Y0046283D02*
X0064140Y0046283D01*
X0064140Y0047859D02*
X0061482Y0047859D01*
X0064140Y0047859D02*
X0064140Y0047367D01*
X0061482Y0047367D01*
X0061482Y0047859D01*
X0061482Y0047858D02*
X0064140Y0047858D01*
X0064140Y0049433D02*
X0061482Y0049433D01*
X0064140Y0049433D02*
X0064140Y0048941D01*
X0061482Y0048941D01*
X0061482Y0049433D01*
X0061482Y0049432D02*
X0064140Y0049432D01*
X0064140Y0051008D02*
X0061482Y0051008D01*
X0064140Y0051008D02*
X0064140Y0050516D01*
X0061482Y0050516D01*
X0061482Y0051008D01*
X0061482Y0051007D02*
X0064140Y0051007D01*
X0064140Y0052583D02*
X0061482Y0052583D01*
X0064140Y0052583D02*
X0064140Y0052091D01*
X0061482Y0052091D01*
X0061482Y0052583D01*
X0061482Y0052582D02*
X0064140Y0052582D01*
X0064140Y0054158D02*
X0061482Y0054158D01*
X0064140Y0054158D02*
X0064140Y0053666D01*
X0061482Y0053666D01*
X0061482Y0054158D01*
X0061482Y0054157D02*
X0064140Y0054157D01*
X0064140Y0055733D02*
X0061482Y0055733D01*
X0064140Y0055733D02*
X0064140Y0055241D01*
X0061482Y0055241D01*
X0061482Y0055733D01*
X0061482Y0055732D02*
X0064140Y0055732D01*
X0064140Y0057308D02*
X0061482Y0057308D01*
X0064140Y0057308D02*
X0064140Y0056816D01*
X0061482Y0056816D01*
X0061482Y0057308D01*
X0061482Y0057307D02*
X0064140Y0057307D01*
X0059415Y0058882D02*
X0059415Y0061540D01*
X0059907Y0061540D01*
X0059907Y0058882D01*
X0059415Y0058882D01*
X0059415Y0059373D02*
X0059907Y0059373D01*
X0059907Y0059864D02*
X0059415Y0059864D01*
X0059415Y0060355D02*
X0059907Y0060355D01*
X0059907Y0060846D02*
X0059415Y0060846D01*
X0059415Y0061337D02*
X0059907Y0061337D01*
X0057841Y0061540D02*
X0057841Y0058882D01*
X0057841Y0061540D02*
X0058333Y0061540D01*
X0058333Y0058882D01*
X0057841Y0058882D01*
X0057841Y0059373D02*
X0058333Y0059373D01*
X0058333Y0059864D02*
X0057841Y0059864D01*
X0057841Y0060355D02*
X0058333Y0060355D01*
X0058333Y0060846D02*
X0057841Y0060846D01*
X0057841Y0061337D02*
X0058333Y0061337D01*
X0056266Y0061540D02*
X0056266Y0058882D01*
X0056266Y0061540D02*
X0056758Y0061540D01*
X0056758Y0058882D01*
X0056266Y0058882D01*
X0056266Y0059373D02*
X0056758Y0059373D01*
X0056758Y0059864D02*
X0056266Y0059864D01*
X0056266Y0060355D02*
X0056758Y0060355D01*
X0056758Y0060846D02*
X0056266Y0060846D01*
X0056266Y0061337D02*
X0056758Y0061337D01*
X0054691Y0061540D02*
X0054691Y0058882D01*
X0054691Y0061540D02*
X0055183Y0061540D01*
X0055183Y0058882D01*
X0054691Y0058882D01*
X0054691Y0059373D02*
X0055183Y0059373D01*
X0055183Y0059864D02*
X0054691Y0059864D01*
X0054691Y0060355D02*
X0055183Y0060355D01*
X0055183Y0060846D02*
X0054691Y0060846D01*
X0054691Y0061337D02*
X0055183Y0061337D01*
X0053116Y0061540D02*
X0053116Y0058882D01*
X0053116Y0061540D02*
X0053608Y0061540D01*
X0053608Y0058882D01*
X0053116Y0058882D01*
X0053116Y0059373D02*
X0053608Y0059373D01*
X0053608Y0059864D02*
X0053116Y0059864D01*
X0053116Y0060355D02*
X0053608Y0060355D01*
X0053608Y0060846D02*
X0053116Y0060846D01*
X0053116Y0061337D02*
X0053608Y0061337D01*
X0051541Y0061540D02*
X0051541Y0058882D01*
X0051541Y0061540D02*
X0052033Y0061540D01*
X0052033Y0058882D01*
X0051541Y0058882D01*
X0051541Y0059373D02*
X0052033Y0059373D01*
X0052033Y0059864D02*
X0051541Y0059864D01*
X0051541Y0060355D02*
X0052033Y0060355D01*
X0052033Y0060846D02*
X0051541Y0060846D01*
X0051541Y0061337D02*
X0052033Y0061337D01*
X0049967Y0061540D02*
X0049967Y0058882D01*
X0049967Y0061540D02*
X0050459Y0061540D01*
X0050459Y0058882D01*
X0049967Y0058882D01*
X0049967Y0059373D02*
X0050459Y0059373D01*
X0050459Y0059864D02*
X0049967Y0059864D01*
X0049967Y0060355D02*
X0050459Y0060355D01*
X0050459Y0060846D02*
X0049967Y0060846D01*
X0049967Y0061337D02*
X0050459Y0061337D01*
X0048392Y0061540D02*
X0048392Y0058882D01*
X0048392Y0061540D02*
X0048884Y0061540D01*
X0048884Y0058882D01*
X0048392Y0058882D01*
X0048392Y0059373D02*
X0048884Y0059373D01*
X0048884Y0059864D02*
X0048392Y0059864D01*
X0048392Y0060355D02*
X0048884Y0060355D01*
X0048884Y0060846D02*
X0048392Y0060846D01*
X0048392Y0061337D02*
X0048884Y0061337D01*
X0046817Y0061540D02*
X0046817Y0058882D01*
X0046817Y0061540D02*
X0047309Y0061540D01*
X0047309Y0058882D01*
X0046817Y0058882D01*
X0046817Y0059373D02*
X0047309Y0059373D01*
X0047309Y0059864D02*
X0046817Y0059864D01*
X0046817Y0060355D02*
X0047309Y0060355D01*
X0047309Y0060846D02*
X0046817Y0060846D01*
X0046817Y0061337D02*
X0047309Y0061337D01*
X0045242Y0061540D02*
X0045242Y0058882D01*
X0045242Y0061540D02*
X0045734Y0061540D01*
X0045734Y0058882D01*
X0045242Y0058882D01*
X0045242Y0059373D02*
X0045734Y0059373D01*
X0045734Y0059864D02*
X0045242Y0059864D01*
X0045242Y0060355D02*
X0045734Y0060355D01*
X0045734Y0060846D02*
X0045242Y0060846D01*
X0045242Y0061337D02*
X0045734Y0061337D01*
X0043667Y0061540D02*
X0043667Y0058882D01*
X0043667Y0061540D02*
X0044159Y0061540D01*
X0044159Y0058882D01*
X0043667Y0058882D01*
X0043667Y0059373D02*
X0044159Y0059373D01*
X0044159Y0059864D02*
X0043667Y0059864D01*
X0043667Y0060355D02*
X0044159Y0060355D01*
X0044159Y0060846D02*
X0043667Y0060846D01*
X0043667Y0061337D02*
X0044159Y0061337D01*
X0042093Y0061540D02*
X0042093Y0058882D01*
X0042093Y0061540D02*
X0042585Y0061540D01*
X0042585Y0058882D01*
X0042093Y0058882D01*
X0042093Y0059373D02*
X0042585Y0059373D01*
X0042585Y0059864D02*
X0042093Y0059864D01*
X0042093Y0060355D02*
X0042585Y0060355D01*
X0042585Y0060846D02*
X0042093Y0060846D01*
X0042093Y0061337D02*
X0042585Y0061337D01*
D19*
X0039800Y0061700D03*
X0038000Y0063500D03*
X0035400Y0066500D03*
X0036200Y0056300D03*
X0042100Y0052700D03*
X0042200Y0050300D03*
X0036200Y0049100D03*
X0033700Y0041600D03*
X0031400Y0038900D03*
X0027600Y0038000D03*
X0029000Y0029300D03*
X0037300Y0037100D03*
X0043200Y0030300D03*
X0046800Y0029000D03*
X0055900Y0032800D03*
X0062400Y0036800D03*
X0058800Y0040500D03*
X0058400Y0044500D03*
X0058400Y0047200D03*
X0065400Y0047600D03*
X0066200Y0044900D03*
X0066200Y0039500D03*
X0065300Y0028700D03*
X0051200Y0040400D03*
X0047400Y0039500D03*
X0044800Y0039500D03*
X0051200Y0056300D03*
X0059100Y0056200D03*
X0062900Y0057700D03*
X0065200Y0061200D03*
X0062100Y0061400D03*
X0052800Y0065900D03*
X0046100Y0063300D03*
X0029100Y0055600D03*
X0018710Y0048540D03*
X0014870Y0057310D03*
X0020100Y0065700D03*
X0010400Y0038900D03*
X0017000Y0029300D03*
X0014600Y0028100D03*
D20*
X0015200Y0028100D01*
X0015800Y0027500D01*
X0018200Y0027500D01*
X0018800Y0028100D01*
X0018800Y0031100D01*
X0017000Y0032900D01*
X0017000Y0036500D01*
X0016832Y0037003D01*
X0018801Y0037003D02*
X0018800Y0036500D01*
X0018800Y0032900D01*
X0022400Y0029300D01*
X0022750Y0029100D01*
X0026250Y0029100D02*
X0026600Y0028700D01*
X0027800Y0027500D01*
X0030200Y0027500D01*
X0034400Y0031700D01*
X0034800Y0032050D01*
X0035000Y0031700D01*
X0035600Y0031100D01*
X0038000Y0031100D01*
X0038300Y0030850D01*
X0038600Y0030500D01*
X0041600Y0027500D01*
X0045300Y0027500D01*
X0046800Y0029000D01*
X0046800Y0029500D01*
X0046400Y0029900D01*
X0046750Y0030200D01*
X0046800Y0029900D02*
X0046800Y0027354D01*
X0047050Y0027650D02*
X0047628Y0027650D01*
X0048118Y0027781D01*
X0048557Y0028035D01*
X0048900Y0028378D01*
X0048900Y0027943D01*
X0049490Y0027354D01*
X0028450Y0027354D01*
X0028593Y0027600D01*
X0029704Y0027600D01*
X0030700Y0028596D01*
X0030700Y0029900D01*
X0032057Y0029900D01*
X0032549Y0030392D01*
X0032635Y0030243D01*
X0032993Y0029885D01*
X0033432Y0029631D01*
X0033922Y0029500D01*
X0034500Y0029500D01*
X0034500Y0031750D01*
X0035100Y0031750D01*
X0035100Y0029500D01*
X0035678Y0029500D01*
X0035863Y0029550D01*
X0035881Y0029482D01*
X0036135Y0029043D01*
X0036493Y0028685D01*
X0036932Y0028431D01*
X0037422Y0028300D01*
X0038000Y0028300D01*
X0038000Y0030550D01*
X0038600Y0030550D01*
X0038600Y0028300D01*
X0039178Y0028300D01*
X0039668Y0028431D01*
X0040107Y0028685D01*
X0040465Y0029043D01*
X0040719Y0029482D01*
X0040850Y0029972D01*
X0040850Y0030550D01*
X0038600Y0030550D01*
X0038600Y0031150D01*
X0040850Y0031150D01*
X0040850Y0031729D01*
X0040719Y0032218D01*
X0040465Y0032657D01*
X0040240Y0032883D01*
X0040450Y0033093D01*
X0040450Y0035607D01*
X0040389Y0035668D01*
X0040389Y0038347D01*
X0040946Y0038347D01*
X0040946Y0034786D01*
X0041139Y0034593D01*
X0041139Y0031495D01*
X0041100Y0031457D01*
X0041100Y0028943D01*
X0041993Y0028050D01*
X0044507Y0028050D01*
X0044717Y0028261D01*
X0044943Y0028035D01*
X0045382Y0027781D01*
X0045872Y0027650D01*
X0046450Y0027650D01*
X0046450Y0029900D01*
X0047050Y0029900D01*
X0047050Y0027650D01*
X0047050Y0028900D02*
X0046450Y0028900D01*
X0044800Y0028178D02*
X0044800Y0027354D01*
X0042800Y0027354D02*
X0042800Y0028050D01*
X0041143Y0028900D02*
X0040322Y0028900D01*
X0040800Y0029785D02*
X0040800Y0027354D01*
X0038800Y0027354D02*
X0038800Y0028300D01*
X0038600Y0028900D02*
X0038000Y0028900D01*
X0036800Y0028507D02*
X0036800Y0027354D01*
X0036278Y0028900D02*
X0030700Y0028900D01*
X0030800Y0029900D02*
X0030800Y0027354D01*
X0028800Y0027354D02*
X0028800Y0027600D01*
X0029000Y0029300D02*
X0028400Y0029900D01*
X0028400Y0031100D01*
X0026600Y0032900D01*
X0026250Y0033000D01*
X0028400Y0034100D02*
X0028400Y0037100D01*
X0027800Y0037700D01*
X0027600Y0038000D01*
X0027800Y0038300D01*
X0028400Y0038900D01*
X0028400Y0041300D01*
X0028998Y0041295D01*
X0028400Y0043100D02*
X0027200Y0043100D01*
X0026000Y0041900D01*
X0014000Y0041900D01*
X0011000Y0038900D01*
X0010400Y0038900D01*
X0011000Y0038900D02*
X0011000Y0035300D01*
X0017000Y0029300D01*
X0022750Y0033000D02*
X0023000Y0033500D01*
X0023000Y0036500D01*
X0022738Y0037003D01*
X0024706Y0037003D02*
X0024800Y0037100D01*
X0026600Y0037100D01*
X0027200Y0037700D01*
X0027600Y0038000D01*
X0030800Y0035550D02*
X0030800Y0035300D01*
X0031400Y0035300D01*
X0034400Y0032300D01*
X0034800Y0032050D01*
X0034800Y0031750D02*
X0034800Y0027354D01*
X0032800Y0027354D02*
X0032800Y0030078D01*
X0034500Y0030900D02*
X0035100Y0030900D01*
X0038600Y0030900D02*
X0041100Y0030900D01*
X0040800Y0031150D02*
X0040800Y0030550D01*
X0040800Y0031915D02*
X0040800Y0038347D01*
X0040946Y0036900D02*
X0040389Y0036900D01*
X0040450Y0034900D02*
X0040946Y0034900D01*
X0039189Y0035239D02*
X0039189Y0039739D01*
X0039189Y0041313D02*
X0042287Y0041313D01*
X0044100Y0039500D01*
X0044800Y0039500D01*
X0044800Y0041200D02*
X0050900Y0041200D01*
X0051200Y0040900D01*
X0051200Y0040400D01*
X0050132Y0039064D02*
X0049492Y0039064D01*
X0049425Y0038997D01*
X0049359Y0039064D01*
X0048349Y0039064D01*
X0048258Y0039155D01*
X0047906Y0039359D01*
X0047513Y0039464D01*
X0047063Y0039464D01*
X0047063Y0036589D01*
X0047063Y0039163D01*
X0047400Y0039500D01*
X0047063Y0039464D02*
X0046613Y0039464D01*
X0046500Y0039433D01*
X0046500Y0040000D01*
X0049500Y0040000D01*
X0049500Y0039696D01*
X0050132Y0039064D01*
X0048800Y0039064D02*
X0048800Y0040000D01*
X0047063Y0039464D02*
X0047063Y0036589D01*
X0047063Y0036589D01*
X0047063Y0036900D02*
X0047063Y0036900D01*
X0045488Y0036589D02*
X0045488Y0034612D01*
X0046100Y0034000D01*
X0056200Y0034000D01*
X0055900Y0033700D01*
X0055900Y0032800D01*
X0056200Y0034000D02*
X0061800Y0034000D01*
X0062350Y0033450D01*
X0062350Y0029200D01*
X0064057Y0030900D02*
X0068400Y0030900D01*
X0068400Y0032900D02*
X0063550Y0032900D01*
X0063550Y0033947D02*
X0062847Y0034650D01*
X0062297Y0035200D01*
X0061054Y0035200D01*
X0061054Y0038347D01*
X0062656Y0038347D01*
X0062703Y0038300D01*
X0062861Y0038300D01*
X0062996Y0038217D01*
X0063342Y0038300D01*
X0064996Y0038300D01*
X0065496Y0037800D01*
X0066904Y0037800D01*
X0067900Y0038796D01*
X0067900Y0040204D01*
X0066904Y0041200D01*
X0065496Y0041200D01*
X0065286Y0040990D01*
X0065286Y0042034D01*
X0065219Y0042101D01*
X0065286Y0042168D01*
X0065286Y0043410D01*
X0065496Y0043200D01*
X0066904Y0043200D01*
X0067900Y0044196D01*
X0067900Y0045604D01*
X0066904Y0046600D01*
X0065496Y0046600D01*
X0065464Y0046568D01*
X0065580Y0046770D01*
X0065686Y0047163D01*
X0065686Y0047613D01*
X0065686Y0048062D01*
X0065580Y0048456D01*
X0065534Y0048537D01*
X0068400Y0051403D01*
X0068400Y0025779D01*
X0065057Y0025779D01*
X0065057Y0026826D01*
X0064530Y0027354D01*
X0063910Y0027354D01*
X0064500Y0027943D01*
X0064500Y0030457D01*
X0063607Y0031350D01*
X0063550Y0031350D01*
X0063550Y0033947D01*
X0062800Y0034697D02*
X0062800Y0038300D01*
X0063200Y0039500D02*
X0062811Y0039739D01*
X0059561Y0039739D01*
X0058800Y0040500D01*
X0060787Y0041313D02*
X0058400Y0043700D01*
X0058400Y0044500D01*
X0060200Y0043700D02*
X0060200Y0046400D01*
X0059400Y0047200D01*
X0058400Y0047200D01*
X0059604Y0048400D02*
X0059104Y0048900D01*
X0058205Y0048900D01*
X0060336Y0048900D01*
X0060336Y0048899D02*
X0060245Y0048808D01*
X0060042Y0048456D01*
X0059999Y0048298D01*
X0059897Y0048400D01*
X0059604Y0048400D01*
X0059100Y0049100D02*
X0059100Y0049300D01*
X0060787Y0047613D01*
X0062811Y0047613D01*
X0060684Y0047613D01*
X0060685Y0047613D01*
X0062811Y0047613D01*
X0062811Y0047613D01*
X0065686Y0047613D01*
X0062811Y0047613D01*
X0062811Y0047613D01*
X0062824Y0047600D01*
X0065400Y0047600D01*
X0064800Y0047613D02*
X0064800Y0047613D01*
X0065615Y0046900D02*
X0068400Y0046900D01*
X0066800Y0046600D02*
X0066800Y0049803D01*
X0067897Y0050900D02*
X0068400Y0050900D01*
X0068000Y0052700D02*
X0068000Y0061500D01*
X0065100Y0064400D01*
X0062350Y0064400D01*
X0062300Y0064450D01*
X0062600Y0064100D01*
X0062300Y0064450D02*
X0062000Y0064700D01*
X0057800Y0064700D01*
X0057600Y0064450D01*
X0055450Y0064900D02*
X0054562Y0064900D01*
X0054562Y0065835D02*
X0054500Y0065897D01*
X0054500Y0066604D01*
X0053504Y0067600D01*
X0052096Y0067600D01*
X0051100Y0066604D01*
X0051100Y0065196D01*
X0052096Y0064200D01*
X0052162Y0064200D01*
X0052162Y0062686D01*
X0051067Y0062686D01*
X0051000Y0062619D01*
X0050933Y0062686D01*
X0049492Y0062686D01*
X0049425Y0062619D01*
X0049359Y0062686D01*
X0047917Y0062686D01*
X0047850Y0062619D01*
X0047800Y0062670D01*
X0047800Y0064004D01*
X0046804Y0065000D01*
X0046700Y0065000D01*
X0046700Y0066157D01*
X0045807Y0067050D01*
X0043293Y0067050D01*
X0043083Y0066840D01*
X0042857Y0067065D01*
X0042418Y0067319D01*
X0041928Y0067450D01*
X0041350Y0067450D01*
X0041350Y0065200D01*
X0040750Y0065200D01*
X0040750Y0067450D01*
X0040172Y0067450D01*
X0039682Y0067319D01*
X0039243Y0067065D01*
X0038885Y0066707D01*
X0038631Y0066268D01*
X0038500Y0065779D01*
X0038500Y0065200D01*
X0037700Y0065200D01*
X0037700Y0068067D01*
X0036917Y0068850D01*
X0033183Y0068850D01*
X0032400Y0068067D01*
X0032400Y0065997D01*
X0031700Y0066697D01*
X0031700Y0068067D01*
X0030917Y0068850D01*
X0027183Y0068850D01*
X0026400Y0068067D01*
X0026400Y0064334D01*
X0027183Y0063550D01*
X0030917Y0063550D01*
X0031185Y0063818D01*
X0032000Y0063003D01*
X0032703Y0062300D01*
X0036796Y0062300D01*
X0037296Y0061800D01*
X0038100Y0061800D01*
X0038100Y0060996D01*
X0039096Y0060000D01*
X0040504Y0060000D01*
X0040913Y0060409D01*
X0040946Y0060339D01*
X0040946Y0060035D01*
X0040902Y0059934D01*
X0040946Y0059817D01*
X0040946Y0058454D01*
X0037386Y0058454D01*
X0036918Y0057986D01*
X0036904Y0058000D01*
X0035496Y0058000D01*
X0035246Y0057751D01*
X0030800Y0062197D01*
X0030800Y0063550D01*
X0030097Y0062900D02*
X0018903Y0062900D01*
X0016503Y0060500D01*
X0016071Y0060069D01*
X0015959Y0060069D01*
X0015848Y0059957D01*
X0015737Y0060069D01*
X0013991Y0060069D01*
X0013880Y0059957D01*
X0013768Y0060069D01*
X0012022Y0060069D01*
X0011495Y0059541D01*
X0011495Y0055252D01*
X0012022Y0054725D01*
X0013768Y0054725D01*
X0013880Y0054837D01*
X0013991Y0054725D01*
X0015737Y0054725D01*
X0015848Y0054837D01*
X0015959Y0054725D01*
X0017705Y0054725D01*
X0017817Y0054837D01*
X0017928Y0054725D01*
X0018078Y0054725D01*
X0018303Y0054500D01*
X0019503Y0053300D01*
X0025897Y0053300D01*
X0026326Y0053729D01*
X0026326Y0052233D01*
X0026437Y0052121D01*
X0026326Y0052010D01*
X0026326Y0050607D01*
X0026186Y0050467D01*
X0026015Y0050170D01*
X0025926Y0049840D01*
X0025926Y0049169D01*
X0028998Y0049169D01*
X0028400Y0049100D01*
X0018800Y0049100D01*
X0018801Y0047200D01*
X0018200Y0049100D01*
X0012800Y0054500D01*
X0012200Y0054500D01*
X0011000Y0055700D01*
X0011000Y0059300D01*
X0017000Y0065300D01*
X0020000Y0065300D01*
X0020100Y0065700D01*
X0020600Y0065900D01*
X0023600Y0068900D01*
X0037400Y0068900D01*
X0041000Y0065300D01*
X0041050Y0064900D01*
X0041600Y0065300D01*
X0041600Y0065900D01*
X0043400Y0067700D01*
X0057200Y0067700D01*
X0057600Y0067950D01*
X0057300Y0068250D02*
X0057300Y0067650D01*
X0055050Y0067650D01*
X0055050Y0067072D01*
X0055181Y0066582D01*
X0055435Y0066143D01*
X0055660Y0065917D01*
X0055450Y0065707D01*
X0055450Y0063193D01*
X0055958Y0062686D01*
X0055791Y0062686D01*
X0055724Y0062619D01*
X0055658Y0062686D01*
X0054562Y0062686D01*
X0054562Y0065835D01*
X0054204Y0066900D02*
X0055096Y0066900D01*
X0055050Y0068250D02*
X0057300Y0068250D01*
X0056800Y0068250D02*
X0056800Y0067650D01*
X0055050Y0068829D02*
X0055181Y0069318D01*
X0055372Y0069648D01*
X0006002Y0069648D01*
X0006002Y0054048D01*
X0006459Y0054506D01*
X0010748Y0054506D01*
X0011276Y0053978D01*
X0011276Y0052233D01*
X0011164Y0052121D01*
X0011276Y0052010D01*
X0011276Y0050264D01*
X0011164Y0050153D01*
X0011276Y0050041D01*
X0011276Y0048296D01*
X0011164Y0048184D01*
X0011276Y0048073D01*
X0011276Y0046327D01*
X0011164Y0046216D01*
X0011276Y0046104D01*
X0011276Y0044359D01*
X0011164Y0044247D01*
X0011276Y0044136D01*
X0011276Y0042390D01*
X0011164Y0042279D01*
X0011276Y0042167D01*
X0011276Y0040873D01*
X0012800Y0042397D01*
X0012800Y0054725D01*
X0011848Y0054900D02*
X0006002Y0054900D01*
X0006800Y0054506D02*
X0006800Y0069648D01*
X0006002Y0068900D02*
X0055069Y0068900D01*
X0055050Y0068829D02*
X0055050Y0068250D01*
X0054800Y0069648D02*
X0054800Y0062686D01*
X0054562Y0062900D02*
X0055743Y0062900D01*
X0053362Y0065338D02*
X0053362Y0060211D01*
X0052575Y0057803D02*
X0052641Y0057736D01*
X0054083Y0057736D01*
X0054150Y0057803D01*
X0054216Y0057736D01*
X0055658Y0057736D01*
X0055724Y0057803D01*
X0055791Y0057736D01*
X0057233Y0057736D01*
X0057299Y0057803D01*
X0057366Y0057736D01*
X0058807Y0057736D01*
X0058874Y0057803D01*
X0058941Y0057736D01*
X0060336Y0057736D01*
X0060336Y0056341D01*
X0060403Y0056274D01*
X0060336Y0056207D01*
X0060336Y0054766D01*
X0060403Y0054699D01*
X0060336Y0054633D01*
X0060336Y0053191D01*
X0060403Y0053125D01*
X0060336Y0053058D01*
X0060336Y0051616D01*
X0060403Y0051550D01*
X0060336Y0051483D01*
X0060336Y0050042D01*
X0060403Y0049975D01*
X0060336Y0049908D01*
X0060336Y0048899D01*
X0060800Y0047613D02*
X0060800Y0047613D01*
X0058800Y0048900D02*
X0058800Y0057736D01*
X0059100Y0056200D02*
X0059100Y0049300D01*
X0058205Y0048900D02*
X0058205Y0053964D01*
X0058077Y0054445D01*
X0057828Y0054876D01*
X0057476Y0055228D01*
X0057045Y0055477D01*
X0056564Y0055606D01*
X0051300Y0055606D01*
X0051300Y0048700D01*
X0050700Y0048700D01*
X0050700Y0048100D01*
X0043795Y0048100D01*
X0043795Y0043903D01*
X0043609Y0044088D01*
X0041664Y0044088D01*
X0041664Y0045184D01*
X0041597Y0045250D01*
X0041664Y0045317D01*
X0041664Y0046759D01*
X0041597Y0046825D01*
X0041664Y0046892D01*
X0041664Y0048333D01*
X0041597Y0048400D01*
X0041664Y0048467D01*
X0041664Y0048600D01*
X0042904Y0048600D01*
X0043795Y0049490D01*
X0043795Y0048700D01*
X0050700Y0048700D01*
X0050700Y0055606D01*
X0045436Y0055606D01*
X0045200Y0055542D01*
X0045200Y0057397D01*
X0044861Y0057736D01*
X0046209Y0057736D01*
X0046276Y0057803D01*
X0046342Y0057736D01*
X0047784Y0057736D01*
X0047850Y0057803D01*
X0047917Y0057736D01*
X0049359Y0057736D01*
X0049425Y0057803D01*
X0049492Y0057736D01*
X0050933Y0057736D01*
X0051000Y0057803D01*
X0051067Y0057736D01*
X0052508Y0057736D01*
X0052575Y0057803D01*
X0052800Y0057736D02*
X0052800Y0055606D01*
X0051300Y0054900D02*
X0050700Y0054900D01*
X0051200Y0056300D02*
X0051200Y0048500D01*
X0051000Y0048400D01*
X0050800Y0048700D02*
X0050800Y0057736D01*
X0048800Y0057736D02*
X0048800Y0055606D01*
X0046800Y0055606D02*
X0046800Y0057736D01*
X0045200Y0056900D02*
X0060336Y0056900D01*
X0060336Y0054900D02*
X0057804Y0054900D01*
X0056800Y0055542D02*
X0056800Y0057736D01*
X0054800Y0057736D02*
X0054800Y0055606D01*
X0058205Y0052900D02*
X0060336Y0052900D01*
X0060336Y0050900D02*
X0058205Y0050900D01*
X0062811Y0049187D02*
X0063200Y0049100D01*
X0064400Y0049100D01*
X0068000Y0052700D01*
X0066000Y0055500D02*
X0066000Y0060400D01*
X0065200Y0061200D01*
X0062100Y0061400D02*
X0062000Y0058100D01*
X0062600Y0057500D01*
X0062811Y0057062D01*
X0062811Y0057061D02*
X0062838Y0057063D01*
X0062864Y0057069D01*
X0062890Y0057078D01*
X0062913Y0057091D01*
X0062935Y0057107D01*
X0062954Y0057126D01*
X0062970Y0057148D01*
X0062983Y0057171D01*
X0062992Y0057197D01*
X0062998Y0057223D01*
X0063000Y0057250D01*
X0062983Y0057252D01*
X0062966Y0057256D01*
X0062950Y0057263D01*
X0062936Y0057273D01*
X0062923Y0057286D01*
X0062913Y0057300D01*
X0062906Y0057316D01*
X0062902Y0057333D01*
X0062900Y0057350D01*
X0062900Y0057700D01*
X0062824Y0055500D02*
X0066000Y0055500D01*
X0062824Y0055500D02*
X0062811Y0055487D01*
X0065897Y0048900D02*
X0068400Y0048900D01*
X0068400Y0044900D02*
X0067900Y0044900D01*
X0066200Y0044900D02*
X0065000Y0044900D01*
X0064400Y0044300D01*
X0063200Y0044300D01*
X0062811Y0044463D01*
X0062811Y0042888D02*
X0061012Y0042888D01*
X0060200Y0043700D01*
X0060787Y0041313D02*
X0062811Y0041313D01*
X0063200Y0039500D02*
X0066200Y0039500D01*
X0067204Y0040900D02*
X0068400Y0040900D01*
X0066800Y0041200D02*
X0066800Y0043200D01*
X0065286Y0042900D02*
X0068400Y0042900D01*
X0068400Y0038900D02*
X0067900Y0038900D01*
X0066800Y0037800D02*
X0066800Y0025779D01*
X0068400Y0026900D02*
X0064984Y0026900D01*
X0064800Y0027084D02*
X0064800Y0038300D01*
X0064800Y0036800D02*
X0065400Y0036200D01*
X0065400Y0028800D01*
X0065300Y0028700D01*
X0064500Y0028900D02*
X0068400Y0028900D01*
X0068400Y0034900D02*
X0062597Y0034900D01*
X0062400Y0036800D02*
X0064800Y0036800D01*
X0068400Y0036900D02*
X0061054Y0036900D01*
X0058850Y0029200D02*
X0058400Y0029300D01*
X0054800Y0029300D01*
X0054550Y0029200D01*
X0051050Y0029200D02*
X0051050Y0031950D01*
X0050300Y0032700D01*
X0045000Y0032700D01*
X0043913Y0033787D01*
X0043913Y0036589D01*
X0042339Y0036589D02*
X0042339Y0031162D01*
X0043200Y0030300D01*
X0043250Y0030250D01*
X0043250Y0030200D01*
X0041139Y0032900D02*
X0040257Y0032900D01*
X0038800Y0031150D02*
X0038800Y0030550D01*
X0038300Y0034350D02*
X0039189Y0035239D01*
X0037300Y0037100D02*
X0036350Y0037100D01*
X0034800Y0035550D01*
X0034400Y0035900D01*
X0031400Y0038900D01*
X0033200Y0041900D02*
X0033700Y0041600D01*
X0033200Y0041900D02*
X0033200Y0043100D01*
X0031400Y0044900D01*
X0029000Y0044900D01*
X0028998Y0045232D01*
X0028998Y0047200D02*
X0029000Y0047300D01*
X0030800Y0047300D01*
X0032000Y0048500D01*
X0032000Y0053900D01*
X0030800Y0055100D01*
X0029600Y0055100D01*
X0029100Y0055600D01*
X0028400Y0057500D02*
X0025400Y0054500D01*
X0020000Y0054500D01*
X0018800Y0055700D01*
X0018800Y0056900D01*
X0018801Y0057397D01*
X0020769Y0057397D02*
X0021200Y0057500D01*
X0021200Y0059900D01*
X0021800Y0060500D01*
X0029000Y0060500D01*
X0035600Y0053900D01*
X0038600Y0053900D01*
X0039189Y0053912D01*
X0039189Y0052337D02*
X0041737Y0052337D01*
X0042100Y0052700D01*
X0044000Y0052100D02*
X0042200Y0050300D01*
X0043204Y0048900D02*
X0043795Y0048900D01*
X0044800Y0048700D02*
X0044800Y0048100D01*
X0043795Y0046900D02*
X0041664Y0046900D01*
X0041664Y0044900D02*
X0043795Y0044900D01*
X0042800Y0044088D02*
X0042800Y0048600D01*
X0039189Y0049187D02*
X0038600Y0049100D01*
X0036200Y0049100D01*
X0036800Y0050900D02*
X0030200Y0057500D01*
X0028400Y0057500D01*
X0032097Y0060900D02*
X0038196Y0060900D01*
X0038800Y0060296D02*
X0038800Y0058454D01*
X0036800Y0058000D02*
X0036800Y0062296D01*
X0038000Y0063500D02*
X0033200Y0063500D01*
X0030800Y0065900D01*
X0029600Y0065900D01*
X0029050Y0066200D01*
X0026800Y0063934D02*
X0026800Y0062900D01*
X0028800Y0062900D02*
X0028800Y0063550D01*
X0030097Y0062900D02*
X0030800Y0062197D01*
X0029600Y0061700D02*
X0019400Y0061700D01*
X0017000Y0059300D01*
X0017000Y0057500D01*
X0016832Y0057397D01*
X0014870Y0057310D02*
X0014834Y0057310D01*
X0014864Y0057397D01*
X0014800Y0060069D02*
X0014800Y0069648D01*
X0016800Y0069648D02*
X0016800Y0060797D01*
X0016903Y0060900D02*
X0006002Y0060900D01*
X0006002Y0058900D02*
X0011495Y0058900D01*
X0012800Y0060069D02*
X0012800Y0069648D01*
X0010800Y0069648D02*
X0010800Y0054454D01*
X0011276Y0052900D02*
X0026326Y0052900D01*
X0024800Y0053300D02*
X0024800Y0043100D01*
X0025503Y0043100D02*
X0023993Y0043100D01*
X0024001Y0043129D01*
X0024001Y0046900D01*
X0026326Y0046900D01*
X0026326Y0046327D02*
X0026437Y0046216D01*
X0026326Y0046104D01*
X0026326Y0044359D01*
X0026437Y0044247D01*
X0026326Y0044136D01*
X0026326Y0043923D01*
X0026000Y0043597D01*
X0025503Y0043100D01*
X0026326Y0044900D02*
X0024001Y0044900D01*
X0024001Y0046900D02*
X0019101Y0046900D01*
X0019101Y0047500D01*
X0024001Y0047500D01*
X0024001Y0051271D01*
X0023912Y0051602D01*
X0023741Y0051898D01*
X0023499Y0052140D01*
X0023203Y0052311D01*
X0022872Y0052400D01*
X0019101Y0052400D01*
X0019101Y0047500D01*
X0018501Y0047500D01*
X0018501Y0052400D01*
X0014730Y0052400D01*
X0014399Y0052311D01*
X0014103Y0052140D01*
X0013861Y0051898D01*
X0013689Y0051602D01*
X0013601Y0051271D01*
X0013601Y0047500D01*
X0018501Y0047500D01*
X0018501Y0046900D01*
X0013601Y0046900D01*
X0011276Y0046900D01*
X0011276Y0044900D02*
X0013601Y0044900D01*
X0013601Y0043129D02*
X0013609Y0043100D01*
X0013503Y0043100D01*
X0012800Y0042397D01*
X0013303Y0042900D02*
X0011276Y0042900D01*
X0011276Y0040900D02*
X0011303Y0040900D01*
X0013601Y0043129D02*
X0013601Y0046900D01*
X0014800Y0046900D02*
X0014800Y0047500D01*
X0013601Y0048900D02*
X0011276Y0048900D01*
X0011276Y0050900D02*
X0013601Y0050900D01*
X0014800Y0052400D02*
X0014800Y0054725D01*
X0016800Y0054725D02*
X0016800Y0052400D01*
X0018501Y0050900D02*
X0019101Y0050900D01*
X0020800Y0052400D02*
X0020800Y0053300D01*
X0018800Y0054003D02*
X0018800Y0047500D01*
X0018801Y0047200D02*
X0018600Y0047200D01*
X0018710Y0048540D01*
X0018501Y0048900D02*
X0019101Y0048900D01*
X0020800Y0047500D02*
X0020800Y0046900D01*
X0022800Y0046900D02*
X0022800Y0047500D01*
X0024001Y0048900D02*
X0025926Y0048900D01*
X0025926Y0049169D02*
X0025926Y0048497D01*
X0026015Y0048167D01*
X0026186Y0047870D01*
X0026326Y0047730D01*
X0026326Y0046327D01*
X0028400Y0043100D02*
X0028998Y0043263D01*
X0028998Y0049169D02*
X0025926Y0049169D01*
X0026800Y0049169D02*
X0026800Y0049169D01*
X0026326Y0050900D02*
X0024001Y0050900D01*
X0022800Y0052400D02*
X0022800Y0053300D01*
X0028800Y0049169D02*
X0028800Y0049169D01*
X0028998Y0049169D02*
X0028998Y0049169D01*
X0035000Y0056300D02*
X0029600Y0061700D01*
X0032103Y0062900D02*
X0006002Y0062900D01*
X0006002Y0064900D02*
X0026400Y0064900D01*
X0026400Y0066900D02*
X0006002Y0066900D01*
X0008800Y0069648D02*
X0008800Y0054506D01*
X0011495Y0056900D02*
X0006002Y0056900D01*
X0016800Y0047500D02*
X0016800Y0046900D01*
X0028400Y0034100D02*
X0030200Y0032300D01*
X0030800Y0032300D01*
X0030800Y0032050D01*
X0039189Y0042888D02*
X0043112Y0042888D01*
X0044800Y0041200D01*
X0046800Y0040000D02*
X0046800Y0039464D01*
X0047063Y0038900D02*
X0047063Y0038900D01*
X0046800Y0048100D02*
X0046800Y0048700D01*
X0048800Y0048700D02*
X0048800Y0048100D01*
X0050700Y0048900D02*
X0051300Y0048900D01*
X0051300Y0050900D02*
X0050700Y0050900D01*
X0050700Y0052900D02*
X0051300Y0052900D01*
X0044000Y0052100D02*
X0044000Y0056900D01*
X0042200Y0058700D01*
X0042200Y0059900D01*
X0042339Y0060211D01*
X0042200Y0061700D01*
X0039800Y0061700D01*
X0040800Y0060296D02*
X0040800Y0058454D01*
X0040946Y0058900D02*
X0034097Y0058900D01*
X0034800Y0058197D02*
X0034800Y0062300D01*
X0032800Y0062300D02*
X0032800Y0060197D01*
X0035000Y0056300D02*
X0036200Y0056300D01*
X0036800Y0050900D02*
X0038600Y0050900D01*
X0039189Y0050762D01*
X0042339Y0060211D02*
X0042200Y0060500D01*
X0042200Y0061700D01*
X0044000Y0063500D01*
X0044000Y0064350D01*
X0044550Y0064900D01*
X0044000Y0064700D01*
X0044900Y0064700D01*
X0046100Y0063300D01*
X0047800Y0062900D02*
X0052162Y0062900D01*
X0050800Y0062686D02*
X0050800Y0069648D01*
X0048800Y0069648D02*
X0048800Y0062686D01*
X0046904Y0064900D02*
X0051396Y0064900D01*
X0052800Y0065900D02*
X0053362Y0065338D01*
X0051396Y0066900D02*
X0045957Y0066900D01*
X0044800Y0067050D02*
X0044800Y0069648D01*
X0046800Y0069648D02*
X0046800Y0065000D01*
X0043143Y0066900D02*
X0043022Y0066900D01*
X0042800Y0067098D02*
X0042800Y0069648D01*
X0040800Y0069648D02*
X0040800Y0065200D01*
X0040750Y0066900D02*
X0041350Y0066900D01*
X0039078Y0066900D02*
X0037700Y0066900D01*
X0038800Y0066561D02*
X0038800Y0069648D01*
X0036800Y0069648D02*
X0036800Y0068850D01*
X0034800Y0068850D02*
X0034800Y0069648D01*
X0032800Y0069648D02*
X0032800Y0068467D01*
X0032400Y0066900D02*
X0031700Y0066900D01*
X0030800Y0068850D02*
X0030800Y0069648D01*
X0028800Y0069648D02*
X0028800Y0068850D01*
X0026800Y0068467D02*
X0026800Y0069648D01*
X0024800Y0069648D02*
X0024800Y0062900D01*
X0022800Y0062900D02*
X0022800Y0069648D01*
X0020800Y0069648D02*
X0020800Y0062900D01*
X0018800Y0062797D02*
X0018800Y0069648D01*
X0035050Y0066200D02*
X0035350Y0066500D01*
X0035400Y0066500D01*
X0052800Y0067600D02*
X0052800Y0069648D01*
X0062800Y0047613D02*
X0062800Y0047613D01*
X0048800Y0028278D02*
X0048800Y0027354D01*
D21*
X0062300Y0067950D02*
X0073551Y0067950D01*
X0074100Y0067401D01*
M02*
