G75*
%MOIN*%
%OFA0B0*%
%FSLAX25Y25*%
%IPPOS*%
%LPD*%
%AMOC8*
5,1,8,0,0,1.08239X$1,22.5*
%
%ADD10C,0.00300*%
%ADD11C,0.00100*%
%ADD12C,0.00500*%
D10*
X0033900Y0027550D02*
X0033900Y0030050D01*
X0033902Y0030094D01*
X0033908Y0030137D01*
X0033917Y0030179D01*
X0033930Y0030221D01*
X0033947Y0030261D01*
X0033967Y0030300D01*
X0033990Y0030337D01*
X0034017Y0030371D01*
X0034046Y0030404D01*
X0034079Y0030433D01*
X0034113Y0030460D01*
X0034150Y0030483D01*
X0034189Y0030503D01*
X0034229Y0030520D01*
X0034271Y0030533D01*
X0034313Y0030542D01*
X0034356Y0030548D01*
X0034400Y0030550D01*
X0040400Y0030550D01*
X0040250Y0031000D02*
X0042750Y0031000D01*
X0042794Y0031002D01*
X0042837Y0031008D01*
X0042879Y0031017D01*
X0042921Y0031030D01*
X0042961Y0031047D01*
X0043000Y0031067D01*
X0043037Y0031090D01*
X0043071Y0031117D01*
X0043104Y0031146D01*
X0043133Y0031179D01*
X0043160Y0031213D01*
X0043183Y0031250D01*
X0043203Y0031289D01*
X0043220Y0031329D01*
X0043233Y0031371D01*
X0043242Y0031413D01*
X0043248Y0031456D01*
X0043250Y0031500D01*
X0043250Y0037500D01*
X0043248Y0037544D01*
X0043242Y0037587D01*
X0043233Y0037629D01*
X0043220Y0037671D01*
X0043203Y0037711D01*
X0043183Y0037750D01*
X0043160Y0037787D01*
X0043133Y0037821D01*
X0043104Y0037854D01*
X0043071Y0037883D01*
X0043037Y0037910D01*
X0043000Y0037933D01*
X0042961Y0037953D01*
X0042921Y0037970D01*
X0042879Y0037983D01*
X0042837Y0037992D01*
X0042794Y0037998D01*
X0042750Y0038000D01*
X0040250Y0038000D01*
X0040206Y0037998D01*
X0040163Y0037992D01*
X0040121Y0037983D01*
X0040079Y0037970D01*
X0040039Y0037953D01*
X0040000Y0037933D01*
X0039963Y0037910D01*
X0039929Y0037883D01*
X0039896Y0037854D01*
X0039867Y0037821D01*
X0039840Y0037787D01*
X0039817Y0037750D01*
X0039797Y0037711D01*
X0039780Y0037671D01*
X0039767Y0037629D01*
X0039758Y0037587D01*
X0039752Y0037544D01*
X0039750Y0037500D01*
X0039750Y0031500D01*
X0039752Y0031456D01*
X0039758Y0031413D01*
X0039767Y0031371D01*
X0039780Y0031329D01*
X0039797Y0031289D01*
X0039817Y0031250D01*
X0039840Y0031213D01*
X0039867Y0031179D01*
X0039896Y0031146D01*
X0039929Y0031117D01*
X0039963Y0031090D01*
X0040000Y0031067D01*
X0040039Y0031047D01*
X0040079Y0031030D01*
X0040121Y0031017D01*
X0040163Y0031008D01*
X0040206Y0031002D01*
X0040250Y0031000D01*
X0040400Y0030550D02*
X0040444Y0030548D01*
X0040487Y0030542D01*
X0040529Y0030533D01*
X0040571Y0030520D01*
X0040611Y0030503D01*
X0040650Y0030483D01*
X0040687Y0030460D01*
X0040721Y0030433D01*
X0040754Y0030404D01*
X0040783Y0030371D01*
X0040810Y0030337D01*
X0040833Y0030300D01*
X0040853Y0030261D01*
X0040870Y0030221D01*
X0040883Y0030179D01*
X0040892Y0030137D01*
X0040898Y0030094D01*
X0040900Y0030050D01*
X0040900Y0027550D01*
X0040898Y0027506D01*
X0040892Y0027463D01*
X0040883Y0027421D01*
X0040870Y0027379D01*
X0040853Y0027339D01*
X0040833Y0027300D01*
X0040810Y0027263D01*
X0040783Y0027229D01*
X0040754Y0027196D01*
X0040721Y0027167D01*
X0040687Y0027140D01*
X0040650Y0027117D01*
X0040611Y0027097D01*
X0040571Y0027080D01*
X0040529Y0027067D01*
X0040487Y0027058D01*
X0040444Y0027052D01*
X0040400Y0027050D01*
X0034400Y0027050D01*
X0034356Y0027052D01*
X0034313Y0027058D01*
X0034271Y0027067D01*
X0034229Y0027080D01*
X0034189Y0027097D01*
X0034150Y0027117D01*
X0034113Y0027140D01*
X0034079Y0027167D01*
X0034046Y0027196D01*
X0034017Y0027229D01*
X0033990Y0027263D01*
X0033967Y0027300D01*
X0033947Y0027339D01*
X0033930Y0027379D01*
X0033917Y0027421D01*
X0033908Y0027463D01*
X0033902Y0027506D01*
X0033900Y0027550D01*
X0036418Y0031400D02*
X0035750Y0032068D01*
X0035750Y0037900D01*
X0035752Y0037944D01*
X0035758Y0037987D01*
X0035767Y0038029D01*
X0035780Y0038071D01*
X0035797Y0038111D01*
X0035817Y0038150D01*
X0035840Y0038187D01*
X0035867Y0038221D01*
X0035896Y0038254D01*
X0035929Y0038283D01*
X0035963Y0038310D01*
X0036000Y0038333D01*
X0036039Y0038353D01*
X0036079Y0038370D01*
X0036121Y0038383D01*
X0036163Y0038392D01*
X0036206Y0038398D01*
X0036250Y0038400D01*
X0038750Y0038400D01*
X0038794Y0038398D01*
X0038837Y0038392D01*
X0038879Y0038383D01*
X0038921Y0038370D01*
X0038961Y0038353D01*
X0039000Y0038333D01*
X0039037Y0038310D01*
X0039071Y0038283D01*
X0039104Y0038254D01*
X0039133Y0038221D01*
X0039160Y0038187D01*
X0039183Y0038150D01*
X0039203Y0038111D01*
X0039220Y0038071D01*
X0039233Y0038029D01*
X0039242Y0037987D01*
X0039248Y0037944D01*
X0039250Y0037900D01*
X0039250Y0032068D01*
X0038582Y0031400D01*
X0036418Y0031400D01*
X0037300Y0038150D02*
X0043300Y0038150D01*
X0043344Y0038152D01*
X0043387Y0038158D01*
X0043429Y0038167D01*
X0043471Y0038180D01*
X0043511Y0038197D01*
X0043550Y0038217D01*
X0043587Y0038240D01*
X0043621Y0038267D01*
X0043654Y0038296D01*
X0043683Y0038329D01*
X0043710Y0038363D01*
X0043733Y0038400D01*
X0043753Y0038439D01*
X0043770Y0038479D01*
X0043783Y0038521D01*
X0043792Y0038563D01*
X0043798Y0038606D01*
X0043800Y0038650D01*
X0043800Y0041150D01*
X0043798Y0041194D01*
X0043792Y0041237D01*
X0043783Y0041279D01*
X0043770Y0041321D01*
X0043753Y0041361D01*
X0043733Y0041400D01*
X0043710Y0041437D01*
X0043683Y0041471D01*
X0043654Y0041504D01*
X0043621Y0041533D01*
X0043587Y0041560D01*
X0043550Y0041583D01*
X0043511Y0041603D01*
X0043471Y0041620D01*
X0043429Y0041633D01*
X0043387Y0041642D01*
X0043344Y0041648D01*
X0043300Y0041650D01*
X0037300Y0041650D01*
X0037256Y0041648D01*
X0037213Y0041642D01*
X0037171Y0041633D01*
X0037129Y0041620D01*
X0037089Y0041603D01*
X0037050Y0041583D01*
X0037013Y0041560D01*
X0036979Y0041533D01*
X0036946Y0041504D01*
X0036917Y0041471D01*
X0036890Y0041437D01*
X0036867Y0041400D01*
X0036847Y0041361D01*
X0036830Y0041321D01*
X0036817Y0041279D01*
X0036808Y0041237D01*
X0036802Y0041194D01*
X0036800Y0041150D01*
X0036800Y0038650D01*
X0036802Y0038606D01*
X0036808Y0038563D01*
X0036817Y0038521D01*
X0036830Y0038479D01*
X0036847Y0038439D01*
X0036867Y0038400D01*
X0036890Y0038363D01*
X0036917Y0038329D01*
X0036946Y0038296D01*
X0036979Y0038267D01*
X0037013Y0038240D01*
X0037050Y0038217D01*
X0037089Y0038197D01*
X0037129Y0038180D01*
X0037171Y0038167D01*
X0037213Y0038158D01*
X0037256Y0038152D01*
X0037300Y0038150D01*
X0040800Y0057650D02*
X0046800Y0057650D01*
X0046844Y0057652D01*
X0046887Y0057658D01*
X0046929Y0057667D01*
X0046971Y0057680D01*
X0047011Y0057697D01*
X0047050Y0057717D01*
X0047087Y0057740D01*
X0047121Y0057767D01*
X0047154Y0057796D01*
X0047183Y0057829D01*
X0047210Y0057863D01*
X0047233Y0057900D01*
X0047253Y0057939D01*
X0047270Y0057979D01*
X0047283Y0058021D01*
X0047292Y0058063D01*
X0047298Y0058106D01*
X0047300Y0058150D01*
X0047300Y0060650D01*
X0047298Y0060694D01*
X0047292Y0060737D01*
X0047283Y0060779D01*
X0047270Y0060821D01*
X0047253Y0060861D01*
X0047233Y0060900D01*
X0047210Y0060937D01*
X0047183Y0060971D01*
X0047154Y0061004D01*
X0047121Y0061033D01*
X0047087Y0061060D01*
X0047050Y0061083D01*
X0047011Y0061103D01*
X0046971Y0061120D01*
X0046929Y0061133D01*
X0046887Y0061142D01*
X0046844Y0061148D01*
X0046800Y0061150D01*
X0040800Y0061150D01*
X0040756Y0061148D01*
X0040713Y0061142D01*
X0040671Y0061133D01*
X0040629Y0061120D01*
X0040589Y0061103D01*
X0040550Y0061083D01*
X0040513Y0061060D01*
X0040479Y0061033D01*
X0040446Y0061004D01*
X0040417Y0060971D01*
X0040390Y0060937D01*
X0040367Y0060900D01*
X0040347Y0060861D01*
X0040330Y0060821D01*
X0040317Y0060779D01*
X0040308Y0060737D01*
X0040302Y0060694D01*
X0040300Y0060650D01*
X0040300Y0058150D01*
X0040302Y0058106D01*
X0040308Y0058063D01*
X0040317Y0058021D01*
X0040330Y0057979D01*
X0040347Y0057939D01*
X0040367Y0057900D01*
X0040390Y0057863D01*
X0040417Y0057829D01*
X0040446Y0057796D01*
X0040479Y0057767D01*
X0040513Y0057740D01*
X0040550Y0057717D01*
X0040589Y0057697D01*
X0040629Y0057680D01*
X0040671Y0057667D01*
X0040713Y0057658D01*
X0040756Y0057652D01*
X0040800Y0057650D01*
X0040000Y0064150D02*
X0046000Y0064150D01*
X0046044Y0064152D01*
X0046087Y0064158D01*
X0046129Y0064167D01*
X0046171Y0064180D01*
X0046211Y0064197D01*
X0046250Y0064217D01*
X0046287Y0064240D01*
X0046321Y0064267D01*
X0046354Y0064296D01*
X0046383Y0064329D01*
X0046410Y0064363D01*
X0046433Y0064400D01*
X0046453Y0064439D01*
X0046470Y0064479D01*
X0046483Y0064521D01*
X0046492Y0064563D01*
X0046498Y0064606D01*
X0046500Y0064650D01*
X0046500Y0067150D01*
X0046498Y0067194D01*
X0046492Y0067237D01*
X0046483Y0067279D01*
X0046470Y0067321D01*
X0046453Y0067361D01*
X0046433Y0067400D01*
X0046410Y0067437D01*
X0046383Y0067471D01*
X0046354Y0067504D01*
X0046321Y0067533D01*
X0046287Y0067560D01*
X0046250Y0067583D01*
X0046211Y0067603D01*
X0046171Y0067620D01*
X0046129Y0067633D01*
X0046087Y0067642D01*
X0046044Y0067648D01*
X0046000Y0067650D01*
X0040000Y0067650D01*
X0039956Y0067648D01*
X0039913Y0067642D01*
X0039871Y0067633D01*
X0039829Y0067620D01*
X0039789Y0067603D01*
X0039750Y0067583D01*
X0039713Y0067560D01*
X0039679Y0067533D01*
X0039646Y0067504D01*
X0039617Y0067471D01*
X0039590Y0067437D01*
X0039567Y0067400D01*
X0039547Y0067361D01*
X0039530Y0067321D01*
X0039517Y0067279D01*
X0039508Y0067237D01*
X0039502Y0067194D01*
X0039500Y0067150D01*
X0039500Y0064650D01*
X0039502Y0064606D01*
X0039508Y0064563D01*
X0039517Y0064521D01*
X0039530Y0064479D01*
X0039547Y0064439D01*
X0039567Y0064400D01*
X0039590Y0064363D01*
X0039617Y0064329D01*
X0039646Y0064296D01*
X0039679Y0064267D01*
X0039713Y0064240D01*
X0039750Y0064217D01*
X0039789Y0064197D01*
X0039829Y0064180D01*
X0039871Y0064167D01*
X0039913Y0064158D01*
X0039956Y0064152D01*
X0040000Y0064150D01*
X0047600Y0064650D02*
X0047600Y0067150D01*
X0047602Y0067194D01*
X0047608Y0067237D01*
X0047617Y0067279D01*
X0047630Y0067321D01*
X0047647Y0067361D01*
X0047667Y0067400D01*
X0047690Y0067437D01*
X0047717Y0067471D01*
X0047746Y0067504D01*
X0047779Y0067533D01*
X0047813Y0067560D01*
X0047850Y0067583D01*
X0047889Y0067603D01*
X0047929Y0067620D01*
X0047971Y0067633D01*
X0048013Y0067642D01*
X0048056Y0067648D01*
X0048100Y0067650D01*
X0053932Y0067650D01*
X0054600Y0066982D01*
X0054600Y0064818D01*
X0053932Y0064150D01*
X0048100Y0064150D01*
X0048056Y0064152D01*
X0048013Y0064158D01*
X0047971Y0064167D01*
X0047929Y0064180D01*
X0047889Y0064197D01*
X0047850Y0064217D01*
X0047813Y0064240D01*
X0047779Y0064267D01*
X0047746Y0064296D01*
X0047717Y0064329D01*
X0047690Y0064363D01*
X0047667Y0064400D01*
X0047647Y0064439D01*
X0047630Y0064479D01*
X0047617Y0064521D01*
X0047608Y0064563D01*
X0047602Y0064606D01*
X0047600Y0064650D01*
X0057400Y0057450D02*
X0057400Y0054950D01*
X0057402Y0054906D01*
X0057408Y0054863D01*
X0057417Y0054821D01*
X0057430Y0054779D01*
X0057447Y0054739D01*
X0057467Y0054700D01*
X0057490Y0054663D01*
X0057517Y0054629D01*
X0057546Y0054596D01*
X0057579Y0054567D01*
X0057613Y0054540D01*
X0057650Y0054517D01*
X0057689Y0054497D01*
X0057729Y0054480D01*
X0057771Y0054467D01*
X0057813Y0054458D01*
X0057856Y0054452D01*
X0057900Y0054450D01*
X0063900Y0054450D01*
X0063944Y0054452D01*
X0063987Y0054458D01*
X0064029Y0054467D01*
X0064071Y0054480D01*
X0064111Y0054497D01*
X0064150Y0054517D01*
X0064187Y0054540D01*
X0064221Y0054567D01*
X0064254Y0054596D01*
X0064283Y0054629D01*
X0064310Y0054663D01*
X0064333Y0054700D01*
X0064353Y0054739D01*
X0064370Y0054779D01*
X0064383Y0054821D01*
X0064392Y0054863D01*
X0064398Y0054906D01*
X0064400Y0054950D01*
X0064400Y0057450D01*
X0064398Y0057494D01*
X0064392Y0057537D01*
X0064383Y0057579D01*
X0064370Y0057621D01*
X0064353Y0057661D01*
X0064333Y0057700D01*
X0064310Y0057737D01*
X0064283Y0057771D01*
X0064254Y0057804D01*
X0064221Y0057833D01*
X0064187Y0057860D01*
X0064150Y0057883D01*
X0064111Y0057903D01*
X0064071Y0057920D01*
X0064029Y0057933D01*
X0063987Y0057942D01*
X0063944Y0057948D01*
X0063900Y0057950D01*
X0057900Y0057950D01*
X0057856Y0057948D01*
X0057813Y0057942D01*
X0057771Y0057933D01*
X0057729Y0057920D01*
X0057689Y0057903D01*
X0057650Y0057883D01*
X0057613Y0057860D01*
X0057579Y0057833D01*
X0057546Y0057804D01*
X0057517Y0057771D01*
X0057490Y0057737D01*
X0057467Y0057700D01*
X0057447Y0057661D01*
X0057430Y0057621D01*
X0057417Y0057579D01*
X0057408Y0057537D01*
X0057402Y0057494D01*
X0057400Y0057450D01*
X0059600Y0054250D02*
X0065600Y0054250D01*
X0065644Y0054248D01*
X0065687Y0054242D01*
X0065729Y0054233D01*
X0065771Y0054220D01*
X0065811Y0054203D01*
X0065850Y0054183D01*
X0065887Y0054160D01*
X0065921Y0054133D01*
X0065954Y0054104D01*
X0065983Y0054071D01*
X0066010Y0054037D01*
X0066033Y0054000D01*
X0066053Y0053961D01*
X0066070Y0053921D01*
X0066083Y0053879D01*
X0066092Y0053837D01*
X0066098Y0053794D01*
X0066100Y0053750D01*
X0066100Y0051250D01*
X0066098Y0051206D01*
X0066092Y0051163D01*
X0066083Y0051121D01*
X0066070Y0051079D01*
X0066053Y0051039D01*
X0066033Y0051000D01*
X0066010Y0050963D01*
X0065983Y0050929D01*
X0065954Y0050896D01*
X0065921Y0050867D01*
X0065887Y0050840D01*
X0065850Y0050817D01*
X0065811Y0050797D01*
X0065771Y0050780D01*
X0065729Y0050767D01*
X0065687Y0050758D01*
X0065644Y0050752D01*
X0065600Y0050750D01*
X0059600Y0050750D01*
X0059556Y0050752D01*
X0059513Y0050758D01*
X0059471Y0050767D01*
X0059429Y0050780D01*
X0059389Y0050797D01*
X0059350Y0050817D01*
X0059313Y0050840D01*
X0059279Y0050867D01*
X0059246Y0050896D01*
X0059217Y0050929D01*
X0059190Y0050963D01*
X0059167Y0051000D01*
X0059147Y0051039D01*
X0059130Y0051079D01*
X0059117Y0051121D01*
X0059108Y0051163D01*
X0059102Y0051206D01*
X0059100Y0051250D01*
X0059100Y0053750D01*
X0059102Y0053794D01*
X0059108Y0053837D01*
X0059117Y0053879D01*
X0059130Y0053921D01*
X0059147Y0053961D01*
X0059167Y0054000D01*
X0059190Y0054037D01*
X0059217Y0054071D01*
X0059246Y0054104D01*
X0059279Y0054133D01*
X0059313Y0054160D01*
X0059350Y0054183D01*
X0059389Y0054203D01*
X0059429Y0054220D01*
X0059471Y0054233D01*
X0059513Y0054242D01*
X0059556Y0054248D01*
X0059600Y0054250D01*
X0059500Y0050050D02*
X0065500Y0050050D01*
X0065544Y0050048D01*
X0065587Y0050042D01*
X0065629Y0050033D01*
X0065671Y0050020D01*
X0065711Y0050003D01*
X0065750Y0049983D01*
X0065787Y0049960D01*
X0065821Y0049933D01*
X0065854Y0049904D01*
X0065883Y0049871D01*
X0065910Y0049837D01*
X0065933Y0049800D01*
X0065953Y0049761D01*
X0065970Y0049721D01*
X0065983Y0049679D01*
X0065992Y0049637D01*
X0065998Y0049594D01*
X0066000Y0049550D01*
X0066000Y0047050D01*
X0065998Y0047006D01*
X0065992Y0046963D01*
X0065983Y0046921D01*
X0065970Y0046879D01*
X0065953Y0046839D01*
X0065933Y0046800D01*
X0065910Y0046763D01*
X0065883Y0046729D01*
X0065854Y0046696D01*
X0065821Y0046667D01*
X0065787Y0046640D01*
X0065750Y0046617D01*
X0065711Y0046597D01*
X0065671Y0046580D01*
X0065629Y0046567D01*
X0065587Y0046558D01*
X0065544Y0046552D01*
X0065500Y0046550D01*
X0059500Y0046550D01*
X0059456Y0046552D01*
X0059413Y0046558D01*
X0059371Y0046567D01*
X0059329Y0046580D01*
X0059289Y0046597D01*
X0059250Y0046617D01*
X0059213Y0046640D01*
X0059179Y0046667D01*
X0059146Y0046696D01*
X0059117Y0046729D01*
X0059090Y0046763D01*
X0059067Y0046800D01*
X0059047Y0046839D01*
X0059030Y0046879D01*
X0059017Y0046921D01*
X0059008Y0046963D01*
X0059002Y0047006D01*
X0059000Y0047050D01*
X0059000Y0049550D01*
X0059002Y0049594D01*
X0059008Y0049637D01*
X0059017Y0049679D01*
X0059030Y0049721D01*
X0059047Y0049761D01*
X0059067Y0049800D01*
X0059090Y0049837D01*
X0059117Y0049871D01*
X0059146Y0049904D01*
X0059179Y0049933D01*
X0059213Y0049960D01*
X0059250Y0049983D01*
X0059289Y0050003D01*
X0059329Y0050020D01*
X0059371Y0050033D01*
X0059413Y0050042D01*
X0059456Y0050048D01*
X0059500Y0050050D01*
X0057700Y0046250D02*
X0063700Y0046250D01*
X0063744Y0046248D01*
X0063787Y0046242D01*
X0063829Y0046233D01*
X0063871Y0046220D01*
X0063911Y0046203D01*
X0063950Y0046183D01*
X0063987Y0046160D01*
X0064021Y0046133D01*
X0064054Y0046104D01*
X0064083Y0046071D01*
X0064110Y0046037D01*
X0064133Y0046000D01*
X0064153Y0045961D01*
X0064170Y0045921D01*
X0064183Y0045879D01*
X0064192Y0045837D01*
X0064198Y0045794D01*
X0064200Y0045750D01*
X0064200Y0043250D01*
X0064198Y0043206D01*
X0064192Y0043163D01*
X0064183Y0043121D01*
X0064170Y0043079D01*
X0064153Y0043039D01*
X0064133Y0043000D01*
X0064110Y0042963D01*
X0064083Y0042929D01*
X0064054Y0042896D01*
X0064021Y0042867D01*
X0063987Y0042840D01*
X0063950Y0042817D01*
X0063911Y0042797D01*
X0063871Y0042780D01*
X0063829Y0042767D01*
X0063787Y0042758D01*
X0063744Y0042752D01*
X0063700Y0042750D01*
X0057700Y0042750D01*
X0057700Y0042250D02*
X0063700Y0042250D01*
X0063744Y0042248D01*
X0063787Y0042242D01*
X0063829Y0042233D01*
X0063871Y0042220D01*
X0063911Y0042203D01*
X0063950Y0042183D01*
X0063987Y0042160D01*
X0064021Y0042133D01*
X0064054Y0042104D01*
X0064083Y0042071D01*
X0064110Y0042037D01*
X0064133Y0042000D01*
X0064153Y0041961D01*
X0064170Y0041921D01*
X0064183Y0041879D01*
X0064192Y0041837D01*
X0064198Y0041794D01*
X0064200Y0041750D01*
X0064200Y0039250D01*
X0064198Y0039206D01*
X0064192Y0039163D01*
X0064183Y0039121D01*
X0064170Y0039079D01*
X0064153Y0039039D01*
X0064133Y0039000D01*
X0064110Y0038963D01*
X0064083Y0038929D01*
X0064054Y0038896D01*
X0064021Y0038867D01*
X0063987Y0038840D01*
X0063950Y0038817D01*
X0063911Y0038797D01*
X0063871Y0038780D01*
X0063829Y0038767D01*
X0063787Y0038758D01*
X0063744Y0038752D01*
X0063700Y0038750D01*
X0057700Y0038750D01*
X0057700Y0038550D02*
X0063700Y0038550D01*
X0063744Y0038548D01*
X0063787Y0038542D01*
X0063829Y0038533D01*
X0063871Y0038520D01*
X0063911Y0038503D01*
X0063950Y0038483D01*
X0063987Y0038460D01*
X0064021Y0038433D01*
X0064054Y0038404D01*
X0064083Y0038371D01*
X0064110Y0038337D01*
X0064133Y0038300D01*
X0064153Y0038261D01*
X0064170Y0038221D01*
X0064183Y0038179D01*
X0064192Y0038137D01*
X0064198Y0038094D01*
X0064200Y0038050D01*
X0064200Y0035550D01*
X0064198Y0035506D01*
X0064192Y0035463D01*
X0064183Y0035421D01*
X0064170Y0035379D01*
X0064153Y0035339D01*
X0064133Y0035300D01*
X0064110Y0035263D01*
X0064083Y0035229D01*
X0064054Y0035196D01*
X0064021Y0035167D01*
X0063987Y0035140D01*
X0063950Y0035117D01*
X0063911Y0035097D01*
X0063871Y0035080D01*
X0063829Y0035067D01*
X0063787Y0035058D01*
X0063744Y0035052D01*
X0063700Y0035050D01*
X0057700Y0035050D01*
X0057700Y0035150D02*
X0063700Y0035150D01*
X0063744Y0035148D01*
X0063787Y0035142D01*
X0063829Y0035133D01*
X0063871Y0035120D01*
X0063911Y0035103D01*
X0063950Y0035083D01*
X0063987Y0035060D01*
X0064021Y0035033D01*
X0064054Y0035004D01*
X0064083Y0034971D01*
X0064110Y0034937D01*
X0064133Y0034900D01*
X0064153Y0034861D01*
X0064170Y0034821D01*
X0064183Y0034779D01*
X0064192Y0034737D01*
X0064198Y0034694D01*
X0064200Y0034650D01*
X0064200Y0032150D01*
X0064198Y0032106D01*
X0064192Y0032063D01*
X0064183Y0032021D01*
X0064170Y0031979D01*
X0064153Y0031939D01*
X0064133Y0031900D01*
X0064110Y0031863D01*
X0064083Y0031829D01*
X0064054Y0031796D01*
X0064021Y0031767D01*
X0063987Y0031740D01*
X0063950Y0031717D01*
X0063911Y0031697D01*
X0063871Y0031680D01*
X0063829Y0031667D01*
X0063787Y0031658D01*
X0063744Y0031652D01*
X0063700Y0031650D01*
X0057700Y0031650D01*
X0057656Y0031652D01*
X0057613Y0031658D01*
X0057571Y0031667D01*
X0057529Y0031680D01*
X0057489Y0031697D01*
X0057450Y0031717D01*
X0057413Y0031740D01*
X0057379Y0031767D01*
X0057346Y0031796D01*
X0057317Y0031829D01*
X0057290Y0031863D01*
X0057267Y0031900D01*
X0057247Y0031939D01*
X0057230Y0031979D01*
X0057217Y0032021D01*
X0057208Y0032063D01*
X0057202Y0032106D01*
X0057200Y0032150D01*
X0057200Y0034650D01*
X0057202Y0034694D01*
X0057208Y0034737D01*
X0057217Y0034779D01*
X0057230Y0034821D01*
X0057247Y0034861D01*
X0057267Y0034900D01*
X0057290Y0034937D01*
X0057317Y0034971D01*
X0057346Y0035004D01*
X0057379Y0035033D01*
X0057413Y0035060D01*
X0057450Y0035083D01*
X0057489Y0035103D01*
X0057529Y0035120D01*
X0057571Y0035133D01*
X0057613Y0035142D01*
X0057656Y0035148D01*
X0057700Y0035150D01*
X0057700Y0035050D02*
X0057656Y0035052D01*
X0057613Y0035058D01*
X0057571Y0035067D01*
X0057529Y0035080D01*
X0057489Y0035097D01*
X0057450Y0035117D01*
X0057413Y0035140D01*
X0057379Y0035167D01*
X0057346Y0035196D01*
X0057317Y0035229D01*
X0057290Y0035263D01*
X0057267Y0035300D01*
X0057247Y0035339D01*
X0057230Y0035379D01*
X0057217Y0035421D01*
X0057208Y0035463D01*
X0057202Y0035506D01*
X0057200Y0035550D01*
X0057200Y0038050D01*
X0057202Y0038094D01*
X0057208Y0038137D01*
X0057217Y0038179D01*
X0057230Y0038221D01*
X0057247Y0038261D01*
X0057267Y0038300D01*
X0057290Y0038337D01*
X0057317Y0038371D01*
X0057346Y0038404D01*
X0057379Y0038433D01*
X0057413Y0038460D01*
X0057450Y0038483D01*
X0057489Y0038503D01*
X0057529Y0038520D01*
X0057571Y0038533D01*
X0057613Y0038542D01*
X0057656Y0038548D01*
X0057700Y0038550D01*
X0057700Y0038750D02*
X0057656Y0038752D01*
X0057613Y0038758D01*
X0057571Y0038767D01*
X0057529Y0038780D01*
X0057489Y0038797D01*
X0057450Y0038817D01*
X0057413Y0038840D01*
X0057379Y0038867D01*
X0057346Y0038896D01*
X0057317Y0038929D01*
X0057290Y0038963D01*
X0057267Y0039000D01*
X0057247Y0039039D01*
X0057230Y0039079D01*
X0057217Y0039121D01*
X0057208Y0039163D01*
X0057202Y0039206D01*
X0057200Y0039250D01*
X0057200Y0041750D01*
X0057202Y0041794D01*
X0057208Y0041837D01*
X0057217Y0041879D01*
X0057230Y0041921D01*
X0057247Y0041961D01*
X0057267Y0042000D01*
X0057290Y0042037D01*
X0057317Y0042071D01*
X0057346Y0042104D01*
X0057379Y0042133D01*
X0057413Y0042160D01*
X0057450Y0042183D01*
X0057489Y0042203D01*
X0057529Y0042220D01*
X0057571Y0042233D01*
X0057613Y0042242D01*
X0057656Y0042248D01*
X0057700Y0042250D01*
X0057700Y0042750D02*
X0057656Y0042752D01*
X0057613Y0042758D01*
X0057571Y0042767D01*
X0057529Y0042780D01*
X0057489Y0042797D01*
X0057450Y0042817D01*
X0057413Y0042840D01*
X0057379Y0042867D01*
X0057346Y0042896D01*
X0057317Y0042929D01*
X0057290Y0042963D01*
X0057267Y0043000D01*
X0057247Y0043039D01*
X0057230Y0043079D01*
X0057217Y0043121D01*
X0057208Y0043163D01*
X0057202Y0043206D01*
X0057200Y0043250D01*
X0057200Y0045750D01*
X0057202Y0045794D01*
X0057208Y0045837D01*
X0057217Y0045879D01*
X0057230Y0045921D01*
X0057247Y0045961D01*
X0057267Y0046000D01*
X0057290Y0046037D01*
X0057317Y0046071D01*
X0057346Y0046104D01*
X0057379Y0046133D01*
X0057413Y0046160D01*
X0057450Y0046183D01*
X0057489Y0046203D01*
X0057529Y0046220D01*
X0057571Y0046233D01*
X0057613Y0046242D01*
X0057656Y0046248D01*
X0057700Y0046250D01*
D11*
X0064735Y0041568D02*
X0064735Y0040834D01*
X0064919Y0040650D01*
X0065286Y0040650D01*
X0065469Y0040834D01*
X0065840Y0040650D02*
X0066574Y0040650D01*
X0066207Y0040650D02*
X0066207Y0041751D01*
X0065840Y0041384D01*
X0065469Y0041568D02*
X0065286Y0041751D01*
X0064919Y0041751D01*
X0064735Y0041568D01*
X0065424Y0042650D02*
X0065791Y0042650D01*
X0065974Y0042834D01*
X0066345Y0042834D02*
X0066529Y0042650D01*
X0066896Y0042650D01*
X0067079Y0042834D01*
X0067079Y0043201D01*
X0066896Y0043384D01*
X0066712Y0043384D01*
X0066345Y0043201D01*
X0066345Y0043751D01*
X0067079Y0043751D01*
X0065974Y0043568D02*
X0065791Y0043751D01*
X0065424Y0043751D01*
X0065240Y0043568D01*
X0065240Y0042834D01*
X0065424Y0042650D01*
X0066945Y0041568D02*
X0067129Y0041751D01*
X0067496Y0041751D01*
X0067679Y0041568D01*
X0067679Y0041384D01*
X0066945Y0040650D01*
X0067679Y0040650D01*
X0067105Y0037551D02*
X0066555Y0037001D01*
X0067289Y0037001D01*
X0067105Y0037551D02*
X0067105Y0036450D01*
X0066184Y0036634D02*
X0066000Y0036450D01*
X0065633Y0036450D01*
X0065450Y0036634D01*
X0065450Y0037368D01*
X0065633Y0037551D01*
X0066000Y0037551D01*
X0066184Y0037368D01*
X0066238Y0033951D02*
X0066605Y0033951D01*
X0066789Y0033768D01*
X0066789Y0033584D01*
X0066605Y0033401D01*
X0066789Y0033217D01*
X0066789Y0033034D01*
X0066605Y0032850D01*
X0066238Y0032850D01*
X0066055Y0033034D01*
X0065684Y0033034D02*
X0065500Y0032850D01*
X0065133Y0032850D01*
X0064950Y0033034D01*
X0064950Y0033768D01*
X0065133Y0033951D01*
X0065500Y0033951D01*
X0065684Y0033768D01*
X0066055Y0033768D02*
X0066238Y0033951D01*
X0066422Y0033401D02*
X0066605Y0033401D01*
X0067224Y0047750D02*
X0067591Y0047750D01*
X0067774Y0047934D01*
X0068145Y0047934D02*
X0068145Y0048301D01*
X0068696Y0048301D01*
X0068879Y0048117D01*
X0068879Y0047934D01*
X0068696Y0047750D01*
X0068329Y0047750D01*
X0068145Y0047934D01*
X0068145Y0048301D02*
X0068512Y0048668D01*
X0068879Y0048851D01*
X0067774Y0048668D02*
X0067591Y0048851D01*
X0067224Y0048851D01*
X0067040Y0048668D01*
X0067040Y0047934D01*
X0067224Y0047750D01*
X0067386Y0051950D02*
X0067019Y0051950D01*
X0066835Y0052134D01*
X0066835Y0052868D01*
X0067019Y0053051D01*
X0067386Y0053051D01*
X0067569Y0052868D01*
X0067940Y0052684D02*
X0068307Y0053051D01*
X0068307Y0051950D01*
X0067940Y0051950D02*
X0068674Y0051950D01*
X0069045Y0052134D02*
X0069045Y0052868D01*
X0069229Y0053051D01*
X0069596Y0053051D01*
X0069779Y0052868D01*
X0069045Y0052134D01*
X0069229Y0051950D01*
X0069596Y0051950D01*
X0069779Y0052134D01*
X0069779Y0052868D01*
X0067569Y0052134D02*
X0067386Y0051950D01*
X0066345Y0055850D02*
X0066345Y0056034D01*
X0067079Y0056768D01*
X0067079Y0056951D01*
X0066345Y0056951D01*
X0065974Y0056768D02*
X0065974Y0056401D01*
X0065791Y0056217D01*
X0065240Y0056217D01*
X0065240Y0055850D02*
X0065240Y0056951D01*
X0065791Y0056951D01*
X0065974Y0056768D01*
X0065607Y0056217D02*
X0065974Y0055850D01*
X0054088Y0054973D02*
X0053905Y0055157D01*
X0053538Y0055157D01*
X0053354Y0054973D01*
X0052983Y0054606D02*
X0052249Y0054606D01*
X0051878Y0054056D02*
X0051144Y0055157D01*
X0051878Y0055157D02*
X0051144Y0054056D01*
X0053354Y0054056D02*
X0054088Y0054790D01*
X0054088Y0054973D01*
X0054088Y0054056D02*
X0053354Y0054056D01*
X0048479Y0055934D02*
X0048296Y0055750D01*
X0047929Y0055750D01*
X0047745Y0055934D01*
X0047745Y0056301D02*
X0048112Y0056484D01*
X0048296Y0056484D01*
X0048479Y0056301D01*
X0048479Y0055934D01*
X0047745Y0056301D02*
X0047745Y0056851D01*
X0048479Y0056851D01*
X0047374Y0055750D02*
X0046640Y0055750D01*
X0047007Y0055750D02*
X0047007Y0056851D01*
X0046640Y0056484D01*
X0046269Y0056668D02*
X0046086Y0056851D01*
X0045719Y0056851D01*
X0045535Y0056668D01*
X0045535Y0055934D01*
X0045719Y0055750D01*
X0046086Y0055750D01*
X0046269Y0055934D01*
X0037494Y0046850D02*
X0036760Y0046850D01*
X0037127Y0046850D02*
X0037127Y0047951D01*
X0036760Y0047584D01*
X0036389Y0047768D02*
X0036205Y0047951D01*
X0035838Y0047951D01*
X0035655Y0047768D01*
X0035655Y0047584D01*
X0035838Y0047401D01*
X0036205Y0047401D01*
X0036389Y0047217D01*
X0036389Y0047034D01*
X0036205Y0046850D01*
X0035838Y0046850D01*
X0035655Y0047034D01*
X0035284Y0047034D02*
X0035284Y0047951D01*
X0034550Y0047951D02*
X0034550Y0047034D01*
X0034733Y0046850D01*
X0035100Y0046850D01*
X0035284Y0047034D01*
X0036022Y0046667D02*
X0036022Y0048135D01*
X0036900Y0045194D02*
X0036900Y0044460D01*
X0036349Y0045010D01*
X0037450Y0045010D01*
X0037450Y0044089D02*
X0037450Y0043355D01*
X0037450Y0043722D02*
X0036349Y0043722D01*
X0036716Y0043355D01*
X0036533Y0042984D02*
X0036349Y0042801D01*
X0036349Y0042434D01*
X0036533Y0042250D01*
X0037267Y0042250D01*
X0037450Y0042434D01*
X0037450Y0042801D01*
X0037267Y0042984D01*
X0035350Y0039879D02*
X0035350Y0039145D01*
X0035350Y0039512D02*
X0034249Y0039512D01*
X0034616Y0039145D01*
X0034433Y0038774D02*
X0034249Y0038591D01*
X0034249Y0038040D01*
X0035350Y0038040D01*
X0035350Y0038591D01*
X0035167Y0038774D01*
X0034433Y0038774D01*
X0043849Y0033889D02*
X0043849Y0033155D01*
X0044033Y0032784D02*
X0043849Y0032601D01*
X0043849Y0032234D01*
X0044033Y0032050D01*
X0044767Y0032050D01*
X0044950Y0032234D01*
X0044950Y0032601D01*
X0044767Y0032784D01*
X0044767Y0033155D02*
X0044950Y0033155D01*
X0044767Y0033155D02*
X0044033Y0033889D01*
X0043849Y0033889D01*
X0045949Y0033935D02*
X0047050Y0034669D01*
X0046500Y0035040D02*
X0046500Y0035774D01*
X0046316Y0036145D02*
X0045949Y0036512D01*
X0047050Y0036512D01*
X0047050Y0036145D02*
X0047050Y0036879D01*
X0045949Y0034669D02*
X0047050Y0033935D01*
X0043296Y0028651D02*
X0042745Y0028101D01*
X0043479Y0028101D01*
X0043296Y0028651D02*
X0043296Y0027550D01*
X0042374Y0027550D02*
X0042007Y0027917D01*
X0042191Y0027917D02*
X0041640Y0027917D01*
X0041640Y0027550D02*
X0041640Y0028651D01*
X0042191Y0028651D01*
X0042374Y0028468D01*
X0042374Y0028101D01*
X0042191Y0027917D01*
X0041940Y0068350D02*
X0041940Y0069451D01*
X0042491Y0069451D01*
X0042674Y0069268D01*
X0042674Y0068901D01*
X0042491Y0068717D01*
X0041940Y0068717D01*
X0042307Y0068717D02*
X0042674Y0068350D01*
X0043045Y0068534D02*
X0043229Y0068350D01*
X0043596Y0068350D01*
X0043779Y0068534D01*
X0043779Y0068901D01*
X0043596Y0069084D01*
X0043412Y0069084D01*
X0043045Y0068901D01*
X0043045Y0069451D01*
X0043779Y0069451D01*
X0050450Y0069751D02*
X0050450Y0068650D01*
X0051000Y0068650D01*
X0051184Y0068834D01*
X0051184Y0069568D01*
X0051000Y0069751D01*
X0050450Y0069751D01*
X0051555Y0069568D02*
X0051738Y0069751D01*
X0052105Y0069751D01*
X0052289Y0069568D01*
X0052289Y0069384D01*
X0051555Y0068650D01*
X0052289Y0068650D01*
D12*
X0056756Y0053256D02*
X0047701Y0053256D01*
X0046913Y0052469D01*
X0046913Y0042232D01*
X0056756Y0042232D01*
X0056756Y0053256D01*
X0046037Y0050661D02*
X0046037Y0045739D01*
X0047657Y0041525D02*
X0047657Y0032076D01*
X0054743Y0032076D01*
X0054743Y0041525D01*
X0047657Y0041525D01*
X0043281Y0050661D02*
X0040919Y0050661D01*
X0038163Y0050661D02*
X0038163Y0045739D01*
M02*
