G75*
%MOIN*%
%OFA0B0*%
%FSLAX25Y25*%
%IPPOS*%
%LPD*%
%AMOC8*
5,1,8,0,0,1.08239X$1,22.5*
%
%ADD10C,0.01650*%
%ADD11R,0.30328X0.06312*%
%ADD12R,0.26391X0.05524*%
%ADD13R,0.05524X0.03556*%
%ADD14R,0.03950X0.04343*%
%ADD15R,0.02375X0.03753*%
D10*
X0034825Y0029625D02*
X0036475Y0029625D01*
X0036475Y0027975D01*
X0034825Y0027975D01*
X0034825Y0029625D01*
X0034825Y0029624D02*
X0036475Y0029624D01*
X0038325Y0029625D02*
X0039975Y0029625D01*
X0039975Y0027975D01*
X0038325Y0027975D01*
X0038325Y0029625D01*
X0038325Y0029624D02*
X0039975Y0029624D01*
X0042325Y0031925D02*
X0042325Y0033575D01*
X0042325Y0031925D02*
X0040675Y0031925D01*
X0040675Y0033575D01*
X0042325Y0033575D01*
X0042325Y0033574D02*
X0040675Y0033574D01*
X0042325Y0035425D02*
X0042325Y0037075D01*
X0042325Y0035425D02*
X0040675Y0035425D01*
X0040675Y0037075D01*
X0042325Y0037075D01*
X0042325Y0037074D02*
X0040675Y0037074D01*
X0041225Y0039075D02*
X0042875Y0039075D01*
X0041225Y0039075D02*
X0041225Y0040725D01*
X0042875Y0040725D01*
X0042875Y0039075D01*
X0042875Y0040724D02*
X0041225Y0040724D01*
X0039375Y0039075D02*
X0037725Y0039075D01*
X0037725Y0040725D01*
X0039375Y0040725D01*
X0039375Y0039075D01*
X0039375Y0040724D02*
X0037725Y0040724D01*
X0038325Y0035825D02*
X0036675Y0035825D01*
X0036675Y0037475D01*
X0038325Y0037475D01*
X0038325Y0035825D01*
X0038325Y0037474D02*
X0036675Y0037474D01*
X0036675Y0032325D02*
X0038325Y0032325D01*
X0036675Y0032325D02*
X0036675Y0033975D01*
X0038325Y0033975D01*
X0038325Y0032325D01*
X0038325Y0033974D02*
X0036675Y0033974D01*
X0058125Y0032575D02*
X0059775Y0032575D01*
X0058125Y0032575D02*
X0058125Y0034225D01*
X0059775Y0034225D01*
X0059775Y0032575D01*
X0059775Y0034224D02*
X0058125Y0034224D01*
X0058125Y0035975D02*
X0059775Y0035975D01*
X0058125Y0035975D02*
X0058125Y0037625D01*
X0059775Y0037625D01*
X0059775Y0035975D01*
X0059775Y0037624D02*
X0058125Y0037624D01*
X0058125Y0041325D02*
X0059775Y0041325D01*
X0059775Y0039675D01*
X0058125Y0039675D01*
X0058125Y0041325D01*
X0058125Y0041324D02*
X0059775Y0041324D01*
X0061625Y0041325D02*
X0063275Y0041325D01*
X0063275Y0039675D01*
X0061625Y0039675D01*
X0061625Y0041325D01*
X0061625Y0041324D02*
X0063275Y0041324D01*
X0063275Y0045325D02*
X0061625Y0045325D01*
X0063275Y0045325D02*
X0063275Y0043675D01*
X0061625Y0043675D01*
X0061625Y0045325D01*
X0061625Y0045324D02*
X0063275Y0045324D01*
X0063425Y0049125D02*
X0065075Y0049125D01*
X0065075Y0047475D01*
X0063425Y0047475D01*
X0063425Y0049125D01*
X0063425Y0049124D02*
X0065075Y0049124D01*
X0065175Y0053325D02*
X0063525Y0053325D01*
X0065175Y0053325D02*
X0065175Y0051675D01*
X0063525Y0051675D01*
X0063525Y0053325D01*
X0063525Y0053324D02*
X0065175Y0053324D01*
X0063475Y0057025D02*
X0061825Y0057025D01*
X0063475Y0057025D02*
X0063475Y0055375D01*
X0061825Y0055375D01*
X0061825Y0057025D01*
X0061825Y0057024D02*
X0063475Y0057024D01*
X0061675Y0053325D02*
X0060025Y0053325D01*
X0061675Y0053325D02*
X0061675Y0051675D01*
X0060025Y0051675D01*
X0060025Y0053325D01*
X0060025Y0053324D02*
X0061675Y0053324D01*
X0059975Y0057025D02*
X0058325Y0057025D01*
X0059975Y0057025D02*
X0059975Y0055375D01*
X0058325Y0055375D01*
X0058325Y0057025D01*
X0058325Y0057024D02*
X0059975Y0057024D01*
X0059925Y0049125D02*
X0061575Y0049125D01*
X0061575Y0047475D01*
X0059925Y0047475D01*
X0059925Y0049125D01*
X0059925Y0049124D02*
X0061575Y0049124D01*
X0059775Y0045325D02*
X0058125Y0045325D01*
X0059775Y0045325D02*
X0059775Y0043675D01*
X0058125Y0043675D01*
X0058125Y0045325D01*
X0058125Y0045324D02*
X0059775Y0045324D01*
X0061625Y0035975D02*
X0063275Y0035975D01*
X0061625Y0035975D02*
X0061625Y0037625D01*
X0063275Y0037625D01*
X0063275Y0035975D01*
X0063275Y0037624D02*
X0061625Y0037624D01*
X0061625Y0032575D02*
X0063275Y0032575D01*
X0061625Y0032575D02*
X0061625Y0034225D01*
X0063275Y0034225D01*
X0063275Y0032575D01*
X0063275Y0034224D02*
X0061625Y0034224D01*
X0046375Y0060225D02*
X0044725Y0060225D01*
X0046375Y0060225D02*
X0046375Y0058575D01*
X0044725Y0058575D01*
X0044725Y0060225D01*
X0044725Y0060224D02*
X0046375Y0060224D01*
X0042875Y0060225D02*
X0041225Y0060225D01*
X0042875Y0060225D02*
X0042875Y0058575D01*
X0041225Y0058575D01*
X0041225Y0060225D01*
X0041225Y0060224D02*
X0042875Y0060224D01*
X0042075Y0066725D02*
X0040425Y0066725D01*
X0042075Y0066725D02*
X0042075Y0065075D01*
X0040425Y0065075D01*
X0040425Y0066725D01*
X0040425Y0066724D02*
X0042075Y0066724D01*
X0043925Y0066725D02*
X0045575Y0066725D01*
X0045575Y0065075D01*
X0043925Y0065075D01*
X0043925Y0066725D01*
X0043925Y0066724D02*
X0045575Y0066724D01*
X0050175Y0066725D02*
X0050175Y0065075D01*
X0048525Y0065075D01*
X0048525Y0066725D01*
X0050175Y0066725D01*
X0050175Y0066724D02*
X0048525Y0066724D01*
X0053675Y0066725D02*
X0053675Y0065075D01*
X0052025Y0065075D01*
X0052025Y0066725D01*
X0053675Y0066725D01*
X0053675Y0066724D02*
X0052025Y0066724D01*
D11*
X0020516Y0034670D03*
X0020516Y0062170D03*
D12*
X0022516Y0052670D03*
X0022516Y0044170D03*
D13*
X0051200Y0038965D03*
X0051200Y0034635D03*
D14*
X0049669Y0044988D03*
X0054000Y0044988D03*
X0054000Y0050500D03*
X0049669Y0050500D03*
D15*
X0044659Y0051842D03*
X0039541Y0051842D03*
X0039541Y0044558D03*
X0042100Y0044558D03*
X0044659Y0044558D03*
M02*
