%
M48
M72
T01C0.01200
T02C0.02000
T03C0.02953
T04C0.03150
%
T01
X33000Y21903
X39600Y18303
X46200Y14103
X52500Y11003
X60700Y11103
X56200Y17403
X56400Y20703
X67800Y19803
X74900Y19703
X68300Y26803
X76100Y27103
X82800Y33903
X93000Y33903
X100200Y38103
X103800Y40503
X98400Y44703
X97800Y47103
X96000Y48903
X90400Y52353
X90400Y55853
X86400Y57903
X82200Y62103
X86400Y63903
X94800Y60303
X96400Y68603
X99000Y68703
X101400Y71703
X105000Y71103
X103800Y76503
X93600Y74703
X81000Y71103
X72000Y65703
X57000Y56703
X52200Y58503
X48900Y65203
X52800Y69903
X46700Y75503
X31800Y72853
X30600Y57303
X36000Y53703
X38400Y54303
X49800Y51303
X44400Y43503
X56400Y42003
X61200Y36903
X44400Y32103
X29400Y30303
X66000Y50703
X106200Y29103
X112800Y35703
X116600Y35603
X121400Y30003
X118200Y27303
X127200Y32703
X141600Y35103
X145200Y35703
X150600Y38703
X157200Y34503
X138300Y46403
X142800Y48903
X142800Y51903
X145800Y51903
X135000Y53103
X126500Y47603
X123400Y45403
X124400Y55153
X127800Y62103
X132600Y67503
X124200Y68703
X121200Y68703
X126100Y76103
X115200Y75803
X142700Y73003
X144650Y71553
X146650Y70453
X148600Y69203
X144650Y59203
X87000Y19503
X87000Y16503
X82200Y12303
X93200Y9403
T02
X20925Y29157
X20925Y57701
T03
X135017Y71098
X152340Y71098
T04
X31673Y52976
X31673Y33882
M30
