G75*
%MOIN*%
%OFA0B0*%
%FSLAX25Y25*%
%IPPOS*%
%LPD*%
%AMOC8*
5,1,8,0,0,1.08239X$1,22.5*
%
%ADD10R,0.05312X0.07674*%
%ADD11C,0.01150*%
%ADD12R,0.05706X0.03737*%
%ADD13R,0.05800X0.04800*%
%ADD14R,0.01572X0.01572*%
%ADD15C,0.00400*%
%ADD16R,0.19370X0.19370*%
%ADD17C,0.04524*%
%ADD18C,0.01791*%
%ADD19C,0.00392*%
%ADD20C,0.03640*%
%ADD21R,0.05115X0.01375*%
%ADD22R,0.03343X0.02950*%
%ADD23R,0.04524X0.02556*%
%ADD24R,0.02950X0.03343*%
D10*
X0114561Y0015783D03*
X0151962Y0015783D03*
D11*
X0124650Y0032266D02*
X0123837Y0033079D01*
X0124650Y0032266D02*
X0123837Y0031453D01*
X0123024Y0032266D01*
X0123837Y0033079D01*
X0124314Y0032602D02*
X0123360Y0032602D01*
X0122176Y0034741D02*
X0121363Y0035554D01*
X0122176Y0034741D02*
X0121363Y0033928D01*
X0120550Y0034741D01*
X0121363Y0035554D01*
X0121840Y0035077D02*
X0120886Y0035077D01*
X0117325Y0033078D02*
X0116175Y0033078D01*
X0117325Y0033078D02*
X0117325Y0031928D01*
X0116175Y0031928D01*
X0116175Y0033078D01*
X0116175Y0033077D02*
X0117325Y0033077D01*
X0113825Y0033078D02*
X0112675Y0033078D01*
X0113825Y0033078D02*
X0113825Y0031928D01*
X0112675Y0031928D01*
X0112675Y0033078D01*
X0112675Y0033077D02*
X0113825Y0033077D01*
X0110025Y0033078D02*
X0108875Y0033078D01*
X0110025Y0033078D02*
X0110025Y0031928D01*
X0108875Y0031928D01*
X0108875Y0033078D01*
X0108875Y0033077D02*
X0110025Y0033077D01*
X0106525Y0033078D02*
X0105375Y0033078D01*
X0106525Y0033078D02*
X0106525Y0031928D01*
X0105375Y0031928D01*
X0105375Y0033078D01*
X0105375Y0033077D02*
X0106525Y0033077D01*
X0098725Y0031978D02*
X0097575Y0031978D01*
X0098725Y0031978D02*
X0098725Y0030828D01*
X0097575Y0030828D01*
X0097575Y0031978D01*
X0097575Y0031977D02*
X0098725Y0031977D01*
X0095225Y0031978D02*
X0094075Y0031978D01*
X0095225Y0031978D02*
X0095225Y0030828D01*
X0094075Y0030828D01*
X0094075Y0031978D01*
X0094075Y0031977D02*
X0095225Y0031977D01*
X0095175Y0036078D02*
X0095175Y0037228D01*
X0095175Y0036078D02*
X0094025Y0036078D01*
X0094025Y0037228D01*
X0095175Y0037228D01*
X0095175Y0037227D02*
X0094025Y0037227D01*
X0095175Y0039578D02*
X0095175Y0040728D01*
X0095175Y0039578D02*
X0094025Y0039578D01*
X0094025Y0040728D01*
X0095175Y0040728D01*
X0095175Y0040727D02*
X0094025Y0040727D01*
X0078225Y0040878D02*
X0078225Y0042028D01*
X0079375Y0042028D01*
X0079375Y0040878D01*
X0078225Y0040878D01*
X0078225Y0042027D02*
X0079375Y0042027D01*
X0078225Y0044378D02*
X0078225Y0045528D01*
X0079375Y0045528D01*
X0079375Y0044378D01*
X0078225Y0044378D01*
X0078225Y0045527D02*
X0079375Y0045527D01*
X0072325Y0045928D02*
X0072325Y0044778D01*
X0072325Y0045928D02*
X0073475Y0045928D01*
X0073475Y0044778D01*
X0072325Y0044778D01*
X0072325Y0045927D02*
X0073475Y0045927D01*
X0068225Y0046028D02*
X0068225Y0044878D01*
X0068225Y0046028D02*
X0069375Y0046028D01*
X0069375Y0044878D01*
X0068225Y0044878D01*
X0068225Y0046027D02*
X0069375Y0046027D01*
X0065275Y0046028D02*
X0065275Y0044878D01*
X0064125Y0044878D01*
X0064125Y0046028D01*
X0065275Y0046028D01*
X0065275Y0046027D02*
X0064125Y0046027D01*
X0061175Y0046028D02*
X0061175Y0044878D01*
X0060025Y0044878D01*
X0060025Y0046028D01*
X0061175Y0046028D01*
X0061175Y0046027D02*
X0060025Y0046027D01*
X0057075Y0044878D02*
X0055925Y0044878D01*
X0055925Y0046028D01*
X0057075Y0046028D01*
X0057075Y0044878D01*
X0057075Y0046027D02*
X0055925Y0046027D01*
X0052875Y0046128D02*
X0052875Y0044978D01*
X0051725Y0044978D01*
X0051725Y0046128D01*
X0052875Y0046128D01*
X0052875Y0046127D02*
X0051725Y0046127D01*
X0052875Y0042628D02*
X0052875Y0041478D01*
X0051725Y0041478D01*
X0051725Y0042628D01*
X0052875Y0042628D01*
X0052875Y0042627D02*
X0051725Y0042627D01*
X0055925Y0041378D02*
X0057075Y0041378D01*
X0055925Y0041378D02*
X0055925Y0042528D01*
X0057075Y0042528D01*
X0057075Y0041378D01*
X0057075Y0042527D02*
X0055925Y0042527D01*
X0061175Y0042528D02*
X0061175Y0041378D01*
X0060025Y0041378D01*
X0060025Y0042528D01*
X0061175Y0042528D01*
X0061175Y0042527D02*
X0060025Y0042527D01*
X0065275Y0042528D02*
X0065275Y0041378D01*
X0064125Y0041378D01*
X0064125Y0042528D01*
X0065275Y0042528D01*
X0065275Y0042527D02*
X0064125Y0042527D01*
X0068225Y0042528D02*
X0068225Y0041378D01*
X0068225Y0042528D02*
X0069375Y0042528D01*
X0069375Y0041378D01*
X0068225Y0041378D01*
X0068225Y0042527D02*
X0069375Y0042527D01*
X0072325Y0042428D02*
X0072325Y0041278D01*
X0072325Y0042428D02*
X0073475Y0042428D01*
X0073475Y0041278D01*
X0072325Y0041278D01*
X0072325Y0042427D02*
X0073475Y0042427D01*
X0089825Y0051778D02*
X0089825Y0052928D01*
X0090975Y0052928D01*
X0090975Y0051778D01*
X0089825Y0051778D01*
X0089825Y0052927D02*
X0090975Y0052927D01*
X0089825Y0055278D02*
X0089825Y0056428D01*
X0090975Y0056428D01*
X0090975Y0055278D01*
X0089825Y0055278D01*
X0089825Y0056427D02*
X0090975Y0056427D01*
X0090025Y0068778D02*
X0088875Y0068778D01*
X0090025Y0068778D02*
X0090025Y0067628D01*
X0088875Y0067628D01*
X0088875Y0068778D01*
X0088875Y0068777D02*
X0090025Y0068777D01*
X0092375Y0068778D02*
X0093525Y0068778D01*
X0093525Y0067628D01*
X0092375Y0067628D01*
X0092375Y0068778D01*
X0092375Y0068777D02*
X0093525Y0068777D01*
X0118475Y0076678D02*
X0119625Y0076678D01*
X0119625Y0075528D01*
X0118475Y0075528D01*
X0118475Y0076678D01*
X0118475Y0076677D02*
X0119625Y0076677D01*
X0121975Y0076678D02*
X0123125Y0076678D01*
X0123125Y0075528D01*
X0121975Y0075528D01*
X0121975Y0076678D01*
X0121975Y0076677D02*
X0123125Y0076677D01*
X0122825Y0072378D02*
X0121675Y0072378D01*
X0122825Y0072378D02*
X0122825Y0071228D01*
X0121675Y0071228D01*
X0121675Y0072378D01*
X0121675Y0072377D02*
X0122825Y0072377D01*
X0125175Y0072378D02*
X0126325Y0072378D01*
X0126325Y0071228D01*
X0125175Y0071228D01*
X0125175Y0072378D01*
X0125175Y0072377D02*
X0126325Y0072377D01*
X0133563Y0047354D02*
X0134376Y0046541D01*
X0133563Y0045728D01*
X0132750Y0046541D01*
X0133563Y0047354D01*
X0134040Y0046877D02*
X0133086Y0046877D01*
X0136037Y0044879D02*
X0136850Y0044066D01*
X0136037Y0043253D01*
X0135224Y0044066D01*
X0136037Y0044879D01*
X0136514Y0044402D02*
X0135560Y0044402D01*
X0098725Y0026828D02*
X0097575Y0026828D01*
X0097575Y0027978D01*
X0098725Y0027978D01*
X0098725Y0026828D01*
X0098725Y0027977D02*
X0097575Y0027977D01*
X0095225Y0026828D02*
X0094075Y0026828D01*
X0094075Y0027978D01*
X0095225Y0027978D01*
X0095225Y0026828D01*
X0095225Y0027977D02*
X0094075Y0027977D01*
X0094175Y0022728D02*
X0095325Y0022728D01*
X0094175Y0022728D02*
X0094175Y0023878D01*
X0095325Y0023878D01*
X0095325Y0022728D01*
X0095325Y0023877D02*
X0094175Y0023877D01*
X0097675Y0022728D02*
X0098825Y0022728D01*
X0097675Y0022728D02*
X0097675Y0023878D01*
X0098825Y0023878D01*
X0098825Y0022728D01*
X0098825Y0023877D02*
X0097675Y0023877D01*
X0097675Y0018628D02*
X0098825Y0018628D01*
X0097675Y0018628D02*
X0097675Y0019778D01*
X0098825Y0019778D01*
X0098825Y0018628D01*
X0098825Y0019777D02*
X0097675Y0019777D01*
X0095325Y0018628D02*
X0094175Y0018628D01*
X0094175Y0019778D01*
X0095325Y0019778D01*
X0095325Y0018628D01*
X0095325Y0019777D02*
X0094175Y0019777D01*
X0053225Y0018028D02*
X0052075Y0018028D01*
X0052075Y0019178D01*
X0053225Y0019178D01*
X0053225Y0018028D01*
X0053225Y0019177D02*
X0052075Y0019177D01*
X0049725Y0018028D02*
X0048575Y0018028D01*
X0048575Y0019178D01*
X0049725Y0019178D01*
X0049725Y0018028D01*
X0049725Y0019177D02*
X0048575Y0019177D01*
X0048475Y0014228D02*
X0049625Y0014228D01*
X0048475Y0014228D02*
X0048475Y0015378D01*
X0049625Y0015378D01*
X0049625Y0014228D01*
X0049625Y0015377D02*
X0048475Y0015377D01*
X0051975Y0014228D02*
X0053125Y0014228D01*
X0051975Y0014228D02*
X0051975Y0015378D01*
X0053125Y0015378D01*
X0053125Y0014228D01*
X0053125Y0015377D02*
X0051975Y0015377D01*
X0051875Y0010428D02*
X0053025Y0010428D01*
X0051875Y0010428D02*
X0051875Y0011578D01*
X0053025Y0011578D01*
X0053025Y0010428D01*
X0053025Y0011577D02*
X0051875Y0011577D01*
X0049525Y0010428D02*
X0048375Y0010428D01*
X0048375Y0011578D01*
X0049525Y0011578D01*
X0049525Y0010428D01*
X0049525Y0011577D02*
X0048375Y0011577D01*
X0048675Y0031828D02*
X0049825Y0031828D01*
X0048675Y0031828D02*
X0048675Y0032978D01*
X0049825Y0032978D01*
X0049825Y0031828D01*
X0049825Y0032977D02*
X0048675Y0032977D01*
X0052175Y0031828D02*
X0053325Y0031828D01*
X0052175Y0031828D02*
X0052175Y0032978D01*
X0053325Y0032978D01*
X0053325Y0031828D01*
X0053325Y0032977D02*
X0052175Y0032977D01*
X0052275Y0035628D02*
X0053425Y0035628D01*
X0052275Y0035628D02*
X0052275Y0036778D01*
X0053425Y0036778D01*
X0053425Y0035628D01*
X0053425Y0036777D02*
X0052275Y0036777D01*
X0049925Y0035628D02*
X0048775Y0035628D01*
X0048775Y0036778D01*
X0049925Y0036778D01*
X0049925Y0035628D01*
X0049925Y0036777D02*
X0048775Y0036777D01*
X0042125Y0035728D02*
X0040975Y0035728D01*
X0040975Y0036878D01*
X0042125Y0036878D01*
X0042125Y0035728D01*
X0042125Y0036877D02*
X0040975Y0036877D01*
X0038625Y0035728D02*
X0037475Y0035728D01*
X0037475Y0036878D01*
X0038625Y0036878D01*
X0038625Y0035728D01*
X0038625Y0036877D02*
X0037475Y0036877D01*
X0037575Y0040678D02*
X0038725Y0040678D01*
X0038725Y0039528D01*
X0037575Y0039528D01*
X0037575Y0040678D01*
X0037575Y0040677D02*
X0038725Y0040677D01*
X0041075Y0040678D02*
X0042225Y0040678D01*
X0042225Y0039528D01*
X0041075Y0039528D01*
X0041075Y0040678D01*
X0041075Y0040677D02*
X0042225Y0040677D01*
X0042325Y0043328D02*
X0041175Y0043328D01*
X0041175Y0044478D01*
X0042325Y0044478D01*
X0042325Y0043328D01*
X0042325Y0044477D02*
X0041175Y0044477D01*
X0038825Y0043328D02*
X0037675Y0043328D01*
X0037675Y0044478D01*
X0038825Y0044478D01*
X0038825Y0043328D01*
X0038825Y0044477D02*
X0037675Y0044477D01*
X0037775Y0047128D02*
X0038925Y0047128D01*
X0037775Y0047128D02*
X0037775Y0048278D01*
X0038925Y0048278D01*
X0038925Y0047128D01*
X0038925Y0048277D02*
X0037775Y0048277D01*
X0041275Y0047128D02*
X0042425Y0047128D01*
X0041275Y0047128D02*
X0041275Y0048278D01*
X0042425Y0048278D01*
X0042425Y0047128D01*
X0042425Y0048277D02*
X0041275Y0048277D01*
X0041275Y0050928D02*
X0042425Y0050928D01*
X0041275Y0050928D02*
X0041275Y0052078D01*
X0042425Y0052078D01*
X0042425Y0050928D01*
X0042425Y0052077D02*
X0041275Y0052077D01*
X0038925Y0050928D02*
X0037775Y0050928D01*
X0037775Y0052078D01*
X0038925Y0052078D01*
X0038925Y0050928D01*
X0038925Y0052077D02*
X0037775Y0052077D01*
X0032375Y0069928D02*
X0031225Y0069928D01*
X0032375Y0069928D02*
X0032375Y0068778D01*
X0031225Y0068778D01*
X0031225Y0069928D01*
X0031225Y0069927D02*
X0032375Y0069927D01*
X0032375Y0073428D02*
X0031225Y0073428D01*
X0032375Y0073428D02*
X0032375Y0072278D01*
X0031225Y0072278D01*
X0031225Y0073428D01*
X0031225Y0073427D02*
X0032375Y0073427D01*
X0037475Y0031928D02*
X0038625Y0031928D01*
X0037475Y0031928D02*
X0037475Y0033078D01*
X0038625Y0033078D01*
X0038625Y0031928D01*
X0038625Y0033077D02*
X0037475Y0033077D01*
X0040975Y0031928D02*
X0042125Y0031928D01*
X0040975Y0031928D02*
X0040975Y0033078D01*
X0042125Y0033078D01*
X0042125Y0031928D01*
X0042125Y0033077D02*
X0040975Y0033077D01*
D12*
X0076962Y0060531D03*
X0076962Y0074311D03*
D13*
X0058962Y0074031D03*
X0058962Y0061031D03*
D14*
X0144679Y0041461D03*
X0148025Y0041461D03*
X0148025Y0038114D03*
X0144679Y0038114D03*
D15*
X0125255Y0049361D02*
X0124754Y0048860D01*
X0123557Y0050057D01*
X0124058Y0050558D01*
X0125255Y0049361D01*
X0124865Y0049250D02*
X0123946Y0050168D01*
X0122666Y0049166D02*
X0123863Y0047969D01*
X0123362Y0047468D01*
X0122165Y0048665D01*
X0122666Y0049166D01*
X0122554Y0048776D02*
X0123473Y0047858D01*
X0122471Y0046577D02*
X0121970Y0046076D01*
X0120773Y0047273D01*
X0121274Y0047774D01*
X0122471Y0046577D01*
X0122081Y0046466D02*
X0121163Y0047385D01*
X0119882Y0046382D02*
X0121079Y0045185D01*
X0120578Y0044684D01*
X0119381Y0045881D01*
X0119882Y0046382D01*
X0119771Y0045993D02*
X0120689Y0045074D01*
X0119687Y0043793D02*
X0119186Y0043292D01*
X0117989Y0044489D01*
X0118490Y0044990D01*
X0119687Y0043793D01*
X0119297Y0043682D02*
X0118379Y0044601D01*
X0117098Y0043598D02*
X0118295Y0042401D01*
X0117794Y0041900D01*
X0116597Y0043097D01*
X0117098Y0043598D01*
X0116987Y0043209D02*
X0117905Y0042290D01*
X0116903Y0041009D02*
X0116402Y0040508D01*
X0115205Y0041705D01*
X0115706Y0042207D01*
X0116903Y0041009D01*
X0116513Y0040898D02*
X0115595Y0041817D01*
X0114314Y0040815D02*
X0115511Y0039617D01*
X0115010Y0039116D01*
X0113813Y0040313D01*
X0114314Y0040815D01*
X0114203Y0040425D02*
X0115121Y0039506D01*
X0114119Y0038226D02*
X0113618Y0037724D01*
X0112421Y0038922D01*
X0112922Y0039423D01*
X0114119Y0038226D01*
X0113730Y0038114D02*
X0112811Y0039033D01*
X0111196Y0038922D02*
X0109999Y0037724D01*
X0109498Y0038226D01*
X0110695Y0039423D01*
X0111196Y0038922D01*
X0110806Y0039033D02*
X0109888Y0038114D01*
X0108607Y0039116D02*
X0108106Y0039617D01*
X0109303Y0040815D01*
X0109804Y0040313D01*
X0108607Y0039116D01*
X0108496Y0039506D02*
X0109415Y0040425D01*
X0108412Y0041705D02*
X0107215Y0040508D01*
X0106714Y0041009D01*
X0107911Y0042207D01*
X0108412Y0041705D01*
X0108023Y0041817D02*
X0107104Y0040898D01*
X0105823Y0041900D02*
X0105322Y0042401D01*
X0106519Y0043598D01*
X0107020Y0043097D01*
X0105823Y0041900D01*
X0105712Y0042290D02*
X0106631Y0043209D01*
X0105628Y0044489D02*
X0104431Y0043292D01*
X0103930Y0043793D01*
X0105127Y0044990D01*
X0105628Y0044489D01*
X0105239Y0044601D02*
X0104320Y0043682D01*
X0103039Y0044684D02*
X0102538Y0045185D01*
X0103735Y0046382D01*
X0104236Y0045881D01*
X0103039Y0044684D01*
X0102928Y0045074D02*
X0103847Y0045993D01*
X0102845Y0047273D02*
X0101647Y0046076D01*
X0101146Y0046577D01*
X0102343Y0047774D01*
X0102845Y0047273D01*
X0102455Y0047385D02*
X0101536Y0046466D01*
X0100256Y0047468D02*
X0099754Y0047969D01*
X0100952Y0049166D01*
X0101453Y0048665D01*
X0100256Y0047468D01*
X0100144Y0047858D02*
X0101063Y0048776D01*
X0100061Y0050057D02*
X0098864Y0048860D01*
X0098362Y0049361D01*
X0099560Y0050558D01*
X0100061Y0050057D01*
X0099671Y0050168D02*
X0098752Y0049250D01*
X0097472Y0050252D02*
X0096971Y0050753D01*
X0098168Y0051950D01*
X0098669Y0051449D01*
X0097472Y0050252D01*
X0097360Y0050642D02*
X0098279Y0051560D01*
X0097277Y0052841D02*
X0096080Y0051644D01*
X0095579Y0052145D01*
X0096776Y0053342D01*
X0097277Y0052841D01*
X0096887Y0052952D02*
X0095968Y0052034D01*
X0094688Y0053036D02*
X0094187Y0053537D01*
X0095384Y0054734D01*
X0095885Y0054233D01*
X0094688Y0053036D01*
X0094576Y0053426D02*
X0095495Y0054344D01*
X0095384Y0055959D02*
X0094187Y0057156D01*
X0094688Y0057657D01*
X0095885Y0056460D01*
X0095384Y0055959D01*
X0095495Y0056349D02*
X0094576Y0057267D01*
X0095579Y0058548D02*
X0096080Y0059049D01*
X0097277Y0057852D01*
X0096776Y0057351D01*
X0095579Y0058548D01*
X0095968Y0058659D02*
X0096887Y0057741D01*
X0098168Y0058743D02*
X0096971Y0059940D01*
X0097472Y0060441D01*
X0098669Y0059244D01*
X0098168Y0058743D01*
X0098279Y0059133D02*
X0097360Y0060051D01*
X0098362Y0061332D02*
X0098864Y0061833D01*
X0100061Y0060636D01*
X0099560Y0060135D01*
X0098362Y0061332D01*
X0098752Y0061443D02*
X0099671Y0060524D01*
X0100952Y0061527D02*
X0099754Y0062724D01*
X0100256Y0063225D01*
X0101453Y0062028D01*
X0100952Y0061527D01*
X0101063Y0061916D02*
X0100144Y0062835D01*
X0101146Y0064116D02*
X0101647Y0064617D01*
X0102845Y0063420D01*
X0102343Y0062919D01*
X0101146Y0064116D01*
X0101536Y0064227D02*
X0102455Y0063308D01*
X0103735Y0064311D02*
X0102538Y0065508D01*
X0103039Y0066009D01*
X0104236Y0064812D01*
X0103735Y0064311D01*
X0103847Y0064700D02*
X0102928Y0065619D01*
X0103930Y0066900D02*
X0104431Y0067401D01*
X0105628Y0066204D01*
X0105127Y0065702D01*
X0103930Y0066900D01*
X0104320Y0067011D02*
X0105239Y0066092D01*
X0106519Y0067094D02*
X0105322Y0068292D01*
X0105823Y0068793D01*
X0107020Y0067596D01*
X0106519Y0067094D01*
X0106631Y0067484D02*
X0105712Y0068403D01*
X0106714Y0069683D02*
X0107911Y0068486D01*
X0108412Y0068987D01*
X0107215Y0070185D01*
X0106714Y0069683D01*
X0107104Y0069795D02*
X0108023Y0068876D01*
X0109303Y0069878D02*
X0108106Y0071075D01*
X0108607Y0071577D01*
X0109804Y0070379D01*
X0109303Y0069878D01*
X0109415Y0070268D02*
X0108496Y0071187D01*
X0109498Y0072467D02*
X0110695Y0071270D01*
X0111196Y0071771D01*
X0109999Y0072968D01*
X0109498Y0072467D01*
X0109888Y0072579D02*
X0110806Y0071660D01*
X0112421Y0071771D02*
X0112922Y0071270D01*
X0114119Y0072467D01*
X0113618Y0072968D01*
X0112421Y0071771D01*
X0112811Y0071660D02*
X0113730Y0072579D01*
X0115010Y0071577D02*
X0115511Y0071075D01*
X0114314Y0069878D01*
X0113813Y0070379D01*
X0115010Y0071577D01*
X0115121Y0071187D02*
X0114203Y0070268D01*
X0115205Y0068987D02*
X0116402Y0070185D01*
X0116903Y0069683D01*
X0115706Y0068486D01*
X0115205Y0068987D01*
X0115595Y0068876D02*
X0116513Y0069795D01*
X0117794Y0068793D02*
X0118295Y0068292D01*
X0117098Y0067094D01*
X0116597Y0067596D01*
X0117794Y0068793D01*
X0117905Y0068403D02*
X0116987Y0067484D01*
X0117989Y0066204D02*
X0119186Y0067401D01*
X0119687Y0066900D01*
X0118490Y0065702D01*
X0117989Y0066204D01*
X0118379Y0066092D02*
X0119297Y0067011D01*
X0120578Y0066009D02*
X0121079Y0065508D01*
X0119882Y0064311D01*
X0119381Y0064812D01*
X0120578Y0066009D01*
X0120689Y0065619D02*
X0119771Y0064700D01*
X0120773Y0063420D02*
X0121970Y0064617D01*
X0122471Y0064116D01*
X0121274Y0062919D01*
X0120773Y0063420D01*
X0121163Y0063308D02*
X0122081Y0064227D01*
X0123362Y0063225D02*
X0123863Y0062724D01*
X0122666Y0061527D01*
X0122165Y0062028D01*
X0123362Y0063225D01*
X0123473Y0062835D02*
X0122554Y0061916D01*
X0123557Y0060636D02*
X0124754Y0061833D01*
X0125255Y0061332D01*
X0124058Y0060135D01*
X0123557Y0060636D01*
X0123946Y0060524D02*
X0124865Y0061443D01*
X0126146Y0060441D02*
X0126647Y0059940D01*
X0125450Y0058743D01*
X0124949Y0059244D01*
X0126146Y0060441D01*
X0126257Y0060051D02*
X0125338Y0059133D01*
X0126341Y0057852D02*
X0127538Y0059049D01*
X0128039Y0058548D01*
X0126842Y0057351D01*
X0126341Y0057852D01*
X0126730Y0057741D02*
X0127649Y0058659D01*
X0128930Y0057657D02*
X0129431Y0057156D01*
X0128234Y0055959D01*
X0127732Y0056460D01*
X0128930Y0057657D01*
X0129041Y0057267D02*
X0128122Y0056349D01*
X0128234Y0054734D02*
X0127732Y0054233D01*
X0128930Y0053036D01*
X0129431Y0053537D01*
X0128234Y0054734D01*
X0128122Y0054344D02*
X0129041Y0053426D01*
X0128039Y0052145D02*
X0126842Y0053342D01*
X0126341Y0052841D01*
X0127538Y0051644D01*
X0128039Y0052145D01*
X0127649Y0052034D02*
X0126730Y0052952D01*
X0125450Y0051950D02*
X0126647Y0050753D01*
X0126146Y0050252D01*
X0124949Y0051449D01*
X0125450Y0051950D01*
X0125338Y0051560D02*
X0126257Y0050642D01*
D16*
G36*
X0111809Y0069042D02*
X0125505Y0055346D01*
X0111809Y0041650D01*
X0098113Y0055346D01*
X0111809Y0069042D01*
G37*
D17*
X0032899Y0017402D03*
X0038198Y0022102D03*
X0043698Y0017165D03*
X0043698Y0027205D03*
X0032899Y0027303D03*
X0092502Y0014402D03*
X0100100Y0011803D03*
X0092100Y0075004D03*
X0085399Y0075205D03*
D18*
X0063583Y0031029D02*
X0063583Y0014909D01*
X0063583Y0031029D02*
X0079703Y0031029D01*
X0079703Y0014909D01*
X0063583Y0014909D01*
X0063583Y0016699D02*
X0079703Y0016699D01*
X0079703Y0018489D02*
X0063583Y0018489D01*
X0063583Y0020279D02*
X0079703Y0020279D01*
X0079703Y0022069D02*
X0063583Y0022069D01*
X0063583Y0023859D02*
X0079703Y0023859D01*
X0079703Y0025649D02*
X0063583Y0025649D01*
X0063583Y0027439D02*
X0079703Y0027439D01*
X0079703Y0029229D02*
X0063583Y0029229D01*
X0063583Y0031019D02*
X0079703Y0031019D01*
D19*
X0082175Y0031826D02*
X0084733Y0031826D01*
X0084733Y0031434D01*
X0082175Y0031434D01*
X0082175Y0031826D01*
X0082175Y0031825D02*
X0084733Y0031825D01*
X0084733Y0030251D02*
X0082175Y0030251D01*
X0084733Y0030251D02*
X0084733Y0029859D01*
X0082175Y0029859D01*
X0082175Y0030251D01*
X0082175Y0030250D02*
X0084733Y0030250D01*
X0084733Y0028676D02*
X0082175Y0028676D01*
X0084733Y0028676D02*
X0084733Y0028284D01*
X0082175Y0028284D01*
X0082175Y0028676D01*
X0082175Y0028675D02*
X0084733Y0028675D01*
X0084733Y0027102D02*
X0082175Y0027102D01*
X0084733Y0027102D02*
X0084733Y0026710D01*
X0082175Y0026710D01*
X0082175Y0027102D01*
X0082175Y0027101D02*
X0084733Y0027101D01*
X0084733Y0025527D02*
X0082175Y0025527D01*
X0084733Y0025527D02*
X0084733Y0025135D01*
X0082175Y0025135D01*
X0082175Y0025527D01*
X0082175Y0025526D02*
X0084733Y0025526D01*
X0084733Y0023952D02*
X0082175Y0023952D01*
X0084733Y0023952D02*
X0084733Y0023560D01*
X0082175Y0023560D01*
X0082175Y0023952D01*
X0082175Y0023951D02*
X0084733Y0023951D01*
X0084733Y0022377D02*
X0082175Y0022377D01*
X0084733Y0022377D02*
X0084733Y0021985D01*
X0082175Y0021985D01*
X0082175Y0022377D01*
X0082175Y0022376D02*
X0084733Y0022376D01*
X0084733Y0020802D02*
X0082175Y0020802D01*
X0084733Y0020802D02*
X0084733Y0020410D01*
X0082175Y0020410D01*
X0082175Y0020802D01*
X0082175Y0020801D02*
X0084733Y0020801D01*
X0084733Y0019227D02*
X0082175Y0019227D01*
X0084733Y0019227D02*
X0084733Y0018835D01*
X0082175Y0018835D01*
X0082175Y0019227D01*
X0082175Y0019226D02*
X0084733Y0019226D01*
X0084733Y0017653D02*
X0082175Y0017653D01*
X0084733Y0017653D02*
X0084733Y0017261D01*
X0082175Y0017261D01*
X0082175Y0017653D01*
X0082175Y0017652D02*
X0084733Y0017652D01*
X0084733Y0016078D02*
X0082175Y0016078D01*
X0084733Y0016078D02*
X0084733Y0015686D01*
X0082175Y0015686D01*
X0082175Y0016078D01*
X0082175Y0016077D02*
X0084733Y0016077D01*
X0084733Y0014503D02*
X0082175Y0014503D01*
X0084733Y0014503D02*
X0084733Y0014111D01*
X0082175Y0014111D01*
X0082175Y0014503D01*
X0082175Y0014502D02*
X0084733Y0014502D01*
X0080501Y0012436D02*
X0080501Y0009878D01*
X0080109Y0009878D01*
X0080109Y0012436D01*
X0080501Y0012436D01*
X0080501Y0010269D02*
X0080109Y0010269D01*
X0080109Y0010660D02*
X0080501Y0010660D01*
X0080501Y0011051D02*
X0080109Y0011051D01*
X0080109Y0011442D02*
X0080501Y0011442D01*
X0080501Y0011833D02*
X0080109Y0011833D01*
X0080109Y0012224D02*
X0080501Y0012224D01*
X0078926Y0012436D02*
X0078926Y0009878D01*
X0078534Y0009878D01*
X0078534Y0012436D01*
X0078926Y0012436D01*
X0078926Y0010269D02*
X0078534Y0010269D01*
X0078534Y0010660D02*
X0078926Y0010660D01*
X0078926Y0011051D02*
X0078534Y0011051D01*
X0078534Y0011442D02*
X0078926Y0011442D01*
X0078926Y0011833D02*
X0078534Y0011833D01*
X0078534Y0012224D02*
X0078926Y0012224D01*
X0077351Y0012436D02*
X0077351Y0009878D01*
X0076959Y0009878D01*
X0076959Y0012436D01*
X0077351Y0012436D01*
X0077351Y0010269D02*
X0076959Y0010269D01*
X0076959Y0010660D02*
X0077351Y0010660D01*
X0077351Y0011051D02*
X0076959Y0011051D01*
X0076959Y0011442D02*
X0077351Y0011442D01*
X0077351Y0011833D02*
X0076959Y0011833D01*
X0076959Y0012224D02*
X0077351Y0012224D01*
X0075776Y0012436D02*
X0075776Y0009878D01*
X0075384Y0009878D01*
X0075384Y0012436D01*
X0075776Y0012436D01*
X0075776Y0010269D02*
X0075384Y0010269D01*
X0075384Y0010660D02*
X0075776Y0010660D01*
X0075776Y0011051D02*
X0075384Y0011051D01*
X0075384Y0011442D02*
X0075776Y0011442D01*
X0075776Y0011833D02*
X0075384Y0011833D01*
X0075384Y0012224D02*
X0075776Y0012224D01*
X0074202Y0012436D02*
X0074202Y0009878D01*
X0073810Y0009878D01*
X0073810Y0012436D01*
X0074202Y0012436D01*
X0074202Y0010269D02*
X0073810Y0010269D01*
X0073810Y0010660D02*
X0074202Y0010660D01*
X0074202Y0011051D02*
X0073810Y0011051D01*
X0073810Y0011442D02*
X0074202Y0011442D01*
X0074202Y0011833D02*
X0073810Y0011833D01*
X0073810Y0012224D02*
X0074202Y0012224D01*
X0072627Y0012436D02*
X0072627Y0009878D01*
X0072235Y0009878D01*
X0072235Y0012436D01*
X0072627Y0012436D01*
X0072627Y0010269D02*
X0072235Y0010269D01*
X0072235Y0010660D02*
X0072627Y0010660D01*
X0072627Y0011051D02*
X0072235Y0011051D01*
X0072235Y0011442D02*
X0072627Y0011442D01*
X0072627Y0011833D02*
X0072235Y0011833D01*
X0072235Y0012224D02*
X0072627Y0012224D01*
X0071052Y0012436D02*
X0071052Y0009878D01*
X0070660Y0009878D01*
X0070660Y0012436D01*
X0071052Y0012436D01*
X0071052Y0010269D02*
X0070660Y0010269D01*
X0070660Y0010660D02*
X0071052Y0010660D01*
X0071052Y0011051D02*
X0070660Y0011051D01*
X0070660Y0011442D02*
X0071052Y0011442D01*
X0071052Y0011833D02*
X0070660Y0011833D01*
X0070660Y0012224D02*
X0071052Y0012224D01*
X0069477Y0012436D02*
X0069477Y0009878D01*
X0069085Y0009878D01*
X0069085Y0012436D01*
X0069477Y0012436D01*
X0069477Y0010269D02*
X0069085Y0010269D01*
X0069085Y0010660D02*
X0069477Y0010660D01*
X0069477Y0011051D02*
X0069085Y0011051D01*
X0069085Y0011442D02*
X0069477Y0011442D01*
X0069477Y0011833D02*
X0069085Y0011833D01*
X0069085Y0012224D02*
X0069477Y0012224D01*
X0067902Y0012436D02*
X0067902Y0009878D01*
X0067510Y0009878D01*
X0067510Y0012436D01*
X0067902Y0012436D01*
X0067902Y0010269D02*
X0067510Y0010269D01*
X0067510Y0010660D02*
X0067902Y0010660D01*
X0067902Y0011051D02*
X0067510Y0011051D01*
X0067510Y0011442D02*
X0067902Y0011442D01*
X0067902Y0011833D02*
X0067510Y0011833D01*
X0067510Y0012224D02*
X0067902Y0012224D01*
X0066327Y0012436D02*
X0066327Y0009878D01*
X0065935Y0009878D01*
X0065935Y0012436D01*
X0066327Y0012436D01*
X0066327Y0010269D02*
X0065935Y0010269D01*
X0065935Y0010660D02*
X0066327Y0010660D01*
X0066327Y0011051D02*
X0065935Y0011051D01*
X0065935Y0011442D02*
X0066327Y0011442D01*
X0066327Y0011833D02*
X0065935Y0011833D01*
X0065935Y0012224D02*
X0066327Y0012224D01*
X0064753Y0012436D02*
X0064753Y0009878D01*
X0064361Y0009878D01*
X0064361Y0012436D01*
X0064753Y0012436D01*
X0064753Y0010269D02*
X0064361Y0010269D01*
X0064361Y0010660D02*
X0064753Y0010660D01*
X0064753Y0011051D02*
X0064361Y0011051D01*
X0064361Y0011442D02*
X0064753Y0011442D01*
X0064753Y0011833D02*
X0064361Y0011833D01*
X0064361Y0012224D02*
X0064753Y0012224D01*
X0063178Y0012436D02*
X0063178Y0009878D01*
X0062786Y0009878D01*
X0062786Y0012436D01*
X0063178Y0012436D01*
X0063178Y0010269D02*
X0062786Y0010269D01*
X0062786Y0010660D02*
X0063178Y0010660D01*
X0063178Y0011051D02*
X0062786Y0011051D01*
X0062786Y0011442D02*
X0063178Y0011442D01*
X0063178Y0011833D02*
X0062786Y0011833D01*
X0062786Y0012224D02*
X0063178Y0012224D01*
X0061111Y0014111D02*
X0058553Y0014111D01*
X0058553Y0014503D01*
X0061111Y0014503D01*
X0061111Y0014111D01*
X0061111Y0014502D02*
X0058553Y0014502D01*
X0058553Y0015686D02*
X0061111Y0015686D01*
X0058553Y0015686D02*
X0058553Y0016078D01*
X0061111Y0016078D01*
X0061111Y0015686D01*
X0061111Y0016077D02*
X0058553Y0016077D01*
X0058553Y0017261D02*
X0061111Y0017261D01*
X0058553Y0017261D02*
X0058553Y0017653D01*
X0061111Y0017653D01*
X0061111Y0017261D01*
X0061111Y0017652D02*
X0058553Y0017652D01*
X0058553Y0018835D02*
X0061111Y0018835D01*
X0058553Y0018835D02*
X0058553Y0019227D01*
X0061111Y0019227D01*
X0061111Y0018835D01*
X0061111Y0019226D02*
X0058553Y0019226D01*
X0058553Y0020410D02*
X0061111Y0020410D01*
X0058553Y0020410D02*
X0058553Y0020802D01*
X0061111Y0020802D01*
X0061111Y0020410D01*
X0061111Y0020801D02*
X0058553Y0020801D01*
X0058553Y0021985D02*
X0061111Y0021985D01*
X0058553Y0021985D02*
X0058553Y0022377D01*
X0061111Y0022377D01*
X0061111Y0021985D01*
X0061111Y0022376D02*
X0058553Y0022376D01*
X0058553Y0023560D02*
X0061111Y0023560D01*
X0058553Y0023560D02*
X0058553Y0023952D01*
X0061111Y0023952D01*
X0061111Y0023560D01*
X0061111Y0023951D02*
X0058553Y0023951D01*
X0058553Y0025135D02*
X0061111Y0025135D01*
X0058553Y0025135D02*
X0058553Y0025527D01*
X0061111Y0025527D01*
X0061111Y0025135D01*
X0061111Y0025526D02*
X0058553Y0025526D01*
X0058553Y0026710D02*
X0061111Y0026710D01*
X0058553Y0026710D02*
X0058553Y0027102D01*
X0061111Y0027102D01*
X0061111Y0026710D01*
X0061111Y0027101D02*
X0058553Y0027101D01*
X0058553Y0028284D02*
X0061111Y0028284D01*
X0058553Y0028284D02*
X0058553Y0028676D01*
X0061111Y0028676D01*
X0061111Y0028284D01*
X0061111Y0028675D02*
X0058553Y0028675D01*
X0058553Y0029859D02*
X0061111Y0029859D01*
X0058553Y0029859D02*
X0058553Y0030251D01*
X0061111Y0030251D01*
X0061111Y0029859D01*
X0061111Y0030250D02*
X0058553Y0030250D01*
X0058553Y0031434D02*
X0061111Y0031434D01*
X0058553Y0031434D02*
X0058553Y0031826D01*
X0061111Y0031826D01*
X0061111Y0031434D01*
X0061111Y0031825D02*
X0058553Y0031825D01*
X0062786Y0033501D02*
X0062786Y0036059D01*
X0063178Y0036059D01*
X0063178Y0033501D01*
X0062786Y0033501D01*
X0062786Y0033892D02*
X0063178Y0033892D01*
X0063178Y0034283D02*
X0062786Y0034283D01*
X0062786Y0034674D02*
X0063178Y0034674D01*
X0063178Y0035065D02*
X0062786Y0035065D01*
X0062786Y0035456D02*
X0063178Y0035456D01*
X0063178Y0035847D02*
X0062786Y0035847D01*
X0064361Y0036059D02*
X0064361Y0033501D01*
X0064361Y0036059D02*
X0064753Y0036059D01*
X0064753Y0033501D01*
X0064361Y0033501D01*
X0064361Y0033892D02*
X0064753Y0033892D01*
X0064753Y0034283D02*
X0064361Y0034283D01*
X0064361Y0034674D02*
X0064753Y0034674D01*
X0064753Y0035065D02*
X0064361Y0035065D01*
X0064361Y0035456D02*
X0064753Y0035456D01*
X0064753Y0035847D02*
X0064361Y0035847D01*
X0065935Y0036059D02*
X0065935Y0033501D01*
X0065935Y0036059D02*
X0066327Y0036059D01*
X0066327Y0033501D01*
X0065935Y0033501D01*
X0065935Y0033892D02*
X0066327Y0033892D01*
X0066327Y0034283D02*
X0065935Y0034283D01*
X0065935Y0034674D02*
X0066327Y0034674D01*
X0066327Y0035065D02*
X0065935Y0035065D01*
X0065935Y0035456D02*
X0066327Y0035456D01*
X0066327Y0035847D02*
X0065935Y0035847D01*
X0067510Y0036059D02*
X0067510Y0033501D01*
X0067510Y0036059D02*
X0067902Y0036059D01*
X0067902Y0033501D01*
X0067510Y0033501D01*
X0067510Y0033892D02*
X0067902Y0033892D01*
X0067902Y0034283D02*
X0067510Y0034283D01*
X0067510Y0034674D02*
X0067902Y0034674D01*
X0067902Y0035065D02*
X0067510Y0035065D01*
X0067510Y0035456D02*
X0067902Y0035456D01*
X0067902Y0035847D02*
X0067510Y0035847D01*
X0069085Y0036059D02*
X0069085Y0033501D01*
X0069085Y0036059D02*
X0069477Y0036059D01*
X0069477Y0033501D01*
X0069085Y0033501D01*
X0069085Y0033892D02*
X0069477Y0033892D01*
X0069477Y0034283D02*
X0069085Y0034283D01*
X0069085Y0034674D02*
X0069477Y0034674D01*
X0069477Y0035065D02*
X0069085Y0035065D01*
X0069085Y0035456D02*
X0069477Y0035456D01*
X0069477Y0035847D02*
X0069085Y0035847D01*
X0070660Y0036059D02*
X0070660Y0033501D01*
X0070660Y0036059D02*
X0071052Y0036059D01*
X0071052Y0033501D01*
X0070660Y0033501D01*
X0070660Y0033892D02*
X0071052Y0033892D01*
X0071052Y0034283D02*
X0070660Y0034283D01*
X0070660Y0034674D02*
X0071052Y0034674D01*
X0071052Y0035065D02*
X0070660Y0035065D01*
X0070660Y0035456D02*
X0071052Y0035456D01*
X0071052Y0035847D02*
X0070660Y0035847D01*
X0072235Y0036059D02*
X0072235Y0033501D01*
X0072235Y0036059D02*
X0072627Y0036059D01*
X0072627Y0033501D01*
X0072235Y0033501D01*
X0072235Y0033892D02*
X0072627Y0033892D01*
X0072627Y0034283D02*
X0072235Y0034283D01*
X0072235Y0034674D02*
X0072627Y0034674D01*
X0072627Y0035065D02*
X0072235Y0035065D01*
X0072235Y0035456D02*
X0072627Y0035456D01*
X0072627Y0035847D02*
X0072235Y0035847D01*
X0073810Y0036059D02*
X0073810Y0033501D01*
X0073810Y0036059D02*
X0074202Y0036059D01*
X0074202Y0033501D01*
X0073810Y0033501D01*
X0073810Y0033892D02*
X0074202Y0033892D01*
X0074202Y0034283D02*
X0073810Y0034283D01*
X0073810Y0034674D02*
X0074202Y0034674D01*
X0074202Y0035065D02*
X0073810Y0035065D01*
X0073810Y0035456D02*
X0074202Y0035456D01*
X0074202Y0035847D02*
X0073810Y0035847D01*
X0075384Y0036059D02*
X0075384Y0033501D01*
X0075384Y0036059D02*
X0075776Y0036059D01*
X0075776Y0033501D01*
X0075384Y0033501D01*
X0075384Y0033892D02*
X0075776Y0033892D01*
X0075776Y0034283D02*
X0075384Y0034283D01*
X0075384Y0034674D02*
X0075776Y0034674D01*
X0075776Y0035065D02*
X0075384Y0035065D01*
X0075384Y0035456D02*
X0075776Y0035456D01*
X0075776Y0035847D02*
X0075384Y0035847D01*
X0076959Y0036059D02*
X0076959Y0033501D01*
X0076959Y0036059D02*
X0077351Y0036059D01*
X0077351Y0033501D01*
X0076959Y0033501D01*
X0076959Y0033892D02*
X0077351Y0033892D01*
X0077351Y0034283D02*
X0076959Y0034283D01*
X0076959Y0034674D02*
X0077351Y0034674D01*
X0077351Y0035065D02*
X0076959Y0035065D01*
X0076959Y0035456D02*
X0077351Y0035456D01*
X0077351Y0035847D02*
X0076959Y0035847D01*
X0078534Y0036059D02*
X0078534Y0033501D01*
X0078534Y0036059D02*
X0078926Y0036059D01*
X0078926Y0033501D01*
X0078534Y0033501D01*
X0078534Y0033892D02*
X0078926Y0033892D01*
X0078926Y0034283D02*
X0078534Y0034283D01*
X0078534Y0034674D02*
X0078926Y0034674D01*
X0078926Y0035065D02*
X0078534Y0035065D01*
X0078534Y0035456D02*
X0078926Y0035456D01*
X0078926Y0035847D02*
X0078534Y0035847D01*
X0080109Y0036059D02*
X0080109Y0033501D01*
X0080109Y0036059D02*
X0080501Y0036059D01*
X0080501Y0033501D01*
X0080109Y0033501D01*
X0080109Y0033892D02*
X0080501Y0033892D01*
X0080501Y0034283D02*
X0080109Y0034283D01*
X0080109Y0034674D02*
X0080501Y0034674D01*
X0080501Y0035065D02*
X0080109Y0035065D01*
X0080109Y0035456D02*
X0080501Y0035456D01*
X0080501Y0035847D02*
X0080109Y0035847D01*
D20*
X0022745Y0036885D02*
X0019105Y0036885D01*
X0019105Y0040525D01*
X0022745Y0040525D01*
X0022745Y0036885D01*
X0022745Y0040524D02*
X0019105Y0040524D01*
X0019105Y0046334D02*
X0022745Y0046334D01*
X0019105Y0046334D02*
X0019105Y0049974D01*
X0022745Y0049974D01*
X0022745Y0046334D01*
X0022745Y0049973D02*
X0019105Y0049973D01*
D21*
X0032244Y0048547D03*
X0032244Y0045988D03*
X0032244Y0043429D03*
X0032244Y0040870D03*
X0032244Y0038311D03*
D22*
G36*
X0123145Y0038991D02*
X0125507Y0041353D01*
X0127593Y0039267D01*
X0125231Y0036905D01*
X0123145Y0038991D01*
G37*
G36*
X0126207Y0035929D02*
X0128569Y0038291D01*
X0130655Y0036205D01*
X0128293Y0033843D01*
X0126207Y0035929D01*
G37*
G36*
X0130104Y0039827D02*
X0132466Y0042189D01*
X0134552Y0040103D01*
X0132190Y0037741D01*
X0130104Y0039827D01*
G37*
G36*
X0127042Y0042889D02*
X0129404Y0045251D01*
X0131490Y0043165D01*
X0129128Y0040803D01*
X0127042Y0042889D01*
G37*
D23*
X0051100Y0027669D03*
X0051100Y0023338D03*
D24*
X0085236Y0039800D03*
X0089567Y0039800D03*
X0089567Y0045312D03*
X0085236Y0045312D03*
M02*
