G75*
%MOIN*%
%OFA0B0*%
%FSLAX25Y25*%
%IPPOS*%
%LPD*%
%AMOC8*
5,1,8,0,0,1.08239X$1,22.5*
%
%ADD10C,0.00000*%
%ADD11C,0.00300*%
%ADD12C,0.00100*%
%ADD13C,0.00787*%
%ADD14C,0.00600*%
%ADD15R,0.01673X0.01772*%
%ADD16C,0.00500*%
D10*
X0025049Y0007780D02*
X0025049Y0021327D01*
X0014702Y0021327D01*
X0014702Y0064634D01*
X0025049Y0064634D01*
X0025049Y0078646D01*
X0158907Y0078646D01*
X0158907Y0007780D01*
X0025049Y0007780D01*
X0133541Y0071098D02*
X0133543Y0071175D01*
X0133549Y0071251D01*
X0133559Y0071327D01*
X0133573Y0071402D01*
X0133590Y0071477D01*
X0133612Y0071550D01*
X0133637Y0071623D01*
X0133667Y0071694D01*
X0133699Y0071763D01*
X0133736Y0071830D01*
X0133775Y0071896D01*
X0133818Y0071959D01*
X0133865Y0072020D01*
X0133914Y0072079D01*
X0133967Y0072135D01*
X0134022Y0072188D01*
X0134080Y0072238D01*
X0134140Y0072285D01*
X0134203Y0072329D01*
X0134268Y0072370D01*
X0134335Y0072407D01*
X0134404Y0072441D01*
X0134474Y0072471D01*
X0134546Y0072497D01*
X0134620Y0072519D01*
X0134694Y0072538D01*
X0134769Y0072553D01*
X0134845Y0072564D01*
X0134921Y0072571D01*
X0134998Y0072574D01*
X0135074Y0072573D01*
X0135151Y0072568D01*
X0135227Y0072559D01*
X0135303Y0072546D01*
X0135377Y0072529D01*
X0135451Y0072509D01*
X0135524Y0072484D01*
X0135595Y0072456D01*
X0135665Y0072424D01*
X0135733Y0072389D01*
X0135799Y0072350D01*
X0135863Y0072308D01*
X0135924Y0072262D01*
X0135984Y0072213D01*
X0136040Y0072162D01*
X0136094Y0072107D01*
X0136145Y0072050D01*
X0136193Y0071990D01*
X0136238Y0071928D01*
X0136279Y0071863D01*
X0136317Y0071797D01*
X0136352Y0071729D01*
X0136382Y0071658D01*
X0136410Y0071587D01*
X0136433Y0071514D01*
X0136453Y0071440D01*
X0136469Y0071365D01*
X0136481Y0071289D01*
X0136489Y0071213D01*
X0136493Y0071136D01*
X0136493Y0071060D01*
X0136489Y0070983D01*
X0136481Y0070907D01*
X0136469Y0070831D01*
X0136453Y0070756D01*
X0136433Y0070682D01*
X0136410Y0070609D01*
X0136382Y0070538D01*
X0136352Y0070467D01*
X0136317Y0070399D01*
X0136279Y0070333D01*
X0136238Y0070268D01*
X0136193Y0070206D01*
X0136145Y0070146D01*
X0136094Y0070089D01*
X0136040Y0070034D01*
X0135984Y0069983D01*
X0135924Y0069934D01*
X0135863Y0069888D01*
X0135799Y0069846D01*
X0135733Y0069807D01*
X0135665Y0069772D01*
X0135595Y0069740D01*
X0135524Y0069712D01*
X0135451Y0069687D01*
X0135377Y0069667D01*
X0135303Y0069650D01*
X0135227Y0069637D01*
X0135151Y0069628D01*
X0135074Y0069623D01*
X0134998Y0069622D01*
X0134921Y0069625D01*
X0134845Y0069632D01*
X0134769Y0069643D01*
X0134694Y0069658D01*
X0134620Y0069677D01*
X0134546Y0069699D01*
X0134474Y0069725D01*
X0134404Y0069755D01*
X0134335Y0069789D01*
X0134268Y0069826D01*
X0134203Y0069867D01*
X0134140Y0069911D01*
X0134080Y0069958D01*
X0134022Y0070008D01*
X0133967Y0070061D01*
X0133914Y0070117D01*
X0133865Y0070176D01*
X0133818Y0070237D01*
X0133775Y0070300D01*
X0133736Y0070366D01*
X0133699Y0070433D01*
X0133667Y0070502D01*
X0133637Y0070573D01*
X0133612Y0070646D01*
X0133590Y0070719D01*
X0133573Y0070794D01*
X0133559Y0070869D01*
X0133549Y0070945D01*
X0133543Y0071021D01*
X0133541Y0071098D01*
X0150864Y0071098D02*
X0150866Y0071175D01*
X0150872Y0071251D01*
X0150882Y0071327D01*
X0150896Y0071402D01*
X0150913Y0071477D01*
X0150935Y0071550D01*
X0150960Y0071623D01*
X0150990Y0071694D01*
X0151022Y0071763D01*
X0151059Y0071830D01*
X0151098Y0071896D01*
X0151141Y0071959D01*
X0151188Y0072020D01*
X0151237Y0072079D01*
X0151290Y0072135D01*
X0151345Y0072188D01*
X0151403Y0072238D01*
X0151463Y0072285D01*
X0151526Y0072329D01*
X0151591Y0072370D01*
X0151658Y0072407D01*
X0151727Y0072441D01*
X0151797Y0072471D01*
X0151869Y0072497D01*
X0151943Y0072519D01*
X0152017Y0072538D01*
X0152092Y0072553D01*
X0152168Y0072564D01*
X0152244Y0072571D01*
X0152321Y0072574D01*
X0152397Y0072573D01*
X0152474Y0072568D01*
X0152550Y0072559D01*
X0152626Y0072546D01*
X0152700Y0072529D01*
X0152774Y0072509D01*
X0152847Y0072484D01*
X0152918Y0072456D01*
X0152988Y0072424D01*
X0153056Y0072389D01*
X0153122Y0072350D01*
X0153186Y0072308D01*
X0153247Y0072262D01*
X0153307Y0072213D01*
X0153363Y0072162D01*
X0153417Y0072107D01*
X0153468Y0072050D01*
X0153516Y0071990D01*
X0153561Y0071928D01*
X0153602Y0071863D01*
X0153640Y0071797D01*
X0153675Y0071729D01*
X0153705Y0071658D01*
X0153733Y0071587D01*
X0153756Y0071514D01*
X0153776Y0071440D01*
X0153792Y0071365D01*
X0153804Y0071289D01*
X0153812Y0071213D01*
X0153816Y0071136D01*
X0153816Y0071060D01*
X0153812Y0070983D01*
X0153804Y0070907D01*
X0153792Y0070831D01*
X0153776Y0070756D01*
X0153756Y0070682D01*
X0153733Y0070609D01*
X0153705Y0070538D01*
X0153675Y0070467D01*
X0153640Y0070399D01*
X0153602Y0070333D01*
X0153561Y0070268D01*
X0153516Y0070206D01*
X0153468Y0070146D01*
X0153417Y0070089D01*
X0153363Y0070034D01*
X0153307Y0069983D01*
X0153247Y0069934D01*
X0153186Y0069888D01*
X0153122Y0069846D01*
X0153056Y0069807D01*
X0152988Y0069772D01*
X0152918Y0069740D01*
X0152847Y0069712D01*
X0152774Y0069687D01*
X0152700Y0069667D01*
X0152626Y0069650D01*
X0152550Y0069637D01*
X0152474Y0069628D01*
X0152397Y0069623D01*
X0152321Y0069622D01*
X0152244Y0069625D01*
X0152168Y0069632D01*
X0152092Y0069643D01*
X0152017Y0069658D01*
X0151943Y0069677D01*
X0151869Y0069699D01*
X0151797Y0069725D01*
X0151727Y0069755D01*
X0151658Y0069789D01*
X0151591Y0069826D01*
X0151526Y0069867D01*
X0151463Y0069911D01*
X0151403Y0069958D01*
X0151345Y0070008D01*
X0151290Y0070061D01*
X0151237Y0070117D01*
X0151188Y0070176D01*
X0151141Y0070237D01*
X0151098Y0070300D01*
X0151059Y0070366D01*
X0151022Y0070433D01*
X0150990Y0070502D01*
X0150960Y0070573D01*
X0150935Y0070646D01*
X0150913Y0070719D01*
X0150896Y0070794D01*
X0150882Y0070869D01*
X0150872Y0070945D01*
X0150866Y0071021D01*
X0150864Y0071098D01*
D11*
X0126000Y0064153D02*
X0126000Y0061653D01*
X0125998Y0061609D01*
X0125992Y0061566D01*
X0125983Y0061524D01*
X0125970Y0061482D01*
X0125953Y0061442D01*
X0125933Y0061403D01*
X0125910Y0061366D01*
X0125883Y0061332D01*
X0125854Y0061299D01*
X0125821Y0061270D01*
X0125787Y0061243D01*
X0125750Y0061220D01*
X0125711Y0061200D01*
X0125671Y0061183D01*
X0125629Y0061170D01*
X0125587Y0061161D01*
X0125544Y0061155D01*
X0125500Y0061153D01*
X0119500Y0061153D01*
X0119456Y0061155D01*
X0119413Y0061161D01*
X0119371Y0061170D01*
X0119329Y0061183D01*
X0119289Y0061200D01*
X0119250Y0061220D01*
X0119213Y0061243D01*
X0119179Y0061270D01*
X0119146Y0061299D01*
X0119117Y0061332D01*
X0119090Y0061366D01*
X0119067Y0061403D01*
X0119047Y0061442D01*
X0119030Y0061482D01*
X0119017Y0061524D01*
X0119008Y0061566D01*
X0119002Y0061609D01*
X0119000Y0061653D01*
X0119000Y0064153D01*
X0119002Y0064197D01*
X0119008Y0064240D01*
X0119017Y0064282D01*
X0119030Y0064324D01*
X0119047Y0064364D01*
X0119067Y0064403D01*
X0119090Y0064440D01*
X0119117Y0064474D01*
X0119146Y0064507D01*
X0119179Y0064536D01*
X0119213Y0064563D01*
X0119250Y0064586D01*
X0119289Y0064606D01*
X0119329Y0064623D01*
X0119371Y0064636D01*
X0119413Y0064645D01*
X0119456Y0064651D01*
X0119500Y0064653D01*
X0125500Y0064653D01*
X0125544Y0064651D01*
X0125587Y0064645D01*
X0125629Y0064636D01*
X0125671Y0064623D01*
X0125711Y0064606D01*
X0125750Y0064586D01*
X0125787Y0064563D01*
X0125821Y0064536D01*
X0125854Y0064507D01*
X0125883Y0064474D01*
X0125910Y0064440D01*
X0125933Y0064403D01*
X0125953Y0064364D01*
X0125970Y0064324D01*
X0125983Y0064282D01*
X0125992Y0064240D01*
X0125998Y0064197D01*
X0126000Y0064153D01*
X0125650Y0060403D02*
X0123150Y0060403D01*
X0123106Y0060401D01*
X0123063Y0060395D01*
X0123021Y0060386D01*
X0122979Y0060373D01*
X0122939Y0060356D01*
X0122900Y0060336D01*
X0122863Y0060313D01*
X0122829Y0060286D01*
X0122796Y0060257D01*
X0122767Y0060224D01*
X0122740Y0060190D01*
X0122717Y0060153D01*
X0122697Y0060114D01*
X0122680Y0060074D01*
X0122667Y0060032D01*
X0122658Y0059990D01*
X0122652Y0059947D01*
X0122650Y0059903D01*
X0122650Y0053903D01*
X0122652Y0053859D01*
X0122658Y0053816D01*
X0122667Y0053774D01*
X0122680Y0053732D01*
X0122697Y0053692D01*
X0122717Y0053653D01*
X0122740Y0053616D01*
X0122767Y0053582D01*
X0122796Y0053549D01*
X0122829Y0053520D01*
X0122863Y0053493D01*
X0122900Y0053470D01*
X0122939Y0053450D01*
X0122979Y0053433D01*
X0123021Y0053420D01*
X0123063Y0053411D01*
X0123106Y0053405D01*
X0123150Y0053403D01*
X0125650Y0053403D01*
X0125694Y0053405D01*
X0125737Y0053411D01*
X0125779Y0053420D01*
X0125821Y0053433D01*
X0125861Y0053450D01*
X0125900Y0053470D01*
X0125937Y0053493D01*
X0125971Y0053520D01*
X0126004Y0053549D01*
X0126033Y0053582D01*
X0126060Y0053616D01*
X0126083Y0053653D01*
X0126103Y0053692D01*
X0126120Y0053732D01*
X0126133Y0053774D01*
X0126142Y0053816D01*
X0126148Y0053859D01*
X0126150Y0053903D01*
X0126150Y0059903D01*
X0126148Y0059947D01*
X0126142Y0059990D01*
X0126133Y0060032D01*
X0126120Y0060074D01*
X0126103Y0060114D01*
X0126083Y0060153D01*
X0126060Y0060190D01*
X0126033Y0060224D01*
X0126004Y0060257D01*
X0125971Y0060286D01*
X0125937Y0060313D01*
X0125900Y0060336D01*
X0125861Y0060356D01*
X0125821Y0060373D01*
X0125779Y0060386D01*
X0125737Y0060395D01*
X0125694Y0060401D01*
X0125650Y0060403D01*
X0118000Y0065253D02*
X0112000Y0065253D01*
X0111956Y0065255D01*
X0111913Y0065261D01*
X0111871Y0065270D01*
X0111829Y0065283D01*
X0111789Y0065300D01*
X0111750Y0065320D01*
X0111713Y0065343D01*
X0111679Y0065370D01*
X0111646Y0065399D01*
X0111617Y0065432D01*
X0111590Y0065466D01*
X0111567Y0065503D01*
X0111547Y0065542D01*
X0111530Y0065582D01*
X0111517Y0065624D01*
X0111508Y0065666D01*
X0111502Y0065709D01*
X0111500Y0065753D01*
X0111500Y0068253D01*
X0111502Y0068297D01*
X0111508Y0068340D01*
X0111517Y0068382D01*
X0111530Y0068424D01*
X0111547Y0068464D01*
X0111567Y0068503D01*
X0111590Y0068540D01*
X0111617Y0068574D01*
X0111646Y0068607D01*
X0111679Y0068636D01*
X0111713Y0068663D01*
X0111750Y0068686D01*
X0111789Y0068706D01*
X0111829Y0068723D01*
X0111871Y0068736D01*
X0111913Y0068745D01*
X0111956Y0068751D01*
X0112000Y0068753D01*
X0118000Y0068753D01*
X0118044Y0068751D01*
X0118087Y0068745D01*
X0118129Y0068736D01*
X0118171Y0068723D01*
X0118211Y0068706D01*
X0118250Y0068686D01*
X0118287Y0068663D01*
X0118321Y0068636D01*
X0118354Y0068607D01*
X0118383Y0068574D01*
X0118410Y0068540D01*
X0118433Y0068503D01*
X0118453Y0068464D01*
X0118470Y0068424D01*
X0118483Y0068382D01*
X0118492Y0068340D01*
X0118498Y0068297D01*
X0118500Y0068253D01*
X0118500Y0065753D01*
X0118498Y0065709D01*
X0118492Y0065666D01*
X0118483Y0065624D01*
X0118470Y0065582D01*
X0118453Y0065542D01*
X0118433Y0065503D01*
X0118410Y0065466D01*
X0118383Y0065432D01*
X0118354Y0065399D01*
X0118321Y0065370D01*
X0118287Y0065343D01*
X0118250Y0065320D01*
X0118211Y0065300D01*
X0118171Y0065283D01*
X0118129Y0065270D01*
X0118087Y0065261D01*
X0118044Y0065255D01*
X0118000Y0065253D01*
X0105307Y0065984D02*
X0101065Y0061741D01*
X0101032Y0061712D01*
X0100998Y0061685D01*
X0100961Y0061662D01*
X0100922Y0061642D01*
X0100882Y0061625D01*
X0100840Y0061612D01*
X0100798Y0061603D01*
X0100755Y0061597D01*
X0100711Y0061595D01*
X0100667Y0061597D01*
X0100624Y0061603D01*
X0100582Y0061612D01*
X0100540Y0061625D01*
X0100500Y0061642D01*
X0100461Y0061662D01*
X0100424Y0061685D01*
X0100390Y0061712D01*
X0100357Y0061741D01*
X0100358Y0061741D02*
X0098590Y0063509D01*
X0098589Y0063509D02*
X0098560Y0063542D01*
X0098533Y0063576D01*
X0098510Y0063613D01*
X0098490Y0063652D01*
X0098473Y0063692D01*
X0098460Y0063734D01*
X0098451Y0063776D01*
X0098445Y0063819D01*
X0098443Y0063863D01*
X0098445Y0063907D01*
X0098451Y0063950D01*
X0098460Y0063992D01*
X0098473Y0064034D01*
X0098490Y0064074D01*
X0098510Y0064113D01*
X0098533Y0064150D01*
X0098560Y0064184D01*
X0098589Y0064217D01*
X0098590Y0064216D02*
X0102832Y0068459D01*
X0102865Y0068488D01*
X0102899Y0068515D01*
X0102936Y0068538D01*
X0102975Y0068558D01*
X0103015Y0068575D01*
X0103057Y0068588D01*
X0103099Y0068597D01*
X0103142Y0068603D01*
X0103186Y0068605D01*
X0103230Y0068603D01*
X0103273Y0068597D01*
X0103315Y0068588D01*
X0103357Y0068575D01*
X0103397Y0068558D01*
X0103436Y0068538D01*
X0103473Y0068515D01*
X0103507Y0068488D01*
X0103540Y0068459D01*
X0105307Y0066691D01*
X0105308Y0066692D02*
X0105337Y0066659D01*
X0105364Y0066625D01*
X0105387Y0066588D01*
X0105407Y0066549D01*
X0105424Y0066509D01*
X0105437Y0066467D01*
X0105446Y0066425D01*
X0105452Y0066382D01*
X0105454Y0066338D01*
X0105452Y0066294D01*
X0105446Y0066251D01*
X0105437Y0066209D01*
X0105424Y0066167D01*
X0105407Y0066127D01*
X0105387Y0066088D01*
X0105364Y0066051D01*
X0105337Y0066017D01*
X0105308Y0065984D01*
X0094600Y0066953D02*
X0094600Y0069453D01*
X0094598Y0069497D01*
X0094592Y0069540D01*
X0094583Y0069582D01*
X0094570Y0069624D01*
X0094553Y0069664D01*
X0094533Y0069703D01*
X0094510Y0069740D01*
X0094483Y0069774D01*
X0094454Y0069807D01*
X0094421Y0069836D01*
X0094387Y0069863D01*
X0094350Y0069886D01*
X0094311Y0069906D01*
X0094271Y0069923D01*
X0094229Y0069936D01*
X0094187Y0069945D01*
X0094144Y0069951D01*
X0094100Y0069953D01*
X0088100Y0069953D01*
X0088056Y0069951D01*
X0088013Y0069945D01*
X0087971Y0069936D01*
X0087929Y0069923D01*
X0087889Y0069906D01*
X0087850Y0069886D01*
X0087813Y0069863D01*
X0087779Y0069836D01*
X0087746Y0069807D01*
X0087717Y0069774D01*
X0087690Y0069740D01*
X0087667Y0069703D01*
X0087647Y0069664D01*
X0087630Y0069624D01*
X0087617Y0069582D01*
X0087608Y0069540D01*
X0087602Y0069497D01*
X0087600Y0069453D01*
X0087600Y0066953D01*
X0087602Y0066909D01*
X0087608Y0066866D01*
X0087617Y0066824D01*
X0087630Y0066782D01*
X0087647Y0066742D01*
X0087667Y0066703D01*
X0087690Y0066666D01*
X0087717Y0066632D01*
X0087746Y0066599D01*
X0087779Y0066570D01*
X0087813Y0066543D01*
X0087850Y0066520D01*
X0087889Y0066500D01*
X0087929Y0066483D01*
X0087971Y0066470D01*
X0088013Y0066461D01*
X0088056Y0066455D01*
X0088100Y0066453D01*
X0094100Y0066453D01*
X0094144Y0066455D01*
X0094187Y0066461D01*
X0094229Y0066470D01*
X0094271Y0066483D01*
X0094311Y0066500D01*
X0094350Y0066520D01*
X0094387Y0066543D01*
X0094421Y0066570D01*
X0094454Y0066599D01*
X0094483Y0066632D01*
X0094510Y0066666D01*
X0094533Y0066703D01*
X0094553Y0066742D01*
X0094570Y0066782D01*
X0094583Y0066824D01*
X0094592Y0066866D01*
X0094598Y0066909D01*
X0094600Y0066953D01*
X0084300Y0067153D02*
X0084300Y0069653D01*
X0084298Y0069697D01*
X0084292Y0069740D01*
X0084283Y0069782D01*
X0084270Y0069824D01*
X0084253Y0069864D01*
X0084233Y0069903D01*
X0084210Y0069940D01*
X0084183Y0069974D01*
X0084154Y0070007D01*
X0084121Y0070036D01*
X0084087Y0070063D01*
X0084050Y0070086D01*
X0084011Y0070106D01*
X0083971Y0070123D01*
X0083929Y0070136D01*
X0083887Y0070145D01*
X0083844Y0070151D01*
X0083800Y0070153D01*
X0077800Y0070153D01*
X0077756Y0070151D01*
X0077713Y0070145D01*
X0077671Y0070136D01*
X0077629Y0070123D01*
X0077589Y0070106D01*
X0077550Y0070086D01*
X0077513Y0070063D01*
X0077479Y0070036D01*
X0077446Y0070007D01*
X0077417Y0069974D01*
X0077390Y0069940D01*
X0077367Y0069903D01*
X0077347Y0069864D01*
X0077330Y0069824D01*
X0077317Y0069782D01*
X0077308Y0069740D01*
X0077302Y0069697D01*
X0077300Y0069653D01*
X0077300Y0067153D01*
X0077302Y0067109D01*
X0077308Y0067066D01*
X0077317Y0067024D01*
X0077330Y0066982D01*
X0077347Y0066942D01*
X0077367Y0066903D01*
X0077390Y0066866D01*
X0077417Y0066832D01*
X0077446Y0066799D01*
X0077479Y0066770D01*
X0077513Y0066743D01*
X0077550Y0066720D01*
X0077589Y0066700D01*
X0077629Y0066683D01*
X0077671Y0066670D01*
X0077713Y0066661D01*
X0077756Y0066655D01*
X0077800Y0066653D01*
X0083800Y0066653D01*
X0083844Y0066655D01*
X0083887Y0066661D01*
X0083929Y0066670D01*
X0083971Y0066683D01*
X0084011Y0066700D01*
X0084050Y0066720D01*
X0084087Y0066743D01*
X0084121Y0066770D01*
X0084154Y0066799D01*
X0084183Y0066832D01*
X0084210Y0066866D01*
X0084233Y0066903D01*
X0084253Y0066942D01*
X0084270Y0066982D01*
X0084283Y0067024D01*
X0084292Y0067066D01*
X0084298Y0067109D01*
X0084300Y0067153D01*
X0080200Y0064553D02*
X0080200Y0062053D01*
X0080198Y0062009D01*
X0080192Y0061966D01*
X0080183Y0061924D01*
X0080170Y0061882D01*
X0080153Y0061842D01*
X0080133Y0061803D01*
X0080110Y0061766D01*
X0080083Y0061732D01*
X0080054Y0061699D01*
X0080021Y0061670D01*
X0079987Y0061643D01*
X0079950Y0061620D01*
X0079911Y0061600D01*
X0079871Y0061583D01*
X0079829Y0061570D01*
X0079787Y0061561D01*
X0079744Y0061555D01*
X0079700Y0061553D01*
X0073700Y0061553D01*
X0073656Y0061555D01*
X0073613Y0061561D01*
X0073571Y0061570D01*
X0073529Y0061583D01*
X0073489Y0061600D01*
X0073450Y0061620D01*
X0073413Y0061643D01*
X0073379Y0061670D01*
X0073346Y0061699D01*
X0073317Y0061732D01*
X0073290Y0061766D01*
X0073267Y0061803D01*
X0073247Y0061842D01*
X0073230Y0061882D01*
X0073217Y0061924D01*
X0073208Y0061966D01*
X0073202Y0062009D01*
X0073200Y0062053D01*
X0073200Y0064553D01*
X0073202Y0064597D01*
X0073208Y0064640D01*
X0073217Y0064682D01*
X0073230Y0064724D01*
X0073247Y0064764D01*
X0073267Y0064803D01*
X0073290Y0064840D01*
X0073317Y0064874D01*
X0073346Y0064907D01*
X0073379Y0064936D01*
X0073413Y0064963D01*
X0073450Y0064986D01*
X0073489Y0065006D01*
X0073529Y0065023D01*
X0073571Y0065036D01*
X0073613Y0065045D01*
X0073656Y0065051D01*
X0073700Y0065053D01*
X0079700Y0065053D01*
X0079744Y0065051D01*
X0079787Y0065045D01*
X0079829Y0065036D01*
X0079871Y0065023D01*
X0079911Y0065006D01*
X0079950Y0064986D01*
X0079987Y0064963D01*
X0080021Y0064936D01*
X0080054Y0064907D01*
X0080083Y0064874D01*
X0080110Y0064840D01*
X0080133Y0064803D01*
X0080153Y0064764D01*
X0080170Y0064724D01*
X0080183Y0064682D01*
X0080192Y0064640D01*
X0080198Y0064597D01*
X0080200Y0064553D01*
X0076650Y0066103D02*
X0076650Y0072103D01*
X0076648Y0072147D01*
X0076642Y0072190D01*
X0076633Y0072232D01*
X0076620Y0072274D01*
X0076603Y0072314D01*
X0076583Y0072353D01*
X0076560Y0072390D01*
X0076533Y0072424D01*
X0076504Y0072457D01*
X0076471Y0072486D01*
X0076437Y0072513D01*
X0076400Y0072536D01*
X0076361Y0072556D01*
X0076321Y0072573D01*
X0076279Y0072586D01*
X0076237Y0072595D01*
X0076194Y0072601D01*
X0076150Y0072603D01*
X0073650Y0072603D01*
X0073606Y0072601D01*
X0073563Y0072595D01*
X0073521Y0072586D01*
X0073479Y0072573D01*
X0073439Y0072556D01*
X0073400Y0072536D01*
X0073363Y0072513D01*
X0073329Y0072486D01*
X0073296Y0072457D01*
X0073267Y0072424D01*
X0073240Y0072390D01*
X0073217Y0072353D01*
X0073197Y0072314D01*
X0073180Y0072274D01*
X0073167Y0072232D01*
X0073158Y0072190D01*
X0073152Y0072147D01*
X0073150Y0072103D01*
X0073150Y0066103D01*
X0073152Y0066059D01*
X0073158Y0066016D01*
X0073167Y0065974D01*
X0073180Y0065932D01*
X0073197Y0065892D01*
X0073217Y0065853D01*
X0073240Y0065816D01*
X0073267Y0065782D01*
X0073296Y0065749D01*
X0073329Y0065720D01*
X0073363Y0065693D01*
X0073400Y0065670D01*
X0073439Y0065650D01*
X0073479Y0065633D01*
X0073521Y0065620D01*
X0073563Y0065611D01*
X0073606Y0065605D01*
X0073650Y0065603D01*
X0076150Y0065603D01*
X0076194Y0065605D01*
X0076237Y0065611D01*
X0076279Y0065620D01*
X0076321Y0065633D01*
X0076361Y0065650D01*
X0076400Y0065670D01*
X0076437Y0065693D01*
X0076471Y0065720D01*
X0076504Y0065749D01*
X0076533Y0065782D01*
X0076560Y0065816D01*
X0076583Y0065853D01*
X0076603Y0065892D01*
X0076620Y0065932D01*
X0076633Y0065974D01*
X0076642Y0066016D01*
X0076648Y0066059D01*
X0076650Y0066103D01*
X0073400Y0074253D02*
X0067400Y0074253D01*
X0067356Y0074255D01*
X0067313Y0074261D01*
X0067271Y0074270D01*
X0067229Y0074283D01*
X0067189Y0074300D01*
X0067150Y0074320D01*
X0067113Y0074343D01*
X0067079Y0074370D01*
X0067046Y0074399D01*
X0067017Y0074432D01*
X0066990Y0074466D01*
X0066967Y0074503D01*
X0066947Y0074542D01*
X0066930Y0074582D01*
X0066917Y0074624D01*
X0066908Y0074666D01*
X0066902Y0074709D01*
X0066900Y0074753D01*
X0066900Y0077253D01*
X0066902Y0077297D01*
X0066908Y0077340D01*
X0066917Y0077382D01*
X0066930Y0077424D01*
X0066947Y0077464D01*
X0066967Y0077503D01*
X0066990Y0077540D01*
X0067017Y0077574D01*
X0067046Y0077607D01*
X0067079Y0077636D01*
X0067113Y0077663D01*
X0067150Y0077686D01*
X0067189Y0077706D01*
X0067229Y0077723D01*
X0067271Y0077736D01*
X0067313Y0077745D01*
X0067356Y0077751D01*
X0067400Y0077753D01*
X0073400Y0077753D01*
X0073444Y0077751D01*
X0073487Y0077745D01*
X0073529Y0077736D01*
X0073571Y0077723D01*
X0073611Y0077706D01*
X0073650Y0077686D01*
X0073687Y0077663D01*
X0073721Y0077636D01*
X0073754Y0077607D01*
X0073783Y0077574D01*
X0073810Y0077540D01*
X0073833Y0077503D01*
X0073853Y0077464D01*
X0073870Y0077424D01*
X0073883Y0077382D01*
X0073892Y0077340D01*
X0073898Y0077297D01*
X0073900Y0077253D01*
X0073900Y0074753D01*
X0073898Y0074709D01*
X0073892Y0074666D01*
X0073883Y0074624D01*
X0073870Y0074582D01*
X0073853Y0074542D01*
X0073833Y0074503D01*
X0073810Y0074466D01*
X0073783Y0074432D01*
X0073754Y0074399D01*
X0073721Y0074370D01*
X0073687Y0074343D01*
X0073650Y0074320D01*
X0073611Y0074300D01*
X0073571Y0074283D01*
X0073529Y0074270D01*
X0073487Y0074261D01*
X0073444Y0074255D01*
X0073400Y0074253D01*
X0065900Y0074753D02*
X0065900Y0077253D01*
X0065898Y0077297D01*
X0065892Y0077340D01*
X0065883Y0077382D01*
X0065870Y0077424D01*
X0065853Y0077464D01*
X0065833Y0077503D01*
X0065810Y0077540D01*
X0065783Y0077574D01*
X0065754Y0077607D01*
X0065721Y0077636D01*
X0065687Y0077663D01*
X0065650Y0077686D01*
X0065611Y0077706D01*
X0065571Y0077723D01*
X0065529Y0077736D01*
X0065487Y0077745D01*
X0065444Y0077751D01*
X0065400Y0077753D01*
X0059400Y0077753D01*
X0059356Y0077751D01*
X0059313Y0077745D01*
X0059271Y0077736D01*
X0059229Y0077723D01*
X0059189Y0077706D01*
X0059150Y0077686D01*
X0059113Y0077663D01*
X0059079Y0077636D01*
X0059046Y0077607D01*
X0059017Y0077574D01*
X0058990Y0077540D01*
X0058967Y0077503D01*
X0058947Y0077464D01*
X0058930Y0077424D01*
X0058917Y0077382D01*
X0058908Y0077340D01*
X0058902Y0077297D01*
X0058900Y0077253D01*
X0058900Y0074753D01*
X0058902Y0074709D01*
X0058908Y0074666D01*
X0058917Y0074624D01*
X0058930Y0074582D01*
X0058947Y0074542D01*
X0058967Y0074503D01*
X0058990Y0074466D01*
X0059017Y0074432D01*
X0059046Y0074399D01*
X0059079Y0074370D01*
X0059113Y0074343D01*
X0059150Y0074320D01*
X0059189Y0074300D01*
X0059229Y0074283D01*
X0059271Y0074270D01*
X0059313Y0074261D01*
X0059356Y0074255D01*
X0059400Y0074253D01*
X0065400Y0074253D01*
X0065444Y0074255D01*
X0065487Y0074261D01*
X0065529Y0074270D01*
X0065571Y0074283D01*
X0065611Y0074300D01*
X0065650Y0074320D01*
X0065687Y0074343D01*
X0065721Y0074370D01*
X0065754Y0074399D01*
X0065783Y0074432D01*
X0065810Y0074466D01*
X0065833Y0074503D01*
X0065853Y0074542D01*
X0065870Y0074582D01*
X0065883Y0074624D01*
X0065892Y0074666D01*
X0065898Y0074709D01*
X0065900Y0074753D01*
X0061450Y0070003D02*
X0061450Y0064003D01*
X0061448Y0063959D01*
X0061442Y0063916D01*
X0061433Y0063874D01*
X0061420Y0063832D01*
X0061403Y0063792D01*
X0061383Y0063753D01*
X0061360Y0063716D01*
X0061333Y0063682D01*
X0061304Y0063649D01*
X0061271Y0063620D01*
X0061237Y0063593D01*
X0061200Y0063570D01*
X0061161Y0063550D01*
X0061121Y0063533D01*
X0061079Y0063520D01*
X0061037Y0063511D01*
X0060994Y0063505D01*
X0060950Y0063503D01*
X0058450Y0063503D01*
X0058406Y0063505D01*
X0058363Y0063511D01*
X0058321Y0063520D01*
X0058279Y0063533D01*
X0058239Y0063550D01*
X0058200Y0063570D01*
X0058163Y0063593D01*
X0058129Y0063620D01*
X0058096Y0063649D01*
X0058067Y0063682D01*
X0058040Y0063716D01*
X0058017Y0063753D01*
X0057997Y0063792D01*
X0057980Y0063832D01*
X0057967Y0063874D01*
X0057958Y0063916D01*
X0057952Y0063959D01*
X0057950Y0064003D01*
X0057950Y0070003D01*
X0057952Y0070047D01*
X0057958Y0070090D01*
X0057967Y0070132D01*
X0057980Y0070174D01*
X0057997Y0070214D01*
X0058017Y0070253D01*
X0058040Y0070290D01*
X0058067Y0070324D01*
X0058096Y0070357D01*
X0058129Y0070386D01*
X0058163Y0070413D01*
X0058200Y0070436D01*
X0058239Y0070456D01*
X0058279Y0070473D01*
X0058321Y0070486D01*
X0058363Y0070495D01*
X0058406Y0070501D01*
X0058450Y0070503D01*
X0060950Y0070503D01*
X0060994Y0070501D01*
X0061037Y0070495D01*
X0061079Y0070486D01*
X0061121Y0070473D01*
X0061161Y0070456D01*
X0061200Y0070436D01*
X0061237Y0070413D01*
X0061271Y0070386D01*
X0061304Y0070357D01*
X0061333Y0070324D01*
X0061360Y0070290D01*
X0061383Y0070253D01*
X0061403Y0070214D01*
X0061420Y0070174D01*
X0061433Y0070132D01*
X0061442Y0070090D01*
X0061448Y0070047D01*
X0061450Y0070003D01*
X0056750Y0071503D02*
X0056750Y0077503D01*
X0056748Y0077547D01*
X0056742Y0077590D01*
X0056733Y0077632D01*
X0056720Y0077674D01*
X0056703Y0077714D01*
X0056683Y0077753D01*
X0056660Y0077790D01*
X0056633Y0077824D01*
X0056604Y0077857D01*
X0056571Y0077886D01*
X0056537Y0077913D01*
X0056500Y0077936D01*
X0056461Y0077956D01*
X0056421Y0077973D01*
X0056379Y0077986D01*
X0056337Y0077995D01*
X0056294Y0078001D01*
X0056250Y0078003D01*
X0053750Y0078003D01*
X0053706Y0078001D01*
X0053663Y0077995D01*
X0053621Y0077986D01*
X0053579Y0077973D01*
X0053539Y0077956D01*
X0053500Y0077936D01*
X0053463Y0077913D01*
X0053429Y0077886D01*
X0053396Y0077857D01*
X0053367Y0077824D01*
X0053340Y0077790D01*
X0053317Y0077753D01*
X0053297Y0077714D01*
X0053280Y0077674D01*
X0053267Y0077632D01*
X0053258Y0077590D01*
X0053252Y0077547D01*
X0053250Y0077503D01*
X0053250Y0071503D01*
X0053252Y0071459D01*
X0053258Y0071416D01*
X0053267Y0071374D01*
X0053280Y0071332D01*
X0053297Y0071292D01*
X0053317Y0071253D01*
X0053340Y0071216D01*
X0053367Y0071182D01*
X0053396Y0071149D01*
X0053429Y0071120D01*
X0053463Y0071093D01*
X0053500Y0071070D01*
X0053539Y0071050D01*
X0053579Y0071033D01*
X0053621Y0071020D01*
X0053663Y0071011D01*
X0053706Y0071005D01*
X0053750Y0071003D01*
X0056250Y0071003D01*
X0056294Y0071005D01*
X0056337Y0071011D01*
X0056379Y0071020D01*
X0056421Y0071033D01*
X0056461Y0071050D01*
X0056500Y0071070D01*
X0056537Y0071093D01*
X0056571Y0071120D01*
X0056604Y0071149D01*
X0056633Y0071182D01*
X0056660Y0071216D01*
X0056683Y0071253D01*
X0056703Y0071292D01*
X0056720Y0071332D01*
X0056733Y0071374D01*
X0056742Y0071416D01*
X0056748Y0071459D01*
X0056750Y0071503D01*
X0056050Y0068003D02*
X0053550Y0068003D01*
X0053506Y0068001D01*
X0053463Y0067995D01*
X0053421Y0067986D01*
X0053379Y0067973D01*
X0053339Y0067956D01*
X0053300Y0067936D01*
X0053263Y0067913D01*
X0053229Y0067886D01*
X0053196Y0067857D01*
X0053167Y0067824D01*
X0053140Y0067790D01*
X0053117Y0067753D01*
X0053097Y0067714D01*
X0053080Y0067674D01*
X0053067Y0067632D01*
X0053058Y0067590D01*
X0053052Y0067547D01*
X0053050Y0067503D01*
X0053050Y0061503D01*
X0053052Y0061459D01*
X0053058Y0061416D01*
X0053067Y0061374D01*
X0053080Y0061332D01*
X0053097Y0061292D01*
X0053117Y0061253D01*
X0053140Y0061216D01*
X0053167Y0061182D01*
X0053196Y0061149D01*
X0053229Y0061120D01*
X0053263Y0061093D01*
X0053300Y0061070D01*
X0053339Y0061050D01*
X0053379Y0061033D01*
X0053421Y0061020D01*
X0053463Y0061011D01*
X0053506Y0061005D01*
X0053550Y0061003D01*
X0056050Y0061003D01*
X0056094Y0061005D01*
X0056137Y0061011D01*
X0056179Y0061020D01*
X0056221Y0061033D01*
X0056261Y0061050D01*
X0056300Y0061070D01*
X0056337Y0061093D01*
X0056371Y0061120D01*
X0056404Y0061149D01*
X0056433Y0061182D01*
X0056460Y0061216D01*
X0056483Y0061253D01*
X0056503Y0061292D01*
X0056520Y0061332D01*
X0056533Y0061374D01*
X0056542Y0061416D01*
X0056548Y0061459D01*
X0056550Y0061503D01*
X0056550Y0067503D01*
X0056548Y0067547D01*
X0056542Y0067590D01*
X0056533Y0067632D01*
X0056520Y0067674D01*
X0056503Y0067714D01*
X0056483Y0067753D01*
X0056460Y0067790D01*
X0056433Y0067824D01*
X0056404Y0067857D01*
X0056371Y0067886D01*
X0056337Y0067913D01*
X0056300Y0067936D01*
X0056261Y0067956D01*
X0056221Y0067973D01*
X0056179Y0067986D01*
X0056137Y0067995D01*
X0056094Y0068001D01*
X0056050Y0068003D01*
X0047500Y0060353D02*
X0047500Y0057853D01*
X0047498Y0057809D01*
X0047492Y0057766D01*
X0047483Y0057724D01*
X0047470Y0057682D01*
X0047453Y0057642D01*
X0047433Y0057603D01*
X0047410Y0057566D01*
X0047383Y0057532D01*
X0047354Y0057499D01*
X0047321Y0057470D01*
X0047287Y0057443D01*
X0047250Y0057420D01*
X0047211Y0057400D01*
X0047171Y0057383D01*
X0047129Y0057370D01*
X0047087Y0057361D01*
X0047044Y0057355D01*
X0047000Y0057353D01*
X0041000Y0057353D01*
X0041000Y0056953D02*
X0047000Y0056953D01*
X0047044Y0056951D01*
X0047087Y0056945D01*
X0047129Y0056936D01*
X0047171Y0056923D01*
X0047211Y0056906D01*
X0047250Y0056886D01*
X0047287Y0056863D01*
X0047321Y0056836D01*
X0047354Y0056807D01*
X0047383Y0056774D01*
X0047410Y0056740D01*
X0047433Y0056703D01*
X0047453Y0056664D01*
X0047470Y0056624D01*
X0047483Y0056582D01*
X0047492Y0056540D01*
X0047498Y0056497D01*
X0047500Y0056453D01*
X0047500Y0053953D01*
X0047498Y0053909D01*
X0047492Y0053866D01*
X0047483Y0053824D01*
X0047470Y0053782D01*
X0047453Y0053742D01*
X0047433Y0053703D01*
X0047410Y0053666D01*
X0047383Y0053632D01*
X0047354Y0053599D01*
X0047321Y0053570D01*
X0047287Y0053543D01*
X0047250Y0053520D01*
X0047211Y0053500D01*
X0047171Y0053483D01*
X0047129Y0053470D01*
X0047087Y0053461D01*
X0047044Y0053455D01*
X0047000Y0053453D01*
X0041000Y0053453D01*
X0040956Y0053455D01*
X0040913Y0053461D01*
X0040871Y0053470D01*
X0040829Y0053483D01*
X0040789Y0053500D01*
X0040750Y0053520D01*
X0040713Y0053543D01*
X0040679Y0053570D01*
X0040646Y0053599D01*
X0040617Y0053632D01*
X0040590Y0053666D01*
X0040567Y0053703D01*
X0040547Y0053742D01*
X0040530Y0053782D01*
X0040517Y0053824D01*
X0040508Y0053866D01*
X0040502Y0053909D01*
X0040500Y0053953D01*
X0040500Y0056453D01*
X0040502Y0056497D01*
X0040508Y0056540D01*
X0040517Y0056582D01*
X0040530Y0056624D01*
X0040547Y0056664D01*
X0040567Y0056703D01*
X0040590Y0056740D01*
X0040617Y0056774D01*
X0040646Y0056807D01*
X0040679Y0056836D01*
X0040713Y0056863D01*
X0040750Y0056886D01*
X0040789Y0056906D01*
X0040829Y0056923D01*
X0040871Y0056936D01*
X0040913Y0056945D01*
X0040956Y0056951D01*
X0041000Y0056953D01*
X0041000Y0057353D02*
X0040956Y0057355D01*
X0040913Y0057361D01*
X0040871Y0057370D01*
X0040829Y0057383D01*
X0040789Y0057400D01*
X0040750Y0057420D01*
X0040713Y0057443D01*
X0040679Y0057470D01*
X0040646Y0057499D01*
X0040617Y0057532D01*
X0040590Y0057566D01*
X0040567Y0057603D01*
X0040547Y0057642D01*
X0040530Y0057682D01*
X0040517Y0057724D01*
X0040508Y0057766D01*
X0040502Y0057809D01*
X0040500Y0057853D01*
X0040500Y0060353D01*
X0040502Y0060397D01*
X0040508Y0060440D01*
X0040517Y0060482D01*
X0040530Y0060524D01*
X0040547Y0060564D01*
X0040567Y0060603D01*
X0040590Y0060640D01*
X0040617Y0060674D01*
X0040646Y0060707D01*
X0040679Y0060736D01*
X0040713Y0060763D01*
X0040750Y0060786D01*
X0040789Y0060806D01*
X0040829Y0060823D01*
X0040871Y0060836D01*
X0040913Y0060845D01*
X0040956Y0060851D01*
X0041000Y0060853D01*
X0047000Y0060853D01*
X0047044Y0060851D01*
X0047087Y0060845D01*
X0047129Y0060836D01*
X0047171Y0060823D01*
X0047211Y0060806D01*
X0047250Y0060786D01*
X0047287Y0060763D01*
X0047321Y0060736D01*
X0047354Y0060707D01*
X0047383Y0060674D01*
X0047410Y0060640D01*
X0047433Y0060603D01*
X0047453Y0060564D01*
X0047470Y0060524D01*
X0047483Y0060482D01*
X0047492Y0060440D01*
X0047498Y0060397D01*
X0047500Y0060353D01*
X0049600Y0056853D02*
X0055600Y0056853D01*
X0055644Y0056851D01*
X0055687Y0056845D01*
X0055729Y0056836D01*
X0055771Y0056823D01*
X0055811Y0056806D01*
X0055850Y0056786D01*
X0055887Y0056763D01*
X0055921Y0056736D01*
X0055954Y0056707D01*
X0055983Y0056674D01*
X0056010Y0056640D01*
X0056033Y0056603D01*
X0056053Y0056564D01*
X0056070Y0056524D01*
X0056083Y0056482D01*
X0056092Y0056440D01*
X0056098Y0056397D01*
X0056100Y0056353D01*
X0056100Y0053853D01*
X0056098Y0053809D01*
X0056092Y0053766D01*
X0056083Y0053724D01*
X0056070Y0053682D01*
X0056053Y0053642D01*
X0056033Y0053603D01*
X0056010Y0053566D01*
X0055983Y0053532D01*
X0055954Y0053499D01*
X0055921Y0053470D01*
X0055887Y0053443D01*
X0055850Y0053420D01*
X0055811Y0053400D01*
X0055771Y0053383D01*
X0055729Y0053370D01*
X0055687Y0053361D01*
X0055644Y0053355D01*
X0055600Y0053353D01*
X0049600Y0053353D01*
X0049556Y0053355D01*
X0049513Y0053361D01*
X0049471Y0053370D01*
X0049429Y0053383D01*
X0049389Y0053400D01*
X0049350Y0053420D01*
X0049313Y0053443D01*
X0049279Y0053470D01*
X0049246Y0053499D01*
X0049217Y0053532D01*
X0049190Y0053566D01*
X0049167Y0053603D01*
X0049147Y0053642D01*
X0049130Y0053682D01*
X0049117Y0053724D01*
X0049108Y0053766D01*
X0049102Y0053809D01*
X0049100Y0053853D01*
X0049100Y0056353D01*
X0049102Y0056397D01*
X0049108Y0056440D01*
X0049117Y0056482D01*
X0049130Y0056524D01*
X0049147Y0056564D01*
X0049167Y0056603D01*
X0049190Y0056640D01*
X0049217Y0056674D01*
X0049246Y0056707D01*
X0049279Y0056736D01*
X0049313Y0056763D01*
X0049350Y0056786D01*
X0049389Y0056806D01*
X0049429Y0056823D01*
X0049471Y0056836D01*
X0049513Y0056845D01*
X0049556Y0056851D01*
X0049600Y0056853D01*
X0043600Y0052653D02*
X0043600Y0050153D01*
X0043598Y0050109D01*
X0043592Y0050066D01*
X0043583Y0050024D01*
X0043570Y0049982D01*
X0043553Y0049942D01*
X0043533Y0049903D01*
X0043510Y0049866D01*
X0043483Y0049832D01*
X0043454Y0049799D01*
X0043421Y0049770D01*
X0043387Y0049743D01*
X0043350Y0049720D01*
X0043311Y0049700D01*
X0043271Y0049683D01*
X0043229Y0049670D01*
X0043187Y0049661D01*
X0043144Y0049655D01*
X0043100Y0049653D01*
X0037100Y0049653D01*
X0037056Y0049655D01*
X0037013Y0049661D01*
X0036971Y0049670D01*
X0036929Y0049683D01*
X0036889Y0049700D01*
X0036850Y0049720D01*
X0036813Y0049743D01*
X0036779Y0049770D01*
X0036746Y0049799D01*
X0036717Y0049832D01*
X0036690Y0049866D01*
X0036667Y0049903D01*
X0036647Y0049942D01*
X0036630Y0049982D01*
X0036617Y0050024D01*
X0036608Y0050066D01*
X0036602Y0050109D01*
X0036600Y0050153D01*
X0036600Y0052653D01*
X0036602Y0052697D01*
X0036608Y0052740D01*
X0036617Y0052782D01*
X0036630Y0052824D01*
X0036647Y0052864D01*
X0036667Y0052903D01*
X0036690Y0052940D01*
X0036717Y0052974D01*
X0036746Y0053007D01*
X0036779Y0053036D01*
X0036813Y0053063D01*
X0036850Y0053086D01*
X0036889Y0053106D01*
X0036929Y0053123D01*
X0036971Y0053136D01*
X0037013Y0053145D01*
X0037056Y0053151D01*
X0037100Y0053153D01*
X0043100Y0053153D01*
X0043144Y0053151D01*
X0043187Y0053145D01*
X0043229Y0053136D01*
X0043271Y0053123D01*
X0043311Y0053106D01*
X0043350Y0053086D01*
X0043387Y0053063D01*
X0043421Y0053036D01*
X0043454Y0053007D01*
X0043483Y0052974D01*
X0043510Y0052940D01*
X0043533Y0052903D01*
X0043553Y0052864D01*
X0043570Y0052824D01*
X0043583Y0052782D01*
X0043592Y0052740D01*
X0043598Y0052697D01*
X0043600Y0052653D01*
X0038150Y0066803D02*
X0035650Y0066803D01*
X0035606Y0066805D01*
X0035563Y0066811D01*
X0035521Y0066820D01*
X0035479Y0066833D01*
X0035439Y0066850D01*
X0035400Y0066870D01*
X0035363Y0066893D01*
X0035329Y0066920D01*
X0035296Y0066949D01*
X0035267Y0066982D01*
X0035240Y0067016D01*
X0035217Y0067053D01*
X0035197Y0067092D01*
X0035180Y0067132D01*
X0035167Y0067174D01*
X0035158Y0067216D01*
X0035152Y0067259D01*
X0035150Y0067303D01*
X0035150Y0073303D01*
X0035152Y0073347D01*
X0035158Y0073390D01*
X0035167Y0073432D01*
X0035180Y0073474D01*
X0035197Y0073514D01*
X0035217Y0073553D01*
X0035240Y0073590D01*
X0035267Y0073624D01*
X0035296Y0073657D01*
X0035329Y0073686D01*
X0035363Y0073713D01*
X0035400Y0073736D01*
X0035439Y0073756D01*
X0035479Y0073773D01*
X0035521Y0073786D01*
X0035563Y0073795D01*
X0035606Y0073801D01*
X0035650Y0073803D01*
X0038150Y0073803D01*
X0038194Y0073801D01*
X0038237Y0073795D01*
X0038279Y0073786D01*
X0038321Y0073773D01*
X0038361Y0073756D01*
X0038400Y0073736D01*
X0038437Y0073713D01*
X0038471Y0073686D01*
X0038504Y0073657D01*
X0038533Y0073624D01*
X0038560Y0073590D01*
X0038583Y0073553D01*
X0038603Y0073514D01*
X0038620Y0073474D01*
X0038633Y0073432D01*
X0038642Y0073390D01*
X0038648Y0073347D01*
X0038650Y0073303D01*
X0038650Y0067303D01*
X0038648Y0067259D01*
X0038642Y0067216D01*
X0038633Y0067174D01*
X0038620Y0067132D01*
X0038603Y0067092D01*
X0038583Y0067053D01*
X0038560Y0067016D01*
X0038533Y0066982D01*
X0038504Y0066949D01*
X0038471Y0066920D01*
X0038437Y0066893D01*
X0038400Y0066870D01*
X0038361Y0066850D01*
X0038321Y0066833D01*
X0038279Y0066820D01*
X0038237Y0066811D01*
X0038194Y0066805D01*
X0038150Y0066803D01*
X0069100Y0053853D02*
X0069100Y0051353D01*
X0069102Y0051309D01*
X0069108Y0051266D01*
X0069117Y0051224D01*
X0069130Y0051182D01*
X0069147Y0051142D01*
X0069167Y0051103D01*
X0069190Y0051066D01*
X0069217Y0051032D01*
X0069246Y0050999D01*
X0069279Y0050970D01*
X0069313Y0050943D01*
X0069350Y0050920D01*
X0069389Y0050900D01*
X0069429Y0050883D01*
X0069471Y0050870D01*
X0069513Y0050861D01*
X0069556Y0050855D01*
X0069600Y0050853D01*
X0075600Y0050853D01*
X0075644Y0050855D01*
X0075687Y0050861D01*
X0075729Y0050870D01*
X0075771Y0050883D01*
X0075811Y0050900D01*
X0075850Y0050920D01*
X0075887Y0050943D01*
X0075921Y0050970D01*
X0075954Y0050999D01*
X0075983Y0051032D01*
X0076010Y0051066D01*
X0076033Y0051103D01*
X0076053Y0051142D01*
X0076070Y0051182D01*
X0076083Y0051224D01*
X0076092Y0051266D01*
X0076098Y0051309D01*
X0076100Y0051353D01*
X0076100Y0053853D01*
X0076098Y0053897D01*
X0076092Y0053940D01*
X0076083Y0053982D01*
X0076070Y0054024D01*
X0076053Y0054064D01*
X0076033Y0054103D01*
X0076010Y0054140D01*
X0075983Y0054174D01*
X0075954Y0054207D01*
X0075921Y0054236D01*
X0075887Y0054263D01*
X0075850Y0054286D01*
X0075811Y0054306D01*
X0075771Y0054323D01*
X0075729Y0054336D01*
X0075687Y0054345D01*
X0075644Y0054351D01*
X0075600Y0054353D01*
X0069600Y0054353D01*
X0069556Y0054351D01*
X0069513Y0054345D01*
X0069471Y0054336D01*
X0069429Y0054323D01*
X0069389Y0054306D01*
X0069350Y0054286D01*
X0069313Y0054263D01*
X0069279Y0054236D01*
X0069246Y0054207D01*
X0069217Y0054174D01*
X0069190Y0054140D01*
X0069167Y0054103D01*
X0069147Y0054064D01*
X0069130Y0054024D01*
X0069117Y0053982D01*
X0069108Y0053940D01*
X0069102Y0053897D01*
X0069100Y0053853D01*
X0098858Y0046653D02*
X0100626Y0048420D01*
X0100626Y0048421D02*
X0100659Y0048450D01*
X0100693Y0048477D01*
X0100730Y0048500D01*
X0100769Y0048520D01*
X0100809Y0048537D01*
X0100851Y0048550D01*
X0100893Y0048559D01*
X0100936Y0048565D01*
X0100980Y0048567D01*
X0101024Y0048565D01*
X0101067Y0048559D01*
X0101109Y0048550D01*
X0101151Y0048537D01*
X0101191Y0048520D01*
X0101230Y0048500D01*
X0101267Y0048477D01*
X0101301Y0048450D01*
X0101334Y0048421D01*
X0101333Y0048420D02*
X0105576Y0044178D01*
X0105605Y0044145D01*
X0105632Y0044111D01*
X0105655Y0044074D01*
X0105675Y0044035D01*
X0105692Y0043995D01*
X0105705Y0043953D01*
X0105714Y0043911D01*
X0105720Y0043868D01*
X0105722Y0043824D01*
X0105720Y0043780D01*
X0105714Y0043737D01*
X0105705Y0043695D01*
X0105692Y0043653D01*
X0105675Y0043613D01*
X0105655Y0043574D01*
X0105632Y0043537D01*
X0105605Y0043503D01*
X0105576Y0043470D01*
X0105576Y0043471D02*
X0103808Y0041703D01*
X0103809Y0041703D02*
X0103776Y0041674D01*
X0103742Y0041647D01*
X0103705Y0041624D01*
X0103666Y0041604D01*
X0103626Y0041587D01*
X0103584Y0041574D01*
X0103542Y0041565D01*
X0103499Y0041559D01*
X0103455Y0041557D01*
X0103411Y0041559D01*
X0103368Y0041565D01*
X0103326Y0041574D01*
X0103284Y0041587D01*
X0103244Y0041604D01*
X0103205Y0041624D01*
X0103168Y0041647D01*
X0103134Y0041674D01*
X0103101Y0041703D01*
X0098858Y0045946D01*
X0098858Y0045945D02*
X0098829Y0045978D01*
X0098802Y0046012D01*
X0098779Y0046049D01*
X0098759Y0046088D01*
X0098742Y0046128D01*
X0098729Y0046170D01*
X0098720Y0046212D01*
X0098714Y0046255D01*
X0098712Y0046299D01*
X0098714Y0046343D01*
X0098720Y0046386D01*
X0098729Y0046428D01*
X0098742Y0046470D01*
X0098759Y0046510D01*
X0098779Y0046549D01*
X0098802Y0046586D01*
X0098829Y0046620D01*
X0098858Y0046653D01*
X0106800Y0044053D02*
X0106800Y0041553D01*
X0106802Y0041509D01*
X0106808Y0041466D01*
X0106817Y0041424D01*
X0106830Y0041382D01*
X0106847Y0041342D01*
X0106867Y0041303D01*
X0106890Y0041266D01*
X0106917Y0041232D01*
X0106946Y0041199D01*
X0106979Y0041170D01*
X0107013Y0041143D01*
X0107050Y0041120D01*
X0107089Y0041100D01*
X0107129Y0041083D01*
X0107171Y0041070D01*
X0107213Y0041061D01*
X0107256Y0041055D01*
X0107300Y0041053D01*
X0113300Y0041053D01*
X0113344Y0041055D01*
X0113387Y0041061D01*
X0113429Y0041070D01*
X0113471Y0041083D01*
X0113511Y0041100D01*
X0113550Y0041120D01*
X0113587Y0041143D01*
X0113621Y0041170D01*
X0113654Y0041199D01*
X0113683Y0041232D01*
X0113710Y0041266D01*
X0113733Y0041303D01*
X0113753Y0041342D01*
X0113770Y0041382D01*
X0113783Y0041424D01*
X0113792Y0041466D01*
X0113798Y0041509D01*
X0113800Y0041553D01*
X0113800Y0044053D01*
X0113798Y0044097D01*
X0113792Y0044140D01*
X0113783Y0044182D01*
X0113770Y0044224D01*
X0113753Y0044264D01*
X0113733Y0044303D01*
X0113710Y0044340D01*
X0113683Y0044374D01*
X0113654Y0044407D01*
X0113621Y0044436D01*
X0113587Y0044463D01*
X0113550Y0044486D01*
X0113511Y0044506D01*
X0113471Y0044523D01*
X0113429Y0044536D01*
X0113387Y0044545D01*
X0113344Y0044551D01*
X0113300Y0044553D01*
X0107300Y0044553D01*
X0107256Y0044551D01*
X0107213Y0044545D01*
X0107171Y0044536D01*
X0107129Y0044523D01*
X0107089Y0044506D01*
X0107050Y0044486D01*
X0107013Y0044463D01*
X0106979Y0044436D01*
X0106946Y0044407D01*
X0106917Y0044374D01*
X0106890Y0044340D01*
X0106867Y0044303D01*
X0106847Y0044264D01*
X0106830Y0044224D01*
X0106817Y0044182D01*
X0106808Y0044140D01*
X0106802Y0044097D01*
X0106800Y0044053D01*
X0114500Y0044153D02*
X0114500Y0041653D01*
X0114502Y0041609D01*
X0114508Y0041566D01*
X0114517Y0041524D01*
X0114530Y0041482D01*
X0114547Y0041442D01*
X0114567Y0041403D01*
X0114590Y0041366D01*
X0114617Y0041332D01*
X0114646Y0041299D01*
X0114679Y0041270D01*
X0114713Y0041243D01*
X0114750Y0041220D01*
X0114789Y0041200D01*
X0114829Y0041183D01*
X0114871Y0041170D01*
X0114913Y0041161D01*
X0114956Y0041155D01*
X0115000Y0041153D01*
X0121000Y0041153D01*
X0121044Y0041155D01*
X0121087Y0041161D01*
X0121129Y0041170D01*
X0121171Y0041183D01*
X0121211Y0041200D01*
X0121250Y0041220D01*
X0121287Y0041243D01*
X0121321Y0041270D01*
X0121354Y0041299D01*
X0121383Y0041332D01*
X0121410Y0041366D01*
X0121433Y0041403D01*
X0121453Y0041442D01*
X0121470Y0041482D01*
X0121483Y0041524D01*
X0121492Y0041566D01*
X0121498Y0041609D01*
X0121500Y0041653D01*
X0121500Y0044153D01*
X0121498Y0044197D01*
X0121492Y0044240D01*
X0121483Y0044282D01*
X0121470Y0044324D01*
X0121453Y0044364D01*
X0121433Y0044403D01*
X0121410Y0044440D01*
X0121383Y0044474D01*
X0121354Y0044507D01*
X0121321Y0044536D01*
X0121287Y0044563D01*
X0121250Y0044586D01*
X0121211Y0044606D01*
X0121171Y0044623D01*
X0121129Y0044636D01*
X0121087Y0044645D01*
X0121044Y0044651D01*
X0121000Y0044653D01*
X0115000Y0044653D01*
X0114956Y0044651D01*
X0114913Y0044645D01*
X0114871Y0044636D01*
X0114829Y0044623D01*
X0114789Y0044606D01*
X0114750Y0044586D01*
X0114713Y0044563D01*
X0114679Y0044536D01*
X0114646Y0044507D01*
X0114617Y0044474D01*
X0114590Y0044440D01*
X0114567Y0044403D01*
X0114547Y0044364D01*
X0114530Y0044324D01*
X0114517Y0044282D01*
X0114508Y0044240D01*
X0114502Y0044197D01*
X0114500Y0044153D01*
X0125012Y0041356D02*
X0129255Y0045598D01*
X0129254Y0045599D02*
X0129287Y0045628D01*
X0129321Y0045655D01*
X0129358Y0045678D01*
X0129397Y0045698D01*
X0129437Y0045715D01*
X0129479Y0045728D01*
X0129521Y0045737D01*
X0129564Y0045743D01*
X0129608Y0045745D01*
X0129652Y0045743D01*
X0129695Y0045737D01*
X0129737Y0045728D01*
X0129779Y0045715D01*
X0129819Y0045698D01*
X0129858Y0045678D01*
X0129895Y0045655D01*
X0129929Y0045628D01*
X0129962Y0045599D01*
X0129962Y0045598D02*
X0131729Y0043831D01*
X0131730Y0043831D02*
X0131759Y0043798D01*
X0131786Y0043764D01*
X0131809Y0043727D01*
X0131829Y0043688D01*
X0131846Y0043648D01*
X0131859Y0043606D01*
X0131868Y0043564D01*
X0131874Y0043521D01*
X0131876Y0043477D01*
X0131874Y0043433D01*
X0131868Y0043390D01*
X0131859Y0043348D01*
X0131846Y0043306D01*
X0131829Y0043266D01*
X0131809Y0043227D01*
X0131786Y0043190D01*
X0131759Y0043156D01*
X0131730Y0043123D01*
X0131729Y0043123D02*
X0127487Y0038881D01*
X0127487Y0038880D02*
X0127454Y0038851D01*
X0127420Y0038824D01*
X0127383Y0038801D01*
X0127344Y0038781D01*
X0127304Y0038764D01*
X0127262Y0038751D01*
X0127220Y0038742D01*
X0127177Y0038736D01*
X0127133Y0038734D01*
X0127089Y0038736D01*
X0127046Y0038742D01*
X0127004Y0038751D01*
X0126962Y0038764D01*
X0126922Y0038781D01*
X0126883Y0038801D01*
X0126846Y0038824D01*
X0126812Y0038851D01*
X0126779Y0038880D01*
X0126780Y0038881D02*
X0125012Y0040649D01*
X0125012Y0040648D02*
X0124983Y0040681D01*
X0124956Y0040715D01*
X0124933Y0040752D01*
X0124913Y0040791D01*
X0124896Y0040831D01*
X0124883Y0040873D01*
X0124874Y0040915D01*
X0124868Y0040958D01*
X0124866Y0041002D01*
X0124868Y0041046D01*
X0124874Y0041089D01*
X0124883Y0041131D01*
X0124896Y0041173D01*
X0124913Y0041213D01*
X0124933Y0041252D01*
X0124956Y0041289D01*
X0124983Y0041323D01*
X0125012Y0041356D01*
X0137150Y0042503D02*
X0137150Y0036503D01*
X0137152Y0036459D01*
X0137158Y0036416D01*
X0137167Y0036374D01*
X0137180Y0036332D01*
X0137197Y0036292D01*
X0137217Y0036253D01*
X0137240Y0036216D01*
X0137267Y0036182D01*
X0137296Y0036149D01*
X0137329Y0036120D01*
X0137363Y0036093D01*
X0137400Y0036070D01*
X0137439Y0036050D01*
X0137479Y0036033D01*
X0137521Y0036020D01*
X0137563Y0036011D01*
X0137606Y0036005D01*
X0137650Y0036003D01*
X0140150Y0036003D01*
X0140194Y0036005D01*
X0140237Y0036011D01*
X0140279Y0036020D01*
X0140321Y0036033D01*
X0140361Y0036050D01*
X0140400Y0036070D01*
X0140437Y0036093D01*
X0140471Y0036120D01*
X0140504Y0036149D01*
X0140533Y0036182D01*
X0140560Y0036216D01*
X0140583Y0036253D01*
X0140603Y0036292D01*
X0140620Y0036332D01*
X0140633Y0036374D01*
X0140642Y0036416D01*
X0140648Y0036459D01*
X0140650Y0036503D01*
X0140650Y0042503D01*
X0140648Y0042547D01*
X0140642Y0042590D01*
X0140633Y0042632D01*
X0140620Y0042674D01*
X0140603Y0042714D01*
X0140583Y0042753D01*
X0140560Y0042790D01*
X0140533Y0042824D01*
X0140504Y0042857D01*
X0140471Y0042886D01*
X0140437Y0042913D01*
X0140400Y0042936D01*
X0140361Y0042956D01*
X0140321Y0042973D01*
X0140279Y0042986D01*
X0140237Y0042995D01*
X0140194Y0043001D01*
X0140150Y0043003D01*
X0137650Y0043003D01*
X0137606Y0043001D01*
X0137563Y0042995D01*
X0137521Y0042986D01*
X0137479Y0042973D01*
X0137439Y0042956D01*
X0137400Y0042936D01*
X0137363Y0042913D01*
X0137329Y0042886D01*
X0137296Y0042857D01*
X0137267Y0042824D01*
X0137240Y0042790D01*
X0137217Y0042753D01*
X0137197Y0042714D01*
X0137180Y0042674D01*
X0137167Y0042632D01*
X0137158Y0042590D01*
X0137152Y0042547D01*
X0137150Y0042503D01*
X0141150Y0042703D02*
X0141150Y0036703D01*
X0141152Y0036659D01*
X0141158Y0036616D01*
X0141167Y0036574D01*
X0141180Y0036532D01*
X0141197Y0036492D01*
X0141217Y0036453D01*
X0141240Y0036416D01*
X0141267Y0036382D01*
X0141296Y0036349D01*
X0141329Y0036320D01*
X0141363Y0036293D01*
X0141400Y0036270D01*
X0141439Y0036250D01*
X0141479Y0036233D01*
X0141521Y0036220D01*
X0141563Y0036211D01*
X0141606Y0036205D01*
X0141650Y0036203D01*
X0144150Y0036203D01*
X0144194Y0036205D01*
X0144237Y0036211D01*
X0144279Y0036220D01*
X0144321Y0036233D01*
X0144361Y0036250D01*
X0144400Y0036270D01*
X0144437Y0036293D01*
X0144471Y0036320D01*
X0144504Y0036349D01*
X0144533Y0036382D01*
X0144560Y0036416D01*
X0144583Y0036453D01*
X0144603Y0036492D01*
X0144620Y0036532D01*
X0144633Y0036574D01*
X0144642Y0036616D01*
X0144648Y0036659D01*
X0144650Y0036703D01*
X0144650Y0042703D01*
X0144648Y0042747D01*
X0144642Y0042790D01*
X0144633Y0042832D01*
X0144620Y0042874D01*
X0144603Y0042914D01*
X0144583Y0042953D01*
X0144560Y0042990D01*
X0144533Y0043024D01*
X0144504Y0043057D01*
X0144471Y0043086D01*
X0144437Y0043113D01*
X0144400Y0043136D01*
X0144361Y0043156D01*
X0144321Y0043173D01*
X0144279Y0043186D01*
X0144237Y0043195D01*
X0144194Y0043201D01*
X0144150Y0043203D01*
X0141650Y0043203D01*
X0141606Y0043201D01*
X0141563Y0043195D01*
X0141521Y0043186D01*
X0141479Y0043173D01*
X0141439Y0043156D01*
X0141400Y0043136D01*
X0141363Y0043113D01*
X0141329Y0043086D01*
X0141296Y0043057D01*
X0141267Y0043024D01*
X0141240Y0042990D01*
X0141217Y0042953D01*
X0141197Y0042914D01*
X0141180Y0042874D01*
X0141167Y0042832D01*
X0141158Y0042790D01*
X0141152Y0042747D01*
X0141150Y0042703D01*
X0145250Y0042803D02*
X0145250Y0036803D01*
X0145252Y0036759D01*
X0145258Y0036716D01*
X0145267Y0036674D01*
X0145280Y0036632D01*
X0145297Y0036592D01*
X0145317Y0036553D01*
X0145340Y0036516D01*
X0145367Y0036482D01*
X0145396Y0036449D01*
X0145429Y0036420D01*
X0145463Y0036393D01*
X0145500Y0036370D01*
X0145539Y0036350D01*
X0145579Y0036333D01*
X0145621Y0036320D01*
X0145663Y0036311D01*
X0145706Y0036305D01*
X0145750Y0036303D01*
X0148250Y0036303D01*
X0148294Y0036305D01*
X0148337Y0036311D01*
X0148379Y0036320D01*
X0148421Y0036333D01*
X0148461Y0036350D01*
X0148500Y0036370D01*
X0148537Y0036393D01*
X0148571Y0036420D01*
X0148604Y0036449D01*
X0148633Y0036482D01*
X0148660Y0036516D01*
X0148683Y0036553D01*
X0148703Y0036592D01*
X0148720Y0036632D01*
X0148733Y0036674D01*
X0148742Y0036716D01*
X0148748Y0036759D01*
X0148750Y0036803D01*
X0148750Y0042803D01*
X0148748Y0042847D01*
X0148742Y0042890D01*
X0148733Y0042932D01*
X0148720Y0042974D01*
X0148703Y0043014D01*
X0148683Y0043053D01*
X0148660Y0043090D01*
X0148633Y0043124D01*
X0148604Y0043157D01*
X0148571Y0043186D01*
X0148537Y0043213D01*
X0148500Y0043236D01*
X0148461Y0043256D01*
X0148421Y0043273D01*
X0148379Y0043286D01*
X0148337Y0043295D01*
X0148294Y0043301D01*
X0148250Y0043303D01*
X0145750Y0043303D01*
X0145706Y0043301D01*
X0145663Y0043295D01*
X0145621Y0043286D01*
X0145579Y0043273D01*
X0145539Y0043256D01*
X0145500Y0043236D01*
X0145463Y0043213D01*
X0145429Y0043186D01*
X0145396Y0043157D01*
X0145367Y0043124D01*
X0145340Y0043090D01*
X0145317Y0043053D01*
X0145297Y0043014D01*
X0145280Y0042974D01*
X0145267Y0042932D01*
X0145258Y0042890D01*
X0145252Y0042847D01*
X0145250Y0042803D01*
X0043300Y0033053D02*
X0043300Y0030553D01*
X0043298Y0030509D01*
X0043292Y0030466D01*
X0043283Y0030424D01*
X0043270Y0030382D01*
X0043253Y0030342D01*
X0043233Y0030303D01*
X0043210Y0030266D01*
X0043183Y0030232D01*
X0043154Y0030199D01*
X0043121Y0030170D01*
X0043087Y0030143D01*
X0043050Y0030120D01*
X0043011Y0030100D01*
X0042971Y0030083D01*
X0042929Y0030070D01*
X0042887Y0030061D01*
X0042844Y0030055D01*
X0042800Y0030053D01*
X0036800Y0030053D01*
X0036756Y0030055D01*
X0036713Y0030061D01*
X0036671Y0030070D01*
X0036629Y0030083D01*
X0036589Y0030100D01*
X0036550Y0030120D01*
X0036513Y0030143D01*
X0036479Y0030170D01*
X0036446Y0030199D01*
X0036417Y0030232D01*
X0036390Y0030266D01*
X0036367Y0030303D01*
X0036347Y0030342D01*
X0036330Y0030382D01*
X0036317Y0030424D01*
X0036308Y0030466D01*
X0036302Y0030509D01*
X0036300Y0030553D01*
X0036300Y0033053D01*
X0036302Y0033097D01*
X0036308Y0033140D01*
X0036317Y0033182D01*
X0036330Y0033224D01*
X0036347Y0033264D01*
X0036367Y0033303D01*
X0036390Y0033340D01*
X0036417Y0033374D01*
X0036446Y0033407D01*
X0036479Y0033436D01*
X0036513Y0033463D01*
X0036550Y0033486D01*
X0036589Y0033506D01*
X0036629Y0033523D01*
X0036671Y0033536D01*
X0036713Y0033545D01*
X0036756Y0033551D01*
X0036800Y0033553D01*
X0042800Y0033553D01*
X0042844Y0033551D01*
X0042887Y0033545D01*
X0042929Y0033536D01*
X0042971Y0033523D01*
X0043011Y0033506D01*
X0043050Y0033486D01*
X0043087Y0033463D01*
X0043121Y0033436D01*
X0043154Y0033407D01*
X0043183Y0033374D01*
X0043210Y0033340D01*
X0043233Y0033303D01*
X0043253Y0033264D01*
X0043270Y0033224D01*
X0043283Y0033182D01*
X0043292Y0033140D01*
X0043298Y0033097D01*
X0043300Y0033053D01*
D12*
X0041365Y0029154D02*
X0040814Y0029154D01*
X0040631Y0028971D01*
X0040631Y0028604D01*
X0040814Y0028420D01*
X0041365Y0028420D01*
X0041365Y0028053D02*
X0041365Y0029154D01*
X0040998Y0028420D02*
X0040631Y0028053D01*
X0040260Y0028053D02*
X0039526Y0028787D01*
X0039526Y0028971D01*
X0039709Y0029154D01*
X0040076Y0029154D01*
X0040260Y0028971D01*
X0040260Y0028053D02*
X0039526Y0028053D01*
X0039155Y0028237D02*
X0038971Y0028053D01*
X0038604Y0028053D01*
X0038421Y0028237D01*
X0038421Y0028971D01*
X0038604Y0029154D01*
X0038971Y0029154D01*
X0039155Y0028971D01*
X0039155Y0028787D01*
X0038971Y0028604D01*
X0038421Y0028604D01*
X0071221Y0048653D02*
X0071955Y0048653D01*
X0071588Y0048653D02*
X0071588Y0049754D01*
X0071955Y0049387D01*
X0072326Y0048653D02*
X0073060Y0048653D01*
X0072693Y0048653D02*
X0072693Y0049754D01*
X0073060Y0049387D01*
X0073431Y0049204D02*
X0073614Y0049020D01*
X0074165Y0049020D01*
X0074165Y0048653D02*
X0074165Y0049754D01*
X0073614Y0049754D01*
X0073431Y0049571D01*
X0073431Y0049204D01*
X0073798Y0049020D02*
X0073431Y0048653D01*
X0087050Y0051927D02*
X0087050Y0052294D01*
X0087233Y0052477D01*
X0088151Y0052477D01*
X0087967Y0052848D02*
X0088151Y0053032D01*
X0088151Y0053399D01*
X0087967Y0053582D01*
X0087784Y0053582D01*
X0087600Y0053399D01*
X0087417Y0053582D01*
X0087233Y0053582D01*
X0087050Y0053399D01*
X0087050Y0053032D01*
X0087233Y0052848D01*
X0087600Y0053215D02*
X0087600Y0053399D01*
X0087050Y0051927D02*
X0087233Y0051743D01*
X0088151Y0051743D01*
X0099174Y0051327D02*
X0100275Y0051327D01*
X0100275Y0051878D01*
X0100091Y0052061D01*
X0099724Y0052061D01*
X0099541Y0051878D01*
X0099541Y0051327D01*
X0099174Y0050956D02*
X0100275Y0050956D01*
X0099908Y0050589D01*
X0100275Y0050222D01*
X0099174Y0050222D01*
X0099357Y0052432D02*
X0099174Y0052616D01*
X0099174Y0052983D01*
X0099357Y0053166D01*
X0100275Y0053166D01*
X0099724Y0053537D02*
X0099724Y0054088D01*
X0099541Y0054271D01*
X0099357Y0054271D01*
X0099174Y0054088D01*
X0099174Y0053721D01*
X0099357Y0053537D01*
X0099724Y0053537D01*
X0100091Y0053904D01*
X0100275Y0054271D01*
X0100091Y0054642D02*
X0100275Y0054826D01*
X0100275Y0055193D01*
X0100091Y0055376D01*
X0099357Y0054642D01*
X0099174Y0054826D01*
X0099174Y0055193D01*
X0099357Y0055376D01*
X0100091Y0055376D01*
X0100275Y0055747D02*
X0099724Y0055747D01*
X0099908Y0056114D01*
X0099908Y0056298D01*
X0099724Y0056481D01*
X0099357Y0056481D01*
X0099174Y0056298D01*
X0099174Y0055931D01*
X0099357Y0055747D01*
X0100275Y0055747D02*
X0100275Y0056481D01*
X0100091Y0056852D02*
X0100275Y0057036D01*
X0100275Y0057403D01*
X0100091Y0057586D01*
X0099357Y0056852D01*
X0099174Y0057036D01*
X0099174Y0057403D01*
X0099357Y0057586D01*
X0100091Y0057586D01*
X0099724Y0057957D02*
X0099724Y0058691D01*
X0099908Y0059062D02*
X0100275Y0059429D01*
X0099174Y0059429D01*
X0099174Y0059062D02*
X0099174Y0059796D01*
X0098562Y0060551D02*
X0097783Y0061330D01*
X0098302Y0061330D01*
X0098435Y0061722D02*
X0098435Y0061982D01*
X0098694Y0062241D01*
X0098954Y0062241D01*
X0099473Y0061722D01*
X0099473Y0061463D01*
X0099213Y0061203D01*
X0098954Y0061203D01*
X0098821Y0060811D02*
X0098302Y0060292D01*
X0098040Y0060030D02*
X0097002Y0060030D01*
X0096872Y0060159D01*
X0096872Y0060419D01*
X0097132Y0060678D01*
X0097391Y0060678D01*
X0098040Y0060030D02*
X0097521Y0059511D01*
X0099357Y0056852D02*
X0100091Y0056852D01*
X0100091Y0054642D02*
X0099357Y0054642D01*
X0099357Y0052432D02*
X0100275Y0052432D01*
X0100036Y0044038D02*
X0099776Y0044038D01*
X0099647Y0043908D01*
X0099647Y0043649D01*
X0099387Y0043649D01*
X0099257Y0043519D01*
X0099257Y0043260D01*
X0099517Y0043000D01*
X0099776Y0043000D01*
X0099909Y0042608D02*
X0100428Y0042089D01*
X0100428Y0043127D01*
X0100558Y0043257D01*
X0100817Y0043257D01*
X0101077Y0042997D01*
X0101077Y0042738D01*
X0101339Y0042475D02*
X0101080Y0042216D01*
X0101080Y0041956D01*
X0101469Y0041567D01*
X0101209Y0041308D02*
X0101988Y0042086D01*
X0101599Y0042475D01*
X0101339Y0042475D01*
X0101209Y0041827D02*
X0100690Y0041827D01*
X0100295Y0043519D02*
X0100295Y0043779D01*
X0100036Y0044038D01*
X0099647Y0043649D02*
X0099776Y0043519D01*
X0108921Y0039971D02*
X0109104Y0040154D01*
X0109471Y0040154D01*
X0109655Y0039971D01*
X0110026Y0039971D02*
X0110209Y0040154D01*
X0110576Y0040154D01*
X0110760Y0039971D01*
X0111131Y0039971D02*
X0111131Y0039604D01*
X0111314Y0039420D01*
X0111865Y0039420D01*
X0111865Y0039053D02*
X0111865Y0040154D01*
X0111314Y0040154D01*
X0111131Y0039971D01*
X0111498Y0039420D02*
X0111131Y0039053D01*
X0110760Y0039053D02*
X0110026Y0039787D01*
X0110026Y0039971D01*
X0110026Y0039053D02*
X0110760Y0039053D01*
X0109655Y0039053D02*
X0108921Y0039787D01*
X0108921Y0039971D01*
X0108921Y0039053D02*
X0109655Y0039053D01*
X0116406Y0039237D02*
X0116590Y0039053D01*
X0116957Y0039053D01*
X0117140Y0039237D01*
X0117140Y0039604D02*
X0116773Y0039787D01*
X0116590Y0039787D01*
X0116406Y0039604D01*
X0116406Y0039237D01*
X0117140Y0039604D02*
X0117140Y0040154D01*
X0116406Y0040154D01*
X0117878Y0040154D02*
X0117878Y0039053D01*
X0118245Y0039053D02*
X0117511Y0039053D01*
X0118245Y0039787D02*
X0117878Y0040154D01*
X0118616Y0039971D02*
X0118800Y0040154D01*
X0119167Y0040154D01*
X0119350Y0039971D01*
X0119350Y0039237D01*
X0119167Y0039053D01*
X0118800Y0039053D01*
X0118616Y0039237D01*
X0131049Y0046181D02*
X0131827Y0045402D01*
X0132086Y0045662D02*
X0131567Y0045143D01*
X0131567Y0046181D02*
X0131049Y0046181D01*
X0131700Y0046573D02*
X0131960Y0046313D01*
X0132219Y0046313D01*
X0132608Y0046702D01*
X0132349Y0046443D02*
X0132349Y0045924D01*
X0132868Y0046443D02*
X0132089Y0047221D01*
X0131700Y0046832D01*
X0131700Y0046573D01*
X0139550Y0046513D02*
X0139550Y0046147D01*
X0139733Y0045963D01*
X0140100Y0045963D01*
X0140100Y0046513D01*
X0139917Y0046697D01*
X0139733Y0046697D01*
X0139550Y0046513D01*
X0140100Y0045963D02*
X0140467Y0046330D01*
X0140651Y0046697D01*
X0139550Y0045592D02*
X0139550Y0044858D01*
X0139550Y0045225D02*
X0140651Y0045225D01*
X0140284Y0044858D01*
X0140467Y0044487D02*
X0140100Y0044487D01*
X0139917Y0044304D01*
X0139917Y0043753D01*
X0139550Y0043753D02*
X0140651Y0043753D01*
X0140651Y0044304D01*
X0140467Y0044487D01*
X0139917Y0044120D02*
X0139550Y0044487D01*
X0142950Y0044472D02*
X0143317Y0044105D01*
X0143317Y0044289D02*
X0143317Y0043738D01*
X0142950Y0043738D02*
X0144051Y0043738D01*
X0144051Y0044289D01*
X0143867Y0044472D01*
X0143500Y0044472D01*
X0143317Y0044289D01*
X0143684Y0044843D02*
X0144051Y0045210D01*
X0142950Y0045210D01*
X0142950Y0044843D02*
X0142950Y0045577D01*
X0143133Y0045948D02*
X0143317Y0045948D01*
X0143500Y0046132D01*
X0143500Y0046499D01*
X0143317Y0046682D01*
X0143133Y0046682D01*
X0142950Y0046499D01*
X0142950Y0046132D01*
X0143133Y0045948D01*
X0143500Y0046132D02*
X0143684Y0045948D01*
X0143867Y0045948D01*
X0144051Y0046132D01*
X0144051Y0046499D01*
X0143867Y0046682D01*
X0143684Y0046682D01*
X0143500Y0046499D01*
X0146850Y0046648D02*
X0147033Y0046648D01*
X0147767Y0047382D01*
X0147951Y0047382D01*
X0147951Y0046648D01*
X0147951Y0045910D02*
X0146850Y0045910D01*
X0146850Y0045543D02*
X0146850Y0046277D01*
X0147584Y0045543D02*
X0147951Y0045910D01*
X0147767Y0045172D02*
X0147400Y0045172D01*
X0147217Y0044989D01*
X0147217Y0044438D01*
X0146850Y0044438D02*
X0147951Y0044438D01*
X0147951Y0044989D01*
X0147767Y0045172D01*
X0147217Y0044805D02*
X0146850Y0045172D01*
X0149682Y0055553D02*
X0150415Y0055553D01*
X0150048Y0055553D02*
X0150048Y0056654D01*
X0150415Y0056287D01*
X0150786Y0056104D02*
X0151520Y0056104D01*
X0151891Y0056287D02*
X0151891Y0056471D01*
X0152075Y0056654D01*
X0152442Y0056654D01*
X0152625Y0056471D01*
X0151891Y0056287D02*
X0152625Y0055553D01*
X0151891Y0055553D01*
X0152996Y0055553D02*
X0153730Y0055553D01*
X0153363Y0055553D02*
X0153363Y0056654D01*
X0153730Y0056287D01*
X0154101Y0056104D02*
X0154835Y0056104D01*
X0155206Y0056471D02*
X0155390Y0056654D01*
X0155757Y0056654D01*
X0155940Y0056471D01*
X0155940Y0055737D01*
X0155757Y0055553D01*
X0155390Y0055553D01*
X0155206Y0055737D01*
X0156311Y0056104D02*
X0156495Y0055920D01*
X0157045Y0055920D01*
X0157045Y0055553D02*
X0157045Y0056654D01*
X0156495Y0056654D01*
X0156311Y0056471D01*
X0156311Y0056104D01*
X0157416Y0056654D02*
X0158150Y0056654D01*
X0158150Y0055553D01*
X0158150Y0056104D02*
X0157783Y0056104D01*
X0128960Y0063253D02*
X0128960Y0064354D01*
X0128409Y0064354D01*
X0128226Y0064171D01*
X0128226Y0063804D01*
X0128409Y0063620D01*
X0128960Y0063620D01*
X0128593Y0063620D02*
X0128226Y0063253D01*
X0127855Y0063253D02*
X0127121Y0063987D01*
X0127121Y0064171D01*
X0127304Y0064354D01*
X0127671Y0064354D01*
X0127855Y0064171D01*
X0127855Y0063253D02*
X0127121Y0063253D01*
X0127500Y0058297D02*
X0127500Y0057563D01*
X0128051Y0058113D01*
X0126950Y0058113D01*
X0126950Y0057192D02*
X0126950Y0056458D01*
X0126950Y0056825D02*
X0128051Y0056825D01*
X0127684Y0056458D01*
X0127867Y0056087D02*
X0128051Y0055904D01*
X0128051Y0055537D01*
X0127867Y0055353D01*
X0127133Y0055353D01*
X0126950Y0055537D01*
X0126950Y0055904D01*
X0127133Y0056087D01*
X0116667Y0069653D02*
X0116300Y0069653D01*
X0116116Y0069837D01*
X0115745Y0069653D02*
X0115011Y0069653D01*
X0115378Y0069653D02*
X0115378Y0070754D01*
X0115745Y0070387D01*
X0116116Y0070571D02*
X0116300Y0070754D01*
X0116667Y0070754D01*
X0116850Y0070571D01*
X0116850Y0069837D01*
X0116667Y0069653D01*
X0114640Y0069837D02*
X0114457Y0069653D01*
X0114090Y0069653D01*
X0113906Y0069837D01*
X0113906Y0070020D01*
X0114090Y0070204D01*
X0114273Y0070204D01*
X0114090Y0070204D02*
X0113906Y0070387D01*
X0113906Y0070571D01*
X0114090Y0070754D01*
X0114457Y0070754D01*
X0114640Y0070571D01*
X0092550Y0070753D02*
X0092550Y0071854D01*
X0092000Y0071854D01*
X0091816Y0071671D01*
X0091816Y0071304D01*
X0092000Y0071120D01*
X0092550Y0071120D01*
X0092183Y0071120D02*
X0091816Y0070753D01*
X0091445Y0070753D02*
X0090711Y0071487D01*
X0090711Y0071671D01*
X0090895Y0071854D01*
X0091262Y0071854D01*
X0091445Y0071671D01*
X0091445Y0070753D02*
X0090711Y0070753D01*
X0090340Y0070937D02*
X0090157Y0070753D01*
X0089790Y0070753D01*
X0089606Y0070937D01*
X0089606Y0071304D01*
X0089790Y0071487D01*
X0089973Y0071487D01*
X0090340Y0071304D01*
X0090340Y0071854D01*
X0089606Y0071854D01*
X0087951Y0072543D02*
X0087033Y0072543D01*
X0086850Y0072727D01*
X0086850Y0073094D01*
X0087033Y0073277D01*
X0087951Y0073277D01*
X0087584Y0073648D02*
X0087951Y0074015D01*
X0086850Y0074015D01*
X0086850Y0073648D02*
X0086850Y0074382D01*
X0084050Y0066054D02*
X0083500Y0066054D01*
X0083316Y0065871D01*
X0083316Y0065504D01*
X0083500Y0065320D01*
X0084050Y0065320D01*
X0084050Y0064953D02*
X0084050Y0066054D01*
X0083683Y0065320D02*
X0083316Y0064953D01*
X0082945Y0065137D02*
X0082762Y0064953D01*
X0082395Y0064953D01*
X0082211Y0065137D01*
X0082211Y0065320D01*
X0082395Y0065504D01*
X0082578Y0065504D01*
X0082395Y0065504D02*
X0082211Y0065687D01*
X0082211Y0065871D01*
X0082395Y0066054D01*
X0082762Y0066054D01*
X0082945Y0065871D01*
X0078365Y0060954D02*
X0077814Y0060954D01*
X0077631Y0060771D01*
X0077631Y0060404D01*
X0077814Y0060220D01*
X0078365Y0060220D01*
X0078365Y0059853D02*
X0078365Y0060954D01*
X0077998Y0060220D02*
X0077631Y0059853D01*
X0077260Y0059853D02*
X0076526Y0059853D01*
X0076893Y0059853D02*
X0076893Y0060954D01*
X0077260Y0060587D01*
X0076155Y0060587D02*
X0075971Y0060404D01*
X0075421Y0060404D01*
X0075421Y0060771D02*
X0075604Y0060954D01*
X0075971Y0060954D01*
X0076155Y0060771D01*
X0076155Y0060587D01*
X0076155Y0060037D02*
X0075971Y0059853D01*
X0075604Y0059853D01*
X0075421Y0060037D01*
X0075421Y0060771D01*
X0068465Y0060954D02*
X0068465Y0060037D01*
X0068281Y0059853D01*
X0067914Y0059853D01*
X0067731Y0060037D01*
X0067731Y0060954D01*
X0067360Y0060771D02*
X0067176Y0060954D01*
X0066809Y0060954D01*
X0066626Y0060771D01*
X0066809Y0060404D02*
X0067176Y0060404D01*
X0067360Y0060587D01*
X0067360Y0060771D01*
X0066993Y0061138D02*
X0066993Y0059670D01*
X0067176Y0059853D02*
X0066809Y0059853D01*
X0066626Y0060037D01*
X0066626Y0060220D01*
X0066809Y0060404D01*
X0066255Y0060587D02*
X0065888Y0060954D01*
X0065888Y0059853D01*
X0066255Y0059853D02*
X0065521Y0059853D01*
X0067176Y0059853D02*
X0067360Y0060037D01*
X0060251Y0059922D02*
X0060067Y0059738D01*
X0059333Y0059738D01*
X0059150Y0059922D01*
X0059150Y0060289D01*
X0059333Y0060472D01*
X0059150Y0060843D02*
X0059150Y0061577D01*
X0059150Y0061210D02*
X0060251Y0061210D01*
X0059884Y0060843D01*
X0060067Y0060472D02*
X0060251Y0060289D01*
X0060251Y0059922D01*
X0059884Y0061948D02*
X0060251Y0062315D01*
X0059150Y0062315D01*
X0059150Y0061948D02*
X0059150Y0062682D01*
X0055351Y0060099D02*
X0055167Y0060282D01*
X0054984Y0060282D01*
X0054800Y0060099D01*
X0054800Y0059732D01*
X0054984Y0059548D01*
X0055167Y0059548D01*
X0055351Y0059732D01*
X0055351Y0060099D01*
X0054800Y0060099D02*
X0054617Y0060282D01*
X0054433Y0060282D01*
X0054250Y0060099D01*
X0054250Y0059732D01*
X0054433Y0059548D01*
X0054617Y0059548D01*
X0054800Y0059732D01*
X0054433Y0059177D02*
X0054250Y0058994D01*
X0054250Y0058627D01*
X0054433Y0058443D01*
X0055167Y0058443D01*
X0055351Y0058627D01*
X0055351Y0058994D01*
X0055167Y0059177D01*
X0056706Y0055254D02*
X0057440Y0055254D01*
X0057440Y0054704D01*
X0057073Y0054887D01*
X0056890Y0054887D01*
X0056706Y0054704D01*
X0056706Y0054337D01*
X0056890Y0054153D01*
X0057257Y0054153D01*
X0057440Y0054337D01*
X0057811Y0054153D02*
X0058545Y0054153D01*
X0058178Y0054153D02*
X0058178Y0055254D01*
X0058545Y0054887D01*
X0058916Y0054704D02*
X0059100Y0054520D01*
X0059650Y0054520D01*
X0059650Y0054153D02*
X0059650Y0055254D01*
X0059100Y0055254D01*
X0058916Y0055071D01*
X0058916Y0054704D01*
X0059283Y0054520D02*
X0058916Y0054153D01*
X0040165Y0055353D02*
X0040165Y0056454D01*
X0039614Y0056454D01*
X0039431Y0056271D01*
X0039431Y0055904D01*
X0039614Y0055720D01*
X0040165Y0055720D01*
X0039798Y0055720D02*
X0039431Y0055353D01*
X0039060Y0055353D02*
X0038326Y0055353D01*
X0038693Y0055353D02*
X0038693Y0056454D01*
X0039060Y0056087D01*
X0037955Y0055904D02*
X0037221Y0055904D01*
X0037404Y0056454D02*
X0037955Y0055904D01*
X0037404Y0056454D02*
X0037404Y0055353D01*
X0037257Y0058553D02*
X0037440Y0058737D01*
X0037257Y0058553D02*
X0036890Y0058553D01*
X0036706Y0058737D01*
X0036706Y0058920D01*
X0036890Y0059104D01*
X0037073Y0059104D01*
X0036890Y0059104D02*
X0036706Y0059287D01*
X0036706Y0059471D01*
X0036890Y0059654D01*
X0037257Y0059654D01*
X0037440Y0059471D01*
X0038178Y0059654D02*
X0038178Y0058553D01*
X0038545Y0058553D02*
X0037811Y0058553D01*
X0038545Y0059287D02*
X0038178Y0059654D01*
X0038916Y0059471D02*
X0038916Y0059104D01*
X0039100Y0058920D01*
X0039650Y0058920D01*
X0039650Y0058553D02*
X0039650Y0059654D01*
X0039100Y0059654D01*
X0038916Y0059471D01*
X0039283Y0058920D02*
X0038916Y0058553D01*
X0039190Y0063553D02*
X0039190Y0064654D01*
X0038639Y0064654D01*
X0038456Y0064471D01*
X0038456Y0064104D01*
X0038639Y0063920D01*
X0039190Y0063920D01*
X0039561Y0063737D02*
X0039744Y0063553D01*
X0040111Y0063553D01*
X0040295Y0063737D01*
X0040295Y0064471D01*
X0040111Y0064654D01*
X0039744Y0064654D01*
X0039561Y0064471D01*
X0040665Y0064654D02*
X0040665Y0063553D01*
X0041399Y0063553D02*
X0041399Y0064654D01*
X0041032Y0064287D01*
X0040665Y0064654D01*
X0038085Y0064654D02*
X0037351Y0064654D01*
X0037351Y0064471D01*
X0038085Y0063737D01*
X0038085Y0063553D01*
X0036980Y0063737D02*
X0036796Y0063553D01*
X0036429Y0063553D01*
X0036246Y0063737D01*
X0036246Y0063920D01*
X0036429Y0064104D01*
X0036613Y0064104D01*
X0036429Y0064104D02*
X0036246Y0064287D01*
X0036246Y0064471D01*
X0036429Y0064654D01*
X0036796Y0064654D01*
X0036980Y0064471D01*
X0035875Y0064471D02*
X0035875Y0064287D01*
X0035691Y0064104D01*
X0035324Y0064104D01*
X0035141Y0063920D01*
X0035141Y0063737D01*
X0035324Y0063553D01*
X0035691Y0063553D01*
X0035875Y0063737D01*
X0035875Y0063920D01*
X0035691Y0064104D01*
X0035324Y0064104D02*
X0035141Y0064287D01*
X0035141Y0064471D01*
X0035324Y0064654D01*
X0035691Y0064654D01*
X0035875Y0064471D01*
X0034770Y0064471D02*
X0034586Y0064654D01*
X0034219Y0064654D01*
X0034036Y0064471D01*
X0034036Y0064287D01*
X0034219Y0064104D01*
X0034036Y0063920D01*
X0034036Y0063737D01*
X0034219Y0063553D01*
X0034586Y0063553D01*
X0034770Y0063737D01*
X0034403Y0064104D02*
X0034219Y0064104D01*
X0033665Y0064287D02*
X0033298Y0064654D01*
X0033298Y0063553D01*
X0033665Y0063553D02*
X0032931Y0063553D01*
X0032560Y0064104D02*
X0031826Y0064104D01*
X0031455Y0064287D02*
X0031088Y0064654D01*
X0031088Y0063553D01*
X0031455Y0063553D02*
X0030721Y0063553D01*
X0033050Y0069143D02*
X0034151Y0069143D01*
X0034151Y0069694D01*
X0033967Y0069877D01*
X0033600Y0069877D01*
X0033417Y0069694D01*
X0033417Y0069143D01*
X0033417Y0069510D02*
X0033050Y0069877D01*
X0033600Y0070248D02*
X0033600Y0070982D01*
X0033050Y0070799D02*
X0034151Y0070799D01*
X0033600Y0070248D01*
X0057250Y0071937D02*
X0057250Y0072304D01*
X0057433Y0072487D01*
X0057433Y0072858D02*
X0057250Y0073042D01*
X0057250Y0073409D01*
X0057433Y0073592D01*
X0058167Y0073592D01*
X0058351Y0073409D01*
X0058351Y0073042D01*
X0058167Y0072858D01*
X0057984Y0072858D01*
X0057800Y0073042D01*
X0057800Y0073592D01*
X0058167Y0072487D02*
X0058351Y0072304D01*
X0058351Y0071937D01*
X0058167Y0071753D01*
X0057433Y0071753D01*
X0057250Y0071937D01*
X0059706Y0072753D02*
X0060440Y0072753D01*
X0060073Y0072753D02*
X0060073Y0073854D01*
X0060440Y0073487D01*
X0060811Y0073487D02*
X0060811Y0073671D01*
X0060995Y0073854D01*
X0061362Y0073854D01*
X0061545Y0073671D01*
X0061916Y0073671D02*
X0061916Y0073304D01*
X0062100Y0073120D01*
X0062650Y0073120D01*
X0062650Y0072753D02*
X0062650Y0073854D01*
X0062100Y0073854D01*
X0061916Y0073671D01*
X0062283Y0073120D02*
X0061916Y0072753D01*
X0061545Y0072753D02*
X0060811Y0073487D01*
X0060811Y0072753D02*
X0061545Y0072753D01*
X0067406Y0073037D02*
X0067590Y0072853D01*
X0067957Y0072853D01*
X0068140Y0073037D01*
X0067406Y0073771D01*
X0067406Y0073037D01*
X0067406Y0073771D02*
X0067590Y0073954D01*
X0067957Y0073954D01*
X0068140Y0073771D01*
X0068140Y0073037D01*
X0068511Y0072853D02*
X0069245Y0072853D01*
X0068878Y0072853D02*
X0068878Y0073954D01*
X0069245Y0073587D01*
X0069616Y0073771D02*
X0069800Y0073954D01*
X0070167Y0073954D01*
X0070350Y0073771D01*
X0070350Y0073037D01*
X0070167Y0072853D01*
X0069800Y0072853D01*
X0069616Y0073037D01*
X0071833Y0070382D02*
X0071650Y0070199D01*
X0071650Y0069832D01*
X0071833Y0069648D01*
X0072567Y0070382D01*
X0071833Y0070382D01*
X0071833Y0069648D02*
X0072567Y0069648D01*
X0072751Y0069832D01*
X0072751Y0070199D01*
X0072567Y0070382D01*
X0072567Y0069277D02*
X0072751Y0069094D01*
X0072751Y0068727D01*
X0072567Y0068543D01*
X0072567Y0068172D02*
X0072200Y0068172D01*
X0072017Y0067989D01*
X0072017Y0067438D01*
X0071650Y0067438D02*
X0072751Y0067438D01*
X0072751Y0067989D01*
X0072567Y0068172D01*
X0072017Y0067805D02*
X0071650Y0068172D01*
X0071650Y0068543D02*
X0072384Y0069277D01*
X0072567Y0069277D01*
X0071650Y0069277D02*
X0071650Y0068543D01*
X0035850Y0051154D02*
X0035850Y0050053D01*
X0035850Y0050420D02*
X0035300Y0050420D01*
X0035116Y0050604D01*
X0035116Y0050971D01*
X0035300Y0051154D01*
X0035850Y0051154D01*
X0035483Y0050420D02*
X0035116Y0050053D01*
X0034745Y0050237D02*
X0034562Y0050053D01*
X0034195Y0050053D01*
X0034011Y0050237D01*
X0034011Y0050971D01*
X0034195Y0051154D01*
X0034562Y0051154D01*
X0034745Y0050971D01*
X0034745Y0050787D01*
X0034562Y0050604D01*
X0034011Y0050604D01*
D13*
X0132261Y0058343D02*
X0132261Y0074091D01*
X0155096Y0074091D01*
X0155096Y0058343D01*
X0132261Y0058343D01*
D14*
X0052002Y0067409D02*
X0051828Y0067409D01*
X0052002Y0067409D02*
X0052002Y0073197D01*
X0051828Y0073197D01*
X0048655Y0073197D02*
X0048285Y0073197D01*
X0044915Y0073197D02*
X0044545Y0073197D01*
X0041372Y0073197D02*
X0041198Y0073197D01*
X0041198Y0067409D01*
X0041372Y0067409D01*
X0044545Y0067409D02*
X0048655Y0067409D01*
D15*
X0104803Y0047732D03*
D16*
X0082900Y0051953D02*
X0082900Y0053453D01*
X0081400Y0055953D02*
X0078687Y0055953D01*
X0078687Y0053878D01*
X0078687Y0051528D02*
X0078687Y0049512D01*
X0081400Y0049512D01*
X0070737Y0064343D02*
X0070737Y0069264D01*
X0077187Y0070712D02*
X0077187Y0072728D01*
X0077187Y0070712D02*
X0079900Y0070712D01*
X0081400Y0073153D02*
X0081400Y0074653D01*
X0079900Y0077153D02*
X0077187Y0077153D01*
X0077187Y0075078D01*
X0062863Y0069264D02*
X0062863Y0064343D01*
X0065619Y0064343D02*
X0067981Y0064343D01*
M02*
