G75*
%MOIN*%
%OFA0B0*%
%FSLAX25Y25*%
%IPPOS*%
%LPD*%
%AMOC8*
5,1,8,0,0,1.08239X$1,22.5*
%
%ADD10C,0.01650*%
%ADD11R,0.01784X0.09658*%
%ADD12C,0.03753*%
%ADD13R,0.02965X0.05524*%
%ADD14R,0.02953X0.01181*%
%ADD15R,0.01181X0.02953*%
%ADD16C,0.00800*%
%ADD17R,0.02375X0.03753*%
%ADD18R,0.02769X0.02080*%
%ADD19C,0.04800*%
%ADD20C,0.05950*%
D10*
X0037225Y0030978D02*
X0038875Y0030978D01*
X0037225Y0030978D02*
X0037225Y0032628D01*
X0038875Y0032628D01*
X0038875Y0030978D01*
X0038875Y0032627D02*
X0037225Y0032627D01*
X0040725Y0030978D02*
X0042375Y0030978D01*
X0040725Y0030978D02*
X0040725Y0032628D01*
X0042375Y0032628D01*
X0042375Y0030978D01*
X0042375Y0032627D02*
X0040725Y0032627D01*
X0041025Y0052228D02*
X0042675Y0052228D01*
X0042675Y0050578D01*
X0041025Y0050578D01*
X0041025Y0052228D01*
X0041025Y0052227D02*
X0042675Y0052227D01*
X0039175Y0052228D02*
X0037525Y0052228D01*
X0039175Y0052228D02*
X0039175Y0050578D01*
X0037525Y0050578D01*
X0037525Y0052228D01*
X0037525Y0052227D02*
X0039175Y0052227D01*
X0041425Y0054378D02*
X0043075Y0054378D01*
X0041425Y0054378D02*
X0041425Y0056028D01*
X0043075Y0056028D01*
X0043075Y0054378D01*
X0043075Y0056027D02*
X0041425Y0056027D01*
X0044925Y0054378D02*
X0046575Y0054378D01*
X0044925Y0054378D02*
X0044925Y0056028D01*
X0046575Y0056028D01*
X0046575Y0054378D01*
X0046575Y0056027D02*
X0044925Y0056027D01*
X0050025Y0055928D02*
X0051675Y0055928D01*
X0051675Y0054278D01*
X0050025Y0054278D01*
X0050025Y0055928D01*
X0050025Y0055927D02*
X0051675Y0055927D01*
X0053525Y0055928D02*
X0055175Y0055928D01*
X0055175Y0054278D01*
X0053525Y0054278D01*
X0053525Y0055928D01*
X0053525Y0055927D02*
X0055175Y0055927D01*
X0046575Y0059928D02*
X0044925Y0059928D01*
X0046575Y0059928D02*
X0046575Y0058278D01*
X0044925Y0058278D01*
X0044925Y0059928D01*
X0044925Y0059927D02*
X0046575Y0059927D01*
X0043075Y0059928D02*
X0041425Y0059928D01*
X0043075Y0059928D02*
X0043075Y0058278D01*
X0041425Y0058278D01*
X0041425Y0059928D01*
X0041425Y0059927D02*
X0043075Y0059927D01*
X0053975Y0061928D02*
X0053975Y0063578D01*
X0055625Y0063578D01*
X0055625Y0061928D01*
X0053975Y0061928D01*
X0053975Y0063577D02*
X0055625Y0063577D01*
X0058875Y0064428D02*
X0058875Y0066078D01*
X0060525Y0066078D01*
X0060525Y0064428D01*
X0058875Y0064428D01*
X0058875Y0066077D02*
X0060525Y0066077D01*
X0058875Y0067928D02*
X0058875Y0069578D01*
X0060525Y0069578D01*
X0060525Y0067928D01*
X0058875Y0067928D01*
X0058875Y0069577D02*
X0060525Y0069577D01*
X0055825Y0071928D02*
X0055825Y0073578D01*
X0055825Y0071928D02*
X0054175Y0071928D01*
X0054175Y0073578D01*
X0055825Y0073578D01*
X0055825Y0073577D02*
X0054175Y0073577D01*
X0055825Y0075428D02*
X0055825Y0077078D01*
X0055825Y0075428D02*
X0054175Y0075428D01*
X0054175Y0077078D01*
X0055825Y0077078D01*
X0055825Y0077077D02*
X0054175Y0077077D01*
X0059825Y0076828D02*
X0061475Y0076828D01*
X0061475Y0075178D01*
X0059825Y0075178D01*
X0059825Y0076828D01*
X0059825Y0076827D02*
X0061475Y0076827D01*
X0063325Y0076828D02*
X0064975Y0076828D01*
X0064975Y0075178D01*
X0063325Y0075178D01*
X0063325Y0076828D01*
X0063325Y0076827D02*
X0064975Y0076827D01*
X0067825Y0076828D02*
X0069475Y0076828D01*
X0069475Y0075178D01*
X0067825Y0075178D01*
X0067825Y0076828D01*
X0067825Y0076827D02*
X0069475Y0076827D01*
X0071325Y0076828D02*
X0072975Y0076828D01*
X0072975Y0075178D01*
X0071325Y0075178D01*
X0071325Y0076828D01*
X0071325Y0076827D02*
X0072975Y0076827D01*
X0074075Y0071678D02*
X0074075Y0070028D01*
X0074075Y0071678D02*
X0075725Y0071678D01*
X0075725Y0070028D01*
X0074075Y0070028D01*
X0074075Y0071677D02*
X0075725Y0071677D01*
X0078225Y0069228D02*
X0079875Y0069228D01*
X0079875Y0067578D01*
X0078225Y0067578D01*
X0078225Y0069228D01*
X0078225Y0069227D02*
X0079875Y0069227D01*
X0081725Y0069228D02*
X0083375Y0069228D01*
X0083375Y0067578D01*
X0081725Y0067578D01*
X0081725Y0069228D01*
X0081725Y0069227D02*
X0083375Y0069227D01*
X0088525Y0069028D02*
X0090175Y0069028D01*
X0090175Y0067378D01*
X0088525Y0067378D01*
X0088525Y0069028D01*
X0088525Y0069027D02*
X0090175Y0069027D01*
X0092025Y0069028D02*
X0093675Y0069028D01*
X0093675Y0067378D01*
X0092025Y0067378D01*
X0092025Y0069028D01*
X0092025Y0069027D02*
X0093675Y0069027D01*
X0100711Y0062697D02*
X0101877Y0063863D01*
X0100711Y0062697D02*
X0099545Y0063863D01*
X0100711Y0065029D01*
X0101877Y0063863D01*
X0101394Y0064346D02*
X0100028Y0064346D01*
X0103186Y0065172D02*
X0104352Y0066338D01*
X0103186Y0065172D02*
X0102020Y0066338D01*
X0103186Y0067504D01*
X0104352Y0066338D01*
X0103869Y0066821D02*
X0102503Y0066821D01*
X0112425Y0067828D02*
X0114075Y0067828D01*
X0114075Y0066178D01*
X0112425Y0066178D01*
X0112425Y0067828D01*
X0112425Y0067827D02*
X0114075Y0067827D01*
X0115925Y0067828D02*
X0117575Y0067828D01*
X0117575Y0066178D01*
X0115925Y0066178D01*
X0115925Y0067828D01*
X0115925Y0067827D02*
X0117575Y0067827D01*
X0119925Y0062078D02*
X0121575Y0062078D01*
X0119925Y0062078D02*
X0119925Y0063728D01*
X0121575Y0063728D01*
X0121575Y0062078D01*
X0121575Y0063727D02*
X0119925Y0063727D01*
X0123425Y0062078D02*
X0125075Y0062078D01*
X0123425Y0062078D02*
X0123425Y0063728D01*
X0125075Y0063728D01*
X0125075Y0062078D01*
X0125075Y0063727D02*
X0123425Y0063727D01*
X0125225Y0059478D02*
X0125225Y0057828D01*
X0123575Y0057828D01*
X0123575Y0059478D01*
X0125225Y0059478D01*
X0125225Y0059477D02*
X0123575Y0059477D01*
X0125225Y0055978D02*
X0125225Y0054328D01*
X0123575Y0054328D01*
X0123575Y0055978D01*
X0125225Y0055978D01*
X0125225Y0055977D02*
X0123575Y0055977D01*
X0129608Y0044643D02*
X0128442Y0043477D01*
X0129608Y0044643D02*
X0130774Y0043477D01*
X0129608Y0042311D01*
X0128442Y0043477D01*
X0128925Y0043960D02*
X0130291Y0043960D01*
X0127133Y0042168D02*
X0125967Y0041002D01*
X0127133Y0042168D02*
X0128299Y0041002D01*
X0127133Y0039836D01*
X0125967Y0041002D01*
X0126450Y0041485D02*
X0127816Y0041485D01*
X0120575Y0043728D02*
X0118925Y0043728D01*
X0120575Y0043728D02*
X0120575Y0042078D01*
X0118925Y0042078D01*
X0118925Y0043728D01*
X0118925Y0043727D02*
X0120575Y0043727D01*
X0117075Y0043728D02*
X0115425Y0043728D01*
X0117075Y0043728D02*
X0117075Y0042078D01*
X0115425Y0042078D01*
X0115425Y0043728D01*
X0115425Y0043727D02*
X0117075Y0043727D01*
X0112875Y0041978D02*
X0111225Y0041978D01*
X0111225Y0043628D01*
X0112875Y0043628D01*
X0112875Y0041978D01*
X0112875Y0043627D02*
X0111225Y0043627D01*
X0109375Y0041978D02*
X0107725Y0041978D01*
X0107725Y0043628D01*
X0109375Y0043628D01*
X0109375Y0041978D01*
X0109375Y0043627D02*
X0107725Y0043627D01*
X0103455Y0042658D02*
X0102289Y0043824D01*
X0103455Y0044990D01*
X0104621Y0043824D01*
X0103455Y0042658D01*
X0104138Y0044307D02*
X0102772Y0044307D01*
X0100980Y0045133D02*
X0099814Y0046299D01*
X0100980Y0047465D01*
X0102146Y0046299D01*
X0100980Y0045133D01*
X0101663Y0046782D02*
X0100297Y0046782D01*
X0075175Y0051778D02*
X0073525Y0051778D01*
X0073525Y0053428D01*
X0075175Y0053428D01*
X0075175Y0051778D01*
X0075175Y0053427D02*
X0073525Y0053427D01*
X0071675Y0051778D02*
X0070025Y0051778D01*
X0070025Y0053428D01*
X0071675Y0053428D01*
X0071675Y0051778D01*
X0071675Y0053427D02*
X0070025Y0053427D01*
X0074125Y0062478D02*
X0075775Y0062478D01*
X0074125Y0062478D02*
X0074125Y0064128D01*
X0075775Y0064128D01*
X0075775Y0062478D01*
X0075775Y0064127D02*
X0074125Y0064127D01*
X0074075Y0066528D02*
X0074075Y0068178D01*
X0075725Y0068178D01*
X0075725Y0066528D01*
X0074075Y0066528D01*
X0074075Y0068177D02*
X0075725Y0068177D01*
X0077625Y0062478D02*
X0079275Y0062478D01*
X0077625Y0062478D02*
X0077625Y0064128D01*
X0079275Y0064128D01*
X0079275Y0062478D01*
X0079275Y0064127D02*
X0077625Y0064127D01*
X0053975Y0065428D02*
X0053975Y0067078D01*
X0055625Y0067078D01*
X0055625Y0065428D01*
X0053975Y0065428D01*
X0053975Y0067077D02*
X0055625Y0067077D01*
X0036075Y0067728D02*
X0036075Y0069378D01*
X0037725Y0069378D01*
X0037725Y0067728D01*
X0036075Y0067728D01*
X0036075Y0069377D02*
X0037725Y0069377D01*
X0036075Y0071228D02*
X0036075Y0072878D01*
X0037725Y0072878D01*
X0037725Y0071228D01*
X0036075Y0071228D01*
X0036075Y0072877D02*
X0037725Y0072877D01*
X0139725Y0042078D02*
X0139725Y0040428D01*
X0138075Y0040428D01*
X0138075Y0042078D01*
X0139725Y0042078D01*
X0139725Y0042077D02*
X0138075Y0042077D01*
X0142075Y0042278D02*
X0142075Y0040628D01*
X0142075Y0042278D02*
X0143725Y0042278D01*
X0143725Y0040628D01*
X0142075Y0040628D01*
X0142075Y0042277D02*
X0143725Y0042277D01*
X0146175Y0042378D02*
X0146175Y0040728D01*
X0146175Y0042378D02*
X0147825Y0042378D01*
X0147825Y0040728D01*
X0146175Y0040728D01*
X0146175Y0042377D02*
X0147825Y0042377D01*
X0146175Y0038878D02*
X0146175Y0037228D01*
X0146175Y0038878D02*
X0147825Y0038878D01*
X0147825Y0037228D01*
X0146175Y0037228D01*
X0146175Y0038877D02*
X0147825Y0038877D01*
X0142075Y0038778D02*
X0142075Y0037128D01*
X0142075Y0038778D02*
X0143725Y0038778D01*
X0143725Y0037128D01*
X0142075Y0037128D01*
X0142075Y0038777D02*
X0143725Y0038777D01*
X0139725Y0038578D02*
X0139725Y0036928D01*
X0138075Y0036928D01*
X0138075Y0038578D01*
X0139725Y0038578D01*
X0139725Y0038577D02*
X0138075Y0038577D01*
D11*
X0138757Y0058343D03*
X0140726Y0058343D03*
X0142694Y0058343D03*
X0144663Y0058343D03*
X0146631Y0058343D03*
X0148600Y0058343D03*
X0148600Y0073303D03*
X0146631Y0073303D03*
X0144663Y0073303D03*
X0142694Y0073303D03*
X0140726Y0073303D03*
X0138757Y0073303D03*
D12*
X0135017Y0071098D03*
X0152340Y0071098D03*
D13*
X0050340Y0075421D03*
X0046600Y0075421D03*
X0042860Y0075421D03*
X0042860Y0065185D03*
X0050340Y0065185D03*
D14*
X0104163Y0059543D03*
X0104163Y0057575D03*
X0104163Y0055606D03*
X0104163Y0053638D03*
X0104163Y0051669D03*
X0104163Y0049701D03*
X0119124Y0049701D03*
X0119124Y0051669D03*
X0119124Y0053638D03*
X0119124Y0055606D03*
X0119124Y0057575D03*
X0119124Y0059543D03*
D15*
X0116565Y0062102D03*
X0114596Y0062102D03*
X0112628Y0062102D03*
X0110659Y0062102D03*
X0108691Y0062102D03*
X0106722Y0062102D03*
X0106722Y0047142D03*
X0108691Y0047142D03*
X0110659Y0047142D03*
X0112628Y0047142D03*
X0114596Y0047142D03*
X0116565Y0047142D03*
D16*
X0115482Y0049996D02*
X0115498Y0050214D01*
X0115569Y0050421D01*
X0115692Y0050602D01*
X0115857Y0050745D01*
X0116054Y0050841D01*
X0116269Y0050882D01*
X0116269Y0059248D01*
X0107017Y0059248D01*
X0107017Y0049996D01*
X0115482Y0049996D01*
X0115487Y0050067D02*
X0107017Y0050067D01*
X0107017Y0050865D02*
X0116181Y0050865D01*
X0116269Y0051664D02*
X0107017Y0051664D01*
X0107017Y0052462D02*
X0116269Y0052462D01*
X0116269Y0053261D02*
X0107017Y0053261D01*
X0107017Y0054059D02*
X0116269Y0054059D01*
X0116269Y0054858D02*
X0107017Y0054858D01*
X0107017Y0055656D02*
X0116269Y0055656D01*
X0116269Y0056455D02*
X0107017Y0056455D01*
X0107017Y0057253D02*
X0116269Y0057253D01*
X0116269Y0058052D02*
X0107017Y0058052D01*
X0107017Y0058850D02*
X0116269Y0058850D01*
D17*
X0069359Y0063161D03*
X0064241Y0063161D03*
X0064241Y0070445D03*
X0066800Y0070445D03*
X0069359Y0070445D03*
D18*
X0078900Y0073903D03*
X0083624Y0071935D03*
X0083624Y0075872D03*
X0085124Y0054672D03*
X0080400Y0052703D03*
X0085124Y0050735D03*
D19*
X0022925Y0029157D02*
X0018925Y0029157D01*
X0018925Y0057701D02*
X0022925Y0057701D01*
D20*
X0031673Y0052976D03*
X0031673Y0033882D03*
M02*
