G75*
%MOIN*%
%OFA0B0*%
%FSLAX25Y25*%
%IPPOS*%
%LPD*%
%AMOC8*
5,1,8,0,0,1.08239X$1,22.5*
%
%ADD10R,0.06312X0.08674*%
%ADD11C,0.01650*%
%ADD12C,0.03753*%
%ADD13R,0.06706X0.04737*%
%ADD14R,0.06800X0.05800*%
%ADD15R,0.02572X0.02572*%
%ADD16C,0.00400*%
%ADD17R,0.20000X0.20000*%
%ADD18C,0.05524*%
%ADD19C,0.01891*%
%ADD20C,0.00892*%
%ADD21C,0.04140*%
%ADD22R,0.06115X0.02375*%
%ADD23C,0.04800*%
%ADD24C,0.05950*%
%ADD25R,0.04343X0.03950*%
%ADD26R,0.05524X0.03556*%
%ADD27R,0.03950X0.04343*%
D10*
X0114561Y0015783D03*
X0151962Y0015783D03*
D11*
X0125003Y0032266D02*
X0123837Y0033432D01*
X0125003Y0032266D02*
X0123837Y0031100D01*
X0122671Y0032266D01*
X0123837Y0033432D01*
X0124520Y0032749D02*
X0123154Y0032749D01*
X0122529Y0034741D02*
X0121363Y0035907D01*
X0122529Y0034741D02*
X0121363Y0033575D01*
X0120197Y0034741D01*
X0121363Y0035907D01*
X0122046Y0035224D02*
X0120680Y0035224D01*
X0117575Y0033328D02*
X0115925Y0033328D01*
X0117575Y0033328D02*
X0117575Y0031678D01*
X0115925Y0031678D01*
X0115925Y0033328D01*
X0115925Y0033327D02*
X0117575Y0033327D01*
X0114075Y0033328D02*
X0112425Y0033328D01*
X0114075Y0033328D02*
X0114075Y0031678D01*
X0112425Y0031678D01*
X0112425Y0033328D01*
X0112425Y0033327D02*
X0114075Y0033327D01*
X0110275Y0033328D02*
X0108625Y0033328D01*
X0110275Y0033328D02*
X0110275Y0031678D01*
X0108625Y0031678D01*
X0108625Y0033328D01*
X0108625Y0033327D02*
X0110275Y0033327D01*
X0106775Y0033328D02*
X0105125Y0033328D01*
X0106775Y0033328D02*
X0106775Y0031678D01*
X0105125Y0031678D01*
X0105125Y0033328D01*
X0105125Y0033327D02*
X0106775Y0033327D01*
X0098975Y0032228D02*
X0097325Y0032228D01*
X0098975Y0032228D02*
X0098975Y0030578D01*
X0097325Y0030578D01*
X0097325Y0032228D01*
X0097325Y0032227D02*
X0098975Y0032227D01*
X0095475Y0032228D02*
X0093825Y0032228D01*
X0095475Y0032228D02*
X0095475Y0030578D01*
X0093825Y0030578D01*
X0093825Y0032228D01*
X0093825Y0032227D02*
X0095475Y0032227D01*
X0095425Y0035828D02*
X0095425Y0037478D01*
X0095425Y0035828D02*
X0093775Y0035828D01*
X0093775Y0037478D01*
X0095425Y0037478D01*
X0095425Y0037477D02*
X0093775Y0037477D01*
X0095425Y0039328D02*
X0095425Y0040978D01*
X0095425Y0039328D02*
X0093775Y0039328D01*
X0093775Y0040978D01*
X0095425Y0040978D01*
X0095425Y0040977D02*
X0093775Y0040977D01*
X0077975Y0040628D02*
X0077975Y0042278D01*
X0079625Y0042278D01*
X0079625Y0040628D01*
X0077975Y0040628D01*
X0077975Y0042277D02*
X0079625Y0042277D01*
X0077975Y0044128D02*
X0077975Y0045778D01*
X0079625Y0045778D01*
X0079625Y0044128D01*
X0077975Y0044128D01*
X0077975Y0045777D02*
X0079625Y0045777D01*
X0072075Y0046178D02*
X0072075Y0044528D01*
X0072075Y0046178D02*
X0073725Y0046178D01*
X0073725Y0044528D01*
X0072075Y0044528D01*
X0072075Y0046177D02*
X0073725Y0046177D01*
X0067975Y0046278D02*
X0067975Y0044628D01*
X0067975Y0046278D02*
X0069625Y0046278D01*
X0069625Y0044628D01*
X0067975Y0044628D01*
X0067975Y0046277D02*
X0069625Y0046277D01*
X0065525Y0046278D02*
X0065525Y0044628D01*
X0063875Y0044628D01*
X0063875Y0046278D01*
X0065525Y0046278D01*
X0065525Y0046277D02*
X0063875Y0046277D01*
X0061425Y0046278D02*
X0061425Y0044628D01*
X0059775Y0044628D01*
X0059775Y0046278D01*
X0061425Y0046278D01*
X0061425Y0046277D02*
X0059775Y0046277D01*
X0057325Y0044628D02*
X0055675Y0044628D01*
X0055675Y0046278D01*
X0057325Y0046278D01*
X0057325Y0044628D01*
X0057325Y0046277D02*
X0055675Y0046277D01*
X0053125Y0046378D02*
X0053125Y0044728D01*
X0051475Y0044728D01*
X0051475Y0046378D01*
X0053125Y0046378D01*
X0053125Y0046377D02*
X0051475Y0046377D01*
X0053125Y0042878D02*
X0053125Y0041228D01*
X0051475Y0041228D01*
X0051475Y0042878D01*
X0053125Y0042878D01*
X0053125Y0042877D02*
X0051475Y0042877D01*
X0055675Y0041128D02*
X0057325Y0041128D01*
X0055675Y0041128D02*
X0055675Y0042778D01*
X0057325Y0042778D01*
X0057325Y0041128D01*
X0057325Y0042777D02*
X0055675Y0042777D01*
X0061425Y0042778D02*
X0061425Y0041128D01*
X0059775Y0041128D01*
X0059775Y0042778D01*
X0061425Y0042778D01*
X0061425Y0042777D02*
X0059775Y0042777D01*
X0065525Y0042778D02*
X0065525Y0041128D01*
X0063875Y0041128D01*
X0063875Y0042778D01*
X0065525Y0042778D01*
X0065525Y0042777D02*
X0063875Y0042777D01*
X0067975Y0042778D02*
X0067975Y0041128D01*
X0067975Y0042778D02*
X0069625Y0042778D01*
X0069625Y0041128D01*
X0067975Y0041128D01*
X0067975Y0042777D02*
X0069625Y0042777D01*
X0072075Y0042678D02*
X0072075Y0041028D01*
X0072075Y0042678D02*
X0073725Y0042678D01*
X0073725Y0041028D01*
X0072075Y0041028D01*
X0072075Y0042677D02*
X0073725Y0042677D01*
X0089575Y0051528D02*
X0089575Y0053178D01*
X0091225Y0053178D01*
X0091225Y0051528D01*
X0089575Y0051528D01*
X0089575Y0053177D02*
X0091225Y0053177D01*
X0089575Y0055028D02*
X0089575Y0056678D01*
X0091225Y0056678D01*
X0091225Y0055028D01*
X0089575Y0055028D01*
X0089575Y0056677D02*
X0091225Y0056677D01*
X0092125Y0069028D02*
X0093775Y0069028D01*
X0093775Y0067378D01*
X0092125Y0067378D01*
X0092125Y0069028D01*
X0092125Y0069027D02*
X0093775Y0069027D01*
X0090275Y0069028D02*
X0088625Y0069028D01*
X0090275Y0069028D02*
X0090275Y0067378D01*
X0088625Y0067378D01*
X0088625Y0069028D01*
X0088625Y0069027D02*
X0090275Y0069027D01*
X0118225Y0076928D02*
X0119875Y0076928D01*
X0119875Y0075278D01*
X0118225Y0075278D01*
X0118225Y0076928D01*
X0118225Y0076927D02*
X0119875Y0076927D01*
X0121725Y0076928D02*
X0123375Y0076928D01*
X0123375Y0075278D01*
X0121725Y0075278D01*
X0121725Y0076928D01*
X0121725Y0076927D02*
X0123375Y0076927D01*
X0123075Y0072628D02*
X0121425Y0072628D01*
X0123075Y0072628D02*
X0123075Y0070978D01*
X0121425Y0070978D01*
X0121425Y0072628D01*
X0121425Y0072627D02*
X0123075Y0072627D01*
X0124925Y0072628D02*
X0126575Y0072628D01*
X0126575Y0070978D01*
X0124925Y0070978D01*
X0124925Y0072628D01*
X0124925Y0072627D02*
X0126575Y0072627D01*
X0133563Y0047707D02*
X0134729Y0046541D01*
X0133563Y0045375D01*
X0132397Y0046541D01*
X0133563Y0047707D01*
X0134246Y0047024D02*
X0132880Y0047024D01*
X0136037Y0045232D02*
X0137203Y0044066D01*
X0136037Y0042900D01*
X0134871Y0044066D01*
X0136037Y0045232D01*
X0136720Y0044549D02*
X0135354Y0044549D01*
X0098975Y0026578D02*
X0097325Y0026578D01*
X0097325Y0028228D01*
X0098975Y0028228D01*
X0098975Y0026578D01*
X0098975Y0028227D02*
X0097325Y0028227D01*
X0095475Y0026578D02*
X0093825Y0026578D01*
X0093825Y0028228D01*
X0095475Y0028228D01*
X0095475Y0026578D01*
X0095475Y0028227D02*
X0093825Y0028227D01*
X0093925Y0022478D02*
X0095575Y0022478D01*
X0093925Y0022478D02*
X0093925Y0024128D01*
X0095575Y0024128D01*
X0095575Y0022478D01*
X0095575Y0024127D02*
X0093925Y0024127D01*
X0097425Y0022478D02*
X0099075Y0022478D01*
X0097425Y0022478D02*
X0097425Y0024128D01*
X0099075Y0024128D01*
X0099075Y0022478D01*
X0099075Y0024127D02*
X0097425Y0024127D01*
X0097425Y0018378D02*
X0099075Y0018378D01*
X0097425Y0018378D02*
X0097425Y0020028D01*
X0099075Y0020028D01*
X0099075Y0018378D01*
X0099075Y0020027D02*
X0097425Y0020027D01*
X0095575Y0018378D02*
X0093925Y0018378D01*
X0093925Y0020028D01*
X0095575Y0020028D01*
X0095575Y0018378D01*
X0095575Y0020027D02*
X0093925Y0020027D01*
X0053475Y0017778D02*
X0051825Y0017778D01*
X0051825Y0019428D01*
X0053475Y0019428D01*
X0053475Y0017778D01*
X0053475Y0019427D02*
X0051825Y0019427D01*
X0049975Y0017778D02*
X0048325Y0017778D01*
X0048325Y0019428D01*
X0049975Y0019428D01*
X0049975Y0017778D01*
X0049975Y0019427D02*
X0048325Y0019427D01*
X0048225Y0013978D02*
X0049875Y0013978D01*
X0048225Y0013978D02*
X0048225Y0015628D01*
X0049875Y0015628D01*
X0049875Y0013978D01*
X0049875Y0015627D02*
X0048225Y0015627D01*
X0051725Y0013978D02*
X0053375Y0013978D01*
X0051725Y0013978D02*
X0051725Y0015628D01*
X0053375Y0015628D01*
X0053375Y0013978D01*
X0053375Y0015627D02*
X0051725Y0015627D01*
X0051625Y0010178D02*
X0053275Y0010178D01*
X0051625Y0010178D02*
X0051625Y0011828D01*
X0053275Y0011828D01*
X0053275Y0010178D01*
X0053275Y0011827D02*
X0051625Y0011827D01*
X0049775Y0010178D02*
X0048125Y0010178D01*
X0048125Y0011828D01*
X0049775Y0011828D01*
X0049775Y0010178D01*
X0049775Y0011827D02*
X0048125Y0011827D01*
X0048425Y0031578D02*
X0050075Y0031578D01*
X0048425Y0031578D02*
X0048425Y0033228D01*
X0050075Y0033228D01*
X0050075Y0031578D01*
X0050075Y0033227D02*
X0048425Y0033227D01*
X0051925Y0031578D02*
X0053575Y0031578D01*
X0051925Y0031578D02*
X0051925Y0033228D01*
X0053575Y0033228D01*
X0053575Y0031578D01*
X0053575Y0033227D02*
X0051925Y0033227D01*
X0052025Y0035378D02*
X0053675Y0035378D01*
X0052025Y0035378D02*
X0052025Y0037028D01*
X0053675Y0037028D01*
X0053675Y0035378D01*
X0053675Y0037027D02*
X0052025Y0037027D01*
X0050175Y0035378D02*
X0048525Y0035378D01*
X0048525Y0037028D01*
X0050175Y0037028D01*
X0050175Y0035378D01*
X0050175Y0037027D02*
X0048525Y0037027D01*
X0042375Y0035478D02*
X0040725Y0035478D01*
X0040725Y0037128D01*
X0042375Y0037128D01*
X0042375Y0035478D01*
X0042375Y0037127D02*
X0040725Y0037127D01*
X0038875Y0035478D02*
X0037225Y0035478D01*
X0037225Y0037128D01*
X0038875Y0037128D01*
X0038875Y0035478D01*
X0038875Y0037127D02*
X0037225Y0037127D01*
X0037325Y0040928D02*
X0038975Y0040928D01*
X0038975Y0039278D01*
X0037325Y0039278D01*
X0037325Y0040928D01*
X0037325Y0040927D02*
X0038975Y0040927D01*
X0040825Y0040928D02*
X0042475Y0040928D01*
X0042475Y0039278D01*
X0040825Y0039278D01*
X0040825Y0040928D01*
X0040825Y0040927D02*
X0042475Y0040927D01*
X0042575Y0043078D02*
X0040925Y0043078D01*
X0040925Y0044728D01*
X0042575Y0044728D01*
X0042575Y0043078D01*
X0042575Y0044727D02*
X0040925Y0044727D01*
X0039075Y0043078D02*
X0037425Y0043078D01*
X0037425Y0044728D01*
X0039075Y0044728D01*
X0039075Y0043078D01*
X0039075Y0044727D02*
X0037425Y0044727D01*
X0037525Y0046878D02*
X0039175Y0046878D01*
X0037525Y0046878D02*
X0037525Y0048528D01*
X0039175Y0048528D01*
X0039175Y0046878D01*
X0039175Y0048527D02*
X0037525Y0048527D01*
X0037525Y0050678D02*
X0039175Y0050678D01*
X0037525Y0050678D02*
X0037525Y0052328D01*
X0039175Y0052328D01*
X0039175Y0050678D01*
X0039175Y0052327D02*
X0037525Y0052327D01*
X0041025Y0050678D02*
X0042675Y0050678D01*
X0041025Y0050678D02*
X0041025Y0052328D01*
X0042675Y0052328D01*
X0042675Y0050678D01*
X0042675Y0052327D02*
X0041025Y0052327D01*
X0041025Y0046878D02*
X0042675Y0046878D01*
X0041025Y0046878D02*
X0041025Y0048528D01*
X0042675Y0048528D01*
X0042675Y0046878D01*
X0042675Y0048527D02*
X0041025Y0048527D01*
X0040725Y0031678D02*
X0042375Y0031678D01*
X0040725Y0031678D02*
X0040725Y0033328D01*
X0042375Y0033328D01*
X0042375Y0031678D01*
X0042375Y0033327D02*
X0040725Y0033327D01*
X0038875Y0031678D02*
X0037225Y0031678D01*
X0037225Y0033328D01*
X0038875Y0033328D01*
X0038875Y0031678D01*
X0038875Y0033327D02*
X0037225Y0033327D01*
X0032625Y0070178D02*
X0030975Y0070178D01*
X0032625Y0070178D02*
X0032625Y0068528D01*
X0030975Y0068528D01*
X0030975Y0070178D01*
X0030975Y0070177D02*
X0032625Y0070177D01*
X0032625Y0073678D02*
X0030975Y0073678D01*
X0032625Y0073678D02*
X0032625Y0072028D01*
X0030975Y0072028D01*
X0030975Y0073678D01*
X0030975Y0073677D02*
X0032625Y0073677D01*
D12*
X0135017Y0071098D03*
X0152340Y0071098D03*
D13*
X0076962Y0074311D03*
X0076962Y0060531D03*
D14*
X0058962Y0061031D03*
X0058962Y0074031D03*
D15*
X0144679Y0041461D03*
X0148025Y0041461D03*
X0148025Y0038114D03*
X0144679Y0038114D03*
D16*
X0126675Y0050753D02*
X0126146Y0050224D01*
X0124921Y0051449D01*
X0125450Y0051978D01*
X0126675Y0050753D01*
X0126271Y0050628D02*
X0125324Y0051574D01*
X0124058Y0050586D02*
X0125283Y0049361D01*
X0124754Y0048832D01*
X0123529Y0050057D01*
X0124058Y0050586D01*
X0123932Y0050182D02*
X0124879Y0049236D01*
X0123891Y0047969D02*
X0123362Y0047440D01*
X0122137Y0048665D01*
X0122666Y0049194D01*
X0123891Y0047969D01*
X0123487Y0047844D02*
X0122541Y0048790D01*
X0121274Y0047802D02*
X0122499Y0046577D01*
X0121970Y0046048D01*
X0120745Y0047273D01*
X0121274Y0047802D01*
X0121149Y0047398D02*
X0122095Y0046452D01*
X0121107Y0045185D02*
X0119882Y0046410D01*
X0119353Y0045881D01*
X0120578Y0044656D01*
X0121107Y0045185D01*
X0120703Y0045060D02*
X0119757Y0046007D01*
X0118490Y0045018D02*
X0119715Y0043793D01*
X0119186Y0043264D01*
X0117961Y0044489D01*
X0118490Y0045018D01*
X0118365Y0044615D02*
X0119311Y0043668D01*
X0118323Y0042401D02*
X0117098Y0043626D01*
X0116569Y0043097D01*
X0117794Y0041872D01*
X0118323Y0042401D01*
X0117919Y0042276D02*
X0116973Y0043223D01*
X0115706Y0042234D02*
X0116931Y0041009D01*
X0116402Y0040480D01*
X0115177Y0041705D01*
X0115706Y0042234D01*
X0115581Y0041831D02*
X0116527Y0040884D01*
X0115539Y0039617D02*
X0115010Y0039089D01*
X0113785Y0040313D01*
X0114314Y0040842D01*
X0115539Y0039617D01*
X0115135Y0039492D02*
X0114189Y0040439D01*
X0112922Y0039450D02*
X0114147Y0038226D01*
X0113618Y0037697D01*
X0112393Y0038922D01*
X0112922Y0039450D01*
X0112797Y0039047D02*
X0113743Y0038100D01*
X0111224Y0038922D02*
X0109999Y0037697D01*
X0109470Y0038226D01*
X0110695Y0039450D01*
X0111224Y0038922D01*
X0110820Y0039047D02*
X0109874Y0038100D01*
X0108607Y0039089D02*
X0108078Y0039617D01*
X0109303Y0040842D01*
X0109832Y0040313D01*
X0108607Y0039089D01*
X0108482Y0039492D02*
X0109428Y0040439D01*
X0108440Y0041705D02*
X0107215Y0040480D01*
X0106686Y0041009D01*
X0107911Y0042234D01*
X0108440Y0041705D01*
X0108036Y0041831D02*
X0107090Y0040884D01*
X0105823Y0041872D02*
X0105294Y0042401D01*
X0106519Y0043626D01*
X0107048Y0043097D01*
X0105823Y0041872D01*
X0105698Y0042276D02*
X0106645Y0043223D01*
X0105656Y0044489D02*
X0104431Y0043264D01*
X0103902Y0043793D01*
X0105127Y0045018D01*
X0105656Y0044489D01*
X0105253Y0044615D02*
X0104306Y0043668D01*
X0103039Y0044656D02*
X0102510Y0045185D01*
X0103735Y0046410D01*
X0104264Y0045881D01*
X0103039Y0044656D01*
X0102914Y0045060D02*
X0103861Y0046007D01*
X0102872Y0047273D02*
X0101647Y0046048D01*
X0101119Y0046577D01*
X0102343Y0047802D01*
X0102872Y0047273D01*
X0102469Y0047398D02*
X0101522Y0046452D01*
X0100256Y0047440D02*
X0099727Y0047969D01*
X0100952Y0049194D01*
X0101480Y0048665D01*
X0100256Y0047440D01*
X0100130Y0047844D02*
X0101077Y0048790D01*
X0100088Y0050057D02*
X0098864Y0048832D01*
X0098335Y0049361D01*
X0099560Y0050586D01*
X0100088Y0050057D01*
X0099685Y0050182D02*
X0098738Y0049236D01*
X0097472Y0050224D02*
X0096943Y0050753D01*
X0098168Y0051978D01*
X0098697Y0051449D01*
X0097472Y0050224D01*
X0097346Y0050628D02*
X0098293Y0051574D01*
X0097305Y0052841D02*
X0096080Y0051616D01*
X0095551Y0052145D01*
X0096776Y0053370D01*
X0097305Y0052841D01*
X0096901Y0052966D02*
X0095954Y0052020D01*
X0094688Y0053008D02*
X0094159Y0053537D01*
X0095384Y0054762D01*
X0095913Y0054233D01*
X0094688Y0053008D01*
X0094562Y0053412D02*
X0095509Y0054358D01*
X0095384Y0055931D02*
X0094159Y0057156D01*
X0094688Y0057685D01*
X0095913Y0056460D01*
X0095384Y0055931D01*
X0095509Y0056335D02*
X0094562Y0057281D01*
X0095551Y0058548D02*
X0096080Y0059077D01*
X0097305Y0057852D01*
X0096776Y0057323D01*
X0095551Y0058548D01*
X0095954Y0058673D02*
X0096901Y0057727D01*
X0098168Y0058715D02*
X0096943Y0059940D01*
X0097472Y0060469D01*
X0098697Y0059244D01*
X0098168Y0058715D01*
X0098293Y0059119D02*
X0097346Y0060065D01*
X0098335Y0061332D02*
X0098864Y0061861D01*
X0100088Y0060636D01*
X0099560Y0060107D01*
X0098335Y0061332D01*
X0098738Y0061457D02*
X0099685Y0060511D01*
X0100952Y0061499D02*
X0099727Y0062724D01*
X0100256Y0063253D01*
X0101480Y0062028D01*
X0100952Y0061499D01*
X0101077Y0061902D02*
X0100130Y0062849D01*
X0101119Y0064116D02*
X0101647Y0064645D01*
X0102872Y0063420D01*
X0102343Y0062891D01*
X0101119Y0064116D01*
X0101522Y0064241D02*
X0102469Y0063294D01*
X0103735Y0064283D02*
X0102510Y0065508D01*
X0103039Y0066037D01*
X0104264Y0064812D01*
X0103735Y0064283D01*
X0103861Y0064686D02*
X0102914Y0065633D01*
X0103902Y0066900D02*
X0104431Y0067429D01*
X0105656Y0066204D01*
X0105127Y0065675D01*
X0103902Y0066900D01*
X0104306Y0067025D02*
X0105253Y0066078D01*
X0106519Y0067067D02*
X0105294Y0068292D01*
X0105823Y0068820D01*
X0107048Y0067596D01*
X0106519Y0067067D01*
X0106645Y0067470D02*
X0105698Y0068417D01*
X0106686Y0069683D02*
X0107911Y0068459D01*
X0108440Y0068987D01*
X0107215Y0070212D01*
X0106686Y0069683D01*
X0107090Y0069809D02*
X0108036Y0068862D01*
X0109303Y0069850D02*
X0108078Y0071075D01*
X0108607Y0071604D01*
X0109832Y0070379D01*
X0109303Y0069850D01*
X0109428Y0070254D02*
X0108482Y0071201D01*
X0109470Y0072467D02*
X0110695Y0071242D01*
X0111224Y0071771D01*
X0109999Y0072996D01*
X0109470Y0072467D01*
X0109874Y0072593D02*
X0110820Y0071646D01*
X0112393Y0071771D02*
X0112922Y0071242D01*
X0114147Y0072467D01*
X0113618Y0072996D01*
X0112393Y0071771D01*
X0112797Y0071646D02*
X0113743Y0072593D01*
X0115010Y0071604D02*
X0115539Y0071075D01*
X0114314Y0069850D01*
X0113785Y0070379D01*
X0115010Y0071604D01*
X0115135Y0071201D02*
X0114189Y0070254D01*
X0115177Y0068987D02*
X0116402Y0070212D01*
X0116931Y0069683D01*
X0115706Y0068459D01*
X0115177Y0068987D01*
X0115581Y0068862D02*
X0116527Y0069809D01*
X0117794Y0068820D02*
X0118323Y0068292D01*
X0117098Y0067067D01*
X0116569Y0067596D01*
X0117794Y0068820D01*
X0117919Y0068417D02*
X0116973Y0067470D01*
X0117961Y0066204D02*
X0119186Y0067429D01*
X0119715Y0066900D01*
X0118490Y0065675D01*
X0117961Y0066204D01*
X0118365Y0066078D02*
X0119311Y0067025D01*
X0120578Y0066037D02*
X0121107Y0065508D01*
X0119882Y0064283D01*
X0119353Y0064812D01*
X0120578Y0066037D01*
X0120703Y0065633D02*
X0119757Y0064686D01*
X0120745Y0063420D02*
X0121970Y0064645D01*
X0122499Y0064116D01*
X0121274Y0062891D01*
X0120745Y0063420D01*
X0121149Y0063294D02*
X0122095Y0064241D01*
X0123362Y0063253D02*
X0123891Y0062724D01*
X0122666Y0061499D01*
X0122137Y0062028D01*
X0123362Y0063253D01*
X0123487Y0062849D02*
X0122541Y0061902D01*
X0123529Y0060636D02*
X0124754Y0061861D01*
X0125283Y0061332D01*
X0124058Y0060107D01*
X0123529Y0060636D01*
X0123932Y0060511D02*
X0124879Y0061457D01*
X0126146Y0060469D02*
X0126675Y0059940D01*
X0125450Y0058715D01*
X0124921Y0059244D01*
X0126146Y0060469D01*
X0126271Y0060065D02*
X0125324Y0059119D01*
X0126313Y0057852D02*
X0127538Y0059077D01*
X0128067Y0058548D01*
X0126842Y0057323D01*
X0126313Y0057852D01*
X0126716Y0057727D02*
X0127663Y0058673D01*
X0128930Y0057685D02*
X0129458Y0057156D01*
X0128234Y0055931D01*
X0127705Y0056460D01*
X0128930Y0057685D01*
X0129055Y0057281D02*
X0128108Y0056335D01*
X0128234Y0054762D02*
X0127705Y0054233D01*
X0128930Y0053008D01*
X0129458Y0053537D01*
X0128234Y0054762D01*
X0128108Y0054358D02*
X0129055Y0053412D01*
X0128067Y0052145D02*
X0126842Y0053370D01*
X0126313Y0052841D01*
X0127538Y0051616D01*
X0128067Y0052145D01*
X0127663Y0052020D02*
X0126716Y0052966D01*
D17*
G36*
X0111809Y0069488D02*
X0125951Y0055346D01*
X0111809Y0041204D01*
X0097667Y0055346D01*
X0111809Y0069488D01*
G37*
D18*
X0032899Y0017402D03*
X0038198Y0022102D03*
X0043698Y0017165D03*
X0043698Y0027205D03*
X0032899Y0027303D03*
X0092502Y0014402D03*
X0100100Y0011803D03*
X0092100Y0075004D03*
X0085399Y0075205D03*
D19*
X0063133Y0031479D02*
X0063133Y0014459D01*
X0063133Y0031479D02*
X0080153Y0031479D01*
X0080153Y0014459D01*
X0063133Y0014459D01*
X0063133Y0016349D02*
X0080153Y0016349D01*
X0080153Y0018239D02*
X0063133Y0018239D01*
X0063133Y0020129D02*
X0080153Y0020129D01*
X0080153Y0022019D02*
X0063133Y0022019D01*
X0063133Y0023909D02*
X0080153Y0023909D01*
X0080153Y0025799D02*
X0063133Y0025799D01*
X0063133Y0027689D02*
X0080153Y0027689D01*
X0080153Y0029579D02*
X0063133Y0029579D01*
X0063133Y0031469D02*
X0080153Y0031469D01*
D20*
X0081925Y0032076D02*
X0084983Y0032076D01*
X0084983Y0031184D01*
X0081925Y0031184D01*
X0081925Y0032076D01*
X0081925Y0032075D02*
X0084983Y0032075D01*
X0084983Y0030501D02*
X0081925Y0030501D01*
X0084983Y0030501D02*
X0084983Y0029609D01*
X0081925Y0029609D01*
X0081925Y0030501D01*
X0081925Y0030500D02*
X0084983Y0030500D01*
X0084983Y0028926D02*
X0081925Y0028926D01*
X0084983Y0028926D02*
X0084983Y0028034D01*
X0081925Y0028034D01*
X0081925Y0028926D01*
X0081925Y0028925D02*
X0084983Y0028925D01*
X0084983Y0027352D02*
X0081925Y0027352D01*
X0084983Y0027352D02*
X0084983Y0026460D01*
X0081925Y0026460D01*
X0081925Y0027352D01*
X0081925Y0027351D02*
X0084983Y0027351D01*
X0084983Y0025777D02*
X0081925Y0025777D01*
X0084983Y0025777D02*
X0084983Y0024885D01*
X0081925Y0024885D01*
X0081925Y0025777D01*
X0081925Y0025776D02*
X0084983Y0025776D01*
X0084983Y0024202D02*
X0081925Y0024202D01*
X0084983Y0024202D02*
X0084983Y0023310D01*
X0081925Y0023310D01*
X0081925Y0024202D01*
X0081925Y0024201D02*
X0084983Y0024201D01*
X0084983Y0022627D02*
X0081925Y0022627D01*
X0084983Y0022627D02*
X0084983Y0021735D01*
X0081925Y0021735D01*
X0081925Y0022627D01*
X0081925Y0022626D02*
X0084983Y0022626D01*
X0084983Y0021052D02*
X0081925Y0021052D01*
X0084983Y0021052D02*
X0084983Y0020160D01*
X0081925Y0020160D01*
X0081925Y0021052D01*
X0081925Y0021051D02*
X0084983Y0021051D01*
X0084983Y0019477D02*
X0081925Y0019477D01*
X0084983Y0019477D02*
X0084983Y0018585D01*
X0081925Y0018585D01*
X0081925Y0019477D01*
X0081925Y0019476D02*
X0084983Y0019476D01*
X0084983Y0017903D02*
X0081925Y0017903D01*
X0084983Y0017903D02*
X0084983Y0017011D01*
X0081925Y0017011D01*
X0081925Y0017903D01*
X0081925Y0017902D02*
X0084983Y0017902D01*
X0084983Y0016328D02*
X0081925Y0016328D01*
X0084983Y0016328D02*
X0084983Y0015436D01*
X0081925Y0015436D01*
X0081925Y0016328D01*
X0081925Y0016327D02*
X0084983Y0016327D01*
X0084983Y0014753D02*
X0081925Y0014753D01*
X0084983Y0014753D02*
X0084983Y0013861D01*
X0081925Y0013861D01*
X0081925Y0014753D01*
X0081925Y0014752D02*
X0084983Y0014752D01*
X0080751Y0012686D02*
X0080751Y0009628D01*
X0079859Y0009628D01*
X0079859Y0012686D01*
X0080751Y0012686D01*
X0080751Y0010519D02*
X0079859Y0010519D01*
X0079859Y0011410D02*
X0080751Y0011410D01*
X0080751Y0012301D02*
X0079859Y0012301D01*
X0079176Y0012686D02*
X0079176Y0009628D01*
X0078284Y0009628D01*
X0078284Y0012686D01*
X0079176Y0012686D01*
X0079176Y0010519D02*
X0078284Y0010519D01*
X0078284Y0011410D02*
X0079176Y0011410D01*
X0079176Y0012301D02*
X0078284Y0012301D01*
X0077601Y0012686D02*
X0077601Y0009628D01*
X0076709Y0009628D01*
X0076709Y0012686D01*
X0077601Y0012686D01*
X0077601Y0010519D02*
X0076709Y0010519D01*
X0076709Y0011410D02*
X0077601Y0011410D01*
X0077601Y0012301D02*
X0076709Y0012301D01*
X0076026Y0012686D02*
X0076026Y0009628D01*
X0075134Y0009628D01*
X0075134Y0012686D01*
X0076026Y0012686D01*
X0076026Y0010519D02*
X0075134Y0010519D01*
X0075134Y0011410D02*
X0076026Y0011410D01*
X0076026Y0012301D02*
X0075134Y0012301D01*
X0074452Y0012686D02*
X0074452Y0009628D01*
X0073560Y0009628D01*
X0073560Y0012686D01*
X0074452Y0012686D01*
X0074452Y0010519D02*
X0073560Y0010519D01*
X0073560Y0011410D02*
X0074452Y0011410D01*
X0074452Y0012301D02*
X0073560Y0012301D01*
X0072877Y0012686D02*
X0072877Y0009628D01*
X0071985Y0009628D01*
X0071985Y0012686D01*
X0072877Y0012686D01*
X0072877Y0010519D02*
X0071985Y0010519D01*
X0071985Y0011410D02*
X0072877Y0011410D01*
X0072877Y0012301D02*
X0071985Y0012301D01*
X0071302Y0012686D02*
X0071302Y0009628D01*
X0070410Y0009628D01*
X0070410Y0012686D01*
X0071302Y0012686D01*
X0071302Y0010519D02*
X0070410Y0010519D01*
X0070410Y0011410D02*
X0071302Y0011410D01*
X0071302Y0012301D02*
X0070410Y0012301D01*
X0069727Y0012686D02*
X0069727Y0009628D01*
X0068835Y0009628D01*
X0068835Y0012686D01*
X0069727Y0012686D01*
X0069727Y0010519D02*
X0068835Y0010519D01*
X0068835Y0011410D02*
X0069727Y0011410D01*
X0069727Y0012301D02*
X0068835Y0012301D01*
X0068152Y0012686D02*
X0068152Y0009628D01*
X0067260Y0009628D01*
X0067260Y0012686D01*
X0068152Y0012686D01*
X0068152Y0010519D02*
X0067260Y0010519D01*
X0067260Y0011410D02*
X0068152Y0011410D01*
X0068152Y0012301D02*
X0067260Y0012301D01*
X0066577Y0012686D02*
X0066577Y0009628D01*
X0065685Y0009628D01*
X0065685Y0012686D01*
X0066577Y0012686D01*
X0066577Y0010519D02*
X0065685Y0010519D01*
X0065685Y0011410D02*
X0066577Y0011410D01*
X0066577Y0012301D02*
X0065685Y0012301D01*
X0065003Y0012686D02*
X0065003Y0009628D01*
X0064111Y0009628D01*
X0064111Y0012686D01*
X0065003Y0012686D01*
X0065003Y0010519D02*
X0064111Y0010519D01*
X0064111Y0011410D02*
X0065003Y0011410D01*
X0065003Y0012301D02*
X0064111Y0012301D01*
X0063428Y0012686D02*
X0063428Y0009628D01*
X0062536Y0009628D01*
X0062536Y0012686D01*
X0063428Y0012686D01*
X0063428Y0010519D02*
X0062536Y0010519D01*
X0062536Y0011410D02*
X0063428Y0011410D01*
X0063428Y0012301D02*
X0062536Y0012301D01*
X0061361Y0013861D02*
X0058303Y0013861D01*
X0058303Y0014753D01*
X0061361Y0014753D01*
X0061361Y0013861D01*
X0061361Y0014752D02*
X0058303Y0014752D01*
X0058303Y0015436D02*
X0061361Y0015436D01*
X0058303Y0015436D02*
X0058303Y0016328D01*
X0061361Y0016328D01*
X0061361Y0015436D01*
X0061361Y0016327D02*
X0058303Y0016327D01*
X0058303Y0017011D02*
X0061361Y0017011D01*
X0058303Y0017011D02*
X0058303Y0017903D01*
X0061361Y0017903D01*
X0061361Y0017011D01*
X0061361Y0017902D02*
X0058303Y0017902D01*
X0058303Y0018585D02*
X0061361Y0018585D01*
X0058303Y0018585D02*
X0058303Y0019477D01*
X0061361Y0019477D01*
X0061361Y0018585D01*
X0061361Y0019476D02*
X0058303Y0019476D01*
X0058303Y0020160D02*
X0061361Y0020160D01*
X0058303Y0020160D02*
X0058303Y0021052D01*
X0061361Y0021052D01*
X0061361Y0020160D01*
X0061361Y0021051D02*
X0058303Y0021051D01*
X0058303Y0021735D02*
X0061361Y0021735D01*
X0058303Y0021735D02*
X0058303Y0022627D01*
X0061361Y0022627D01*
X0061361Y0021735D01*
X0061361Y0022626D02*
X0058303Y0022626D01*
X0058303Y0023310D02*
X0061361Y0023310D01*
X0058303Y0023310D02*
X0058303Y0024202D01*
X0061361Y0024202D01*
X0061361Y0023310D01*
X0061361Y0024201D02*
X0058303Y0024201D01*
X0058303Y0024885D02*
X0061361Y0024885D01*
X0058303Y0024885D02*
X0058303Y0025777D01*
X0061361Y0025777D01*
X0061361Y0024885D01*
X0061361Y0025776D02*
X0058303Y0025776D01*
X0058303Y0026460D02*
X0061361Y0026460D01*
X0058303Y0026460D02*
X0058303Y0027352D01*
X0061361Y0027352D01*
X0061361Y0026460D01*
X0061361Y0027351D02*
X0058303Y0027351D01*
X0058303Y0028034D02*
X0061361Y0028034D01*
X0058303Y0028034D02*
X0058303Y0028926D01*
X0061361Y0028926D01*
X0061361Y0028034D01*
X0061361Y0028925D02*
X0058303Y0028925D01*
X0058303Y0029609D02*
X0061361Y0029609D01*
X0058303Y0029609D02*
X0058303Y0030501D01*
X0061361Y0030501D01*
X0061361Y0029609D01*
X0061361Y0030500D02*
X0058303Y0030500D01*
X0058303Y0031184D02*
X0061361Y0031184D01*
X0058303Y0031184D02*
X0058303Y0032076D01*
X0061361Y0032076D01*
X0061361Y0031184D01*
X0061361Y0032075D02*
X0058303Y0032075D01*
X0062536Y0033251D02*
X0062536Y0036309D01*
X0063428Y0036309D01*
X0063428Y0033251D01*
X0062536Y0033251D01*
X0062536Y0034142D02*
X0063428Y0034142D01*
X0063428Y0035033D02*
X0062536Y0035033D01*
X0062536Y0035924D02*
X0063428Y0035924D01*
X0064111Y0036309D02*
X0064111Y0033251D01*
X0064111Y0036309D02*
X0065003Y0036309D01*
X0065003Y0033251D01*
X0064111Y0033251D01*
X0064111Y0034142D02*
X0065003Y0034142D01*
X0065003Y0035033D02*
X0064111Y0035033D01*
X0064111Y0035924D02*
X0065003Y0035924D01*
X0065685Y0036309D02*
X0065685Y0033251D01*
X0065685Y0036309D02*
X0066577Y0036309D01*
X0066577Y0033251D01*
X0065685Y0033251D01*
X0065685Y0034142D02*
X0066577Y0034142D01*
X0066577Y0035033D02*
X0065685Y0035033D01*
X0065685Y0035924D02*
X0066577Y0035924D01*
X0067260Y0036309D02*
X0067260Y0033251D01*
X0067260Y0036309D02*
X0068152Y0036309D01*
X0068152Y0033251D01*
X0067260Y0033251D01*
X0067260Y0034142D02*
X0068152Y0034142D01*
X0068152Y0035033D02*
X0067260Y0035033D01*
X0067260Y0035924D02*
X0068152Y0035924D01*
X0068835Y0036309D02*
X0068835Y0033251D01*
X0068835Y0036309D02*
X0069727Y0036309D01*
X0069727Y0033251D01*
X0068835Y0033251D01*
X0068835Y0034142D02*
X0069727Y0034142D01*
X0069727Y0035033D02*
X0068835Y0035033D01*
X0068835Y0035924D02*
X0069727Y0035924D01*
X0070410Y0036309D02*
X0070410Y0033251D01*
X0070410Y0036309D02*
X0071302Y0036309D01*
X0071302Y0033251D01*
X0070410Y0033251D01*
X0070410Y0034142D02*
X0071302Y0034142D01*
X0071302Y0035033D02*
X0070410Y0035033D01*
X0070410Y0035924D02*
X0071302Y0035924D01*
X0071985Y0036309D02*
X0071985Y0033251D01*
X0071985Y0036309D02*
X0072877Y0036309D01*
X0072877Y0033251D01*
X0071985Y0033251D01*
X0071985Y0034142D02*
X0072877Y0034142D01*
X0072877Y0035033D02*
X0071985Y0035033D01*
X0071985Y0035924D02*
X0072877Y0035924D01*
X0073560Y0036309D02*
X0073560Y0033251D01*
X0073560Y0036309D02*
X0074452Y0036309D01*
X0074452Y0033251D01*
X0073560Y0033251D01*
X0073560Y0034142D02*
X0074452Y0034142D01*
X0074452Y0035033D02*
X0073560Y0035033D01*
X0073560Y0035924D02*
X0074452Y0035924D01*
X0075134Y0036309D02*
X0075134Y0033251D01*
X0075134Y0036309D02*
X0076026Y0036309D01*
X0076026Y0033251D01*
X0075134Y0033251D01*
X0075134Y0034142D02*
X0076026Y0034142D01*
X0076026Y0035033D02*
X0075134Y0035033D01*
X0075134Y0035924D02*
X0076026Y0035924D01*
X0076709Y0036309D02*
X0076709Y0033251D01*
X0076709Y0036309D02*
X0077601Y0036309D01*
X0077601Y0033251D01*
X0076709Y0033251D01*
X0076709Y0034142D02*
X0077601Y0034142D01*
X0077601Y0035033D02*
X0076709Y0035033D01*
X0076709Y0035924D02*
X0077601Y0035924D01*
X0078284Y0036309D02*
X0078284Y0033251D01*
X0078284Y0036309D02*
X0079176Y0036309D01*
X0079176Y0033251D01*
X0078284Y0033251D01*
X0078284Y0034142D02*
X0079176Y0034142D01*
X0079176Y0035033D02*
X0078284Y0035033D01*
X0078284Y0035924D02*
X0079176Y0035924D01*
X0079859Y0036309D02*
X0079859Y0033251D01*
X0079859Y0036309D02*
X0080751Y0036309D01*
X0080751Y0033251D01*
X0079859Y0033251D01*
X0079859Y0034142D02*
X0080751Y0034142D01*
X0080751Y0035033D02*
X0079859Y0035033D01*
X0079859Y0035924D02*
X0080751Y0035924D01*
D21*
X0022995Y0036635D02*
X0018855Y0036635D01*
X0018855Y0040775D01*
X0022995Y0040775D01*
X0022995Y0036635D01*
X0022995Y0040774D02*
X0018855Y0040774D01*
X0018855Y0046084D02*
X0022995Y0046084D01*
X0018855Y0046084D02*
X0018855Y0050224D01*
X0022995Y0050224D01*
X0022995Y0046084D01*
X0022995Y0050223D02*
X0018855Y0050223D01*
D22*
X0032244Y0048547D03*
X0032244Y0045988D03*
X0032244Y0043429D03*
X0032244Y0040870D03*
X0032244Y0038311D03*
D23*
X0022925Y0029157D02*
X0018925Y0029157D01*
X0018925Y0057701D02*
X0022925Y0057701D01*
D24*
X0031673Y0052976D03*
X0031673Y0033882D03*
D25*
G36*
X0122438Y0038991D02*
X0125507Y0042060D01*
X0128300Y0039267D01*
X0125231Y0036198D01*
X0122438Y0038991D01*
G37*
G36*
X0125500Y0035929D02*
X0128569Y0038998D01*
X0131362Y0036205D01*
X0128293Y0033136D01*
X0125500Y0035929D01*
G37*
G36*
X0129397Y0039827D02*
X0132466Y0042896D01*
X0135259Y0040103D01*
X0132190Y0037034D01*
X0129397Y0039827D01*
G37*
G36*
X0126335Y0042889D02*
X0129404Y0045958D01*
X0132197Y0043165D01*
X0129128Y0040096D01*
X0126335Y0042889D01*
G37*
D26*
X0051100Y0027669D03*
X0051100Y0023338D03*
D27*
X0085236Y0039800D03*
X0089567Y0039800D03*
X0089567Y0045312D03*
X0085236Y0045312D03*
M02*
