G75*
%MOIN*%
%OFA0B0*%
%FSLAX25Y25*%
%IPPOS*%
%LPD*%
%AMOC8*
5,1,8,0,0,1.08239X$1,22.5*
%
%ADD10C,0.01250*%
%ADD11R,0.00984X0.08858*%
%ADD12R,0.02165X0.04724*%
%ADD13R,0.02756X0.00984*%
%ADD14R,0.00984X0.02756*%
%ADD15R,0.09646X0.09646*%
%ADD16R,0.01575X0.02953*%
%ADD17R,0.01969X0.01280*%
%ADD18C,0.04000*%
%ADD19C,0.05150*%
%ADD20C,0.01600*%
%ADD21C,0.00600*%
%ADD22C,0.01600*%
%ADD23C,0.00800*%
D10*
X0037425Y0031178D02*
X0038675Y0031178D01*
X0037425Y0031178D02*
X0037425Y0032428D01*
X0038675Y0032428D01*
X0038675Y0031178D01*
X0038675Y0032427D02*
X0037425Y0032427D01*
X0040925Y0031178D02*
X0042175Y0031178D01*
X0040925Y0031178D02*
X0040925Y0032428D01*
X0042175Y0032428D01*
X0042175Y0031178D01*
X0042175Y0032427D02*
X0040925Y0032427D01*
X0041225Y0052028D02*
X0042475Y0052028D01*
X0042475Y0050778D01*
X0041225Y0050778D01*
X0041225Y0052028D01*
X0041225Y0052027D02*
X0042475Y0052027D01*
X0038975Y0052028D02*
X0037725Y0052028D01*
X0038975Y0052028D02*
X0038975Y0050778D01*
X0037725Y0050778D01*
X0037725Y0052028D01*
X0037725Y0052027D02*
X0038975Y0052027D01*
X0041625Y0054578D02*
X0042875Y0054578D01*
X0041625Y0054578D02*
X0041625Y0055828D01*
X0042875Y0055828D01*
X0042875Y0054578D01*
X0042875Y0055827D02*
X0041625Y0055827D01*
X0045125Y0054578D02*
X0046375Y0054578D01*
X0045125Y0054578D02*
X0045125Y0055828D01*
X0046375Y0055828D01*
X0046375Y0054578D01*
X0046375Y0055827D02*
X0045125Y0055827D01*
X0050225Y0055728D02*
X0051475Y0055728D01*
X0051475Y0054478D01*
X0050225Y0054478D01*
X0050225Y0055728D01*
X0050225Y0055727D02*
X0051475Y0055727D01*
X0053725Y0055728D02*
X0054975Y0055728D01*
X0054975Y0054478D01*
X0053725Y0054478D01*
X0053725Y0055728D01*
X0053725Y0055727D02*
X0054975Y0055727D01*
X0046375Y0059728D02*
X0045125Y0059728D01*
X0046375Y0059728D02*
X0046375Y0058478D01*
X0045125Y0058478D01*
X0045125Y0059728D01*
X0045125Y0059727D02*
X0046375Y0059727D01*
X0042875Y0059728D02*
X0041625Y0059728D01*
X0042875Y0059728D02*
X0042875Y0058478D01*
X0041625Y0058478D01*
X0041625Y0059728D01*
X0041625Y0059727D02*
X0042875Y0059727D01*
X0054175Y0062128D02*
X0054175Y0063378D01*
X0055425Y0063378D01*
X0055425Y0062128D01*
X0054175Y0062128D01*
X0054175Y0063377D02*
X0055425Y0063377D01*
X0059075Y0064628D02*
X0059075Y0065878D01*
X0060325Y0065878D01*
X0060325Y0064628D01*
X0059075Y0064628D01*
X0059075Y0065877D02*
X0060325Y0065877D01*
X0059075Y0068128D02*
X0059075Y0069378D01*
X0060325Y0069378D01*
X0060325Y0068128D01*
X0059075Y0068128D01*
X0059075Y0069377D02*
X0060325Y0069377D01*
X0055625Y0072128D02*
X0055625Y0073378D01*
X0055625Y0072128D02*
X0054375Y0072128D01*
X0054375Y0073378D01*
X0055625Y0073378D01*
X0055625Y0073377D02*
X0054375Y0073377D01*
X0055625Y0075628D02*
X0055625Y0076878D01*
X0055625Y0075628D02*
X0054375Y0075628D01*
X0054375Y0076878D01*
X0055625Y0076878D01*
X0055625Y0076877D02*
X0054375Y0076877D01*
X0060025Y0076628D02*
X0061275Y0076628D01*
X0061275Y0075378D01*
X0060025Y0075378D01*
X0060025Y0076628D01*
X0060025Y0076627D02*
X0061275Y0076627D01*
X0063525Y0076628D02*
X0064775Y0076628D01*
X0064775Y0075378D01*
X0063525Y0075378D01*
X0063525Y0076628D01*
X0063525Y0076627D02*
X0064775Y0076627D01*
X0068025Y0076628D02*
X0069275Y0076628D01*
X0069275Y0075378D01*
X0068025Y0075378D01*
X0068025Y0076628D01*
X0068025Y0076627D02*
X0069275Y0076627D01*
X0071525Y0076628D02*
X0072775Y0076628D01*
X0072775Y0075378D01*
X0071525Y0075378D01*
X0071525Y0076628D01*
X0071525Y0076627D02*
X0072775Y0076627D01*
X0074275Y0071478D02*
X0074275Y0070228D01*
X0074275Y0071478D02*
X0075525Y0071478D01*
X0075525Y0070228D01*
X0074275Y0070228D01*
X0074275Y0071477D02*
X0075525Y0071477D01*
X0078425Y0069028D02*
X0079675Y0069028D01*
X0079675Y0067778D01*
X0078425Y0067778D01*
X0078425Y0069028D01*
X0078425Y0069027D02*
X0079675Y0069027D01*
X0081925Y0069028D02*
X0083175Y0069028D01*
X0083175Y0067778D01*
X0081925Y0067778D01*
X0081925Y0069028D01*
X0081925Y0069027D02*
X0083175Y0069027D01*
X0088725Y0068828D02*
X0089975Y0068828D01*
X0089975Y0067578D01*
X0088725Y0067578D01*
X0088725Y0068828D01*
X0088725Y0068827D02*
X0089975Y0068827D01*
X0092225Y0068828D02*
X0093475Y0068828D01*
X0093475Y0067578D01*
X0092225Y0067578D01*
X0092225Y0068828D01*
X0092225Y0068827D02*
X0093475Y0068827D01*
X0100711Y0062980D02*
X0101594Y0063863D01*
X0100711Y0062980D02*
X0099828Y0063863D01*
X0100711Y0064746D01*
X0101594Y0063863D01*
X0101228Y0064229D02*
X0100194Y0064229D01*
X0103186Y0065455D02*
X0104069Y0066338D01*
X0103186Y0065455D02*
X0102303Y0066338D01*
X0103186Y0067221D01*
X0104069Y0066338D01*
X0103703Y0066704D02*
X0102669Y0066704D01*
X0112625Y0067628D02*
X0113875Y0067628D01*
X0113875Y0066378D01*
X0112625Y0066378D01*
X0112625Y0067628D01*
X0112625Y0067627D02*
X0113875Y0067627D01*
X0116125Y0067628D02*
X0117375Y0067628D01*
X0117375Y0066378D01*
X0116125Y0066378D01*
X0116125Y0067628D01*
X0116125Y0067627D02*
X0117375Y0067627D01*
X0120125Y0062278D02*
X0121375Y0062278D01*
X0120125Y0062278D02*
X0120125Y0063528D01*
X0121375Y0063528D01*
X0121375Y0062278D01*
X0121375Y0063527D02*
X0120125Y0063527D01*
X0123625Y0062278D02*
X0124875Y0062278D01*
X0123625Y0062278D02*
X0123625Y0063528D01*
X0124875Y0063528D01*
X0124875Y0062278D01*
X0124875Y0063527D02*
X0123625Y0063527D01*
X0125025Y0059278D02*
X0125025Y0058028D01*
X0123775Y0058028D01*
X0123775Y0059278D01*
X0125025Y0059278D01*
X0125025Y0059277D02*
X0123775Y0059277D01*
X0125025Y0055778D02*
X0125025Y0054528D01*
X0123775Y0054528D01*
X0123775Y0055778D01*
X0125025Y0055778D01*
X0125025Y0055777D02*
X0123775Y0055777D01*
X0129608Y0044360D02*
X0128725Y0043477D01*
X0129608Y0044360D02*
X0130491Y0043477D01*
X0129608Y0042594D01*
X0128725Y0043477D01*
X0129091Y0043843D02*
X0130125Y0043843D01*
X0127133Y0041885D02*
X0126250Y0041002D01*
X0127133Y0041885D02*
X0128016Y0041002D01*
X0127133Y0040119D01*
X0126250Y0041002D01*
X0126616Y0041368D02*
X0127650Y0041368D01*
X0120375Y0043528D02*
X0119125Y0043528D01*
X0120375Y0043528D02*
X0120375Y0042278D01*
X0119125Y0042278D01*
X0119125Y0043528D01*
X0119125Y0043527D02*
X0120375Y0043527D01*
X0116875Y0043528D02*
X0115625Y0043528D01*
X0116875Y0043528D02*
X0116875Y0042278D01*
X0115625Y0042278D01*
X0115625Y0043528D01*
X0115625Y0043527D02*
X0116875Y0043527D01*
X0112675Y0042178D02*
X0111425Y0042178D01*
X0111425Y0043428D01*
X0112675Y0043428D01*
X0112675Y0042178D01*
X0112675Y0043427D02*
X0111425Y0043427D01*
X0109175Y0042178D02*
X0107925Y0042178D01*
X0107925Y0043428D01*
X0109175Y0043428D01*
X0109175Y0042178D01*
X0109175Y0043427D02*
X0107925Y0043427D01*
X0103455Y0042941D02*
X0102572Y0043824D01*
X0103455Y0044707D01*
X0104338Y0043824D01*
X0103455Y0042941D01*
X0103972Y0044190D02*
X0102938Y0044190D01*
X0100980Y0045416D02*
X0100097Y0046299D01*
X0100980Y0047182D01*
X0101863Y0046299D01*
X0100980Y0045416D01*
X0101497Y0046665D02*
X0100463Y0046665D01*
X0074975Y0051978D02*
X0073725Y0051978D01*
X0073725Y0053228D01*
X0074975Y0053228D01*
X0074975Y0051978D01*
X0074975Y0053227D02*
X0073725Y0053227D01*
X0071475Y0051978D02*
X0070225Y0051978D01*
X0070225Y0053228D01*
X0071475Y0053228D01*
X0071475Y0051978D01*
X0071475Y0053227D02*
X0070225Y0053227D01*
X0074325Y0062678D02*
X0075575Y0062678D01*
X0074325Y0062678D02*
X0074325Y0063928D01*
X0075575Y0063928D01*
X0075575Y0062678D01*
X0075575Y0063927D02*
X0074325Y0063927D01*
X0074275Y0066728D02*
X0074275Y0067978D01*
X0075525Y0067978D01*
X0075525Y0066728D01*
X0074275Y0066728D01*
X0074275Y0067977D02*
X0075525Y0067977D01*
X0077825Y0062678D02*
X0079075Y0062678D01*
X0077825Y0062678D02*
X0077825Y0063928D01*
X0079075Y0063928D01*
X0079075Y0062678D01*
X0079075Y0063927D02*
X0077825Y0063927D01*
X0054175Y0065628D02*
X0054175Y0066878D01*
X0055425Y0066878D01*
X0055425Y0065628D01*
X0054175Y0065628D01*
X0054175Y0066877D02*
X0055425Y0066877D01*
X0036275Y0067928D02*
X0036275Y0069178D01*
X0037525Y0069178D01*
X0037525Y0067928D01*
X0036275Y0067928D01*
X0036275Y0069177D02*
X0037525Y0069177D01*
X0036275Y0071428D02*
X0036275Y0072678D01*
X0037525Y0072678D01*
X0037525Y0071428D01*
X0036275Y0071428D01*
X0036275Y0072677D02*
X0037525Y0072677D01*
X0139525Y0041878D02*
X0139525Y0040628D01*
X0138275Y0040628D01*
X0138275Y0041878D01*
X0139525Y0041878D01*
X0139525Y0041877D02*
X0138275Y0041877D01*
X0142275Y0042078D02*
X0142275Y0040828D01*
X0142275Y0042078D02*
X0143525Y0042078D01*
X0143525Y0040828D01*
X0142275Y0040828D01*
X0142275Y0042077D02*
X0143525Y0042077D01*
X0146375Y0042178D02*
X0146375Y0040928D01*
X0146375Y0042178D02*
X0147625Y0042178D01*
X0147625Y0040928D01*
X0146375Y0040928D01*
X0146375Y0042177D02*
X0147625Y0042177D01*
X0146375Y0038678D02*
X0146375Y0037428D01*
X0146375Y0038678D02*
X0147625Y0038678D01*
X0147625Y0037428D01*
X0146375Y0037428D01*
X0146375Y0038677D02*
X0147625Y0038677D01*
X0142275Y0038578D02*
X0142275Y0037328D01*
X0142275Y0038578D02*
X0143525Y0038578D01*
X0143525Y0037328D01*
X0142275Y0037328D01*
X0142275Y0038577D02*
X0143525Y0038577D01*
X0139525Y0038378D02*
X0139525Y0037128D01*
X0138275Y0037128D01*
X0138275Y0038378D01*
X0139525Y0038378D01*
X0139525Y0038377D02*
X0138275Y0038377D01*
D11*
X0138757Y0058343D03*
X0140726Y0058343D03*
X0142694Y0058343D03*
X0144663Y0058343D03*
X0146631Y0058343D03*
X0148600Y0058343D03*
X0148600Y0073303D03*
X0146631Y0073303D03*
X0144663Y0073303D03*
X0142694Y0073303D03*
X0140726Y0073303D03*
X0138757Y0073303D03*
D12*
X0050340Y0075421D03*
X0046600Y0075421D03*
X0042860Y0075421D03*
X0042860Y0065185D03*
X0050340Y0065185D03*
D13*
X0104163Y0059543D03*
X0104163Y0057575D03*
X0104163Y0055606D03*
X0104163Y0053638D03*
X0104163Y0051669D03*
X0104163Y0049701D03*
X0119124Y0049701D03*
X0119124Y0051669D03*
X0119124Y0053638D03*
X0119124Y0055606D03*
X0119124Y0057575D03*
X0119124Y0059543D03*
D14*
X0116565Y0062102D03*
X0114596Y0062102D03*
X0112628Y0062102D03*
X0110659Y0062102D03*
X0108691Y0062102D03*
X0106722Y0062102D03*
X0106722Y0047142D03*
X0108691Y0047142D03*
X0110659Y0047142D03*
X0112628Y0047142D03*
X0114596Y0047142D03*
X0116565Y0047142D03*
D15*
X0111643Y0054622D03*
D16*
X0069359Y0063161D03*
X0064241Y0063161D03*
X0064241Y0070445D03*
X0066800Y0070445D03*
X0069359Y0070445D03*
D17*
X0078900Y0073903D03*
X0083624Y0071935D03*
X0083624Y0075872D03*
X0085124Y0054672D03*
X0080400Y0052703D03*
X0085124Y0050735D03*
D18*
X0022925Y0057701D02*
X0018925Y0057701D01*
X0018925Y0029157D02*
X0022925Y0029157D01*
D19*
X0031673Y0033882D03*
X0031673Y0052976D03*
D20*
X0036000Y0053703D03*
X0038400Y0054303D03*
X0030600Y0057303D03*
X0048900Y0065203D03*
X0052800Y0069903D03*
X0046700Y0075503D03*
X0031800Y0072853D03*
X0052200Y0058503D03*
X0057000Y0056703D03*
X0049800Y0051303D03*
X0044400Y0043503D03*
X0056400Y0042003D03*
X0061200Y0036903D03*
X0044400Y0032103D03*
X0029400Y0030303D03*
X0033000Y0021903D03*
X0039600Y0018303D03*
X0046200Y0014103D03*
X0052500Y0011003D03*
X0060700Y0011103D03*
X0056200Y0017403D03*
X0056400Y0020703D03*
X0067800Y0019803D03*
X0074900Y0019703D03*
X0068300Y0026803D03*
X0076100Y0027103D03*
X0082800Y0033903D03*
X0093000Y0033903D03*
X0100200Y0038103D03*
X0103800Y0040503D03*
X0098400Y0044703D03*
X0097800Y0047103D03*
X0096000Y0048903D03*
X0090400Y0052353D03*
X0090400Y0055853D03*
X0086400Y0057903D03*
X0082200Y0062103D03*
X0086400Y0063903D03*
X0094800Y0060303D03*
X0096400Y0068603D03*
X0099000Y0068703D03*
X0101400Y0071703D03*
X0105000Y0071103D03*
X0103800Y0076503D03*
X0093600Y0074703D03*
X0081000Y0071103D03*
X0072000Y0065703D03*
X0066000Y0050703D03*
X0106200Y0029103D03*
X0112800Y0035703D03*
X0116600Y0035603D03*
X0121400Y0030003D03*
X0118200Y0027303D03*
X0127200Y0032703D03*
X0141600Y0035103D03*
X0145200Y0035703D03*
X0150600Y0038703D03*
X0157200Y0034503D03*
X0138300Y0046403D03*
X0142800Y0048903D03*
X0142800Y0051903D03*
X0145800Y0051903D03*
X0135000Y0053103D03*
X0126500Y0047603D03*
X0123400Y0045403D03*
X0124400Y0055153D03*
X0127800Y0062103D03*
X0132600Y0067503D03*
X0124200Y0068703D03*
X0121200Y0068703D03*
X0126100Y0076103D03*
X0115200Y0075803D03*
X0142700Y0073003D03*
X0144650Y0071553D03*
X0146650Y0070453D03*
X0148600Y0069203D03*
X0144650Y0059203D03*
X0087000Y0019503D03*
X0087000Y0016503D03*
X0082200Y0012303D03*
X0093200Y0009403D03*
D21*
X0092300Y0011403D02*
X0090200Y0009303D01*
X0051000Y0009303D01*
X0046200Y0014103D01*
X0043800Y0014103D01*
X0039600Y0018303D01*
X0037200Y0020703D02*
X0029400Y0028503D01*
X0028200Y0028503D01*
X0026400Y0030303D01*
X0026400Y0053103D01*
X0030600Y0057303D01*
X0036000Y0053703D02*
X0036000Y0051903D01*
X0027600Y0043503D01*
X0027600Y0032103D01*
X0029400Y0030303D01*
X0031800Y0031503D02*
X0031800Y0033303D01*
X0031673Y0033882D01*
X0031800Y0031503D02*
X0037200Y0026103D01*
X0038400Y0026103D01*
X0040200Y0027903D01*
X0040200Y0029703D01*
X0038400Y0031503D01*
X0038050Y0031803D01*
X0041550Y0031803D02*
X0042000Y0032103D01*
X0044400Y0032103D01*
X0048000Y0032103D01*
X0067800Y0012303D01*
X0082200Y0012303D01*
X0082200Y0014703D01*
X0087000Y0019503D01*
X0088800Y0018303D02*
X0088800Y0020703D01*
X0087600Y0021903D01*
X0070200Y0021903D01*
X0048600Y0043503D01*
X0044400Y0043503D01*
X0040800Y0048903D02*
X0038400Y0051303D01*
X0038350Y0051403D01*
X0038400Y0051903D01*
X0038400Y0054303D01*
X0042250Y0055203D02*
X0042600Y0054903D01*
X0045000Y0052503D01*
X0048000Y0052503D01*
X0050400Y0054903D01*
X0050850Y0055103D01*
X0051000Y0055503D01*
X0052200Y0056703D01*
X0052200Y0058503D01*
X0057000Y0056703D02*
X0057000Y0066303D01*
X0059400Y0068703D01*
X0059700Y0068753D01*
X0059400Y0069303D01*
X0063000Y0072903D01*
X0065400Y0072903D01*
X0066600Y0071703D01*
X0066600Y0070503D01*
X0066800Y0070445D01*
X0072000Y0065703D02*
X0073200Y0065703D01*
X0074400Y0064503D01*
X0074400Y0063303D01*
X0074950Y0063303D01*
X0078450Y0063303D02*
X0081000Y0063303D01*
X0082200Y0062103D01*
X0086400Y0063903D02*
X0090000Y0060303D01*
X0094800Y0060303D01*
X0090000Y0057303D02*
X0090000Y0056103D01*
X0090400Y0055853D01*
X0090000Y0057303D02*
X0079200Y0068103D01*
X0079050Y0068403D01*
X0082550Y0068403D02*
X0082800Y0068703D01*
X0083400Y0069303D01*
X0083400Y0071703D01*
X0083624Y0071935D01*
X0082800Y0073503D02*
X0085200Y0073503D01*
X0086400Y0072303D01*
X0086400Y0067503D01*
X0090000Y0063903D01*
X0100200Y0063903D01*
X0100711Y0063863D01*
X0100800Y0063303D01*
X0100800Y0051303D01*
X0102000Y0050103D01*
X0103800Y0050103D01*
X0104163Y0049701D01*
X0104400Y0050103D01*
X0107400Y0050103D01*
X0111600Y0054303D01*
X0111643Y0054622D01*
X0112200Y0054303D01*
X0116400Y0050103D01*
X0118800Y0050103D01*
X0119124Y0049701D01*
X0119400Y0049503D01*
X0119400Y0042903D01*
X0119750Y0042903D01*
X0119400Y0042903D02*
X0119400Y0038103D01*
X0117000Y0035703D01*
X0116600Y0035603D01*
X0112800Y0035703D02*
X0112200Y0035703D01*
X0112200Y0042303D01*
X0112050Y0042803D01*
X0114596Y0044557D02*
X0116250Y0042903D01*
X0114596Y0044557D02*
X0114596Y0047142D01*
X0108691Y0047142D02*
X0108691Y0042944D01*
X0108550Y0042803D01*
X0108000Y0042303D01*
X0106200Y0040503D01*
X0103800Y0040503D01*
X0101400Y0039903D02*
X0105600Y0035703D01*
X0112200Y0035703D01*
X0112200Y0032103D02*
X0106700Y0026603D01*
X0100700Y0026603D01*
X0096800Y0022703D01*
X0096800Y0012803D01*
X0095400Y0011403D01*
X0092300Y0011403D01*
X0090000Y0016503D02*
X0084000Y0010503D01*
X0081000Y0010503D01*
X0080400Y0011103D01*
X0060700Y0011103D01*
X0060600Y0011003D01*
X0052500Y0011003D01*
X0056400Y0020703D02*
X0037200Y0020703D01*
X0061200Y0036903D02*
X0080400Y0036903D01*
X0080400Y0052703D01*
X0082800Y0053103D02*
X0082800Y0053703D01*
X0081600Y0054903D01*
X0073200Y0054903D01*
X0071400Y0053103D01*
X0070850Y0052603D01*
X0072000Y0050103D02*
X0073800Y0051903D01*
X0073800Y0052503D01*
X0074350Y0052603D01*
X0072000Y0050103D02*
X0069600Y0050103D01*
X0064800Y0054903D01*
X0057600Y0054903D01*
X0054000Y0051303D01*
X0049800Y0051303D01*
X0042000Y0051303D01*
X0041850Y0051403D01*
X0040800Y0048903D02*
X0053400Y0048903D01*
X0055200Y0050703D01*
X0066000Y0050703D01*
X0064800Y0054903D02*
X0064800Y0062703D01*
X0064241Y0063161D01*
X0064200Y0063303D01*
X0062400Y0065103D01*
X0060000Y0065103D01*
X0059700Y0065253D01*
X0057000Y0066303D02*
X0055200Y0066303D01*
X0054800Y0066253D01*
X0055200Y0066303D02*
X0055200Y0072303D01*
X0055000Y0072753D01*
X0052800Y0069903D02*
X0050400Y0072303D01*
X0050400Y0074703D01*
X0050340Y0075421D01*
X0046600Y0075421D02*
X0046600Y0059953D01*
X0045750Y0059103D01*
X0045750Y0055203D01*
X0042250Y0059103D02*
X0042860Y0059713D01*
X0042860Y0065185D01*
X0036900Y0068553D02*
X0031800Y0072853D01*
X0036900Y0072053D02*
X0040268Y0075421D01*
X0042860Y0075421D01*
X0072150Y0076003D02*
X0072600Y0075903D01*
X0080400Y0075903D01*
X0082800Y0073503D01*
X0083624Y0075872D02*
X0084000Y0075903D01*
X0090600Y0075903D01*
X0091200Y0076503D01*
X0103800Y0076503D01*
X0097500Y0070403D02*
X0094800Y0070403D01*
X0092850Y0068253D01*
X0092850Y0068203D01*
X0093000Y0068703D01*
X0091750Y0065803D02*
X0089350Y0068203D01*
X0091750Y0065803D02*
X0095500Y0065803D01*
X0096400Y0066703D01*
X0096400Y0068603D01*
X0097500Y0070403D02*
X0099000Y0068703D01*
X0103186Y0066338D02*
X0103186Y0066317D01*
X0103200Y0066353D01*
X0103186Y0066338D02*
X0103220Y0066303D01*
X0107700Y0066303D01*
X0107850Y0066153D01*
X0108000Y0066303D01*
X0108000Y0068103D01*
X0115200Y0075303D01*
X0115200Y0075803D01*
X0126100Y0076103D02*
X0126600Y0075903D01*
X0133800Y0075903D01*
X0136200Y0073503D01*
X0138600Y0073503D01*
X0138757Y0073303D01*
X0140400Y0072903D02*
X0140726Y0073303D01*
X0140400Y0072903D02*
X0140400Y0068703D01*
X0139200Y0067503D01*
X0132600Y0067503D01*
X0128400Y0068703D02*
X0138600Y0058503D01*
X0138757Y0058343D01*
X0140400Y0057903D02*
X0140726Y0058343D01*
X0140400Y0057903D02*
X0140400Y0048303D01*
X0138600Y0046503D01*
X0138300Y0046403D01*
X0142800Y0048903D02*
X0145800Y0048903D01*
X0148200Y0051303D01*
X0148200Y0057903D01*
X0148600Y0058343D01*
X0146631Y0058343D02*
X0146400Y0057903D01*
X0146400Y0053703D01*
X0145800Y0053103D01*
X0145800Y0051903D01*
X0142800Y0051903D02*
X0142800Y0057903D01*
X0142694Y0058343D01*
X0144600Y0058503D02*
X0144663Y0058343D01*
X0144600Y0058503D02*
X0144600Y0059103D01*
X0144650Y0059203D01*
X0132600Y0060303D02*
X0132600Y0042903D01*
X0121800Y0032103D01*
X0112200Y0032103D01*
X0106200Y0029103D02*
X0096000Y0039303D01*
X0096000Y0048903D01*
X0100200Y0045303D02*
X0100800Y0045903D01*
X0100980Y0046299D01*
X0101822Y0047142D01*
X0106722Y0047142D01*
X0103455Y0043824D02*
X0103200Y0043503D01*
X0101400Y0041703D01*
X0101400Y0039903D01*
X0100200Y0038103D02*
X0100200Y0045303D01*
X0085124Y0050735D02*
X0084600Y0051303D01*
X0082800Y0053103D01*
X0085124Y0054672D02*
X0085200Y0054903D01*
X0085200Y0056703D01*
X0086400Y0057903D01*
X0100700Y0063853D02*
X0100710Y0063863D01*
X0100711Y0063863D01*
X0107850Y0066153D02*
X0108691Y0065313D01*
X0108691Y0062102D01*
X0110659Y0062102D02*
X0111000Y0061503D01*
X0111000Y0059703D01*
X0113400Y0059703D01*
X0114600Y0060903D01*
X0114600Y0061503D01*
X0114596Y0062102D01*
X0114600Y0062103D01*
X0114600Y0063303D01*
X0116400Y0065103D01*
X0116400Y0066903D01*
X0116750Y0067003D01*
X0113250Y0067003D02*
X0112628Y0066381D01*
X0112628Y0062102D01*
X0111000Y0059703D02*
X0111000Y0055503D01*
X0111600Y0054903D01*
X0111643Y0054622D01*
X0119124Y0059543D02*
X0119400Y0059103D01*
X0124200Y0059103D01*
X0124400Y0058653D01*
X0124800Y0058503D01*
X0126600Y0056703D01*
X0126600Y0047703D01*
X0126500Y0047603D01*
X0126500Y0046585D01*
X0129608Y0043477D01*
X0127133Y0041670D02*
X0127133Y0041002D01*
X0127133Y0041670D02*
X0123400Y0045403D01*
X0130200Y0032703D02*
X0138600Y0041103D01*
X0138900Y0041253D01*
X0138900Y0037753D02*
X0139200Y0037503D01*
X0141600Y0035103D01*
X0143400Y0037503D02*
X0142900Y0037953D01*
X0143400Y0037503D02*
X0145200Y0035703D01*
X0147000Y0038053D02*
X0147000Y0038103D01*
X0147600Y0038703D01*
X0150600Y0038703D01*
X0152400Y0039903D02*
X0152400Y0037503D01*
X0142200Y0027303D01*
X0118200Y0027303D01*
X0127200Y0032703D02*
X0130200Y0032703D01*
X0142900Y0041453D02*
X0143400Y0041703D01*
X0145800Y0044103D01*
X0150000Y0044103D01*
X0157200Y0036903D01*
X0157200Y0034503D01*
X0152400Y0039903D02*
X0151200Y0041103D01*
X0147000Y0041103D01*
X0147000Y0041553D01*
X0132600Y0060303D02*
X0127800Y0065103D01*
X0123000Y0065103D01*
X0121200Y0063303D01*
X0120750Y0062903D01*
X0120600Y0062703D01*
X0117600Y0062703D01*
X0117000Y0062103D01*
X0116565Y0062102D01*
X0124250Y0062903D02*
X0124800Y0062703D01*
X0125400Y0062103D01*
X0127800Y0062103D01*
X0128400Y0068703D02*
X0124200Y0068703D01*
X0142700Y0073003D02*
X0142800Y0072903D01*
X0142694Y0073303D01*
X0144600Y0072903D02*
X0144600Y0071703D01*
X0144650Y0071553D01*
X0144600Y0072903D02*
X0144663Y0073303D01*
X0146631Y0073303D02*
X0147000Y0072903D01*
X0147000Y0070503D01*
X0146650Y0070453D01*
X0148600Y0069203D02*
X0148800Y0069303D01*
X0148800Y0072903D01*
X0148600Y0073303D01*
X0093000Y0033903D02*
X0090000Y0033903D01*
X0090000Y0016503D01*
X0088800Y0018303D02*
X0087000Y0016503D01*
X0090000Y0033903D02*
X0082800Y0033903D01*
X0080400Y0036303D01*
X0080400Y0036903D01*
X0073200Y0065703D02*
X0074400Y0066903D01*
X0074900Y0067353D01*
X0081000Y0071103D02*
X0081000Y0071703D01*
X0079200Y0073503D01*
X0078900Y0073903D01*
D22*
X0074900Y0070853D02*
X0069767Y0070853D01*
X0069359Y0070445D01*
X0069359Y0068062D01*
X0068400Y0067103D01*
X0065400Y0067103D01*
X0064241Y0068262D01*
X0064241Y0070445D01*
X0069359Y0070445D02*
X0069359Y0075294D01*
X0068650Y0076003D01*
X0064150Y0076003D01*
X0060650Y0076003D02*
X0055250Y0076003D01*
X0055000Y0076253D01*
X0051172Y0076253D01*
X0050340Y0075421D01*
X0046700Y0075503D02*
X0046682Y0075503D01*
X0046600Y0075421D01*
X0048900Y0065203D02*
X0048900Y0065185D01*
X0050340Y0065185D01*
X0052772Y0062753D01*
X0054800Y0062753D01*
X0054800Y0055553D01*
X0054350Y0055103D01*
X0054350Y0062303D02*
X0054800Y0062753D01*
D23*
X0026049Y0021741D02*
X0026049Y0008780D01*
X0049685Y0008780D01*
X0046162Y0012303D01*
X0045454Y0012303D01*
X0044954Y0012803D01*
X0043262Y0012803D01*
X0039562Y0016503D01*
X0038854Y0016503D01*
X0037800Y0017558D01*
X0037800Y0019049D01*
X0038154Y0019403D01*
X0036662Y0019403D01*
X0034800Y0021265D01*
X0034800Y0021158D01*
X0033746Y0020103D01*
X0032254Y0020103D01*
X0031200Y0021158D01*
X0031200Y0022649D01*
X0032254Y0023703D01*
X0032362Y0023703D01*
X0028862Y0027203D01*
X0027662Y0027203D01*
X0026278Y0028586D01*
X0026195Y0028166D01*
X0025938Y0027547D01*
X0025566Y0026990D01*
X0025093Y0026517D01*
X0024536Y0026144D01*
X0023917Y0025888D01*
X0023260Y0025757D01*
X0021025Y0025757D01*
X0021025Y0029057D01*
X0020825Y0029057D01*
X0020825Y0025757D01*
X0018590Y0025757D01*
X0017933Y0025888D01*
X0017315Y0026144D01*
X0016758Y0026517D01*
X0016284Y0026990D01*
X0015912Y0027547D01*
X0015702Y0028054D01*
X0015702Y0022327D01*
X0025463Y0022327D01*
X0026049Y0021741D01*
X0026049Y0021303D02*
X0031200Y0021303D01*
X0032600Y0020103D02*
X0032600Y0008780D01*
X0030600Y0008780D02*
X0030600Y0025465D01*
X0030762Y0025303D02*
X0015702Y0025303D01*
X0016600Y0026674D02*
X0016600Y0022327D01*
X0015702Y0023303D02*
X0031854Y0023303D01*
X0034438Y0025303D02*
X0052962Y0025303D01*
X0052600Y0025665D02*
X0052600Y0022003D01*
X0050600Y0022003D02*
X0050600Y0027665D01*
X0050962Y0027303D02*
X0032438Y0027303D01*
X0032600Y0027142D02*
X0032600Y0030014D01*
X0032833Y0030060D02*
X0033556Y0030359D01*
X0034207Y0030794D01*
X0034761Y0031348D01*
X0035196Y0031999D01*
X0035400Y0032492D01*
X0035400Y0032028D01*
X0037825Y0032028D01*
X0037825Y0031578D01*
X0038275Y0031578D01*
X0038275Y0029153D01*
X0038942Y0029153D01*
X0039457Y0029291D01*
X0039918Y0029558D01*
X0040083Y0029722D01*
X0040252Y0029553D01*
X0042848Y0029553D01*
X0043626Y0030331D01*
X0043654Y0030303D01*
X0045146Y0030303D01*
X0045646Y0030803D01*
X0047462Y0030803D01*
X0055762Y0022503D01*
X0055654Y0022503D01*
X0055154Y0022003D01*
X0037738Y0022003D01*
X0030700Y0029042D01*
X0030692Y0029050D01*
X0031200Y0029558D01*
X0031200Y0029923D01*
X0031282Y0029907D01*
X0031286Y0029907D01*
X0031286Y0033494D01*
X0032061Y0033494D01*
X0032061Y0029907D01*
X0032065Y0029907D01*
X0032833Y0030060D01*
X0032061Y0031303D02*
X0031286Y0031303D01*
X0031286Y0033303D02*
X0032061Y0033303D01*
X0032061Y0033494D02*
X0032061Y0034269D01*
X0035648Y0034269D01*
X0035648Y0034273D01*
X0035495Y0035041D01*
X0035196Y0035765D01*
X0034761Y0036416D01*
X0034207Y0036969D01*
X0033556Y0037404D01*
X0032833Y0037704D01*
X0032065Y0037857D01*
X0032061Y0037857D01*
X0032061Y0034269D01*
X0031286Y0034269D01*
X0031286Y0037857D01*
X0031282Y0037857D01*
X0030514Y0037704D01*
X0029790Y0037404D01*
X0029139Y0036969D01*
X0028900Y0036730D01*
X0028900Y0042965D01*
X0036100Y0050165D01*
X0036100Y0050105D01*
X0037052Y0049153D01*
X0038712Y0049153D01*
X0040262Y0047603D01*
X0053938Y0047603D01*
X0054700Y0048365D01*
X0055738Y0049403D01*
X0064754Y0049403D01*
X0065254Y0048903D01*
X0066746Y0048903D01*
X0067800Y0049958D01*
X0067800Y0050065D01*
X0069062Y0048803D01*
X0072538Y0048803D01*
X0073300Y0049565D01*
X0074088Y0050353D01*
X0075648Y0050353D01*
X0076600Y0051305D01*
X0076600Y0053603D01*
X0076600Y0038203D01*
X0078600Y0038203D02*
X0078600Y0051465D01*
X0078762Y0051303D02*
X0076598Y0051303D01*
X0078416Y0051649D02*
X0079002Y0051063D01*
X0079100Y0051063D01*
X0079100Y0038203D01*
X0062446Y0038203D01*
X0061946Y0038703D01*
X0060454Y0038703D01*
X0059400Y0037649D01*
X0059400Y0036158D01*
X0060454Y0035103D01*
X0061946Y0035103D01*
X0062446Y0035603D01*
X0079262Y0035603D01*
X0081000Y0033865D01*
X0081000Y0033158D01*
X0082054Y0032103D01*
X0083546Y0032103D01*
X0084046Y0032603D01*
X0088700Y0032603D01*
X0088700Y0022642D01*
X0088138Y0023203D01*
X0070738Y0023203D01*
X0049138Y0044803D01*
X0045646Y0044803D01*
X0045146Y0045303D01*
X0043654Y0045303D01*
X0042600Y0044249D01*
X0042600Y0047603D01*
X0040600Y0047603D02*
X0040600Y0034053D01*
X0040252Y0034053D02*
X0040083Y0033884D01*
X0039918Y0034049D01*
X0039457Y0034315D01*
X0038942Y0034453D01*
X0038275Y0034453D01*
X0038275Y0032028D01*
X0037825Y0032028D01*
X0037825Y0034453D01*
X0037158Y0034453D01*
X0036643Y0034315D01*
X0036182Y0034049D01*
X0035805Y0033672D01*
X0035621Y0033353D01*
X0035648Y0033490D01*
X0035648Y0033494D01*
X0032061Y0033494D01*
X0032600Y0033494D02*
X0032600Y0034269D01*
X0032061Y0035303D02*
X0031286Y0035303D01*
X0031286Y0037303D02*
X0032061Y0037303D01*
X0032600Y0037750D02*
X0032600Y0046665D01*
X0033238Y0047303D02*
X0079100Y0047303D01*
X0079100Y0045303D02*
X0031238Y0045303D01*
X0030600Y0044665D02*
X0030600Y0037721D01*
X0029639Y0037303D02*
X0028900Y0037303D01*
X0028900Y0039303D02*
X0050962Y0039303D01*
X0050600Y0039665D02*
X0050600Y0031342D01*
X0050638Y0031303D02*
X0058962Y0031303D01*
X0058600Y0031665D02*
X0058600Y0023342D01*
X0058638Y0023303D02*
X0066962Y0023303D01*
X0066600Y0023665D02*
X0066600Y0015342D01*
X0066638Y0015303D02*
X0080962Y0015303D01*
X0080900Y0015242D02*
X0080900Y0013603D01*
X0068338Y0013603D01*
X0049300Y0032642D01*
X0048538Y0033403D01*
X0045646Y0033403D01*
X0045146Y0033903D01*
X0043654Y0033903D01*
X0043326Y0033575D01*
X0042848Y0034053D01*
X0040252Y0034053D01*
X0038600Y0034453D02*
X0038600Y0049153D01*
X0036902Y0049303D02*
X0035238Y0049303D01*
X0034600Y0048665D02*
X0034600Y0036576D01*
X0033707Y0037303D02*
X0052962Y0037303D01*
X0052600Y0037665D02*
X0052600Y0029342D01*
X0052638Y0029303D02*
X0060962Y0029303D01*
X0060600Y0029665D02*
X0060600Y0021342D01*
X0060638Y0021303D02*
X0068962Y0021303D01*
X0068900Y0021365D02*
X0069662Y0020603D01*
X0085554Y0020603D01*
X0085200Y0020249D01*
X0085200Y0019542D01*
X0081662Y0016003D01*
X0080900Y0015242D01*
X0080600Y0013603D02*
X0080600Y0020603D01*
X0078600Y0020603D02*
X0078600Y0013603D01*
X0076600Y0013603D02*
X0076600Y0020603D01*
X0074600Y0020603D02*
X0074600Y0013603D01*
X0072600Y0013603D02*
X0072600Y0020603D01*
X0070600Y0020603D02*
X0070600Y0013603D01*
X0068600Y0013603D02*
X0068600Y0021665D01*
X0068900Y0021365D02*
X0048062Y0042203D01*
X0045646Y0042203D01*
X0045146Y0041703D01*
X0043654Y0041703D01*
X0042600Y0042758D01*
X0042600Y0034053D01*
X0044600Y0033903D02*
X0044600Y0041703D01*
X0042600Y0042758D02*
X0042600Y0044249D01*
X0042600Y0043303D02*
X0029238Y0043303D01*
X0028900Y0041303D02*
X0048962Y0041303D01*
X0048600Y0041665D02*
X0048600Y0033342D01*
X0048638Y0033303D02*
X0056962Y0033303D01*
X0056600Y0033665D02*
X0056600Y0025342D01*
X0056638Y0025303D02*
X0064962Y0025303D01*
X0064600Y0025665D02*
X0064600Y0017342D01*
X0064638Y0017303D02*
X0082962Y0017303D01*
X0082600Y0016942D02*
X0082600Y0020603D01*
X0084600Y0020603D02*
X0084600Y0018942D01*
X0084962Y0019303D02*
X0062638Y0019303D01*
X0062600Y0019342D02*
X0062600Y0027665D01*
X0062962Y0027303D02*
X0054638Y0027303D01*
X0054600Y0027342D02*
X0054600Y0035665D01*
X0054962Y0035303D02*
X0035387Y0035303D01*
X0034600Y0034269D02*
X0034600Y0033494D01*
X0035400Y0031578D02*
X0035400Y0030912D01*
X0035538Y0030397D01*
X0035805Y0029935D01*
X0036182Y0029558D01*
X0036643Y0029291D01*
X0037158Y0029153D01*
X0037825Y0029153D01*
X0037825Y0031578D01*
X0035400Y0031578D01*
X0035400Y0031303D02*
X0034716Y0031303D01*
X0034600Y0031187D02*
X0034600Y0025142D01*
X0036438Y0023303D02*
X0054962Y0023303D01*
X0054600Y0023665D02*
X0054600Y0022003D01*
X0048600Y0022003D02*
X0048600Y0029665D01*
X0048962Y0029303D02*
X0039477Y0029303D01*
X0038600Y0029153D02*
X0038600Y0022003D01*
X0040600Y0022003D02*
X0040600Y0029553D01*
X0042600Y0029553D02*
X0042600Y0022003D01*
X0044600Y0022003D02*
X0044600Y0030303D01*
X0046600Y0030803D02*
X0046600Y0022003D01*
X0038600Y0016758D02*
X0038600Y0008780D01*
X0036600Y0008780D02*
X0036600Y0019465D01*
X0038054Y0019303D02*
X0026049Y0019303D01*
X0026049Y0017303D02*
X0038054Y0017303D01*
X0040600Y0015465D02*
X0040600Y0008780D01*
X0042600Y0008780D02*
X0042600Y0013465D01*
X0042762Y0013303D02*
X0026049Y0013303D01*
X0026049Y0011303D02*
X0047162Y0011303D01*
X0046600Y0011865D02*
X0046600Y0008780D01*
X0048600Y0008780D02*
X0048600Y0009865D01*
X0049162Y0009303D02*
X0026049Y0009303D01*
X0026600Y0008780D02*
X0026600Y0028265D01*
X0025775Y0027303D02*
X0027562Y0027303D01*
X0028600Y0027203D02*
X0028600Y0008780D01*
X0034600Y0008780D02*
X0034600Y0020958D01*
X0036600Y0023142D02*
X0036600Y0029316D01*
X0036623Y0029303D02*
X0030946Y0029303D01*
X0025100Y0031791D02*
X0025093Y0031798D01*
X0024536Y0032171D01*
X0023917Y0032427D01*
X0023260Y0032557D01*
X0021025Y0032557D01*
X0021025Y0029258D01*
X0020825Y0029258D01*
X0020825Y0032557D01*
X0018590Y0032557D01*
X0017933Y0032427D01*
X0017315Y0032171D01*
X0016758Y0031798D01*
X0016284Y0031325D01*
X0015912Y0030768D01*
X0015702Y0030261D01*
X0015702Y0056597D01*
X0015912Y0056090D01*
X0016284Y0055533D01*
X0016758Y0055060D01*
X0017315Y0054688D01*
X0017933Y0054431D01*
X0018590Y0054301D01*
X0020825Y0054301D01*
X0020825Y0057601D01*
X0021025Y0057601D01*
X0021025Y0054301D01*
X0023260Y0054301D01*
X0023917Y0054431D01*
X0024536Y0054688D01*
X0025093Y0055060D01*
X0025566Y0055533D01*
X0025938Y0056090D01*
X0026195Y0056709D01*
X0026325Y0057366D01*
X0026325Y0057601D01*
X0021025Y0057601D01*
X0021025Y0057801D01*
X0020825Y0057801D01*
X0020825Y0061101D01*
X0018590Y0061101D01*
X0017933Y0060970D01*
X0017315Y0060714D01*
X0016758Y0060342D01*
X0016284Y0059868D01*
X0015912Y0059311D01*
X0015702Y0058805D01*
X0015702Y0063634D01*
X0025463Y0063634D01*
X0026049Y0064220D01*
X0026049Y0077646D01*
X0040777Y0077646D01*
X0040777Y0076721D01*
X0039730Y0076721D01*
X0038968Y0075960D01*
X0037312Y0074303D01*
X0035602Y0074303D01*
X0034650Y0073351D01*
X0034650Y0072151D01*
X0033600Y0073036D01*
X0033600Y0073599D01*
X0032546Y0074653D01*
X0031054Y0074653D01*
X0030000Y0073599D01*
X0030000Y0072108D01*
X0031054Y0071053D01*
X0031918Y0071053D01*
X0034650Y0068750D01*
X0034650Y0067255D01*
X0035602Y0066303D01*
X0038198Y0066303D01*
X0039150Y0067255D01*
X0039150Y0069851D01*
X0038698Y0070303D01*
X0039150Y0070755D01*
X0039150Y0072465D01*
X0040777Y0074092D01*
X0040777Y0072645D01*
X0041363Y0072059D01*
X0044357Y0072059D01*
X0044447Y0072149D01*
X0044658Y0071939D01*
X0044977Y0071754D01*
X0045333Y0071659D01*
X0046459Y0071659D01*
X0046459Y0075280D01*
X0046741Y0075280D01*
X0046741Y0071659D01*
X0047867Y0071659D01*
X0048223Y0071754D01*
X0048542Y0071939D01*
X0048753Y0072149D01*
X0048843Y0072059D01*
X0049100Y0072059D01*
X0049100Y0071765D01*
X0051000Y0069865D01*
X0051000Y0069158D01*
X0051610Y0068547D01*
X0048843Y0068547D01*
X0048257Y0067961D01*
X0048257Y0067003D01*
X0048154Y0067003D01*
X0047100Y0065949D01*
X0047100Y0064439D01*
X0048154Y0063385D01*
X0048257Y0063385D01*
X0048257Y0062409D01*
X0048843Y0061823D01*
X0051157Y0061823D01*
X0052026Y0060953D01*
X0053000Y0060953D01*
X0053000Y0060249D01*
X0052946Y0060303D01*
X0051454Y0060303D01*
X0050400Y0059249D01*
X0050400Y0057758D01*
X0050804Y0057353D01*
X0049552Y0057353D01*
X0048600Y0056401D01*
X0048600Y0062066D01*
X0047664Y0061303D02*
X0051676Y0061303D01*
X0052600Y0060953D02*
X0052600Y0060303D01*
X0050600Y0059449D02*
X0050600Y0061823D01*
X0048262Y0060510D02*
X0047995Y0060972D01*
X0047618Y0061349D01*
X0047157Y0061615D01*
X0046642Y0061753D01*
X0045975Y0061753D01*
X0045975Y0059328D01*
X0048400Y0059328D01*
X0048400Y0059995D01*
X0048262Y0060510D01*
X0046600Y0059328D02*
X0046600Y0058878D01*
X0045975Y0058878D02*
X0045975Y0059328D01*
X0045525Y0059328D01*
X0045525Y0061753D01*
X0044858Y0061753D01*
X0044343Y0061615D01*
X0044160Y0061509D01*
X0044160Y0061823D01*
X0044357Y0061823D01*
X0044943Y0062409D01*
X0044943Y0067961D01*
X0044357Y0068547D01*
X0041363Y0068547D01*
X0040777Y0067961D01*
X0040777Y0062409D01*
X0041363Y0061823D01*
X0041560Y0061823D01*
X0041560Y0061353D01*
X0040952Y0061353D01*
X0040000Y0060401D01*
X0040000Y0057805D01*
X0040652Y0057153D01*
X0040000Y0056501D01*
X0040000Y0055249D01*
X0039146Y0056103D01*
X0037654Y0056103D01*
X0036900Y0055349D01*
X0036746Y0055503D01*
X0035254Y0055503D01*
X0034961Y0055210D01*
X0034761Y0055510D01*
X0034207Y0056064D01*
X0033556Y0056499D01*
X0032833Y0056798D01*
X0032400Y0056884D01*
X0032400Y0058049D01*
X0031346Y0059103D01*
X0029854Y0059103D01*
X0028800Y0058049D01*
X0028800Y0057342D01*
X0025100Y0053642D01*
X0025100Y0031791D01*
X0024600Y0032128D02*
X0024600Y0054731D01*
X0025336Y0055303D02*
X0026762Y0055303D01*
X0026600Y0055142D02*
X0026600Y0077646D01*
X0026049Y0077303D02*
X0040777Y0077303D01*
X0040600Y0077646D02*
X0040600Y0076721D01*
X0038600Y0077646D02*
X0038600Y0075592D01*
X0038312Y0075303D02*
X0026049Y0075303D01*
X0026049Y0073303D02*
X0030000Y0073303D01*
X0030600Y0074199D02*
X0030600Y0077646D01*
X0028600Y0077646D02*
X0028600Y0057142D01*
X0028762Y0057303D02*
X0026313Y0057303D01*
X0026325Y0057801D02*
X0026325Y0058036D01*
X0026195Y0058693D01*
X0025938Y0059311D01*
X0025566Y0059868D01*
X0025093Y0060342D01*
X0024536Y0060714D01*
X0023917Y0060970D01*
X0023260Y0061101D01*
X0021025Y0061101D01*
X0021025Y0057801D01*
X0026325Y0057801D01*
X0024600Y0057801D02*
X0024600Y0057601D01*
X0022600Y0057601D02*
X0022600Y0057801D01*
X0021025Y0057303D02*
X0020825Y0057303D01*
X0020825Y0055303D02*
X0021025Y0055303D01*
X0020600Y0054301D02*
X0020600Y0032557D01*
X0020825Y0031303D02*
X0021025Y0031303D01*
X0022600Y0032557D02*
X0022600Y0054301D01*
X0025100Y0053303D02*
X0015702Y0053303D01*
X0015702Y0051303D02*
X0025100Y0051303D01*
X0025100Y0049303D02*
X0015702Y0049303D01*
X0015702Y0047303D02*
X0025100Y0047303D01*
X0025100Y0045303D02*
X0015702Y0045303D01*
X0015702Y0043303D02*
X0025100Y0043303D01*
X0025100Y0041303D02*
X0015702Y0041303D01*
X0015702Y0039303D02*
X0025100Y0039303D01*
X0025100Y0037303D02*
X0015702Y0037303D01*
X0015702Y0035303D02*
X0025100Y0035303D01*
X0025100Y0033303D02*
X0015702Y0033303D01*
X0016600Y0031641D02*
X0016600Y0055218D01*
X0016515Y0055303D02*
X0015702Y0055303D01*
X0018600Y0054301D02*
X0018600Y0032557D01*
X0016270Y0031303D02*
X0015702Y0031303D01*
X0020825Y0029303D02*
X0021025Y0029303D01*
X0021025Y0027303D02*
X0020825Y0027303D01*
X0020600Y0025757D02*
X0020600Y0022327D01*
X0018600Y0022327D02*
X0018600Y0025757D01*
X0016075Y0027303D02*
X0015702Y0027303D01*
X0022600Y0025757D02*
X0022600Y0022327D01*
X0024600Y0022327D02*
X0024600Y0026187D01*
X0036600Y0031578D02*
X0036600Y0032028D01*
X0037825Y0031303D02*
X0038275Y0031303D01*
X0038275Y0029303D02*
X0037825Y0029303D01*
X0037825Y0033303D02*
X0038275Y0033303D01*
X0036600Y0034290D02*
X0036600Y0049605D01*
X0044600Y0047603D02*
X0044600Y0045303D01*
X0046600Y0044803D02*
X0046600Y0047603D01*
X0048600Y0047603D02*
X0048600Y0044803D01*
X0050600Y0043342D02*
X0050600Y0047603D01*
X0052600Y0047603D02*
X0052600Y0041342D01*
X0052638Y0041303D02*
X0054600Y0041303D01*
X0054600Y0041258D02*
X0054600Y0039342D01*
X0054638Y0039303D02*
X0079100Y0039303D01*
X0079100Y0041303D02*
X0058200Y0041303D01*
X0058200Y0041258D02*
X0057146Y0040203D01*
X0055654Y0040203D01*
X0054600Y0041258D01*
X0054600Y0042749D01*
X0054600Y0048265D01*
X0055638Y0049303D02*
X0064854Y0049303D01*
X0064600Y0049403D02*
X0064600Y0038203D01*
X0062600Y0038203D02*
X0062600Y0049403D01*
X0060600Y0049403D02*
X0060600Y0038703D01*
X0059400Y0037303D02*
X0056638Y0037303D01*
X0056600Y0037342D02*
X0056600Y0040203D01*
X0058200Y0041258D02*
X0058200Y0042749D01*
X0057146Y0043803D01*
X0055654Y0043803D01*
X0054600Y0042749D01*
X0055154Y0043303D02*
X0050638Y0043303D01*
X0046600Y0042203D02*
X0046600Y0033403D01*
X0058600Y0035342D02*
X0058600Y0049403D01*
X0056600Y0049403D02*
X0056600Y0043803D01*
X0057646Y0043303D02*
X0079100Y0043303D01*
X0081700Y0043303D02*
X0094700Y0043303D01*
X0094700Y0041303D02*
X0081700Y0041303D01*
X0081700Y0039303D02*
X0094700Y0039303D01*
X0094700Y0038765D02*
X0104400Y0029065D01*
X0104400Y0028358D01*
X0104854Y0027903D01*
X0100162Y0027903D01*
X0099400Y0027142D01*
X0095500Y0023242D01*
X0095500Y0013342D01*
X0094862Y0012703D01*
X0091762Y0012703D01*
X0089662Y0010603D01*
X0085938Y0010603D01*
X0090538Y0015203D01*
X0091300Y0015965D01*
X0091300Y0032603D01*
X0091754Y0032603D01*
X0092254Y0032103D01*
X0093746Y0032103D01*
X0094800Y0033158D01*
X0094800Y0034649D01*
X0093746Y0035703D01*
X0092254Y0035703D01*
X0091754Y0035203D01*
X0084046Y0035203D01*
X0083546Y0035703D01*
X0082838Y0035703D01*
X0081700Y0036842D01*
X0081700Y0051063D01*
X0081798Y0051063D01*
X0082384Y0051649D01*
X0082384Y0051680D01*
X0083140Y0050925D01*
X0083140Y0049681D01*
X0083726Y0049095D01*
X0086523Y0049095D01*
X0087109Y0049681D01*
X0087109Y0051789D01*
X0086523Y0052374D01*
X0085380Y0052374D01*
X0085190Y0052580D01*
X0085160Y0052582D01*
X0084710Y0053032D01*
X0086523Y0053032D01*
X0087109Y0053618D01*
X0087109Y0055726D01*
X0086731Y0056103D01*
X0087146Y0056103D01*
X0088200Y0057158D01*
X0088200Y0057265D01*
X0088700Y0056765D01*
X0088700Y0056699D01*
X0088600Y0056599D01*
X0088600Y0056865D01*
X0088600Y0056599D02*
X0088600Y0055108D01*
X0088600Y0035203D01*
X0086600Y0035203D02*
X0086600Y0049172D01*
X0086731Y0049303D02*
X0094200Y0049303D01*
X0094200Y0049649D02*
X0094200Y0048158D01*
X0094700Y0047658D01*
X0094700Y0038765D01*
X0096162Y0037303D02*
X0081700Y0037303D01*
X0082600Y0035942D02*
X0082600Y0051465D01*
X0082762Y0051303D02*
X0082038Y0051303D01*
X0081700Y0049303D02*
X0083518Y0049303D01*
X0084600Y0049095D02*
X0084600Y0035203D01*
X0083946Y0035303D02*
X0091854Y0035303D01*
X0092600Y0035703D02*
X0092600Y0059003D01*
X0093554Y0059003D02*
X0094054Y0058503D01*
X0095546Y0058503D01*
X0096600Y0059558D01*
X0096600Y0061049D01*
X0095546Y0062103D01*
X0094054Y0062103D01*
X0093554Y0061603D01*
X0090538Y0061603D01*
X0088200Y0063942D01*
X0088200Y0064649D01*
X0087146Y0065703D01*
X0085654Y0065703D01*
X0084600Y0064649D01*
X0084600Y0066905D01*
X0084800Y0067105D02*
X0083848Y0066153D01*
X0082988Y0066153D01*
X0084600Y0064542D01*
X0084600Y0064649D01*
X0085254Y0065303D02*
X0083838Y0065303D01*
X0084800Y0067105D02*
X0084800Y0069701D01*
X0084700Y0069801D01*
X0084700Y0070295D01*
X0085023Y0070295D01*
X0085609Y0070881D01*
X0085609Y0072989D01*
X0085023Y0073574D01*
X0082226Y0073574D01*
X0081640Y0072989D01*
X0081640Y0072903D01*
X0081638Y0072903D01*
X0081538Y0073003D01*
X0080884Y0073657D01*
X0080884Y0074957D01*
X0080298Y0075543D01*
X0077502Y0075543D01*
X0076916Y0074957D01*
X0076916Y0072849D01*
X0077502Y0072263D01*
X0078601Y0072263D01*
X0079200Y0071665D01*
X0079200Y0070653D01*
X0077752Y0070653D01*
X0077150Y0070051D01*
X0077150Y0072151D01*
X0076198Y0073103D01*
X0073602Y0073103D01*
X0073152Y0072653D01*
X0071159Y0072653D01*
X0071159Y0073380D01*
X0071258Y0073353D01*
X0071925Y0073353D01*
X0071925Y0075778D01*
X0072375Y0075778D01*
X0072375Y0073353D01*
X0073042Y0073353D01*
X0073557Y0073491D01*
X0074018Y0073758D01*
X0074395Y0074135D01*
X0074662Y0074597D01*
X0074800Y0075112D01*
X0074800Y0075778D01*
X0072375Y0075778D01*
X0072375Y0076228D01*
X0074800Y0076228D01*
X0074800Y0076895D01*
X0074662Y0077410D01*
X0074526Y0077646D01*
X0090504Y0077646D01*
X0090062Y0077203D01*
X0085331Y0077203D01*
X0085023Y0077511D01*
X0082226Y0077511D01*
X0081640Y0076926D01*
X0081640Y0074818D01*
X0082226Y0074232D01*
X0085023Y0074232D01*
X0085394Y0074603D01*
X0091138Y0074603D01*
X0091738Y0075203D01*
X0091800Y0075203D01*
X0091800Y0073958D01*
X0092854Y0072903D01*
X0094346Y0072903D01*
X0095400Y0073958D01*
X0095400Y0075203D01*
X0102554Y0075203D01*
X0103054Y0074703D01*
X0104546Y0074703D01*
X0105600Y0075758D01*
X0105600Y0077249D01*
X0105203Y0077646D01*
X0136865Y0077646D01*
X0136865Y0073303D01*
X0136865Y0072752D01*
X0136420Y0073198D01*
X0135510Y0073575D01*
X0134525Y0073575D01*
X0133615Y0073198D01*
X0132918Y0072501D01*
X0132541Y0071591D01*
X0132541Y0070606D01*
X0132918Y0069696D01*
X0133310Y0069303D01*
X0129638Y0069303D01*
X0128938Y0070003D02*
X0125446Y0070003D01*
X0124946Y0070503D01*
X0123454Y0070503D01*
X0122700Y0069749D01*
X0121946Y0070503D01*
X0120454Y0070503D01*
X0119400Y0069449D01*
X0119400Y0067958D01*
X0120454Y0066903D01*
X0121946Y0066903D01*
X0122700Y0067658D01*
X0123454Y0066903D01*
X0124946Y0066903D01*
X0125446Y0067403D01*
X0127862Y0067403D01*
X0137265Y0057999D01*
X0137265Y0053499D01*
X0137851Y0052913D01*
X0139254Y0052913D01*
X0139374Y0052793D01*
X0139693Y0052609D01*
X0140050Y0052513D01*
X0140726Y0052513D01*
X0141000Y0052513D01*
X0141000Y0051158D01*
X0141754Y0050403D01*
X0141000Y0049649D01*
X0141000Y0048158D01*
X0142054Y0047103D01*
X0143546Y0047103D01*
X0144046Y0047603D01*
X0146338Y0047603D01*
X0148738Y0050003D01*
X0149500Y0050765D01*
X0149500Y0052913D01*
X0149506Y0052913D01*
X0150092Y0053499D01*
X0150092Y0063186D01*
X0149506Y0063772D01*
X0147694Y0063772D01*
X0147616Y0063694D01*
X0147538Y0063772D01*
X0145725Y0063772D01*
X0145647Y0063694D01*
X0145569Y0063772D01*
X0143757Y0063772D01*
X0143679Y0063694D01*
X0143601Y0063772D01*
X0142198Y0063772D01*
X0142078Y0063892D01*
X0141758Y0064076D01*
X0141402Y0064172D01*
X0140726Y0064172D01*
X0140050Y0064172D01*
X0139693Y0064076D01*
X0139374Y0063892D01*
X0139254Y0063772D01*
X0137851Y0063772D01*
X0137265Y0063186D01*
X0137265Y0061676D01*
X0133238Y0065703D01*
X0133346Y0065703D01*
X0133846Y0066203D01*
X0139738Y0066203D01*
X0140938Y0067403D01*
X0141409Y0067874D01*
X0141632Y0067874D01*
X0141710Y0067952D01*
X0141788Y0067874D01*
X0143601Y0067874D01*
X0143679Y0067952D01*
X0143757Y0067874D01*
X0145569Y0067874D01*
X0145647Y0067952D01*
X0145725Y0067874D01*
X0147384Y0067874D01*
X0147854Y0067403D01*
X0149346Y0067403D01*
X0150400Y0068458D01*
X0150400Y0069536D01*
X0150937Y0068999D01*
X0151848Y0068622D01*
X0152833Y0068622D01*
X0153743Y0068999D01*
X0154440Y0069696D01*
X0154817Y0070606D01*
X0154817Y0071591D01*
X0154440Y0072501D01*
X0153743Y0073198D01*
X0152833Y0073575D01*
X0151848Y0073575D01*
X0150937Y0073198D01*
X0150241Y0072501D01*
X0150100Y0072161D01*
X0150100Y0072692D01*
X0150204Y0073003D01*
X0150100Y0073210D01*
X0150100Y0073442D01*
X0150092Y0073449D01*
X0150092Y0077646D01*
X0157907Y0077646D01*
X0157907Y0038035D01*
X0151300Y0044642D01*
X0150538Y0045403D01*
X0145262Y0045403D01*
X0143562Y0043703D01*
X0141602Y0043703D01*
X0140800Y0042901D01*
X0140198Y0043503D01*
X0137602Y0043503D01*
X0136650Y0042551D01*
X0136650Y0040992D01*
X0129662Y0034003D01*
X0128446Y0034003D01*
X0127946Y0034503D01*
X0126454Y0034503D01*
X0125400Y0033449D01*
X0125400Y0031958D01*
X0126454Y0030903D01*
X0127946Y0030903D01*
X0128446Y0031403D01*
X0130738Y0031403D01*
X0136650Y0037315D01*
X0136650Y0036455D01*
X0137602Y0035503D01*
X0139362Y0035503D01*
X0139800Y0035065D01*
X0139800Y0034358D01*
X0140854Y0033303D01*
X0132638Y0033303D01*
X0132600Y0033265D02*
X0132600Y0028603D01*
X0130600Y0028603D02*
X0130600Y0031403D01*
X0128600Y0031403D02*
X0128600Y0028603D01*
X0126600Y0028603D02*
X0126600Y0030903D01*
X0126054Y0031303D02*
X0122838Y0031303D01*
X0122600Y0031065D02*
X0122600Y0028603D01*
X0120600Y0028603D02*
X0120600Y0030803D01*
X0122338Y0030803D02*
X0123100Y0031565D01*
X0133900Y0042365D01*
X0133900Y0051658D01*
X0134254Y0051303D01*
X0133900Y0051303D01*
X0134254Y0051303D02*
X0135746Y0051303D01*
X0141000Y0051303D01*
X0140726Y0052513D02*
X0140726Y0058342D01*
X0140726Y0058342D01*
X0140726Y0052513D01*
X0140600Y0052513D02*
X0140600Y0043101D01*
X0140398Y0043303D02*
X0141202Y0043303D01*
X0142600Y0043703D02*
X0142600Y0047103D01*
X0141854Y0047303D02*
X0133900Y0047303D01*
X0133900Y0045303D02*
X0145162Y0045303D01*
X0144600Y0044742D02*
X0144600Y0047603D01*
X0143746Y0047303D02*
X0157907Y0047303D01*
X0157907Y0045303D02*
X0150638Y0045303D01*
X0150600Y0045342D02*
X0150600Y0069336D01*
X0150633Y0069303D02*
X0150400Y0069303D01*
X0152600Y0068622D02*
X0152600Y0043342D01*
X0152638Y0043303D02*
X0157907Y0043303D01*
X0157907Y0041303D02*
X0154638Y0041303D01*
X0154600Y0041342D02*
X0154600Y0070083D01*
X0154047Y0069303D02*
X0157907Y0069303D01*
X0157907Y0067303D02*
X0140838Y0067303D01*
X0140600Y0067065D02*
X0140600Y0064172D01*
X0140726Y0064172D02*
X0140726Y0058343D01*
X0140726Y0058343D01*
X0140726Y0064172D01*
X0140726Y0063303D02*
X0140726Y0063303D01*
X0142600Y0063772D02*
X0142600Y0067874D01*
X0144600Y0067874D02*
X0144600Y0063772D01*
X0146600Y0063772D02*
X0146600Y0067874D01*
X0148600Y0067403D02*
X0148600Y0063772D01*
X0149975Y0063303D02*
X0157907Y0063303D01*
X0157907Y0061303D02*
X0150092Y0061303D01*
X0150092Y0059303D02*
X0157907Y0059303D01*
X0157907Y0057303D02*
X0150092Y0057303D01*
X0150092Y0055303D02*
X0157907Y0055303D01*
X0157907Y0053303D02*
X0149896Y0053303D01*
X0149500Y0051303D02*
X0157907Y0051303D01*
X0157907Y0049303D02*
X0148038Y0049303D01*
X0148600Y0049865D02*
X0148600Y0045403D01*
X0146600Y0045403D02*
X0146600Y0047865D01*
X0141000Y0049303D02*
X0133900Y0049303D01*
X0134600Y0051303D02*
X0134600Y0038942D01*
X0134962Y0039303D02*
X0130838Y0039303D01*
X0130600Y0039065D02*
X0130600Y0034942D01*
X0130962Y0035303D02*
X0126838Y0035303D01*
X0126600Y0035065D02*
X0126600Y0034503D01*
X0125400Y0033303D02*
X0124838Y0033303D01*
X0124600Y0033065D02*
X0124600Y0028603D01*
X0122338Y0030803D02*
X0112738Y0030803D01*
X0107338Y0025403D01*
X0157907Y0025403D01*
X0157907Y0032703D01*
X0156454Y0032703D01*
X0155400Y0033758D01*
X0155400Y0035249D01*
X0155900Y0035749D01*
X0155900Y0036365D01*
X0153700Y0038565D01*
X0153700Y0036965D01*
X0152938Y0036203D01*
X0142738Y0026003D01*
X0119446Y0026003D01*
X0118946Y0025503D01*
X0117454Y0025503D01*
X0116400Y0026558D01*
X0116400Y0028049D01*
X0117454Y0029103D01*
X0118946Y0029103D01*
X0119446Y0028603D01*
X0141662Y0028603D01*
X0149962Y0036903D01*
X0149854Y0036903D01*
X0149354Y0037403D01*
X0149250Y0037403D01*
X0149250Y0036755D01*
X0148298Y0035803D01*
X0147000Y0035803D01*
X0147000Y0034958D01*
X0145946Y0033903D01*
X0144454Y0033903D01*
X0143400Y0034958D01*
X0143400Y0035665D01*
X0143400Y0035665D01*
X0143400Y0034358D01*
X0142346Y0033303D01*
X0146362Y0033303D01*
X0146600Y0033542D02*
X0146600Y0034558D01*
X0147000Y0035303D02*
X0148362Y0035303D01*
X0148600Y0035542D02*
X0148600Y0036105D01*
X0149250Y0037303D02*
X0149454Y0037303D01*
X0152038Y0035303D02*
X0155454Y0035303D01*
X0155854Y0033303D02*
X0150038Y0033303D01*
X0150600Y0033865D02*
X0150600Y0025403D01*
X0148600Y0025403D02*
X0148600Y0031865D01*
X0148038Y0031303D02*
X0157907Y0031303D01*
X0156600Y0032703D02*
X0156600Y0025403D01*
X0154600Y0025403D02*
X0154600Y0037665D01*
X0154962Y0037303D02*
X0153700Y0037303D01*
X0152600Y0035865D02*
X0152600Y0025403D01*
X0146600Y0025403D02*
X0146600Y0029865D01*
X0146038Y0029303D02*
X0157907Y0029303D01*
X0157907Y0027303D02*
X0144038Y0027303D01*
X0144600Y0027865D02*
X0144600Y0025403D01*
X0142600Y0025403D02*
X0142600Y0026003D01*
X0140600Y0026003D02*
X0140600Y0025403D01*
X0138600Y0025403D02*
X0138600Y0026003D01*
X0136600Y0026003D02*
X0136600Y0025403D01*
X0134600Y0025403D02*
X0134600Y0026003D01*
X0132600Y0026003D02*
X0132600Y0025403D01*
X0130600Y0025403D02*
X0130600Y0026003D01*
X0128600Y0026003D02*
X0128600Y0025403D01*
X0126600Y0025403D02*
X0126600Y0026003D01*
X0124600Y0026003D02*
X0124600Y0025403D01*
X0122600Y0025403D02*
X0122600Y0026003D01*
X0120600Y0026003D02*
X0120600Y0025403D01*
X0118600Y0025403D02*
X0118600Y0025503D01*
X0116600Y0025403D02*
X0116600Y0026358D01*
X0116400Y0027303D02*
X0109238Y0027303D01*
X0108600Y0026665D02*
X0108600Y0025403D01*
X0110600Y0025403D02*
X0110600Y0028665D01*
X0111238Y0029303D02*
X0142362Y0029303D01*
X0142600Y0029542D02*
X0142600Y0033558D01*
X0142346Y0033303D02*
X0140854Y0033303D01*
X0140600Y0033558D02*
X0140600Y0028603D01*
X0138600Y0028603D02*
X0138600Y0035503D01*
X0139562Y0035303D02*
X0134638Y0035303D01*
X0134600Y0035265D02*
X0134600Y0028603D01*
X0136600Y0028603D02*
X0136600Y0037265D01*
X0136638Y0037303D02*
X0136650Y0037303D01*
X0132962Y0037303D02*
X0128838Y0037303D01*
X0128600Y0037065D02*
X0128600Y0034003D01*
X0128346Y0031303D02*
X0144362Y0031303D01*
X0144600Y0031542D02*
X0144600Y0033903D01*
X0143400Y0035303D02*
X0143400Y0035303D01*
X0136600Y0040942D02*
X0136600Y0052158D01*
X0136800Y0052358D02*
X0136800Y0053849D01*
X0135746Y0054903D01*
X0134254Y0054903D01*
X0133900Y0054549D01*
X0133900Y0060842D01*
X0133138Y0061603D01*
X0128338Y0066403D01*
X0122462Y0066403D01*
X0121700Y0065642D01*
X0121212Y0065153D01*
X0119452Y0065153D01*
X0118500Y0064201D01*
X0118500Y0064003D01*
X0117948Y0064003D01*
X0117598Y0064353D01*
X0117642Y0064353D01*
X0118157Y0064491D01*
X0118618Y0064758D01*
X0118995Y0065135D01*
X0119262Y0065597D01*
X0119400Y0066112D01*
X0119400Y0066778D01*
X0116975Y0066778D01*
X0116975Y0067228D01*
X0119400Y0067228D01*
X0119400Y0067895D01*
X0119262Y0068410D01*
X0118995Y0068872D01*
X0118618Y0069249D01*
X0118157Y0069515D01*
X0117642Y0069653D01*
X0116975Y0069653D01*
X0116975Y0067228D01*
X0116525Y0067228D01*
X0116525Y0069653D01*
X0115858Y0069653D01*
X0115343Y0069515D01*
X0114882Y0069249D01*
X0114717Y0069084D01*
X0114548Y0069253D01*
X0111952Y0069253D01*
X0111000Y0068301D01*
X0111000Y0065705D01*
X0111328Y0065377D01*
X0111328Y0064880D01*
X0110659Y0064880D01*
X0109991Y0064880D01*
X0109991Y0065851D01*
X0109300Y0066542D01*
X0109300Y0067565D01*
X0115738Y0074003D01*
X0115946Y0074003D01*
X0117000Y0075058D01*
X0117000Y0076549D01*
X0115946Y0077603D01*
X0114454Y0077603D01*
X0113400Y0076549D01*
X0113400Y0075342D01*
X0106700Y0068642D01*
X0106700Y0067603D01*
X0105102Y0067603D01*
X0103859Y0068847D01*
X0102513Y0068847D01*
X0100677Y0067011D01*
X0100677Y0066772D01*
X0100445Y0066772D01*
X0099929Y0066634D01*
X0099468Y0066367D01*
X0098996Y0065896D01*
X0100711Y0064181D01*
X0100393Y0063863D01*
X0098678Y0065577D01*
X0098207Y0065106D01*
X0097940Y0064644D01*
X0097802Y0064129D01*
X0097802Y0063596D01*
X0097940Y0063081D01*
X0098207Y0062619D01*
X0098678Y0062148D01*
X0100393Y0063863D01*
X0100711Y0063545D01*
X0098996Y0061830D01*
X0099468Y0061358D01*
X0099929Y0061092D01*
X0100445Y0060954D01*
X0100978Y0060954D01*
X0101493Y0061092D01*
X0101954Y0061358D01*
X0102426Y0061830D01*
X0100711Y0063545D01*
X0101029Y0063863D01*
X0102744Y0062148D01*
X0103215Y0062619D01*
X0103482Y0063081D01*
X0103620Y0063596D01*
X0103620Y0063829D01*
X0103859Y0063829D01*
X0105033Y0065003D01*
X0107162Y0065003D01*
X0107312Y0064853D01*
X0107391Y0064774D01*
X0107391Y0064480D01*
X0105816Y0064480D01*
X0105230Y0063895D01*
X0105230Y0061035D01*
X0102371Y0061035D01*
X0101785Y0060450D01*
X0101785Y0058637D01*
X0101863Y0058559D01*
X0101785Y0058481D01*
X0101785Y0056668D01*
X0101863Y0056591D01*
X0101785Y0056513D01*
X0101785Y0054700D01*
X0101863Y0054622D01*
X0101785Y0054544D01*
X0101785Y0052731D01*
X0101863Y0052654D01*
X0101785Y0052576D01*
X0101785Y0051173D01*
X0101665Y0051053D01*
X0101480Y0050733D01*
X0101385Y0050377D01*
X0101385Y0049701D01*
X0104163Y0049701D01*
X0104163Y0049701D01*
X0101385Y0049701D01*
X0101385Y0049024D01*
X0101443Y0048808D01*
X0100307Y0048808D01*
X0099474Y0047975D01*
X0098546Y0048903D01*
X0097800Y0048903D01*
X0097800Y0049649D01*
X0096746Y0050703D01*
X0095254Y0050703D01*
X0094200Y0049649D01*
X0094600Y0050049D02*
X0094600Y0058503D01*
X0093554Y0059003D02*
X0090138Y0059003D01*
X0090538Y0058603D01*
X0091300Y0057842D01*
X0091300Y0057499D01*
X0092200Y0056599D01*
X0092200Y0055108D01*
X0091146Y0054053D01*
X0089654Y0054053D01*
X0088600Y0055108D01*
X0088600Y0055303D02*
X0087109Y0055303D01*
X0086794Y0053303D02*
X0101785Y0053303D01*
X0101785Y0051303D02*
X0087109Y0051303D01*
X0086600Y0052297D02*
X0086600Y0053109D01*
X0090600Y0054053D02*
X0090600Y0035203D01*
X0094146Y0035303D02*
X0098162Y0035303D01*
X0098600Y0034865D02*
X0098600Y0026342D01*
X0099562Y0027303D02*
X0091300Y0027303D01*
X0088700Y0027303D02*
X0066638Y0027303D01*
X0066600Y0027342D02*
X0066600Y0035603D01*
X0068600Y0035603D02*
X0068600Y0025342D01*
X0068638Y0025303D02*
X0088700Y0025303D01*
X0091300Y0025303D02*
X0097562Y0025303D01*
X0096600Y0024342D02*
X0096600Y0036865D01*
X0094600Y0034849D02*
X0094600Y0047758D01*
X0094700Y0047303D02*
X0081700Y0047303D01*
X0081700Y0045303D02*
X0094700Y0045303D01*
X0098600Y0048849D02*
X0098600Y0062226D01*
X0097881Y0063303D02*
X0088838Y0063303D01*
X0088600Y0063542D02*
X0088600Y0065953D01*
X0088052Y0065953D02*
X0089762Y0065953D01*
X0090450Y0065265D01*
X0091212Y0064503D01*
X0096038Y0064503D01*
X0096938Y0065403D01*
X0097700Y0066165D01*
X0097700Y0067358D01*
X0097750Y0067408D01*
X0098254Y0066903D01*
X0099746Y0066903D01*
X0100800Y0067958D01*
X0100800Y0069449D01*
X0099746Y0070503D01*
X0099145Y0070503D01*
X0098800Y0070895D01*
X0098800Y0070942D01*
X0098448Y0071294D01*
X0098119Y0071667D01*
X0098072Y0071670D01*
X0098038Y0071703D01*
X0097541Y0071703D01*
X0097044Y0071734D01*
X0097008Y0071703D01*
X0095302Y0071703D01*
X0095274Y0071728D01*
X0094768Y0071703D01*
X0094262Y0071703D01*
X0094236Y0071677D01*
X0094199Y0071675D01*
X0093858Y0071300D01*
X0093500Y0070942D01*
X0093500Y0070905D01*
X0093090Y0070453D01*
X0091552Y0070453D01*
X0091100Y0070001D01*
X0090648Y0070453D01*
X0088052Y0070453D01*
X0087100Y0069501D01*
X0087100Y0066905D01*
X0088052Y0065953D01*
X0087546Y0065303D02*
X0090412Y0065303D01*
X0090600Y0065115D02*
X0090600Y0061603D01*
X0092600Y0061603D02*
X0092600Y0064503D01*
X0094600Y0064503D02*
X0094600Y0062103D01*
X0096346Y0061303D02*
X0099564Y0061303D01*
X0100600Y0060954D02*
X0100600Y0048808D01*
X0101385Y0049303D02*
X0097800Y0049303D01*
X0096600Y0050703D02*
X0096600Y0065065D01*
X0096838Y0065303D02*
X0098404Y0065303D01*
X0098600Y0065499D02*
X0098600Y0066903D01*
X0097854Y0067303D02*
X0097700Y0067303D01*
X0098952Y0065303D02*
X0099589Y0065303D01*
X0100600Y0064292D02*
X0100600Y0064070D01*
X0100600Y0063656D02*
X0100600Y0063433D01*
X0100470Y0063303D02*
X0099833Y0063303D01*
X0100952Y0063303D02*
X0101589Y0063303D01*
X0102600Y0062292D02*
X0102600Y0061035D01*
X0101859Y0061303D02*
X0105230Y0061303D01*
X0104600Y0061035D02*
X0104600Y0064570D01*
X0105230Y0063303D02*
X0103541Y0063303D01*
X0106600Y0064480D02*
X0106600Y0065003D01*
X0106600Y0067603D02*
X0106600Y0070158D01*
X0106800Y0070358D02*
X0105746Y0069303D01*
X0107362Y0069303D01*
X0106800Y0070358D02*
X0106800Y0071849D01*
X0105746Y0072903D01*
X0104254Y0072903D01*
X0103200Y0071849D01*
X0103200Y0070358D01*
X0104254Y0069303D01*
X0100800Y0069303D01*
X0100600Y0069649D02*
X0100600Y0069958D01*
X0100654Y0069903D02*
X0102146Y0069903D01*
X0103200Y0070958D01*
X0103200Y0072449D01*
X0102146Y0073503D01*
X0100654Y0073503D01*
X0099600Y0072449D01*
X0099600Y0070958D01*
X0100654Y0069903D01*
X0099600Y0071303D02*
X0098440Y0071303D01*
X0098600Y0071142D02*
X0098600Y0075203D01*
X0100600Y0075203D02*
X0100600Y0073449D01*
X0100454Y0073303D02*
X0094746Y0073303D01*
X0094600Y0073158D02*
X0094600Y0071703D01*
X0093861Y0071303D02*
X0085609Y0071303D01*
X0085294Y0073303D02*
X0092454Y0073303D01*
X0092600Y0073158D02*
X0092600Y0070453D01*
X0090600Y0070453D02*
X0090600Y0074603D01*
X0088600Y0074603D02*
X0088600Y0070453D01*
X0087100Y0069303D02*
X0084800Y0069303D01*
X0084800Y0067303D02*
X0087100Y0067303D01*
X0086600Y0065703D02*
X0086600Y0074603D01*
X0084600Y0074232D02*
X0084600Y0073574D01*
X0082600Y0073574D02*
X0082600Y0074232D01*
X0081955Y0073303D02*
X0081238Y0073303D01*
X0078600Y0072263D02*
X0078600Y0070653D01*
X0079200Y0071303D02*
X0077150Y0071303D01*
X0076600Y0072701D02*
X0076600Y0077646D01*
X0078600Y0077646D02*
X0078600Y0075543D01*
X0077262Y0075303D02*
X0074800Y0075303D01*
X0074600Y0075778D02*
X0074600Y0076228D01*
X0074600Y0074489D02*
X0074600Y0073103D01*
X0072600Y0073353D02*
X0072600Y0072653D01*
X0071159Y0073303D02*
X0076916Y0073303D01*
X0080538Y0075303D02*
X0081640Y0075303D01*
X0080600Y0075241D02*
X0080600Y0077646D01*
X0082018Y0077303D02*
X0074691Y0077303D01*
X0074600Y0077517D02*
X0074600Y0077646D01*
X0072600Y0076228D02*
X0072600Y0075778D01*
X0072375Y0075303D02*
X0071925Y0075303D01*
X0067559Y0073753D02*
X0067559Y0073321D01*
X0066800Y0073321D01*
X0065828Y0073321D01*
X0065472Y0073226D01*
X0065153Y0073042D01*
X0065033Y0072921D01*
X0063039Y0072921D01*
X0062454Y0072335D01*
X0062454Y0071203D01*
X0062441Y0071190D01*
X0062441Y0067517D01*
X0063600Y0066358D01*
X0064320Y0065638D01*
X0063704Y0065638D01*
X0062938Y0066403D01*
X0061950Y0066403D01*
X0061950Y0066551D01*
X0061781Y0066720D01*
X0061945Y0066885D01*
X0062212Y0067347D01*
X0062350Y0067862D01*
X0062350Y0068528D01*
X0059925Y0068528D01*
X0059925Y0068978D01*
X0062350Y0068978D01*
X0062350Y0069645D01*
X0062212Y0070160D01*
X0061945Y0070622D01*
X0061568Y0070999D01*
X0061107Y0071265D01*
X0060592Y0071403D01*
X0059925Y0071403D01*
X0059925Y0068978D01*
X0059475Y0068978D01*
X0059475Y0068528D01*
X0057050Y0068528D01*
X0057050Y0068114D01*
X0057045Y0068122D01*
X0056668Y0068499D01*
X0056207Y0068765D01*
X0055692Y0068903D01*
X0055025Y0068903D01*
X0055025Y0066478D01*
X0057450Y0066478D01*
X0057450Y0066893D01*
X0057455Y0066885D01*
X0057619Y0066720D01*
X0057450Y0066551D01*
X0057450Y0063955D01*
X0058402Y0063003D01*
X0060998Y0063003D01*
X0061798Y0063803D01*
X0061862Y0063803D01*
X0062454Y0063211D01*
X0062454Y0061271D01*
X0063039Y0060685D01*
X0063500Y0060685D01*
X0063500Y0056203D01*
X0057062Y0056203D01*
X0056600Y0055742D01*
X0056600Y0061005D01*
X0057050Y0061455D01*
X0057050Y0064051D01*
X0056881Y0064220D01*
X0057045Y0064385D01*
X0057312Y0064847D01*
X0057450Y0065362D01*
X0057450Y0066028D01*
X0055025Y0066028D01*
X0055025Y0066478D01*
X0054575Y0066478D01*
X0054575Y0068903D01*
X0054346Y0068903D01*
X0054600Y0069158D01*
X0054600Y0070103D01*
X0054600Y0066478D01*
X0054575Y0067303D02*
X0055025Y0067303D01*
X0056600Y0066478D02*
X0056600Y0066028D01*
X0057434Y0065303D02*
X0057450Y0065303D01*
X0057050Y0063303D02*
X0058102Y0063303D01*
X0058600Y0063003D02*
X0058600Y0056203D01*
X0060600Y0056203D02*
X0060600Y0063003D01*
X0061298Y0063303D02*
X0062362Y0063303D01*
X0062454Y0061303D02*
X0056898Y0061303D01*
X0056600Y0061005D02*
X0056600Y0055742D01*
X0056600Y0057303D02*
X0063500Y0057303D01*
X0062600Y0056203D02*
X0062600Y0061124D01*
X0063500Y0059303D02*
X0056600Y0059303D01*
X0050454Y0059303D02*
X0045975Y0059303D01*
X0045975Y0058878D02*
X0048400Y0058878D01*
X0048400Y0058212D01*
X0048262Y0057697D01*
X0047995Y0057235D01*
X0047914Y0057153D01*
X0047995Y0057072D01*
X0048262Y0056610D01*
X0048400Y0056095D01*
X0048400Y0055428D01*
X0045975Y0055428D01*
X0045975Y0054978D01*
X0048400Y0054978D01*
X0048400Y0054742D01*
X0048600Y0054942D01*
X0048600Y0056401D01*
X0048035Y0057303D02*
X0049502Y0057303D01*
X0050600Y0057353D02*
X0050600Y0057558D01*
X0048600Y0055303D02*
X0045975Y0055303D01*
X0045975Y0055428D02*
X0045525Y0055428D01*
X0045525Y0057853D01*
X0045525Y0058878D01*
X0045975Y0058878D01*
X0045975Y0055428D01*
X0046600Y0055428D02*
X0046600Y0054978D01*
X0045975Y0057303D02*
X0045525Y0057303D01*
X0040600Y0057205D02*
X0040600Y0057101D01*
X0040502Y0057303D02*
X0032400Y0057303D01*
X0032600Y0056845D02*
X0032600Y0070478D01*
X0033994Y0069303D02*
X0026049Y0069303D01*
X0026049Y0067303D02*
X0034650Y0067303D01*
X0034600Y0068792D02*
X0034600Y0055671D01*
X0034899Y0055303D02*
X0035054Y0055303D01*
X0036600Y0055503D02*
X0036600Y0066303D01*
X0038600Y0066705D02*
X0038600Y0056103D01*
X0039946Y0055303D02*
X0040000Y0055303D01*
X0040000Y0059303D02*
X0025942Y0059303D01*
X0024600Y0060671D02*
X0024600Y0063634D01*
X0022600Y0063634D02*
X0022600Y0061101D01*
X0020600Y0061101D02*
X0020600Y0063634D01*
X0018600Y0063634D02*
X0018600Y0061101D01*
X0016600Y0060184D02*
X0016600Y0063634D01*
X0015702Y0063303D02*
X0040777Y0063303D01*
X0040777Y0065303D02*
X0026049Y0065303D01*
X0026049Y0071303D02*
X0030804Y0071303D01*
X0030600Y0071508D02*
X0030600Y0059103D01*
X0021025Y0059303D02*
X0020825Y0059303D01*
X0015909Y0059303D02*
X0015702Y0059303D01*
X0015702Y0061303D02*
X0040902Y0061303D01*
X0040600Y0061001D02*
X0040600Y0073915D01*
X0040777Y0073303D02*
X0039988Y0073303D01*
X0042600Y0072059D02*
X0042600Y0068547D01*
X0044600Y0068304D02*
X0044600Y0071996D01*
X0046459Y0073303D02*
X0046741Y0073303D01*
X0048600Y0071996D02*
X0048600Y0068304D01*
X0048257Y0067303D02*
X0044943Y0067303D01*
X0044943Y0065303D02*
X0047100Y0065303D01*
X0048257Y0063303D02*
X0044943Y0063303D01*
X0044600Y0062066D02*
X0044600Y0061684D01*
X0045525Y0061303D02*
X0045975Y0061303D01*
X0046600Y0061753D02*
X0046600Y0075280D01*
X0046741Y0075280D02*
X0048257Y0075280D01*
X0048257Y0075563D01*
X0046741Y0075563D01*
X0046459Y0075563D01*
X0046459Y0077646D01*
X0046741Y0077646D01*
X0046741Y0075563D01*
X0046741Y0075280D01*
X0046741Y0075303D02*
X0048257Y0075303D01*
X0046600Y0075563D02*
X0046600Y0077646D01*
X0046459Y0077303D02*
X0046741Y0077303D01*
X0046459Y0075563D02*
X0046459Y0075280D01*
X0044943Y0075280D01*
X0044943Y0075563D01*
X0046459Y0075563D01*
X0046459Y0075303D02*
X0044943Y0075303D01*
X0049562Y0071303D02*
X0039150Y0071303D01*
X0039150Y0069303D02*
X0051000Y0069303D01*
X0050600Y0068547D02*
X0050600Y0070265D01*
X0052350Y0072192D02*
X0052160Y0072382D01*
X0052423Y0072645D01*
X0052423Y0072978D01*
X0054775Y0072978D01*
X0054775Y0072528D01*
X0055225Y0072528D01*
X0055225Y0070103D01*
X0055892Y0070103D01*
X0056407Y0070241D01*
X0056868Y0070508D01*
X0057245Y0070885D01*
X0057512Y0071347D01*
X0057650Y0071862D01*
X0057650Y0072528D01*
X0055225Y0072528D01*
X0055225Y0072978D01*
X0057650Y0072978D01*
X0057650Y0073645D01*
X0057512Y0074160D01*
X0057487Y0074203D01*
X0058902Y0074203D01*
X0059352Y0073753D01*
X0061948Y0073753D01*
X0062400Y0074205D01*
X0062852Y0073753D01*
X0065448Y0073753D01*
X0065898Y0074203D01*
X0066902Y0074203D01*
X0067352Y0073753D01*
X0067559Y0073753D01*
X0066800Y0073321D02*
X0066800Y0070445D01*
X0066800Y0070445D01*
X0066800Y0073321D01*
X0066800Y0073303D02*
X0066800Y0073303D01*
X0066600Y0073321D02*
X0066600Y0074203D01*
X0065761Y0073303D02*
X0057650Y0073303D01*
X0056600Y0072978D02*
X0056600Y0072528D01*
X0058600Y0071347D02*
X0058600Y0074203D01*
X0060600Y0073753D02*
X0060600Y0071401D01*
X0060965Y0071303D02*
X0062454Y0071303D01*
X0059925Y0071303D02*
X0059475Y0071303D01*
X0059475Y0071403D02*
X0058808Y0071403D01*
X0058293Y0071265D01*
X0057832Y0070999D01*
X0057455Y0070622D01*
X0057188Y0070160D01*
X0057050Y0069645D01*
X0057050Y0068978D01*
X0059475Y0068978D01*
X0059475Y0071403D01*
X0058435Y0071303D02*
X0057487Y0071303D01*
X0056600Y0070353D02*
X0056600Y0068538D01*
X0057050Y0069303D02*
X0054600Y0069303D01*
X0054600Y0070103D02*
X0054775Y0070103D01*
X0054775Y0072528D01*
X0052350Y0072528D01*
X0052350Y0072192D01*
X0052600Y0072528D02*
X0052600Y0072978D01*
X0054600Y0072978D02*
X0054600Y0072528D01*
X0054775Y0071303D02*
X0055225Y0071303D01*
X0058600Y0068978D02*
X0058600Y0068528D01*
X0059475Y0069303D02*
X0059925Y0069303D01*
X0060600Y0068978D02*
X0060600Y0068528D01*
X0062350Y0069303D02*
X0062441Y0069303D01*
X0062600Y0067358D02*
X0062600Y0066403D01*
X0062654Y0067303D02*
X0062187Y0067303D01*
X0065777Y0065303D02*
X0067823Y0065303D01*
X0067572Y0065052D01*
X0067572Y0061271D01*
X0068157Y0060685D01*
X0070561Y0060685D01*
X0071146Y0061271D01*
X0071146Y0064011D01*
X0071254Y0063903D01*
X0072700Y0063903D01*
X0072700Y0062005D01*
X0073652Y0061053D01*
X0076248Y0061053D01*
X0076417Y0061222D01*
X0076582Y0061058D01*
X0077043Y0060791D01*
X0077558Y0060653D01*
X0078225Y0060653D01*
X0078225Y0063078D01*
X0078675Y0063078D01*
X0078675Y0060653D01*
X0079342Y0060653D01*
X0079857Y0060791D01*
X0080318Y0061058D01*
X0080695Y0061435D01*
X0080962Y0061897D01*
X0081100Y0062412D01*
X0081100Y0063078D01*
X0078675Y0063078D01*
X0078675Y0063528D01*
X0081100Y0063528D01*
X0081100Y0064195D01*
X0081038Y0064427D01*
X0085762Y0059703D01*
X0085654Y0059703D01*
X0084600Y0058649D01*
X0084600Y0060865D01*
X0084162Y0061303D02*
X0080564Y0061303D01*
X0080600Y0061339D02*
X0080600Y0056203D01*
X0082138Y0056203D02*
X0082900Y0055442D01*
X0083140Y0055201D01*
X0083140Y0055726D01*
X0083726Y0056311D01*
X0083900Y0056311D01*
X0083900Y0057242D01*
X0084600Y0057942D01*
X0084600Y0058649D01*
X0085254Y0059303D02*
X0066100Y0059303D01*
X0066100Y0057303D02*
X0083962Y0057303D01*
X0082138Y0056203D02*
X0072662Y0056203D01*
X0071312Y0054853D01*
X0069552Y0054853D01*
X0068600Y0053901D01*
X0068600Y0060685D01*
X0067572Y0061303D02*
X0066100Y0061303D01*
X0066100Y0062238D02*
X0066147Y0062295D01*
X0066100Y0062767D01*
X0066100Y0063242D01*
X0066048Y0063294D01*
X0066041Y0063367D01*
X0066028Y0063377D01*
X0066028Y0065052D01*
X0065777Y0065303D01*
X0066600Y0065303D02*
X0066600Y0054942D01*
X0066238Y0055303D02*
X0071762Y0055303D01*
X0072600Y0056142D02*
X0072600Y0063903D01*
X0072700Y0063303D02*
X0071146Y0063303D01*
X0071146Y0061303D02*
X0073402Y0061303D01*
X0074600Y0061053D02*
X0074600Y0056203D01*
X0076600Y0056203D02*
X0076600Y0061047D01*
X0078225Y0061303D02*
X0078675Y0061303D01*
X0078600Y0063078D02*
X0078600Y0056203D01*
X0082600Y0055742D02*
X0082600Y0062865D01*
X0082162Y0063303D02*
X0078675Y0063303D01*
X0078675Y0063528D02*
X0078225Y0063528D01*
X0078225Y0065953D01*
X0077558Y0065953D01*
X0077043Y0065815D01*
X0076728Y0065633D01*
X0077150Y0066055D01*
X0077150Y0066755D01*
X0077752Y0066153D01*
X0079312Y0066153D01*
X0079574Y0065891D01*
X0079342Y0065953D01*
X0078675Y0065953D01*
X0078675Y0063528D01*
X0078600Y0063528D02*
X0078600Y0066153D01*
X0078675Y0065303D02*
X0078225Y0065303D01*
X0080600Y0063528D02*
X0080600Y0063078D01*
X0070600Y0060724D02*
X0070600Y0054853D01*
X0068600Y0053901D02*
X0068600Y0052942D01*
X0066100Y0055442D01*
X0066100Y0062238D01*
X0066047Y0063303D02*
X0067572Y0063303D01*
X0066800Y0071303D02*
X0066800Y0071303D01*
X0064600Y0072921D02*
X0064600Y0073753D01*
X0062600Y0074005D02*
X0062600Y0072482D01*
X0082600Y0077511D02*
X0082600Y0077646D01*
X0084600Y0077646D02*
X0084600Y0077511D01*
X0085231Y0077303D02*
X0090162Y0077303D01*
X0088600Y0077203D02*
X0088600Y0077646D01*
X0086600Y0077646D02*
X0086600Y0077203D01*
X0096600Y0075203D02*
X0096600Y0071703D01*
X0102346Y0073303D02*
X0111362Y0073303D01*
X0110600Y0072542D02*
X0110600Y0077646D01*
X0108600Y0077646D02*
X0108600Y0070542D01*
X0109362Y0071303D02*
X0106800Y0071303D01*
X0106600Y0072049D02*
X0106600Y0077646D01*
X0105546Y0077303D02*
X0114154Y0077303D01*
X0114600Y0077603D02*
X0114600Y0077646D01*
X0116246Y0077303D02*
X0136865Y0077303D01*
X0136600Y0077646D02*
X0136600Y0073018D01*
X0136865Y0073303D02*
X0138757Y0073303D01*
X0138757Y0073303D01*
X0136166Y0073303D01*
X0136865Y0073303D02*
X0138757Y0073303D01*
X0138600Y0073303D02*
X0138600Y0073303D01*
X0136865Y0075303D02*
X0117000Y0075303D01*
X0116600Y0074658D02*
X0116600Y0067228D01*
X0116525Y0067303D02*
X0116975Y0067303D01*
X0118600Y0067228D02*
X0118600Y0066778D01*
X0119400Y0067303D02*
X0120054Y0067303D01*
X0120600Y0066903D02*
X0120600Y0065153D01*
X0121362Y0065303D02*
X0119093Y0065303D01*
X0118600Y0064747D02*
X0118600Y0064301D01*
X0122600Y0066403D02*
X0122600Y0067558D01*
X0122346Y0067303D02*
X0123054Y0067303D01*
X0124600Y0066903D02*
X0124600Y0066403D01*
X0125346Y0067303D02*
X0127962Y0067303D01*
X0128600Y0066665D02*
X0128600Y0066142D01*
X0129438Y0065303D02*
X0129962Y0065303D01*
X0130600Y0064665D02*
X0130600Y0064142D01*
X0131438Y0063303D02*
X0131962Y0063303D01*
X0132600Y0062665D02*
X0132600Y0062142D01*
X0133438Y0061303D02*
X0133962Y0061303D01*
X0134600Y0060665D02*
X0134600Y0054903D01*
X0133900Y0055303D02*
X0137265Y0055303D01*
X0136600Y0054049D02*
X0136600Y0058665D01*
X0135962Y0059303D02*
X0133900Y0059303D01*
X0133900Y0057303D02*
X0137265Y0057303D01*
X0140726Y0057303D02*
X0140726Y0057303D01*
X0140726Y0055303D02*
X0140726Y0055303D01*
X0140726Y0053303D02*
X0140726Y0053303D01*
X0138600Y0052913D02*
X0138600Y0043503D01*
X0137402Y0043303D02*
X0133900Y0043303D01*
X0132838Y0041303D02*
X0136650Y0041303D01*
X0132600Y0041065D02*
X0132600Y0036942D01*
X0126406Y0038548D02*
X0121262Y0033403D01*
X0111662Y0033403D01*
X0108000Y0029742D01*
X0108000Y0029849D01*
X0106946Y0030903D01*
X0106238Y0030903D01*
X0100838Y0036303D01*
X0100946Y0036303D01*
X0102000Y0037358D01*
X0102000Y0037465D01*
X0104300Y0035165D01*
X0105062Y0034403D01*
X0111554Y0034403D01*
X0112054Y0033903D01*
X0113546Y0033903D01*
X0114600Y0034958D01*
X0114600Y0036449D01*
X0113546Y0037503D01*
X0113500Y0037503D01*
X0113500Y0040705D01*
X0114200Y0041405D01*
X0114952Y0040653D01*
X0117548Y0040653D01*
X0117717Y0040822D01*
X0117882Y0040658D01*
X0118343Y0040391D01*
X0118858Y0040253D01*
X0119525Y0040253D01*
X0119525Y0042678D01*
X0119975Y0042678D01*
X0119975Y0040253D01*
X0120642Y0040253D01*
X0121157Y0040391D01*
X0121618Y0040658D01*
X0121995Y0041035D01*
X0122262Y0041497D01*
X0122400Y0042012D01*
X0122400Y0042678D01*
X0119975Y0042678D01*
X0119975Y0043128D01*
X0122400Y0043128D01*
X0122400Y0043795D01*
X0122377Y0043881D01*
X0122654Y0043603D01*
X0123362Y0043603D01*
X0124957Y0042008D01*
X0124624Y0041675D01*
X0124624Y0040329D01*
X0126406Y0038548D01*
X0125650Y0039303D02*
X0113500Y0039303D01*
X0113746Y0037303D02*
X0125162Y0037303D01*
X0124600Y0036742D02*
X0124600Y0042365D01*
X0124624Y0041303D02*
X0122150Y0041303D01*
X0120600Y0040253D02*
X0120600Y0033403D01*
X0118600Y0033403D02*
X0118600Y0040322D01*
X0119525Y0041303D02*
X0119975Y0041303D01*
X0119525Y0042678D02*
X0118500Y0042678D01*
X0118500Y0043128D01*
X0119525Y0043128D01*
X0119525Y0042678D01*
X0119525Y0043128D02*
X0119525Y0045553D01*
X0118858Y0045553D01*
X0118343Y0045415D01*
X0117882Y0045149D01*
X0117717Y0044984D01*
X0117704Y0044997D01*
X0118057Y0045350D01*
X0118057Y0047809D01*
X0119124Y0047809D01*
X0120686Y0047809D01*
X0121042Y0047904D01*
X0121361Y0048088D01*
X0121622Y0048349D01*
X0121806Y0048668D01*
X0121902Y0049024D01*
X0121902Y0049701D01*
X0121902Y0050377D01*
X0121806Y0050733D01*
X0121622Y0051053D01*
X0121502Y0051173D01*
X0121502Y0052576D01*
X0121424Y0052654D01*
X0121502Y0052731D01*
X0121502Y0054544D01*
X0121424Y0054622D01*
X0121502Y0054700D01*
X0121502Y0056513D01*
X0121424Y0056591D01*
X0121502Y0056668D01*
X0121502Y0057803D01*
X0122150Y0057803D01*
X0122150Y0057355D01*
X0122319Y0057186D01*
X0122155Y0057022D01*
X0121888Y0056560D01*
X0121750Y0056045D01*
X0121750Y0055378D01*
X0124175Y0055378D01*
X0124175Y0054928D01*
X0124625Y0054928D01*
X0124625Y0052503D01*
X0125292Y0052503D01*
X0125300Y0052505D01*
X0125300Y0048949D01*
X0124700Y0048349D01*
X0124700Y0046858D01*
X0125200Y0046358D01*
X0125200Y0046047D01*
X0125962Y0045285D01*
X0127099Y0044147D01*
X0127099Y0043542D01*
X0125200Y0045442D01*
X0125200Y0046149D01*
X0124146Y0047203D01*
X0122654Y0047203D01*
X0121600Y0046149D01*
X0121600Y0045159D01*
X0121157Y0045415D01*
X0120642Y0045553D01*
X0119975Y0045553D01*
X0119975Y0043128D01*
X0119525Y0043128D01*
X0119525Y0043303D02*
X0119975Y0043303D01*
X0120600Y0043128D02*
X0120600Y0042678D01*
X0122400Y0043303D02*
X0123662Y0043303D01*
X0122600Y0043658D02*
X0122600Y0034742D01*
X0123162Y0035303D02*
X0114600Y0035303D01*
X0112600Y0033903D02*
X0112600Y0033403D01*
X0111562Y0033303D02*
X0103838Y0033303D01*
X0104600Y0032542D02*
X0104600Y0034865D01*
X0104162Y0035303D02*
X0101838Y0035303D01*
X0102600Y0034542D02*
X0102600Y0036865D01*
X0102162Y0037303D02*
X0101946Y0037303D01*
X0106600Y0034403D02*
X0106600Y0030903D01*
X0105838Y0031303D02*
X0109562Y0031303D01*
X0108600Y0030342D02*
X0108600Y0034403D01*
X0110600Y0034403D02*
X0110600Y0032342D01*
X0112600Y0030665D02*
X0112600Y0025403D01*
X0114600Y0025403D02*
X0114600Y0030803D01*
X0116600Y0030803D02*
X0116600Y0028249D01*
X0118600Y0029103D02*
X0118600Y0030803D01*
X0116600Y0033403D02*
X0116600Y0040653D01*
X0114600Y0041005D02*
X0114600Y0033403D01*
X0104162Y0029303D02*
X0091300Y0029303D01*
X0088700Y0029303D02*
X0064638Y0029303D01*
X0064600Y0029342D02*
X0064600Y0035603D01*
X0062600Y0035603D02*
X0062600Y0031342D01*
X0062638Y0031303D02*
X0088700Y0031303D01*
X0088600Y0032603D02*
X0088600Y0022742D01*
X0088700Y0023303D02*
X0070638Y0023303D01*
X0070600Y0023342D02*
X0070600Y0035603D01*
X0072600Y0035603D02*
X0072600Y0023203D01*
X0074600Y0023203D02*
X0074600Y0035603D01*
X0076600Y0035603D02*
X0076600Y0023203D01*
X0078600Y0023203D02*
X0078600Y0035603D01*
X0079562Y0035303D02*
X0062146Y0035303D01*
X0060600Y0035103D02*
X0060600Y0033342D01*
X0060638Y0033303D02*
X0081000Y0033303D01*
X0080600Y0034265D02*
X0080600Y0023203D01*
X0082600Y0023203D02*
X0082600Y0032103D01*
X0084600Y0032603D02*
X0084600Y0023203D01*
X0086600Y0023203D02*
X0086600Y0032603D01*
X0091300Y0031303D02*
X0102162Y0031303D01*
X0102600Y0030865D02*
X0102600Y0027903D01*
X0104600Y0027903D02*
X0104600Y0028158D01*
X0100600Y0027903D02*
X0100600Y0032865D01*
X0100162Y0033303D02*
X0094800Y0033303D01*
X0094600Y0032958D02*
X0094600Y0012703D01*
X0095462Y0013303D02*
X0088638Y0013303D01*
X0088600Y0013265D02*
X0088600Y0010603D01*
X0090362Y0011303D02*
X0086638Y0011303D01*
X0086600Y0011265D02*
X0086600Y0010603D01*
X0090600Y0011542D02*
X0090600Y0015265D01*
X0090638Y0015303D02*
X0095500Y0015303D01*
X0095500Y0017303D02*
X0091300Y0017303D01*
X0091300Y0019303D02*
X0095500Y0019303D01*
X0095500Y0021303D02*
X0091300Y0021303D01*
X0091300Y0023303D02*
X0095562Y0023303D01*
X0092600Y0032103D02*
X0092600Y0012703D01*
X0060254Y0035303D02*
X0058638Y0035303D01*
X0066600Y0038203D02*
X0066600Y0048903D01*
X0067146Y0049303D02*
X0068562Y0049303D01*
X0068600Y0049265D02*
X0068600Y0038203D01*
X0070600Y0038203D02*
X0070600Y0048803D01*
X0072600Y0048865D02*
X0072600Y0038203D01*
X0074600Y0038203D02*
X0074600Y0050353D01*
X0073038Y0049303D02*
X0079100Y0049303D01*
X0078416Y0051649D02*
X0078416Y0053603D01*
X0076600Y0053603D01*
X0076600Y0053303D02*
X0078416Y0053303D01*
X0083038Y0055303D02*
X0083140Y0055303D01*
X0090600Y0058542D02*
X0090600Y0059003D01*
X0091496Y0057303D02*
X0101785Y0057303D01*
X0101785Y0055303D02*
X0092200Y0055303D01*
X0096346Y0059303D02*
X0101785Y0059303D01*
X0110659Y0062102D02*
X0110659Y0064880D01*
X0110659Y0062102D01*
X0110659Y0062102D01*
X0110659Y0063303D02*
X0110659Y0063303D01*
X0110600Y0064880D02*
X0110600Y0068865D01*
X0111038Y0069303D02*
X0114976Y0069303D01*
X0114600Y0069201D02*
X0114600Y0072865D01*
X0115038Y0073303D02*
X0133869Y0073303D01*
X0134600Y0073575D02*
X0134600Y0077646D01*
X0132600Y0077646D02*
X0132600Y0071734D01*
X0132541Y0071303D02*
X0113038Y0071303D01*
X0112600Y0070865D02*
X0112600Y0069253D01*
X0111000Y0067303D02*
X0109300Y0067303D01*
X0109991Y0065303D02*
X0111328Y0065303D01*
X0116525Y0069303D02*
X0116975Y0069303D01*
X0118524Y0069303D02*
X0119400Y0069303D01*
X0118600Y0069259D02*
X0118600Y0077646D01*
X0116600Y0077646D02*
X0116600Y0076949D01*
X0113362Y0075303D02*
X0105146Y0075303D01*
X0104600Y0074758D02*
X0104600Y0072903D01*
X0102600Y0073049D02*
X0102600Y0075158D01*
X0103200Y0071303D02*
X0103200Y0071303D01*
X0102600Y0070358D02*
X0102600Y0068847D01*
X0104254Y0069303D02*
X0105746Y0069303D01*
X0104600Y0069303D02*
X0104600Y0068106D01*
X0100970Y0067303D02*
X0100146Y0067303D01*
X0100600Y0067758D02*
X0100600Y0066772D01*
X0112600Y0074542D02*
X0112600Y0077646D01*
X0120600Y0077646D02*
X0120600Y0070503D01*
X0122600Y0069849D02*
X0122600Y0077646D01*
X0124600Y0077646D02*
X0124600Y0070503D01*
X0126600Y0070003D02*
X0126600Y0077646D01*
X0128600Y0077646D02*
X0128600Y0070003D01*
X0128938Y0070003D02*
X0130800Y0068142D01*
X0130800Y0068249D01*
X0131854Y0069303D01*
X0133310Y0069303D01*
X0132600Y0069303D02*
X0132600Y0070463D01*
X0130600Y0068342D02*
X0130600Y0077646D01*
X0126600Y0067403D02*
X0126600Y0066403D01*
X0133638Y0065303D02*
X0157907Y0065303D01*
X0157907Y0071303D02*
X0154817Y0071303D01*
X0154600Y0072114D02*
X0154600Y0077646D01*
X0156600Y0077646D02*
X0156600Y0039342D01*
X0156638Y0039303D02*
X0157907Y0039303D01*
X0136800Y0052358D02*
X0135746Y0051303D01*
X0136800Y0053303D02*
X0137461Y0053303D01*
X0140726Y0059303D02*
X0140726Y0059303D01*
X0140726Y0061303D02*
X0140726Y0061303D01*
X0137383Y0063303D02*
X0135638Y0063303D01*
X0136600Y0062342D02*
X0136600Y0066203D01*
X0134600Y0066203D02*
X0134600Y0064342D01*
X0138600Y0063772D02*
X0138600Y0066203D01*
X0150100Y0073303D02*
X0151192Y0073303D01*
X0150600Y0072860D02*
X0150600Y0077646D01*
X0150092Y0077303D02*
X0157907Y0077303D01*
X0157907Y0075303D02*
X0150092Y0075303D01*
X0152600Y0073575D02*
X0152600Y0077646D01*
X0153489Y0073303D02*
X0157907Y0073303D01*
X0125300Y0055378D02*
X0125300Y0054928D01*
X0124625Y0054928D01*
X0124625Y0055378D01*
X0125300Y0055378D01*
X0125300Y0055303D02*
X0124625Y0055303D01*
X0124625Y0055378D02*
X0124625Y0056403D01*
X0124175Y0056403D01*
X0124175Y0055378D01*
X0124625Y0055378D01*
X0124600Y0055378D02*
X0124600Y0056403D01*
X0124175Y0055303D02*
X0121502Y0055303D01*
X0121750Y0054928D02*
X0121750Y0054262D01*
X0121888Y0053747D01*
X0122155Y0053285D01*
X0122532Y0052908D01*
X0122993Y0052641D01*
X0123508Y0052503D01*
X0124175Y0052503D01*
X0124175Y0054928D01*
X0121750Y0054928D01*
X0122600Y0054928D02*
X0122600Y0055378D01*
X0122202Y0057303D02*
X0121502Y0057303D01*
X0124600Y0054928D02*
X0124600Y0046749D01*
X0124700Y0047303D02*
X0118057Y0047303D01*
X0118600Y0047809D02*
X0118600Y0045484D01*
X0118149Y0045303D02*
X0118010Y0045303D01*
X0119525Y0045303D02*
X0119975Y0045303D01*
X0120600Y0045553D02*
X0120600Y0047809D01*
X0119124Y0047809D02*
X0119124Y0049701D01*
X0121902Y0049701D01*
X0119124Y0049701D01*
X0119124Y0049701D01*
X0119124Y0049701D01*
X0119124Y0047809D01*
X0119124Y0049303D02*
X0119124Y0049303D01*
X0120600Y0049701D02*
X0120600Y0049701D01*
X0121902Y0049303D02*
X0125300Y0049303D01*
X0125300Y0051303D02*
X0121502Y0051303D01*
X0122600Y0052868D02*
X0122600Y0047149D01*
X0121600Y0045303D02*
X0121351Y0045303D01*
X0118600Y0043128D02*
X0118600Y0042678D01*
X0114302Y0041303D02*
X0114098Y0041303D01*
X0125338Y0045303D02*
X0125943Y0045303D01*
X0126600Y0044647D02*
X0126600Y0044042D01*
X0124625Y0053303D02*
X0124175Y0053303D01*
X0122144Y0053303D02*
X0121502Y0053303D01*
X0116746Y0054222D02*
X0112043Y0054222D01*
X0112043Y0055022D01*
X0116746Y0055022D01*
X0116746Y0054700D01*
X0116824Y0054622D01*
X0116746Y0054544D01*
X0116746Y0054222D01*
X0116600Y0054222D02*
X0116600Y0055022D01*
X0114600Y0055022D02*
X0114600Y0054222D01*
X0112600Y0054222D02*
X0112600Y0055022D01*
X0102600Y0049701D02*
X0102600Y0049701D01*
X0068600Y0053303D02*
X0068238Y0053303D01*
X0040777Y0067303D02*
X0039150Y0067303D01*
X0034600Y0072193D02*
X0034600Y0077646D01*
X0032600Y0077646D02*
X0032600Y0074599D01*
X0033600Y0073303D02*
X0034650Y0073303D01*
X0036600Y0074303D02*
X0036600Y0077646D01*
X0040762Y0015303D02*
X0026049Y0015303D01*
X0044600Y0012803D02*
X0044600Y0008780D01*
M02*
